M48
; DRILL file KiCad 10.0.1 date 2026-05-19T08:06:55
; FORMAT={-:-/ absolute / metric / decimal}
; #@! TF.CreationDate,2026-05-19T08:06:55+02:00
; #@! TF.GenerationSoftware,Kicad,Pcbnew,10.0.1
; #@! TF.FileFunction,Plated,1,4,PTH
FMAT,2
METRIC
; #@! TA.AperFunction,Plated,PTH,ComponentDrill
T1C0.400
; #@! TA.AperFunction,Plated,PTH,ViaDrill
T2C0.500
; #@! TA.AperFunction,Plated,PTH,ComponentDrill
T3C0.600
; #@! TA.AperFunction,Plated,PTH,ComponentDrill
T4C1.000
; #@! TA.AperFunction,Plated,PTH,ComponentDrill
T5C1.067
; #@! TA.AperFunction,Plated,PTH,ComponentDrill
T6C1.300
%
G90
G05
T1
X217.15Y-102.99
X217.6Y-102.21
X218.05Y-102.99
X218.5Y-102.21
X218.95Y-102.99
X219.4Y-102.21
X219.85Y-102.99
X220.3Y-102.21
X220.75Y-102.99
X221.2Y-102.21
X221.65Y-102.99
X222.1Y-102.21
X222.55Y-102.99
X223.0Y-102.21
T2
X100.1Y-107.9
X100.985Y-75.003
X101.0Y-58.3
X110.35Y-86.55
X110.45Y-82.0
X113.0Y-109.584
X113.8Y-59.3
X113.838Y-73.198
X124.658Y-70.942
X124.9Y-65.85
X125.2Y-84.8
X130.0Y-88.5
X130.201Y-97.752
X137.354Y-62.554
X137.7Y-87.5
X137.975Y-83.5
X138.0Y-81.5
X138.0Y-82.5
X138.0Y-86.5
X138.0Y-88.5
X140.2Y-80.9
X142.0Y-84.9
X142.5Y-90.55
X143.5Y-90.55
X144.5Y-90.55
X144.9Y-74.725
X145.3Y-80.8
X145.9Y-88.6
X146.219Y-85.025
X146.7Y-83.4
X146.776Y-82.215
X147.0Y-62.7
X147.0Y-85.9
X147.25Y-88.85
X151.15Y-94.35
X152.3Y-98.2
X152.345Y-104.692
X153.0Y-90.75
X156.5Y-92.75
X157.4Y-104.004
X158.5Y-72.5
X159.0Y-91.7
X159.712Y-102.862
X159.75Y-71.0
X159.942Y-65.942
X160.5Y-93.5
X169.275Y-84.725
X170.575Y-70.6
X173.2Y-89.0
X173.3Y-90.738
X173.41Y-78.59
X173.475Y-80.325
X173.54Y-76.91
X174.7Y-97.95
X178.538Y-90.738
X178.539Y-94.142
X178.6Y-92.44
X182.5Y-72.2
X182.95Y-89.8
X184.4Y-107.7
X186.9Y-88.5
X187.0Y-97.9
X190.4Y-94.4
X192.0Y-124.6
X192.286Y-101.2
X192.4Y-123.4
X192.4Y-125.8
X193.6Y-123.4
X193.6Y-125.8
X193.801Y-92.95
X194.0Y-124.6
X194.5Y-85.9
X194.8Y-92.8
X196.0Y-101.4
X196.2Y-104.962
X196.7Y-90.2
X197.217Y-95.752
X197.342Y-93.2
X198.5Y-89.2
X199.2Y-85.9
X200.4Y-100.3
X201.2Y-103.6
X201.2Y-106.5
X201.7Y-89.2
X201.7Y-108.8
X201.92Y-94.938
X202.0Y-93.9
X202.0Y-111.4
X202.2Y-96.0
X202.3Y-97.2
X203.0Y-98.0
X203.2Y-111.5
X203.4Y-85.8
X203.6Y-93.9
X204.0Y-108.9
X204.6Y-121.6
X204.6Y-122.8
X204.6Y-124.1
X204.6Y-129.2
X204.9Y-105.4
X206.173Y-99.657
X206.697Y-98.75
X206.7Y-93.8
X206.7Y-102.3
X206.8Y-86.0
X207.245Y-95.711
X207.247Y-97.2
X207.25Y-94.711
X208.7Y-101.6
X210.0Y-128.5
X210.1Y-86.0
X210.3Y-97.0
X210.7Y-94.5
X212.6Y-99.5
X214.5Y-110.4
X215.4Y-100.5
X215.4Y-104.6
X216.8Y-122.0
X217.75Y-80.85
X218.063Y-129.937
X218.07Y-111.93
X220.0Y-112.0
X221.7Y-96.6
X221.9Y-112.0
X222.0Y-106.5
X223.175Y-112.175
X224.609Y-124.391
X227.9Y-105.8
X228.2Y-128.2
T4
X227.0Y-87.98
X227.0Y-90.52
X227.0Y-93.06
X227.0Y-95.6
T5
X90.314Y-80.34
X90.314Y-83.34
X90.314Y-86.34
X90.314Y-89.34
X93.314Y-80.34
X93.314Y-83.34
X93.314Y-86.34
X93.314Y-89.34
X189.64Y-131.786
X189.64Y-134.786
X192.64Y-131.786
X192.64Y-134.786
X218.84Y-131.936
X218.84Y-134.936
X218.936Y-57.16
X218.936Y-60.16
X218.936Y-63.16
X218.936Y-66.16
X221.84Y-131.936
X221.84Y-134.936
X221.936Y-57.16
X221.936Y-60.16
X221.936Y-63.16
X221.936Y-66.16
T6
X200.25Y-54.96
X200.25Y-59.96
X200.25Y-64.96
X200.25Y-79.96
X207.75Y-54.96
X207.75Y-59.96
X207.75Y-64.96
X207.75Y-79.96
T3
G00X217.2Y-101.17
M15
G01X218.2Y-101.17
M16
G05
G00X217.2Y-104.03
M15
G01X218.2Y-104.03
M16
G05
G00X222.0Y-101.17
M15
G01X223.0Y-101.17
M16
G05
G00X222.0Y-104.03
M15
G01X223.0Y-104.03
M16
G05
M30
