%TF.GenerationSoftware,KiCad,Pcbnew,10.0.1*%
%TF.CreationDate,2026-05-19T08:06:44+02:00*%
%TF.ProjectId,LV_Regulator,4c565f52-6567-4756-9c61-746f722e6b69,1.00*%
%TF.SameCoordinates,Original*%
%TF.FileFunction,Legend,Top*%
%TF.FilePolarity,Positive*%
%FSLAX46Y46*%
G04 Gerber Fmt 4.6, Leading zero omitted, Abs format (unit mm)*
G04 Created by KiCad (PCBNEW 10.0.1) date 2026-05-19 08:06:44*
%MOMM*%
%LPD*%
G01*
G04 APERTURE LIST*
%ADD10C,0.200000*%
%ADD11C,0.100000*%
%ADD12C,0.150000*%
%ADD13C,0.254000*%
%ADD14C,0.152400*%
%ADD15C,0.120000*%
%ADD16C,0.508000*%
%ADD17C,0.000000*%
G04 APERTURE END LIST*
D10*
X83000000Y-46000000D02*
X83000000Y-56000000D01*
X83000000Y-56000000D02*
X173000000Y-56000000D01*
X83000000Y-112000000D02*
X83000000Y-122000000D01*
X83000000Y-122000000D02*
X173000000Y-122000000D01*
X173000000Y-46000000D02*
X83000000Y-46000000D01*
X173000000Y-56000000D02*
X173000000Y-46000000D01*
X173000000Y-112000000D02*
X83000000Y-112000000D01*
X173000000Y-122000000D02*
X173000000Y-112000000D01*
D11*
X181000000Y-125450000D02*
X181000000Y-124350000D01*
X181000000Y-123950000D02*
X181000000Y-122850000D01*
X181000000Y-122450000D02*
X181000000Y-121350000D01*
X181000000Y-120950000D02*
X181000000Y-119850000D01*
X181000000Y-119450000D02*
X181000000Y-118350000D01*
X181000000Y-117950000D02*
X181000000Y-116850000D01*
X181000000Y-116450000D02*
X181000000Y-115350000D01*
X181000000Y-114950000D02*
X181000000Y-113850000D01*
X181000000Y-113450000D02*
X181000000Y-112350000D01*
X181000000Y-111950000D02*
X181000000Y-110850000D01*
X181000000Y-110450000D02*
X181000000Y-109350000D01*
X181000000Y-108950000D02*
X181000000Y-107850000D01*
X181000000Y-107450000D02*
X181000000Y-106350000D01*
X181000000Y-105950000D02*
X181000000Y-104850000D01*
X181000000Y-104450000D02*
X181000000Y-103350000D01*
X181000000Y-102950000D02*
X181000000Y-101850000D01*
X181000000Y-101450000D02*
X181000000Y-100350000D01*
X181000000Y-99950000D02*
X181000000Y-98850000D01*
X181000000Y-98450000D02*
X181000000Y-97350000D01*
X181000000Y-96950000D02*
X181000000Y-95850000D01*
X181000000Y-95450000D02*
X181000000Y-94350000D01*
X181000000Y-93950000D02*
X181000000Y-92850000D01*
X181000000Y-92450000D02*
X181000000Y-91350000D01*
X181000000Y-90950000D02*
X181000000Y-89850000D01*
X181000000Y-89450000D02*
X181000000Y-88350000D01*
X181000000Y-87950000D02*
X181000000Y-86850000D01*
X181000000Y-86450000D02*
X181000000Y-85350000D01*
X181000000Y-84950000D02*
X181000000Y-83850000D01*
X181000000Y-83450000D02*
X181000000Y-82350000D01*
X181000000Y-81950000D02*
X181000000Y-80850000D01*
X181000000Y-80450000D02*
X181000000Y-79350000D01*
X181000000Y-78950000D02*
X181000000Y-77850000D01*
X181000000Y-77450000D02*
X181000000Y-76350000D01*
X181000000Y-75950000D02*
X181000000Y-74850000D01*
X181000000Y-74450000D02*
X181000000Y-73350000D01*
X181000000Y-72950000D02*
X181000000Y-71850000D01*
X181000000Y-71450000D02*
X181000000Y-70350000D01*
X181000000Y-69950000D02*
X181000000Y-68850000D01*
X181000000Y-68450000D02*
X181000000Y-67350000D01*
X181000000Y-66950000D02*
X181000000Y-65850000D01*
X181000000Y-65450000D02*
X181000000Y-64350000D01*
X181000000Y-63950000D02*
X181000000Y-62850000D01*
X181000000Y-62450000D02*
X181000000Y-61350000D01*
X181000000Y-60950000D02*
X181000000Y-59850000D01*
X181000000Y-59450000D02*
X181000000Y-58350000D01*
X181000000Y-57950000D02*
X181000000Y-56850000D01*
X181000000Y-56450000D02*
X181000000Y-55350000D01*
X181000000Y-54950000D02*
X181000000Y-53850000D01*
X181000000Y-53450000D02*
X181000000Y-52350000D01*
X181000000Y-51950000D02*
X181000000Y-50850000D01*
X181000000Y-50450000D02*
X181000000Y-49350000D01*
X181000000Y-48950000D02*
X181000000Y-47850000D01*
X181000000Y-47450000D02*
X181000000Y-46350000D01*
X181000000Y-45950000D02*
X181000000Y-44850000D01*
X181000000Y-44450000D02*
X181000000Y-44050000D01*
X206500000Y-113500000D02*
X206500000Y-143500000D01*
X206500000Y-143500000D02*
X209000000Y-143500000D01*
X209000000Y-116000000D02*
X230500000Y-116000000D01*
X209000000Y-143500000D02*
X209000000Y-116000000D01*
X226500000Y-46000000D02*
X226000000Y-46500000D01*
X226500000Y-46000000D02*
X226500000Y-48500000D01*
X226500000Y-46000000D02*
X227000000Y-46500000D01*
X227000000Y-48500000D02*
G75*
G02*
X226000000Y-48500000I-500000J0D01*
G01*
X226000000Y-48500000D02*
G75*
G02*
X227000000Y-48500000I500000J0D01*
G01*
X226500000Y-48500000D02*
X229000000Y-48500000D01*
X229000000Y-48500000D02*
X228500000Y-48000000D01*
X229000000Y-48500000D02*
X228500000Y-49000000D01*
X230500000Y-113500000D02*
X206500000Y-113500000D01*
X230500000Y-116000000D02*
X230500000Y-113500000D01*
X224637217Y-49848609D02*
X224303884Y-49848609D01*
X224303884Y-50372419D02*
X224303884Y-49372419D01*
X224303884Y-49372419D02*
X224780074Y-49372419D01*
X225732455Y-50372419D02*
X225399122Y-49896228D01*
X225161027Y-50372419D02*
X225161027Y-49372419D01*
X225161027Y-49372419D02*
X225541979Y-49372419D01*
X225541979Y-49372419D02*
X225637217Y-49420038D01*
X225637217Y-49420038D02*
X225684836Y-49467657D01*
X225684836Y-49467657D02*
X225732455Y-49562895D01*
X225732455Y-49562895D02*
X225732455Y-49705752D01*
X225732455Y-49705752D02*
X225684836Y-49800990D01*
X225684836Y-49800990D02*
X225637217Y-49848609D01*
X225637217Y-49848609D02*
X225541979Y-49896228D01*
X225541979Y-49896228D02*
X225161027Y-49896228D01*
X226351503Y-49372419D02*
X226541979Y-49372419D01*
X226541979Y-49372419D02*
X226637217Y-49420038D01*
X226637217Y-49420038D02*
X226732455Y-49515276D01*
X226732455Y-49515276D02*
X226780074Y-49705752D01*
X226780074Y-49705752D02*
X226780074Y-50039085D01*
X226780074Y-50039085D02*
X226732455Y-50229561D01*
X226732455Y-50229561D02*
X226637217Y-50324800D01*
X226637217Y-50324800D02*
X226541979Y-50372419D01*
X226541979Y-50372419D02*
X226351503Y-50372419D01*
X226351503Y-50372419D02*
X226256265Y-50324800D01*
X226256265Y-50324800D02*
X226161027Y-50229561D01*
X226161027Y-50229561D02*
X226113408Y-50039085D01*
X226113408Y-50039085D02*
X226113408Y-49705752D01*
X226113408Y-49705752D02*
X226161027Y-49515276D01*
X226161027Y-49515276D02*
X226256265Y-49420038D01*
X226256265Y-49420038D02*
X226351503Y-49372419D01*
X227208646Y-50372419D02*
X227208646Y-49372419D01*
X227208646Y-49372419D02*
X227780074Y-50372419D01*
X227780074Y-50372419D02*
X227780074Y-49372419D01*
X228113408Y-49372419D02*
X228684836Y-49372419D01*
X228399122Y-50372419D02*
X228399122Y-49372419D01*
X225803884Y-44872419D02*
X225803884Y-45681942D01*
X225803884Y-45681942D02*
X225851503Y-45777180D01*
X225851503Y-45777180D02*
X225899122Y-45824800D01*
X225899122Y-45824800D02*
X225994360Y-45872419D01*
X225994360Y-45872419D02*
X226184836Y-45872419D01*
X226184836Y-45872419D02*
X226280074Y-45824800D01*
X226280074Y-45824800D02*
X226327693Y-45777180D01*
X226327693Y-45777180D02*
X226375312Y-45681942D01*
X226375312Y-45681942D02*
X226375312Y-44872419D01*
X226851503Y-45872419D02*
X226851503Y-44872419D01*
X226851503Y-44872419D02*
X227232455Y-44872419D01*
X227232455Y-44872419D02*
X227327693Y-44920038D01*
X227327693Y-44920038D02*
X227375312Y-44967657D01*
X227375312Y-44967657D02*
X227422931Y-45062895D01*
X227422931Y-45062895D02*
X227422931Y-45205752D01*
X227422931Y-45205752D02*
X227375312Y-45300990D01*
X227375312Y-45300990D02*
X227327693Y-45348609D01*
X227327693Y-45348609D02*
X227232455Y-45396228D01*
X227232455Y-45396228D02*
X226851503Y-45396228D01*
X229875312Y-48872419D02*
X229541979Y-48396228D01*
X229303884Y-48872419D02*
X229303884Y-47872419D01*
X229303884Y-47872419D02*
X229684836Y-47872419D01*
X229684836Y-47872419D02*
X229780074Y-47920038D01*
X229780074Y-47920038D02*
X229827693Y-47967657D01*
X229827693Y-47967657D02*
X229875312Y-48062895D01*
X229875312Y-48062895D02*
X229875312Y-48205752D01*
X229875312Y-48205752D02*
X229827693Y-48300990D01*
X229827693Y-48300990D02*
X229780074Y-48348609D01*
X229780074Y-48348609D02*
X229684836Y-48396228D01*
X229684836Y-48396228D02*
X229303884Y-48396228D01*
D12*
X214380952Y-53404819D02*
X213809524Y-53404819D01*
X214095238Y-53404819D02*
X214095238Y-52404819D01*
X214095238Y-52404819D02*
X214000000Y-52547676D01*
X214000000Y-52547676D02*
X213904762Y-52642914D01*
X213904762Y-52642914D02*
X213809524Y-52690533D01*
X215000000Y-52404819D02*
X215095238Y-52404819D01*
X215095238Y-52404819D02*
X215190476Y-52452438D01*
X215190476Y-52452438D02*
X215238095Y-52500057D01*
X215238095Y-52500057D02*
X215285714Y-52595295D01*
X215285714Y-52595295D02*
X215333333Y-52785771D01*
X215333333Y-52785771D02*
X215333333Y-53023866D01*
X215333333Y-53023866D02*
X215285714Y-53214342D01*
X215285714Y-53214342D02*
X215238095Y-53309580D01*
X215238095Y-53309580D02*
X215190476Y-53357200D01*
X215190476Y-53357200D02*
X215095238Y-53404819D01*
X215095238Y-53404819D02*
X215000000Y-53404819D01*
X215000000Y-53404819D02*
X214904762Y-53357200D01*
X214904762Y-53357200D02*
X214857143Y-53309580D01*
X214857143Y-53309580D02*
X214809524Y-53214342D01*
X214809524Y-53214342D02*
X214761905Y-53023866D01*
X214761905Y-53023866D02*
X214761905Y-52785771D01*
X214761905Y-52785771D02*
X214809524Y-52595295D01*
X214809524Y-52595295D02*
X214857143Y-52500057D01*
X214857143Y-52500057D02*
X214904762Y-52452438D01*
X214904762Y-52452438D02*
X215000000Y-52404819D01*
X215714286Y-53119104D02*
X216190476Y-53119104D01*
X215619048Y-53404819D02*
X215952381Y-52404819D01*
X215952381Y-52404819D02*
X216285714Y-53404819D01*
X188461905Y-122254819D02*
X188461905Y-121254819D01*
X188461905Y-121254819D02*
X188700000Y-121254819D01*
X188700000Y-121254819D02*
X188842857Y-121302438D01*
X188842857Y-121302438D02*
X188938095Y-121397676D01*
X188938095Y-121397676D02*
X188985714Y-121492914D01*
X188985714Y-121492914D02*
X189033333Y-121683390D01*
X189033333Y-121683390D02*
X189033333Y-121826247D01*
X189033333Y-121826247D02*
X188985714Y-122016723D01*
X188985714Y-122016723D02*
X188938095Y-122111961D01*
X188938095Y-122111961D02*
X188842857Y-122207200D01*
X188842857Y-122207200D02*
X188700000Y-122254819D01*
X188700000Y-122254819D02*
X188461905Y-122254819D01*
X189890476Y-121588152D02*
X189890476Y-122254819D01*
X189652381Y-121207200D02*
X189414286Y-121921485D01*
X189414286Y-121921485D02*
X190033333Y-121921485D01*
X92859580Y-60842857D02*
X92907200Y-60890476D01*
X92907200Y-60890476D02*
X92954819Y-61033333D01*
X92954819Y-61033333D02*
X92954819Y-61128571D01*
X92954819Y-61128571D02*
X92907200Y-61271428D01*
X92907200Y-61271428D02*
X92811961Y-61366666D01*
X92811961Y-61366666D02*
X92716723Y-61414285D01*
X92716723Y-61414285D02*
X92526247Y-61461904D01*
X92526247Y-61461904D02*
X92383390Y-61461904D01*
X92383390Y-61461904D02*
X92192914Y-61414285D01*
X92192914Y-61414285D02*
X92097676Y-61366666D01*
X92097676Y-61366666D02*
X92002438Y-61271428D01*
X92002438Y-61271428D02*
X91954819Y-61128571D01*
X91954819Y-61128571D02*
X91954819Y-61033333D01*
X91954819Y-61033333D02*
X92002438Y-60890476D01*
X92002438Y-60890476D02*
X92050057Y-60842857D01*
X91954819Y-60509523D02*
X91954819Y-59890476D01*
X91954819Y-59890476D02*
X92335771Y-60223809D01*
X92335771Y-60223809D02*
X92335771Y-60080952D01*
X92335771Y-60080952D02*
X92383390Y-59985714D01*
X92383390Y-59985714D02*
X92431009Y-59938095D01*
X92431009Y-59938095D02*
X92526247Y-59890476D01*
X92526247Y-59890476D02*
X92764342Y-59890476D01*
X92764342Y-59890476D02*
X92859580Y-59938095D01*
X92859580Y-59938095D02*
X92907200Y-59985714D01*
X92907200Y-59985714D02*
X92954819Y-60080952D01*
X92954819Y-60080952D02*
X92954819Y-60366666D01*
X92954819Y-60366666D02*
X92907200Y-60461904D01*
X92907200Y-60461904D02*
X92859580Y-60509523D01*
X92288152Y-59033333D02*
X92954819Y-59033333D01*
X91907200Y-59271428D02*
X92621485Y-59509523D01*
X92621485Y-59509523D02*
X92621485Y-58890476D01*
X200623809Y-83278628D02*
X200623809Y-83754819D01*
X200290476Y-82754819D02*
X200623809Y-83278628D01*
X200623809Y-83278628D02*
X200957142Y-82754819D01*
X201242857Y-82850057D02*
X201290476Y-82802438D01*
X201290476Y-82802438D02*
X201385714Y-82754819D01*
X201385714Y-82754819D02*
X201623809Y-82754819D01*
X201623809Y-82754819D02*
X201719047Y-82802438D01*
X201719047Y-82802438D02*
X201766666Y-82850057D01*
X201766666Y-82850057D02*
X201814285Y-82945295D01*
X201814285Y-82945295D02*
X201814285Y-83040533D01*
X201814285Y-83040533D02*
X201766666Y-83183390D01*
X201766666Y-83183390D02*
X201195238Y-83754819D01*
X201195238Y-83754819D02*
X201814285Y-83754819D01*
X134545180Y-105888095D02*
X133735657Y-105888095D01*
X133735657Y-105888095D02*
X133640419Y-105935714D01*
X133640419Y-105935714D02*
X133592800Y-105983333D01*
X133592800Y-105983333D02*
X133545180Y-106078571D01*
X133545180Y-106078571D02*
X133545180Y-106269047D01*
X133545180Y-106269047D02*
X133592800Y-106364285D01*
X133592800Y-106364285D02*
X133640419Y-106411904D01*
X133640419Y-106411904D02*
X133735657Y-106459523D01*
X133735657Y-106459523D02*
X134545180Y-106459523D01*
X134545180Y-107411904D02*
X134545180Y-106935714D01*
X134545180Y-106935714D02*
X134068990Y-106888095D01*
X134068990Y-106888095D02*
X134116609Y-106935714D01*
X134116609Y-106935714D02*
X134164228Y-107030952D01*
X134164228Y-107030952D02*
X134164228Y-107269047D01*
X134164228Y-107269047D02*
X134116609Y-107364285D01*
X134116609Y-107364285D02*
X134068990Y-107411904D01*
X134068990Y-107411904D02*
X133973752Y-107459523D01*
X133973752Y-107459523D02*
X133735657Y-107459523D01*
X133735657Y-107459523D02*
X133640419Y-107411904D01*
X133640419Y-107411904D02*
X133592800Y-107364285D01*
X133592800Y-107364285D02*
X133545180Y-107269047D01*
X133545180Y-107269047D02*
X133545180Y-107030952D01*
X133545180Y-107030952D02*
X133592800Y-106935714D01*
X133592800Y-106935714D02*
X133640419Y-106888095D01*
X126658619Y-94566813D02*
X126896714Y-94566813D01*
X126801476Y-94804908D02*
X126896714Y-94566813D01*
X126896714Y-94566813D02*
X126801476Y-94328718D01*
X127087190Y-94709670D02*
X126896714Y-94566813D01*
X126896714Y-94566813D02*
X127087190Y-94423956D01*
X127748980Y-94566814D02*
X127510885Y-94566814D01*
X127606123Y-94328719D02*
X127510885Y-94566814D01*
X127510885Y-94566814D02*
X127606123Y-94804909D01*
X127320409Y-94423957D02*
X127510885Y-94566814D01*
X127510885Y-94566814D02*
X127320409Y-94709671D01*
X196773809Y-136607200D02*
X196916666Y-136654819D01*
X196916666Y-136654819D02*
X197154761Y-136654819D01*
X197154761Y-136654819D02*
X197249999Y-136607200D01*
X197249999Y-136607200D02*
X197297618Y-136559580D01*
X197297618Y-136559580D02*
X197345237Y-136464342D01*
X197345237Y-136464342D02*
X197345237Y-136369104D01*
X197345237Y-136369104D02*
X197297618Y-136273866D01*
X197297618Y-136273866D02*
X197249999Y-136226247D01*
X197249999Y-136226247D02*
X197154761Y-136178628D01*
X197154761Y-136178628D02*
X196964285Y-136131009D01*
X196964285Y-136131009D02*
X196869047Y-136083390D01*
X196869047Y-136083390D02*
X196821428Y-136035771D01*
X196821428Y-136035771D02*
X196773809Y-135940533D01*
X196773809Y-135940533D02*
X196773809Y-135845295D01*
X196773809Y-135845295D02*
X196821428Y-135750057D01*
X196821428Y-135750057D02*
X196869047Y-135702438D01*
X196869047Y-135702438D02*
X196964285Y-135654819D01*
X196964285Y-135654819D02*
X197202380Y-135654819D01*
X197202380Y-135654819D02*
X197345237Y-135702438D01*
X197630952Y-135654819D02*
X198202380Y-135654819D01*
X197916666Y-136654819D02*
X197916666Y-135654819D01*
X198488095Y-136369104D02*
X198964285Y-136369104D01*
X198392857Y-136654819D02*
X198726190Y-135654819D01*
X198726190Y-135654819D02*
X199059523Y-136654819D01*
X199964285Y-136654819D02*
X199630952Y-136178628D01*
X199392857Y-136654819D02*
X199392857Y-135654819D01*
X199392857Y-135654819D02*
X199773809Y-135654819D01*
X199773809Y-135654819D02*
X199869047Y-135702438D01*
X199869047Y-135702438D02*
X199916666Y-135750057D01*
X199916666Y-135750057D02*
X199964285Y-135845295D01*
X199964285Y-135845295D02*
X199964285Y-135988152D01*
X199964285Y-135988152D02*
X199916666Y-136083390D01*
X199916666Y-136083390D02*
X199869047Y-136131009D01*
X199869047Y-136131009D02*
X199773809Y-136178628D01*
X199773809Y-136178628D02*
X199392857Y-136178628D01*
X200250000Y-135654819D02*
X200821428Y-135654819D01*
X200535714Y-136654819D02*
X200535714Y-135654819D01*
D13*
X206260237Y-133074318D02*
X206260237Y-131804318D01*
X207590714Y-132953365D02*
X207530238Y-133013842D01*
X207530238Y-133013842D02*
X207348809Y-133074318D01*
X207348809Y-133074318D02*
X207227857Y-133074318D01*
X207227857Y-133074318D02*
X207046428Y-133013842D01*
X207046428Y-133013842D02*
X206925476Y-132892889D01*
X206925476Y-132892889D02*
X206864999Y-132771937D01*
X206864999Y-132771937D02*
X206804523Y-132530032D01*
X206804523Y-132530032D02*
X206804523Y-132348603D01*
X206804523Y-132348603D02*
X206864999Y-132106699D01*
X206864999Y-132106699D02*
X206925476Y-131985746D01*
X206925476Y-131985746D02*
X207046428Y-131864794D01*
X207046428Y-131864794D02*
X207227857Y-131804318D01*
X207227857Y-131804318D02*
X207348809Y-131804318D01*
X207348809Y-131804318D02*
X207530238Y-131864794D01*
X207530238Y-131864794D02*
X207590714Y-131925270D01*
X208800238Y-133074318D02*
X208074523Y-133074318D01*
X208437380Y-133074318D02*
X208437380Y-131804318D01*
X208437380Y-131804318D02*
X208316428Y-131985746D01*
X208316428Y-131985746D02*
X208195476Y-132106699D01*
X208195476Y-132106699D02*
X208074523Y-132167175D01*
D12*
X190657142Y-83357200D02*
X189800000Y-84642914D01*
X190895238Y-83404819D02*
X191133333Y-84404819D01*
X191133333Y-84404819D02*
X191323809Y-83690533D01*
X191323809Y-83690533D02*
X191514285Y-84404819D01*
X191514285Y-84404819D02*
X191752381Y-83404819D01*
X192133333Y-84404819D02*
X192133333Y-83404819D01*
X192133333Y-83404819D02*
X192514285Y-83404819D01*
X192514285Y-83404819D02*
X192609523Y-83452438D01*
X192609523Y-83452438D02*
X192657142Y-83500057D01*
X192657142Y-83500057D02*
X192704761Y-83595295D01*
X192704761Y-83595295D02*
X192704761Y-83738152D01*
X192704761Y-83738152D02*
X192657142Y-83833390D01*
X192657142Y-83833390D02*
X192609523Y-83881009D01*
X192609523Y-83881009D02*
X192514285Y-83928628D01*
X192514285Y-83928628D02*
X192133333Y-83928628D01*
D13*
X171874318Y-86589762D02*
X170604318Y-86589762D01*
X171753365Y-85259285D02*
X171813842Y-85319761D01*
X171813842Y-85319761D02*
X171874318Y-85501190D01*
X171874318Y-85501190D02*
X171874318Y-85622142D01*
X171874318Y-85622142D02*
X171813842Y-85803571D01*
X171813842Y-85803571D02*
X171692889Y-85924523D01*
X171692889Y-85924523D02*
X171571937Y-85985000D01*
X171571937Y-85985000D02*
X171330032Y-86045476D01*
X171330032Y-86045476D02*
X171148603Y-86045476D01*
X171148603Y-86045476D02*
X170906699Y-85985000D01*
X170906699Y-85985000D02*
X170785746Y-85924523D01*
X170785746Y-85924523D02*
X170664794Y-85803571D01*
X170664794Y-85803571D02*
X170604318Y-85622142D01*
X170604318Y-85622142D02*
X170604318Y-85501190D01*
X170604318Y-85501190D02*
X170664794Y-85319761D01*
X170664794Y-85319761D02*
X170725270Y-85259285D01*
X170604318Y-84835952D02*
X170604318Y-84049761D01*
X170604318Y-84049761D02*
X171088127Y-84473095D01*
X171088127Y-84473095D02*
X171088127Y-84291666D01*
X171088127Y-84291666D02*
X171148603Y-84170714D01*
X171148603Y-84170714D02*
X171209080Y-84110238D01*
X171209080Y-84110238D02*
X171330032Y-84049761D01*
X171330032Y-84049761D02*
X171632413Y-84049761D01*
X171632413Y-84049761D02*
X171753365Y-84110238D01*
X171753365Y-84110238D02*
X171813842Y-84170714D01*
X171813842Y-84170714D02*
X171874318Y-84291666D01*
X171874318Y-84291666D02*
X171874318Y-84654523D01*
X171874318Y-84654523D02*
X171813842Y-84775476D01*
X171813842Y-84775476D02*
X171753365Y-84835952D01*
D12*
X214257142Y-90459580D02*
X214209523Y-90507200D01*
X214209523Y-90507200D02*
X214066666Y-90554819D01*
X214066666Y-90554819D02*
X213971428Y-90554819D01*
X213971428Y-90554819D02*
X213828571Y-90507200D01*
X213828571Y-90507200D02*
X213733333Y-90411961D01*
X213733333Y-90411961D02*
X213685714Y-90316723D01*
X213685714Y-90316723D02*
X213638095Y-90126247D01*
X213638095Y-90126247D02*
X213638095Y-89983390D01*
X213638095Y-89983390D02*
X213685714Y-89792914D01*
X213685714Y-89792914D02*
X213733333Y-89697676D01*
X213733333Y-89697676D02*
X213828571Y-89602438D01*
X213828571Y-89602438D02*
X213971428Y-89554819D01*
X213971428Y-89554819D02*
X214066666Y-89554819D01*
X214066666Y-89554819D02*
X214209523Y-89602438D01*
X214209523Y-89602438D02*
X214257142Y-89650057D01*
X214638095Y-89650057D02*
X214685714Y-89602438D01*
X214685714Y-89602438D02*
X214780952Y-89554819D01*
X214780952Y-89554819D02*
X215019047Y-89554819D01*
X215019047Y-89554819D02*
X215114285Y-89602438D01*
X215114285Y-89602438D02*
X215161904Y-89650057D01*
X215161904Y-89650057D02*
X215209523Y-89745295D01*
X215209523Y-89745295D02*
X215209523Y-89840533D01*
X215209523Y-89840533D02*
X215161904Y-89983390D01*
X215161904Y-89983390D02*
X214590476Y-90554819D01*
X214590476Y-90554819D02*
X215209523Y-90554819D01*
X216114285Y-89554819D02*
X215638095Y-89554819D01*
X215638095Y-89554819D02*
X215590476Y-90031009D01*
X215590476Y-90031009D02*
X215638095Y-89983390D01*
X215638095Y-89983390D02*
X215733333Y-89935771D01*
X215733333Y-89935771D02*
X215971428Y-89935771D01*
X215971428Y-89935771D02*
X216066666Y-89983390D01*
X216066666Y-89983390D02*
X216114285Y-90031009D01*
X216114285Y-90031009D02*
X216161904Y-90126247D01*
X216161904Y-90126247D02*
X216161904Y-90364342D01*
X216161904Y-90364342D02*
X216114285Y-90459580D01*
X216114285Y-90459580D02*
X216066666Y-90507200D01*
X216066666Y-90507200D02*
X215971428Y-90554819D01*
X215971428Y-90554819D02*
X215733333Y-90554819D01*
X215733333Y-90554819D02*
X215638095Y-90507200D01*
X215638095Y-90507200D02*
X215590476Y-90459580D01*
X94059580Y-101575357D02*
X94107200Y-101622976D01*
X94107200Y-101622976D02*
X94154819Y-101765833D01*
X94154819Y-101765833D02*
X94154819Y-101861071D01*
X94154819Y-101861071D02*
X94107200Y-102003928D01*
X94107200Y-102003928D02*
X94011961Y-102099166D01*
X94011961Y-102099166D02*
X93916723Y-102146785D01*
X93916723Y-102146785D02*
X93726247Y-102194404D01*
X93726247Y-102194404D02*
X93583390Y-102194404D01*
X93583390Y-102194404D02*
X93392914Y-102146785D01*
X93392914Y-102146785D02*
X93297676Y-102099166D01*
X93297676Y-102099166D02*
X93202438Y-102003928D01*
X93202438Y-102003928D02*
X93154819Y-101861071D01*
X93154819Y-101861071D02*
X93154819Y-101765833D01*
X93154819Y-101765833D02*
X93202438Y-101622976D01*
X93202438Y-101622976D02*
X93250057Y-101575357D01*
X93154819Y-101242023D02*
X93154819Y-100622976D01*
X93154819Y-100622976D02*
X93535771Y-100956309D01*
X93535771Y-100956309D02*
X93535771Y-100813452D01*
X93535771Y-100813452D02*
X93583390Y-100718214D01*
X93583390Y-100718214D02*
X93631009Y-100670595D01*
X93631009Y-100670595D02*
X93726247Y-100622976D01*
X93726247Y-100622976D02*
X93964342Y-100622976D01*
X93964342Y-100622976D02*
X94059580Y-100670595D01*
X94059580Y-100670595D02*
X94107200Y-100718214D01*
X94107200Y-100718214D02*
X94154819Y-100813452D01*
X94154819Y-100813452D02*
X94154819Y-101099166D01*
X94154819Y-101099166D02*
X94107200Y-101194404D01*
X94107200Y-101194404D02*
X94059580Y-101242023D01*
X93250057Y-100242023D02*
X93202438Y-100194404D01*
X93202438Y-100194404D02*
X93154819Y-100099166D01*
X93154819Y-100099166D02*
X93154819Y-99861071D01*
X93154819Y-99861071D02*
X93202438Y-99765833D01*
X93202438Y-99765833D02*
X93250057Y-99718214D01*
X93250057Y-99718214D02*
X93345295Y-99670595D01*
X93345295Y-99670595D02*
X93440533Y-99670595D01*
X93440533Y-99670595D02*
X93583390Y-99718214D01*
X93583390Y-99718214D02*
X94154819Y-100289642D01*
X94154819Y-100289642D02*
X94154819Y-99670595D01*
X226283333Y-121159580D02*
X226235714Y-121207200D01*
X226235714Y-121207200D02*
X226092857Y-121254819D01*
X226092857Y-121254819D02*
X225997619Y-121254819D01*
X225997619Y-121254819D02*
X225854762Y-121207200D01*
X225854762Y-121207200D02*
X225759524Y-121111961D01*
X225759524Y-121111961D02*
X225711905Y-121016723D01*
X225711905Y-121016723D02*
X225664286Y-120826247D01*
X225664286Y-120826247D02*
X225664286Y-120683390D01*
X225664286Y-120683390D02*
X225711905Y-120492914D01*
X225711905Y-120492914D02*
X225759524Y-120397676D01*
X225759524Y-120397676D02*
X225854762Y-120302438D01*
X225854762Y-120302438D02*
X225997619Y-120254819D01*
X225997619Y-120254819D02*
X226092857Y-120254819D01*
X226092857Y-120254819D02*
X226235714Y-120302438D01*
X226235714Y-120302438D02*
X226283333Y-120350057D01*
X227235714Y-121254819D02*
X226664286Y-121254819D01*
X226950000Y-121254819D02*
X226950000Y-120254819D01*
X226950000Y-120254819D02*
X226854762Y-120397676D01*
X226854762Y-120397676D02*
X226759524Y-120492914D01*
X226759524Y-120492914D02*
X226664286Y-120540533D01*
X229333333Y-129554819D02*
X229000000Y-129078628D01*
X228761905Y-129554819D02*
X228761905Y-128554819D01*
X228761905Y-128554819D02*
X229142857Y-128554819D01*
X229142857Y-128554819D02*
X229238095Y-128602438D01*
X229238095Y-128602438D02*
X229285714Y-128650057D01*
X229285714Y-128650057D02*
X229333333Y-128745295D01*
X229333333Y-128745295D02*
X229333333Y-128888152D01*
X229333333Y-128888152D02*
X229285714Y-128983390D01*
X229285714Y-128983390D02*
X229238095Y-129031009D01*
X229238095Y-129031009D02*
X229142857Y-129078628D01*
X229142857Y-129078628D02*
X228761905Y-129078628D01*
X230285714Y-129554819D02*
X229714286Y-129554819D01*
X230000000Y-129554819D02*
X230000000Y-128554819D01*
X230000000Y-128554819D02*
X229904762Y-128697676D01*
X229904762Y-128697676D02*
X229809524Y-128792914D01*
X229809524Y-128792914D02*
X229714286Y-128840533D01*
X225771429Y-100154819D02*
X225771429Y-99154819D01*
X225771429Y-99154819D02*
X226009524Y-99154819D01*
X226009524Y-99154819D02*
X226152381Y-99202438D01*
X226152381Y-99202438D02*
X226247619Y-99297676D01*
X226247619Y-99297676D02*
X226295238Y-99392914D01*
X226295238Y-99392914D02*
X226342857Y-99583390D01*
X226342857Y-99583390D02*
X226342857Y-99726247D01*
X226342857Y-99726247D02*
X226295238Y-99916723D01*
X226295238Y-99916723D02*
X226247619Y-100011961D01*
X226247619Y-100011961D02*
X226152381Y-100107200D01*
X226152381Y-100107200D02*
X226009524Y-100154819D01*
X226009524Y-100154819D02*
X225771429Y-100154819D01*
X226771429Y-100154819D02*
X226771429Y-99154819D01*
X227200000Y-99869104D02*
X227676190Y-99869104D01*
X227104762Y-100154819D02*
X227438095Y-99154819D01*
X227438095Y-99154819D02*
X227771428Y-100154819D01*
X228628571Y-99202438D02*
X228533333Y-99154819D01*
X228533333Y-99154819D02*
X228390476Y-99154819D01*
X228390476Y-99154819D02*
X228247619Y-99202438D01*
X228247619Y-99202438D02*
X228152381Y-99297676D01*
X228152381Y-99297676D02*
X228104762Y-99392914D01*
X228104762Y-99392914D02*
X228057143Y-99583390D01*
X228057143Y-99583390D02*
X228057143Y-99726247D01*
X228057143Y-99726247D02*
X228104762Y-99916723D01*
X228104762Y-99916723D02*
X228152381Y-100011961D01*
X228152381Y-100011961D02*
X228247619Y-100107200D01*
X228247619Y-100107200D02*
X228390476Y-100154819D01*
X228390476Y-100154819D02*
X228485714Y-100154819D01*
X228485714Y-100154819D02*
X228628571Y-100107200D01*
X228628571Y-100107200D02*
X228676190Y-100059580D01*
X228676190Y-100059580D02*
X228676190Y-99726247D01*
X228676190Y-99726247D02*
X228485714Y-99726247D01*
X216733333Y-124059580D02*
X216685714Y-124107200D01*
X216685714Y-124107200D02*
X216542857Y-124154819D01*
X216542857Y-124154819D02*
X216447619Y-124154819D01*
X216447619Y-124154819D02*
X216304762Y-124107200D01*
X216304762Y-124107200D02*
X216209524Y-124011961D01*
X216209524Y-124011961D02*
X216161905Y-123916723D01*
X216161905Y-123916723D02*
X216114286Y-123726247D01*
X216114286Y-123726247D02*
X216114286Y-123583390D01*
X216114286Y-123583390D02*
X216161905Y-123392914D01*
X216161905Y-123392914D02*
X216209524Y-123297676D01*
X216209524Y-123297676D02*
X216304762Y-123202438D01*
X216304762Y-123202438D02*
X216447619Y-123154819D01*
X216447619Y-123154819D02*
X216542857Y-123154819D01*
X216542857Y-123154819D02*
X216685714Y-123202438D01*
X216685714Y-123202438D02*
X216733333Y-123250057D01*
X217066667Y-123154819D02*
X217685714Y-123154819D01*
X217685714Y-123154819D02*
X217352381Y-123535771D01*
X217352381Y-123535771D02*
X217495238Y-123535771D01*
X217495238Y-123535771D02*
X217590476Y-123583390D01*
X217590476Y-123583390D02*
X217638095Y-123631009D01*
X217638095Y-123631009D02*
X217685714Y-123726247D01*
X217685714Y-123726247D02*
X217685714Y-123964342D01*
X217685714Y-123964342D02*
X217638095Y-124059580D01*
X217638095Y-124059580D02*
X217590476Y-124107200D01*
X217590476Y-124107200D02*
X217495238Y-124154819D01*
X217495238Y-124154819D02*
X217209524Y-124154819D01*
X217209524Y-124154819D02*
X217114286Y-124107200D01*
X217114286Y-124107200D02*
X217066667Y-124059580D01*
D13*
X112674318Y-85016428D02*
X112069556Y-85439762D01*
X112674318Y-85742143D02*
X111404318Y-85742143D01*
X111404318Y-85742143D02*
X111404318Y-85258333D01*
X111404318Y-85258333D02*
X111464794Y-85137381D01*
X111464794Y-85137381D02*
X111525270Y-85076904D01*
X111525270Y-85076904D02*
X111646222Y-85016428D01*
X111646222Y-85016428D02*
X111827651Y-85016428D01*
X111827651Y-85016428D02*
X111948603Y-85076904D01*
X111948603Y-85076904D02*
X112009080Y-85137381D01*
X112009080Y-85137381D02*
X112069556Y-85258333D01*
X112069556Y-85258333D02*
X112069556Y-85742143D01*
X111404318Y-83867381D02*
X111404318Y-84472143D01*
X111404318Y-84472143D02*
X112009080Y-84532619D01*
X112009080Y-84532619D02*
X111948603Y-84472143D01*
X111948603Y-84472143D02*
X111888127Y-84351190D01*
X111888127Y-84351190D02*
X111888127Y-84048809D01*
X111888127Y-84048809D02*
X111948603Y-83927857D01*
X111948603Y-83927857D02*
X112009080Y-83867381D01*
X112009080Y-83867381D02*
X112130032Y-83806904D01*
X112130032Y-83806904D02*
X112432413Y-83806904D01*
X112432413Y-83806904D02*
X112553365Y-83867381D01*
X112553365Y-83867381D02*
X112613842Y-83927857D01*
X112613842Y-83927857D02*
X112674318Y-84048809D01*
X112674318Y-84048809D02*
X112674318Y-84351190D01*
X112674318Y-84351190D02*
X112613842Y-84472143D01*
X112613842Y-84472143D02*
X112553365Y-84532619D01*
X111404318Y-83020714D02*
X111404318Y-82899761D01*
X111404318Y-82899761D02*
X111464794Y-82778809D01*
X111464794Y-82778809D02*
X111525270Y-82718333D01*
X111525270Y-82718333D02*
X111646222Y-82657857D01*
X111646222Y-82657857D02*
X111888127Y-82597380D01*
X111888127Y-82597380D02*
X112190508Y-82597380D01*
X112190508Y-82597380D02*
X112432413Y-82657857D01*
X112432413Y-82657857D02*
X112553365Y-82718333D01*
X112553365Y-82718333D02*
X112613842Y-82778809D01*
X112613842Y-82778809D02*
X112674318Y-82899761D01*
X112674318Y-82899761D02*
X112674318Y-83020714D01*
X112674318Y-83020714D02*
X112613842Y-83141666D01*
X112613842Y-83141666D02*
X112553365Y-83202142D01*
X112553365Y-83202142D02*
X112432413Y-83262619D01*
X112432413Y-83262619D02*
X112190508Y-83323095D01*
X112190508Y-83323095D02*
X111888127Y-83323095D01*
X111888127Y-83323095D02*
X111646222Y-83262619D01*
X111646222Y-83262619D02*
X111525270Y-83202142D01*
X111525270Y-83202142D02*
X111464794Y-83141666D01*
X111464794Y-83141666D02*
X111404318Y-83020714D01*
X171924318Y-100589762D02*
X170654318Y-100589762D01*
X171803365Y-99259285D02*
X171863842Y-99319761D01*
X171863842Y-99319761D02*
X171924318Y-99501190D01*
X171924318Y-99501190D02*
X171924318Y-99622142D01*
X171924318Y-99622142D02*
X171863842Y-99803571D01*
X171863842Y-99803571D02*
X171742889Y-99924523D01*
X171742889Y-99924523D02*
X171621937Y-99985000D01*
X171621937Y-99985000D02*
X171380032Y-100045476D01*
X171380032Y-100045476D02*
X171198603Y-100045476D01*
X171198603Y-100045476D02*
X170956699Y-99985000D01*
X170956699Y-99985000D02*
X170835746Y-99924523D01*
X170835746Y-99924523D02*
X170714794Y-99803571D01*
X170714794Y-99803571D02*
X170654318Y-99622142D01*
X170654318Y-99622142D02*
X170654318Y-99501190D01*
X170654318Y-99501190D02*
X170714794Y-99319761D01*
X170714794Y-99319761D02*
X170775270Y-99259285D01*
X170775270Y-98775476D02*
X170714794Y-98715000D01*
X170714794Y-98715000D02*
X170654318Y-98594047D01*
X170654318Y-98594047D02*
X170654318Y-98291666D01*
X170654318Y-98291666D02*
X170714794Y-98170714D01*
X170714794Y-98170714D02*
X170775270Y-98110238D01*
X170775270Y-98110238D02*
X170896222Y-98049761D01*
X170896222Y-98049761D02*
X171017175Y-98049761D01*
X171017175Y-98049761D02*
X171198603Y-98110238D01*
X171198603Y-98110238D02*
X171924318Y-98835952D01*
X171924318Y-98835952D02*
X171924318Y-98049761D01*
D12*
X191257142Y-93204819D02*
X190923809Y-92728628D01*
X190685714Y-93204819D02*
X190685714Y-92204819D01*
X190685714Y-92204819D02*
X191066666Y-92204819D01*
X191066666Y-92204819D02*
X191161904Y-92252438D01*
X191161904Y-92252438D02*
X191209523Y-92300057D01*
X191209523Y-92300057D02*
X191257142Y-92395295D01*
X191257142Y-92395295D02*
X191257142Y-92538152D01*
X191257142Y-92538152D02*
X191209523Y-92633390D01*
X191209523Y-92633390D02*
X191161904Y-92681009D01*
X191161904Y-92681009D02*
X191066666Y-92728628D01*
X191066666Y-92728628D02*
X190685714Y-92728628D01*
X191638095Y-92300057D02*
X191685714Y-92252438D01*
X191685714Y-92252438D02*
X191780952Y-92204819D01*
X191780952Y-92204819D02*
X192019047Y-92204819D01*
X192019047Y-92204819D02*
X192114285Y-92252438D01*
X192114285Y-92252438D02*
X192161904Y-92300057D01*
X192161904Y-92300057D02*
X192209523Y-92395295D01*
X192209523Y-92395295D02*
X192209523Y-92490533D01*
X192209523Y-92490533D02*
X192161904Y-92633390D01*
X192161904Y-92633390D02*
X191590476Y-93204819D01*
X191590476Y-93204819D02*
X192209523Y-93204819D01*
X193066666Y-92538152D02*
X193066666Y-93204819D01*
X192828571Y-92157200D02*
X192590476Y-92871485D01*
X192590476Y-92871485D02*
X193209523Y-92871485D01*
X214057142Y-92859580D02*
X214009523Y-92907200D01*
X214009523Y-92907200D02*
X213866666Y-92954819D01*
X213866666Y-92954819D02*
X213771428Y-92954819D01*
X213771428Y-92954819D02*
X213628571Y-92907200D01*
X213628571Y-92907200D02*
X213533333Y-92811961D01*
X213533333Y-92811961D02*
X213485714Y-92716723D01*
X213485714Y-92716723D02*
X213438095Y-92526247D01*
X213438095Y-92526247D02*
X213438095Y-92383390D01*
X213438095Y-92383390D02*
X213485714Y-92192914D01*
X213485714Y-92192914D02*
X213533333Y-92097676D01*
X213533333Y-92097676D02*
X213628571Y-92002438D01*
X213628571Y-92002438D02*
X213771428Y-91954819D01*
X213771428Y-91954819D02*
X213866666Y-91954819D01*
X213866666Y-91954819D02*
X214009523Y-92002438D01*
X214009523Y-92002438D02*
X214057142Y-92050057D01*
X214438095Y-92050057D02*
X214485714Y-92002438D01*
X214485714Y-92002438D02*
X214580952Y-91954819D01*
X214580952Y-91954819D02*
X214819047Y-91954819D01*
X214819047Y-91954819D02*
X214914285Y-92002438D01*
X214914285Y-92002438D02*
X214961904Y-92050057D01*
X214961904Y-92050057D02*
X215009523Y-92145295D01*
X215009523Y-92145295D02*
X215009523Y-92240533D01*
X215009523Y-92240533D02*
X214961904Y-92383390D01*
X214961904Y-92383390D02*
X214390476Y-92954819D01*
X214390476Y-92954819D02*
X215009523Y-92954819D01*
X215390476Y-92050057D02*
X215438095Y-92002438D01*
X215438095Y-92002438D02*
X215533333Y-91954819D01*
X215533333Y-91954819D02*
X215771428Y-91954819D01*
X215771428Y-91954819D02*
X215866666Y-92002438D01*
X215866666Y-92002438D02*
X215914285Y-92050057D01*
X215914285Y-92050057D02*
X215961904Y-92145295D01*
X215961904Y-92145295D02*
X215961904Y-92240533D01*
X215961904Y-92240533D02*
X215914285Y-92383390D01*
X215914285Y-92383390D02*
X215342857Y-92954819D01*
X215342857Y-92954819D02*
X215961904Y-92954819D01*
X98066666Y-74931009D02*
X97733333Y-74931009D01*
X97733333Y-75454819D02*
X97733333Y-74454819D01*
X97733333Y-74454819D02*
X98209523Y-74454819D01*
X99114285Y-75454819D02*
X98542857Y-75454819D01*
X98828571Y-75454819D02*
X98828571Y-74454819D01*
X98828571Y-74454819D02*
X98733333Y-74597676D01*
X98733333Y-74597676D02*
X98638095Y-74692914D01*
X98638095Y-74692914D02*
X98542857Y-74740533D01*
X120340419Y-106207142D02*
X120292800Y-106159523D01*
X120292800Y-106159523D02*
X120245180Y-106016666D01*
X120245180Y-106016666D02*
X120245180Y-105921428D01*
X120245180Y-105921428D02*
X120292800Y-105778571D01*
X120292800Y-105778571D02*
X120388038Y-105683333D01*
X120388038Y-105683333D02*
X120483276Y-105635714D01*
X120483276Y-105635714D02*
X120673752Y-105588095D01*
X120673752Y-105588095D02*
X120816609Y-105588095D01*
X120816609Y-105588095D02*
X121007085Y-105635714D01*
X121007085Y-105635714D02*
X121102323Y-105683333D01*
X121102323Y-105683333D02*
X121197561Y-105778571D01*
X121197561Y-105778571D02*
X121245180Y-105921428D01*
X121245180Y-105921428D02*
X121245180Y-106016666D01*
X121245180Y-106016666D02*
X121197561Y-106159523D01*
X121197561Y-106159523D02*
X121149942Y-106207142D01*
X121245180Y-106540476D02*
X121245180Y-107159523D01*
X121245180Y-107159523D02*
X120864228Y-106826190D01*
X120864228Y-106826190D02*
X120864228Y-106969047D01*
X120864228Y-106969047D02*
X120816609Y-107064285D01*
X120816609Y-107064285D02*
X120768990Y-107111904D01*
X120768990Y-107111904D02*
X120673752Y-107159523D01*
X120673752Y-107159523D02*
X120435657Y-107159523D01*
X120435657Y-107159523D02*
X120340419Y-107111904D01*
X120340419Y-107111904D02*
X120292800Y-107064285D01*
X120292800Y-107064285D02*
X120245180Y-106969047D01*
X120245180Y-106969047D02*
X120245180Y-106683333D01*
X120245180Y-106683333D02*
X120292800Y-106588095D01*
X120292800Y-106588095D02*
X120340419Y-106540476D01*
X120245180Y-108111904D02*
X120245180Y-107540476D01*
X120245180Y-107826190D02*
X121245180Y-107826190D01*
X121245180Y-107826190D02*
X121102323Y-107730952D01*
X121102323Y-107730952D02*
X121007085Y-107635714D01*
X121007085Y-107635714D02*
X120959466Y-107540476D01*
X219833333Y-125954819D02*
X219500000Y-125478628D01*
X219261905Y-125954819D02*
X219261905Y-124954819D01*
X219261905Y-124954819D02*
X219642857Y-124954819D01*
X219642857Y-124954819D02*
X219738095Y-125002438D01*
X219738095Y-125002438D02*
X219785714Y-125050057D01*
X219785714Y-125050057D02*
X219833333Y-125145295D01*
X219833333Y-125145295D02*
X219833333Y-125288152D01*
X219833333Y-125288152D02*
X219785714Y-125383390D01*
X219785714Y-125383390D02*
X219738095Y-125431009D01*
X219738095Y-125431009D02*
X219642857Y-125478628D01*
X219642857Y-125478628D02*
X219261905Y-125478628D01*
X220214286Y-125050057D02*
X220261905Y-125002438D01*
X220261905Y-125002438D02*
X220357143Y-124954819D01*
X220357143Y-124954819D02*
X220595238Y-124954819D01*
X220595238Y-124954819D02*
X220690476Y-125002438D01*
X220690476Y-125002438D02*
X220738095Y-125050057D01*
X220738095Y-125050057D02*
X220785714Y-125145295D01*
X220785714Y-125145295D02*
X220785714Y-125240533D01*
X220785714Y-125240533D02*
X220738095Y-125383390D01*
X220738095Y-125383390D02*
X220166667Y-125954819D01*
X220166667Y-125954819D02*
X220785714Y-125954819D01*
X197757142Y-107359580D02*
X197709523Y-107407200D01*
X197709523Y-107407200D02*
X197566666Y-107454819D01*
X197566666Y-107454819D02*
X197471428Y-107454819D01*
X197471428Y-107454819D02*
X197328571Y-107407200D01*
X197328571Y-107407200D02*
X197233333Y-107311961D01*
X197233333Y-107311961D02*
X197185714Y-107216723D01*
X197185714Y-107216723D02*
X197138095Y-107026247D01*
X197138095Y-107026247D02*
X197138095Y-106883390D01*
X197138095Y-106883390D02*
X197185714Y-106692914D01*
X197185714Y-106692914D02*
X197233333Y-106597676D01*
X197233333Y-106597676D02*
X197328571Y-106502438D01*
X197328571Y-106502438D02*
X197471428Y-106454819D01*
X197471428Y-106454819D02*
X197566666Y-106454819D01*
X197566666Y-106454819D02*
X197709523Y-106502438D01*
X197709523Y-106502438D02*
X197757142Y-106550057D01*
X198709523Y-107454819D02*
X198138095Y-107454819D01*
X198423809Y-107454819D02*
X198423809Y-106454819D01*
X198423809Y-106454819D02*
X198328571Y-106597676D01*
X198328571Y-106597676D02*
X198233333Y-106692914D01*
X198233333Y-106692914D02*
X198138095Y-106740533D01*
X199042857Y-106454819D02*
X199709523Y-106454819D01*
X199709523Y-106454819D02*
X199280952Y-107454819D01*
X153054819Y-107561904D02*
X153864342Y-107561904D01*
X153864342Y-107561904D02*
X153959580Y-107514285D01*
X153959580Y-107514285D02*
X154007200Y-107466666D01*
X154007200Y-107466666D02*
X154054819Y-107371428D01*
X154054819Y-107371428D02*
X154054819Y-107180952D01*
X154054819Y-107180952D02*
X154007200Y-107085714D01*
X154007200Y-107085714D02*
X153959580Y-107038095D01*
X153959580Y-107038095D02*
X153864342Y-106990476D01*
X153864342Y-106990476D02*
X153054819Y-106990476D01*
X153054819Y-106085714D02*
X153054819Y-106276190D01*
X153054819Y-106276190D02*
X153102438Y-106371428D01*
X153102438Y-106371428D02*
X153150057Y-106419047D01*
X153150057Y-106419047D02*
X153292914Y-106514285D01*
X153292914Y-106514285D02*
X153483390Y-106561904D01*
X153483390Y-106561904D02*
X153864342Y-106561904D01*
X153864342Y-106561904D02*
X153959580Y-106514285D01*
X153959580Y-106514285D02*
X154007200Y-106466666D01*
X154007200Y-106466666D02*
X154054819Y-106371428D01*
X154054819Y-106371428D02*
X154054819Y-106180952D01*
X154054819Y-106180952D02*
X154007200Y-106085714D01*
X154007200Y-106085714D02*
X153959580Y-106038095D01*
X153959580Y-106038095D02*
X153864342Y-105990476D01*
X153864342Y-105990476D02*
X153626247Y-105990476D01*
X153626247Y-105990476D02*
X153531009Y-106038095D01*
X153531009Y-106038095D02*
X153483390Y-106085714D01*
X153483390Y-106085714D02*
X153435771Y-106180952D01*
X153435771Y-106180952D02*
X153435771Y-106371428D01*
X153435771Y-106371428D02*
X153483390Y-106466666D01*
X153483390Y-106466666D02*
X153531009Y-106514285D01*
X153531009Y-106514285D02*
X153626247Y-106561904D01*
X156404819Y-106499999D02*
X156642914Y-106499999D01*
X156547676Y-106738094D02*
X156642914Y-106499999D01*
X156642914Y-106499999D02*
X156547676Y-106261904D01*
X156833390Y-106642856D02*
X156642914Y-106499999D01*
X156642914Y-106499999D02*
X156833390Y-106357142D01*
X157154819Y-106499999D02*
X157392914Y-106499999D01*
X157297676Y-106738094D02*
X157392914Y-106499999D01*
X157392914Y-106499999D02*
X157297676Y-106261904D01*
X157583390Y-106642856D02*
X157392914Y-106499999D01*
X157392914Y-106499999D02*
X157583390Y-106357142D01*
X223473810Y-52754819D02*
X223473810Y-51754819D01*
X223473810Y-51754819D02*
X223854762Y-51754819D01*
X223854762Y-51754819D02*
X223950000Y-51802438D01*
X223950000Y-51802438D02*
X223997619Y-51850057D01*
X223997619Y-51850057D02*
X224045238Y-51945295D01*
X224045238Y-51945295D02*
X224045238Y-52088152D01*
X224045238Y-52088152D02*
X223997619Y-52183390D01*
X223997619Y-52183390D02*
X223950000Y-52231009D01*
X223950000Y-52231009D02*
X223854762Y-52278628D01*
X223854762Y-52278628D02*
X223473810Y-52278628D01*
X224378572Y-51754819D02*
X224616667Y-52754819D01*
X224616667Y-52754819D02*
X224807143Y-52040533D01*
X224807143Y-52040533D02*
X224997619Y-52754819D01*
X224997619Y-52754819D02*
X225235715Y-51754819D01*
X226188095Y-52754819D02*
X225854762Y-52278628D01*
X225616667Y-52754819D02*
X225616667Y-51754819D01*
X225616667Y-51754819D02*
X225997619Y-51754819D01*
X225997619Y-51754819D02*
X226092857Y-51802438D01*
X226092857Y-51802438D02*
X226140476Y-51850057D01*
X226140476Y-51850057D02*
X226188095Y-51945295D01*
X226188095Y-51945295D02*
X226188095Y-52088152D01*
X226188095Y-52088152D02*
X226140476Y-52183390D01*
X226140476Y-52183390D02*
X226092857Y-52231009D01*
X226092857Y-52231009D02*
X225997619Y-52278628D01*
X225997619Y-52278628D02*
X225616667Y-52278628D01*
X226378572Y-52850057D02*
X227140476Y-52850057D01*
X227378572Y-52754819D02*
X227378572Y-51754819D01*
X227854762Y-52754819D02*
X227854762Y-51754819D01*
X227854762Y-51754819D02*
X228426190Y-52754819D01*
X228426190Y-52754819D02*
X228426190Y-51754819D01*
X188954819Y-97811904D02*
X189764342Y-97811904D01*
X189764342Y-97811904D02*
X189859580Y-97764285D01*
X189859580Y-97764285D02*
X189907200Y-97716666D01*
X189907200Y-97716666D02*
X189954819Y-97621428D01*
X189954819Y-97621428D02*
X189954819Y-97430952D01*
X189954819Y-97430952D02*
X189907200Y-97335714D01*
X189907200Y-97335714D02*
X189859580Y-97288095D01*
X189859580Y-97288095D02*
X189764342Y-97240476D01*
X189764342Y-97240476D02*
X188954819Y-97240476D01*
X188954819Y-96859523D02*
X188954819Y-96240476D01*
X188954819Y-96240476D02*
X189335771Y-96573809D01*
X189335771Y-96573809D02*
X189335771Y-96430952D01*
X189335771Y-96430952D02*
X189383390Y-96335714D01*
X189383390Y-96335714D02*
X189431009Y-96288095D01*
X189431009Y-96288095D02*
X189526247Y-96240476D01*
X189526247Y-96240476D02*
X189764342Y-96240476D01*
X189764342Y-96240476D02*
X189859580Y-96288095D01*
X189859580Y-96288095D02*
X189907200Y-96335714D01*
X189907200Y-96335714D02*
X189954819Y-96430952D01*
X189954819Y-96430952D02*
X189954819Y-96716666D01*
X189954819Y-96716666D02*
X189907200Y-96811904D01*
X189907200Y-96811904D02*
X189859580Y-96859523D01*
X198331009Y-96383333D02*
X198378628Y-96240476D01*
X198378628Y-96240476D02*
X198426247Y-96192857D01*
X198426247Y-96192857D02*
X198521485Y-96145238D01*
X198521485Y-96145238D02*
X198664342Y-96145238D01*
X198664342Y-96145238D02*
X198759580Y-96192857D01*
X198759580Y-96192857D02*
X198807200Y-96240476D01*
X198807200Y-96240476D02*
X198854819Y-96335714D01*
X198854819Y-96335714D02*
X198854819Y-96716666D01*
X198854819Y-96716666D02*
X197854819Y-96716666D01*
X197854819Y-96716666D02*
X197854819Y-96383333D01*
X197854819Y-96383333D02*
X197902438Y-96288095D01*
X197902438Y-96288095D02*
X197950057Y-96240476D01*
X197950057Y-96240476D02*
X198045295Y-96192857D01*
X198045295Y-96192857D02*
X198140533Y-96192857D01*
X198140533Y-96192857D02*
X198235771Y-96240476D01*
X198235771Y-96240476D02*
X198283390Y-96288095D01*
X198283390Y-96288095D02*
X198331009Y-96383333D01*
X198331009Y-96383333D02*
X198331009Y-96716666D01*
X197854819Y-95526190D02*
X197854819Y-95335714D01*
X197854819Y-95335714D02*
X197902438Y-95240476D01*
X197902438Y-95240476D02*
X197997676Y-95145238D01*
X197997676Y-95145238D02*
X198188152Y-95097619D01*
X198188152Y-95097619D02*
X198521485Y-95097619D01*
X198521485Y-95097619D02*
X198711961Y-95145238D01*
X198711961Y-95145238D02*
X198807200Y-95240476D01*
X198807200Y-95240476D02*
X198854819Y-95335714D01*
X198854819Y-95335714D02*
X198854819Y-95526190D01*
X198854819Y-95526190D02*
X198807200Y-95621428D01*
X198807200Y-95621428D02*
X198711961Y-95716666D01*
X198711961Y-95716666D02*
X198521485Y-95764285D01*
X198521485Y-95764285D02*
X198188152Y-95764285D01*
X198188152Y-95764285D02*
X197997676Y-95716666D01*
X197997676Y-95716666D02*
X197902438Y-95621428D01*
X197902438Y-95621428D02*
X197854819Y-95526190D01*
X197854819Y-94478571D02*
X197854819Y-94288095D01*
X197854819Y-94288095D02*
X197902438Y-94192857D01*
X197902438Y-94192857D02*
X197997676Y-94097619D01*
X197997676Y-94097619D02*
X198188152Y-94050000D01*
X198188152Y-94050000D02*
X198521485Y-94050000D01*
X198521485Y-94050000D02*
X198711961Y-94097619D01*
X198711961Y-94097619D02*
X198807200Y-94192857D01*
X198807200Y-94192857D02*
X198854819Y-94288095D01*
X198854819Y-94288095D02*
X198854819Y-94478571D01*
X198854819Y-94478571D02*
X198807200Y-94573809D01*
X198807200Y-94573809D02*
X198711961Y-94669047D01*
X198711961Y-94669047D02*
X198521485Y-94716666D01*
X198521485Y-94716666D02*
X198188152Y-94716666D01*
X198188152Y-94716666D02*
X197997676Y-94669047D01*
X197997676Y-94669047D02*
X197902438Y-94573809D01*
X197902438Y-94573809D02*
X197854819Y-94478571D01*
X197854819Y-93764285D02*
X197854819Y-93192857D01*
X198854819Y-93478571D02*
X197854819Y-93478571D01*
X198854819Y-92335714D02*
X198854819Y-92907142D01*
X198854819Y-92621428D02*
X197854819Y-92621428D01*
X197854819Y-92621428D02*
X197997676Y-92716666D01*
X197997676Y-92716666D02*
X198092914Y-92811904D01*
X198092914Y-92811904D02*
X198140533Y-92907142D01*
X192311905Y-122154819D02*
X192311905Y-121154819D01*
X192311905Y-121154819D02*
X192550000Y-121154819D01*
X192550000Y-121154819D02*
X192692857Y-121202438D01*
X192692857Y-121202438D02*
X192788095Y-121297676D01*
X192788095Y-121297676D02*
X192835714Y-121392914D01*
X192835714Y-121392914D02*
X192883333Y-121583390D01*
X192883333Y-121583390D02*
X192883333Y-121726247D01*
X192883333Y-121726247D02*
X192835714Y-121916723D01*
X192835714Y-121916723D02*
X192788095Y-122011961D01*
X192788095Y-122011961D02*
X192692857Y-122107200D01*
X192692857Y-122107200D02*
X192550000Y-122154819D01*
X192550000Y-122154819D02*
X192311905Y-122154819D01*
X193264286Y-121250057D02*
X193311905Y-121202438D01*
X193311905Y-121202438D02*
X193407143Y-121154819D01*
X193407143Y-121154819D02*
X193645238Y-121154819D01*
X193645238Y-121154819D02*
X193740476Y-121202438D01*
X193740476Y-121202438D02*
X193788095Y-121250057D01*
X193788095Y-121250057D02*
X193835714Y-121345295D01*
X193835714Y-121345295D02*
X193835714Y-121440533D01*
X193835714Y-121440533D02*
X193788095Y-121583390D01*
X193788095Y-121583390D02*
X193216667Y-122154819D01*
X193216667Y-122154819D02*
X193835714Y-122154819D01*
X207923809Y-83978628D02*
X207923809Y-84454819D01*
X207590476Y-83454819D02*
X207923809Y-83978628D01*
X207923809Y-83978628D02*
X208257142Y-83454819D01*
X209114285Y-84454819D02*
X208542857Y-84454819D01*
X208828571Y-84454819D02*
X208828571Y-83454819D01*
X208828571Y-83454819D02*
X208733333Y-83597676D01*
X208733333Y-83597676D02*
X208638095Y-83692914D01*
X208638095Y-83692914D02*
X208542857Y-83740533D01*
X206388095Y-89954819D02*
X206388095Y-90764342D01*
X206388095Y-90764342D02*
X206435714Y-90859580D01*
X206435714Y-90859580D02*
X206483333Y-90907200D01*
X206483333Y-90907200D02*
X206578571Y-90954819D01*
X206578571Y-90954819D02*
X206769047Y-90954819D01*
X206769047Y-90954819D02*
X206864285Y-90907200D01*
X206864285Y-90907200D02*
X206911904Y-90859580D01*
X206911904Y-90859580D02*
X206959523Y-90764342D01*
X206959523Y-90764342D02*
X206959523Y-89954819D01*
X207388095Y-90050057D02*
X207435714Y-90002438D01*
X207435714Y-90002438D02*
X207530952Y-89954819D01*
X207530952Y-89954819D02*
X207769047Y-89954819D01*
X207769047Y-89954819D02*
X207864285Y-90002438D01*
X207864285Y-90002438D02*
X207911904Y-90050057D01*
X207911904Y-90050057D02*
X207959523Y-90145295D01*
X207959523Y-90145295D02*
X207959523Y-90240533D01*
X207959523Y-90240533D02*
X207911904Y-90383390D01*
X207911904Y-90383390D02*
X207340476Y-90954819D01*
X207340476Y-90954819D02*
X207959523Y-90954819D01*
X193557142Y-107359580D02*
X193509523Y-107407200D01*
X193509523Y-107407200D02*
X193366666Y-107454819D01*
X193366666Y-107454819D02*
X193271428Y-107454819D01*
X193271428Y-107454819D02*
X193128571Y-107407200D01*
X193128571Y-107407200D02*
X193033333Y-107311961D01*
X193033333Y-107311961D02*
X192985714Y-107216723D01*
X192985714Y-107216723D02*
X192938095Y-107026247D01*
X192938095Y-107026247D02*
X192938095Y-106883390D01*
X192938095Y-106883390D02*
X192985714Y-106692914D01*
X192985714Y-106692914D02*
X193033333Y-106597676D01*
X193033333Y-106597676D02*
X193128571Y-106502438D01*
X193128571Y-106502438D02*
X193271428Y-106454819D01*
X193271428Y-106454819D02*
X193366666Y-106454819D01*
X193366666Y-106454819D02*
X193509523Y-106502438D01*
X193509523Y-106502438D02*
X193557142Y-106550057D01*
X194509523Y-107454819D02*
X193938095Y-107454819D01*
X194223809Y-107454819D02*
X194223809Y-106454819D01*
X194223809Y-106454819D02*
X194128571Y-106597676D01*
X194128571Y-106597676D02*
X194033333Y-106692914D01*
X194033333Y-106692914D02*
X193938095Y-106740533D01*
X195366666Y-106788152D02*
X195366666Y-107454819D01*
X195128571Y-106407200D02*
X194890476Y-107121485D01*
X194890476Y-107121485D02*
X195509523Y-107121485D01*
X225642857Y-86007200D02*
X225785714Y-86054819D01*
X225785714Y-86054819D02*
X226023809Y-86054819D01*
X226023809Y-86054819D02*
X226119047Y-86007200D01*
X226119047Y-86007200D02*
X226166666Y-85959580D01*
X226166666Y-85959580D02*
X226214285Y-85864342D01*
X226214285Y-85864342D02*
X226214285Y-85769104D01*
X226214285Y-85769104D02*
X226166666Y-85673866D01*
X226166666Y-85673866D02*
X226119047Y-85626247D01*
X226119047Y-85626247D02*
X226023809Y-85578628D01*
X226023809Y-85578628D02*
X225833333Y-85531009D01*
X225833333Y-85531009D02*
X225738095Y-85483390D01*
X225738095Y-85483390D02*
X225690476Y-85435771D01*
X225690476Y-85435771D02*
X225642857Y-85340533D01*
X225642857Y-85340533D02*
X225642857Y-85245295D01*
X225642857Y-85245295D02*
X225690476Y-85150057D01*
X225690476Y-85150057D02*
X225738095Y-85102438D01*
X225738095Y-85102438D02*
X225833333Y-85054819D01*
X225833333Y-85054819D02*
X226071428Y-85054819D01*
X226071428Y-85054819D02*
X226214285Y-85102438D01*
X226547619Y-85054819D02*
X226785714Y-86054819D01*
X226785714Y-86054819D02*
X226976190Y-85340533D01*
X226976190Y-85340533D02*
X227166666Y-86054819D01*
X227166666Y-86054819D02*
X227404762Y-85054819D01*
X227785714Y-86054819D02*
X227785714Y-85054819D01*
X227785714Y-85054819D02*
X228023809Y-85054819D01*
X228023809Y-85054819D02*
X228166666Y-85102438D01*
X228166666Y-85102438D02*
X228261904Y-85197676D01*
X228261904Y-85197676D02*
X228309523Y-85292914D01*
X228309523Y-85292914D02*
X228357142Y-85483390D01*
X228357142Y-85483390D02*
X228357142Y-85626247D01*
X228357142Y-85626247D02*
X228309523Y-85816723D01*
X228309523Y-85816723D02*
X228261904Y-85911961D01*
X228261904Y-85911961D02*
X228166666Y-86007200D01*
X228166666Y-86007200D02*
X228023809Y-86054819D01*
X228023809Y-86054819D02*
X227785714Y-86054819D01*
D13*
X203562618Y-53074318D02*
X203562618Y-51804318D01*
X204288333Y-53074318D02*
X203744047Y-52348603D01*
X204288333Y-51804318D02*
X203562618Y-52530032D01*
X205497857Y-53074318D02*
X204772142Y-53074318D01*
X205134999Y-53074318D02*
X205134999Y-51804318D01*
X205134999Y-51804318D02*
X205014047Y-51985746D01*
X205014047Y-51985746D02*
X204893095Y-52106699D01*
X204893095Y-52106699D02*
X204772142Y-52167175D01*
D12*
X214666666Y-56761009D02*
X214333333Y-56761009D01*
X214333333Y-57284819D02*
X214333333Y-56284819D01*
X214333333Y-56284819D02*
X214809523Y-56284819D01*
X215142857Y-56380057D02*
X215190476Y-56332438D01*
X215190476Y-56332438D02*
X215285714Y-56284819D01*
X215285714Y-56284819D02*
X215523809Y-56284819D01*
X215523809Y-56284819D02*
X215619047Y-56332438D01*
X215619047Y-56332438D02*
X215666666Y-56380057D01*
X215666666Y-56380057D02*
X215714285Y-56475295D01*
X215714285Y-56475295D02*
X215714285Y-56570533D01*
X215714285Y-56570533D02*
X215666666Y-56713390D01*
X215666666Y-56713390D02*
X215095238Y-57284819D01*
X215095238Y-57284819D02*
X215714285Y-57284819D01*
X225738095Y-114454819D02*
X225738095Y-115264342D01*
X225738095Y-115264342D02*
X225785714Y-115359580D01*
X225785714Y-115359580D02*
X225833333Y-115407200D01*
X225833333Y-115407200D02*
X225928571Y-115454819D01*
X225928571Y-115454819D02*
X226119047Y-115454819D01*
X226119047Y-115454819D02*
X226214285Y-115407200D01*
X226214285Y-115407200D02*
X226261904Y-115359580D01*
X226261904Y-115359580D02*
X226309523Y-115264342D01*
X226309523Y-115264342D02*
X226309523Y-114454819D01*
X227309523Y-115454819D02*
X226738095Y-115454819D01*
X227023809Y-115454819D02*
X227023809Y-114454819D01*
X227023809Y-114454819D02*
X226928571Y-114597676D01*
X226928571Y-114597676D02*
X226833333Y-114692914D01*
X226833333Y-114692914D02*
X226738095Y-114740533D01*
X143211819Y-74916666D02*
X143211819Y-75392856D01*
X143211819Y-75392856D02*
X142211819Y-75392856D01*
X143211819Y-74059523D02*
X143211819Y-74630951D01*
X143211819Y-74345237D02*
X142211819Y-74345237D01*
X142211819Y-74345237D02*
X142354676Y-74440475D01*
X142354676Y-74440475D02*
X142449914Y-74535713D01*
X142449914Y-74535713D02*
X142497533Y-74630951D01*
X202852380Y-89654819D02*
X202519047Y-89178628D01*
X202280952Y-89654819D02*
X202280952Y-88654819D01*
X202280952Y-88654819D02*
X202661904Y-88654819D01*
X202661904Y-88654819D02*
X202757142Y-88702438D01*
X202757142Y-88702438D02*
X202804761Y-88750057D01*
X202804761Y-88750057D02*
X202852380Y-88845295D01*
X202852380Y-88845295D02*
X202852380Y-88988152D01*
X202852380Y-88988152D02*
X202804761Y-89083390D01*
X202804761Y-89083390D02*
X202757142Y-89131009D01*
X202757142Y-89131009D02*
X202661904Y-89178628D01*
X202661904Y-89178628D02*
X202280952Y-89178628D01*
X203233333Y-89607200D02*
X203376190Y-89654819D01*
X203376190Y-89654819D02*
X203614285Y-89654819D01*
X203614285Y-89654819D02*
X203709523Y-89607200D01*
X203709523Y-89607200D02*
X203757142Y-89559580D01*
X203757142Y-89559580D02*
X203804761Y-89464342D01*
X203804761Y-89464342D02*
X203804761Y-89369104D01*
X203804761Y-89369104D02*
X203757142Y-89273866D01*
X203757142Y-89273866D02*
X203709523Y-89226247D01*
X203709523Y-89226247D02*
X203614285Y-89178628D01*
X203614285Y-89178628D02*
X203423809Y-89131009D01*
X203423809Y-89131009D02*
X203328571Y-89083390D01*
X203328571Y-89083390D02*
X203280952Y-89035771D01*
X203280952Y-89035771D02*
X203233333Y-88940533D01*
X203233333Y-88940533D02*
X203233333Y-88845295D01*
X203233333Y-88845295D02*
X203280952Y-88750057D01*
X203280952Y-88750057D02*
X203328571Y-88702438D01*
X203328571Y-88702438D02*
X203423809Y-88654819D01*
X203423809Y-88654819D02*
X203661904Y-88654819D01*
X203661904Y-88654819D02*
X203804761Y-88702438D01*
X204090476Y-88654819D02*
X204661904Y-88654819D01*
X204376190Y-89654819D02*
X204376190Y-88654819D01*
X131895180Y-61088095D02*
X131085657Y-61088095D01*
X131085657Y-61088095D02*
X130990419Y-61135714D01*
X130990419Y-61135714D02*
X130942800Y-61183333D01*
X130942800Y-61183333D02*
X130895180Y-61278571D01*
X130895180Y-61278571D02*
X130895180Y-61469047D01*
X130895180Y-61469047D02*
X130942800Y-61564285D01*
X130942800Y-61564285D02*
X130990419Y-61611904D01*
X130990419Y-61611904D02*
X131085657Y-61659523D01*
X131085657Y-61659523D02*
X131895180Y-61659523D01*
X131895180Y-62040476D02*
X131895180Y-62707142D01*
X131895180Y-62707142D02*
X130895180Y-62278571D01*
X126754819Y-63249999D02*
X126992914Y-63249999D01*
X126897676Y-63488094D02*
X126992914Y-63249999D01*
X126992914Y-63249999D02*
X126897676Y-63011904D01*
X127183390Y-63392856D02*
X126992914Y-63249999D01*
X126992914Y-63249999D02*
X127183390Y-63107142D01*
X127845180Y-63250000D02*
X127607085Y-63250000D01*
X127702323Y-63011905D02*
X127607085Y-63250000D01*
X127607085Y-63250000D02*
X127702323Y-63488095D01*
X127416609Y-63107143D02*
X127607085Y-63250000D01*
X127607085Y-63250000D02*
X127416609Y-63392857D01*
X219833333Y-128459580D02*
X219785714Y-128507200D01*
X219785714Y-128507200D02*
X219642857Y-128554819D01*
X219642857Y-128554819D02*
X219547619Y-128554819D01*
X219547619Y-128554819D02*
X219404762Y-128507200D01*
X219404762Y-128507200D02*
X219309524Y-128411961D01*
X219309524Y-128411961D02*
X219261905Y-128316723D01*
X219261905Y-128316723D02*
X219214286Y-128126247D01*
X219214286Y-128126247D02*
X219214286Y-127983390D01*
X219214286Y-127983390D02*
X219261905Y-127792914D01*
X219261905Y-127792914D02*
X219309524Y-127697676D01*
X219309524Y-127697676D02*
X219404762Y-127602438D01*
X219404762Y-127602438D02*
X219547619Y-127554819D01*
X219547619Y-127554819D02*
X219642857Y-127554819D01*
X219642857Y-127554819D02*
X219785714Y-127602438D01*
X219785714Y-127602438D02*
X219833333Y-127650057D01*
X220690476Y-127888152D02*
X220690476Y-128554819D01*
X220452381Y-127507200D02*
X220214286Y-128221485D01*
X220214286Y-128221485D02*
X220833333Y-128221485D01*
X214981009Y-97683333D02*
X215028628Y-97540476D01*
X215028628Y-97540476D02*
X215076247Y-97492857D01*
X215076247Y-97492857D02*
X215171485Y-97445238D01*
X215171485Y-97445238D02*
X215314342Y-97445238D01*
X215314342Y-97445238D02*
X215409580Y-97492857D01*
X215409580Y-97492857D02*
X215457200Y-97540476D01*
X215457200Y-97540476D02*
X215504819Y-97635714D01*
X215504819Y-97635714D02*
X215504819Y-98016666D01*
X215504819Y-98016666D02*
X214504819Y-98016666D01*
X214504819Y-98016666D02*
X214504819Y-97683333D01*
X214504819Y-97683333D02*
X214552438Y-97588095D01*
X214552438Y-97588095D02*
X214600057Y-97540476D01*
X214600057Y-97540476D02*
X214695295Y-97492857D01*
X214695295Y-97492857D02*
X214790533Y-97492857D01*
X214790533Y-97492857D02*
X214885771Y-97540476D01*
X214885771Y-97540476D02*
X214933390Y-97588095D01*
X214933390Y-97588095D02*
X214981009Y-97683333D01*
X214981009Y-97683333D02*
X214981009Y-98016666D01*
X214504819Y-96826190D02*
X214504819Y-96635714D01*
X214504819Y-96635714D02*
X214552438Y-96540476D01*
X214552438Y-96540476D02*
X214647676Y-96445238D01*
X214647676Y-96445238D02*
X214838152Y-96397619D01*
X214838152Y-96397619D02*
X215171485Y-96397619D01*
X215171485Y-96397619D02*
X215361961Y-96445238D01*
X215361961Y-96445238D02*
X215457200Y-96540476D01*
X215457200Y-96540476D02*
X215504819Y-96635714D01*
X215504819Y-96635714D02*
X215504819Y-96826190D01*
X215504819Y-96826190D02*
X215457200Y-96921428D01*
X215457200Y-96921428D02*
X215361961Y-97016666D01*
X215361961Y-97016666D02*
X215171485Y-97064285D01*
X215171485Y-97064285D02*
X214838152Y-97064285D01*
X214838152Y-97064285D02*
X214647676Y-97016666D01*
X214647676Y-97016666D02*
X214552438Y-96921428D01*
X214552438Y-96921428D02*
X214504819Y-96826190D01*
X214504819Y-95778571D02*
X214504819Y-95588095D01*
X214504819Y-95588095D02*
X214552438Y-95492857D01*
X214552438Y-95492857D02*
X214647676Y-95397619D01*
X214647676Y-95397619D02*
X214838152Y-95350000D01*
X214838152Y-95350000D02*
X215171485Y-95350000D01*
X215171485Y-95350000D02*
X215361961Y-95397619D01*
X215361961Y-95397619D02*
X215457200Y-95492857D01*
X215457200Y-95492857D02*
X215504819Y-95588095D01*
X215504819Y-95588095D02*
X215504819Y-95778571D01*
X215504819Y-95778571D02*
X215457200Y-95873809D01*
X215457200Y-95873809D02*
X215361961Y-95969047D01*
X215361961Y-95969047D02*
X215171485Y-96016666D01*
X215171485Y-96016666D02*
X214838152Y-96016666D01*
X214838152Y-96016666D02*
X214647676Y-95969047D01*
X214647676Y-95969047D02*
X214552438Y-95873809D01*
X214552438Y-95873809D02*
X214504819Y-95778571D01*
X214504819Y-95064285D02*
X214504819Y-94492857D01*
X215504819Y-94778571D02*
X214504819Y-94778571D01*
X214504819Y-93969047D02*
X214504819Y-93873809D01*
X214504819Y-93873809D02*
X214552438Y-93778571D01*
X214552438Y-93778571D02*
X214600057Y-93730952D01*
X214600057Y-93730952D02*
X214695295Y-93683333D01*
X214695295Y-93683333D02*
X214885771Y-93635714D01*
X214885771Y-93635714D02*
X215123866Y-93635714D01*
X215123866Y-93635714D02*
X215314342Y-93683333D01*
X215314342Y-93683333D02*
X215409580Y-93730952D01*
X215409580Y-93730952D02*
X215457200Y-93778571D01*
X215457200Y-93778571D02*
X215504819Y-93873809D01*
X215504819Y-93873809D02*
X215504819Y-93969047D01*
X215504819Y-93969047D02*
X215457200Y-94064285D01*
X215457200Y-94064285D02*
X215409580Y-94111904D01*
X215409580Y-94111904D02*
X215314342Y-94159523D01*
X215314342Y-94159523D02*
X215123866Y-94207142D01*
X215123866Y-94207142D02*
X214885771Y-94207142D01*
X214885771Y-94207142D02*
X214695295Y-94159523D01*
X214695295Y-94159523D02*
X214600057Y-94111904D01*
X214600057Y-94111904D02*
X214552438Y-94064285D01*
X214552438Y-94064285D02*
X214504819Y-93969047D01*
X152654819Y-62661904D02*
X153464342Y-62661904D01*
X153464342Y-62661904D02*
X153559580Y-62614285D01*
X153559580Y-62614285D02*
X153607200Y-62566666D01*
X153607200Y-62566666D02*
X153654819Y-62471428D01*
X153654819Y-62471428D02*
X153654819Y-62280952D01*
X153654819Y-62280952D02*
X153607200Y-62185714D01*
X153607200Y-62185714D02*
X153559580Y-62138095D01*
X153559580Y-62138095D02*
X153464342Y-62090476D01*
X153464342Y-62090476D02*
X152654819Y-62090476D01*
X153083390Y-61471428D02*
X153035771Y-61566666D01*
X153035771Y-61566666D02*
X152988152Y-61614285D01*
X152988152Y-61614285D02*
X152892914Y-61661904D01*
X152892914Y-61661904D02*
X152845295Y-61661904D01*
X152845295Y-61661904D02*
X152750057Y-61614285D01*
X152750057Y-61614285D02*
X152702438Y-61566666D01*
X152702438Y-61566666D02*
X152654819Y-61471428D01*
X152654819Y-61471428D02*
X152654819Y-61280952D01*
X152654819Y-61280952D02*
X152702438Y-61185714D01*
X152702438Y-61185714D02*
X152750057Y-61138095D01*
X152750057Y-61138095D02*
X152845295Y-61090476D01*
X152845295Y-61090476D02*
X152892914Y-61090476D01*
X152892914Y-61090476D02*
X152988152Y-61138095D01*
X152988152Y-61138095D02*
X153035771Y-61185714D01*
X153035771Y-61185714D02*
X153083390Y-61280952D01*
X153083390Y-61280952D02*
X153083390Y-61471428D01*
X153083390Y-61471428D02*
X153131009Y-61566666D01*
X153131009Y-61566666D02*
X153178628Y-61614285D01*
X153178628Y-61614285D02*
X153273866Y-61661904D01*
X153273866Y-61661904D02*
X153464342Y-61661904D01*
X153464342Y-61661904D02*
X153559580Y-61614285D01*
X153559580Y-61614285D02*
X153607200Y-61566666D01*
X153607200Y-61566666D02*
X153654819Y-61471428D01*
X153654819Y-61471428D02*
X153654819Y-61280952D01*
X153654819Y-61280952D02*
X153607200Y-61185714D01*
X153607200Y-61185714D02*
X153559580Y-61138095D01*
X153559580Y-61138095D02*
X153464342Y-61090476D01*
X153464342Y-61090476D02*
X153273866Y-61090476D01*
X153273866Y-61090476D02*
X153178628Y-61138095D01*
X153178628Y-61138095D02*
X153131009Y-61185714D01*
X153131009Y-61185714D02*
X153083390Y-61280952D01*
X156004819Y-74199999D02*
X156242914Y-74199999D01*
X156147676Y-74438094D02*
X156242914Y-74199999D01*
X156242914Y-74199999D02*
X156147676Y-73961904D01*
X156433390Y-74342856D02*
X156242914Y-74199999D01*
X156242914Y-74199999D02*
X156433390Y-74057142D01*
X156804819Y-74196813D02*
X157042914Y-74196813D01*
X156947676Y-74434908D02*
X157042914Y-74196813D01*
X157042914Y-74196813D02*
X156947676Y-73958718D01*
X157233390Y-74339670D02*
X157042914Y-74196813D01*
X157042914Y-74196813D02*
X157233390Y-74053956D01*
X226514285Y-137059580D02*
X226466666Y-137107200D01*
X226466666Y-137107200D02*
X226323809Y-137154819D01*
X226323809Y-137154819D02*
X226228571Y-137154819D01*
X226228571Y-137154819D02*
X226085714Y-137107200D01*
X226085714Y-137107200D02*
X225990476Y-137011961D01*
X225990476Y-137011961D02*
X225942857Y-136916723D01*
X225942857Y-136916723D02*
X225895238Y-136726247D01*
X225895238Y-136726247D02*
X225895238Y-136583390D01*
X225895238Y-136583390D02*
X225942857Y-136392914D01*
X225942857Y-136392914D02*
X225990476Y-136297676D01*
X225990476Y-136297676D02*
X226085714Y-136202438D01*
X226085714Y-136202438D02*
X226228571Y-136154819D01*
X226228571Y-136154819D02*
X226323809Y-136154819D01*
X226323809Y-136154819D02*
X226466666Y-136202438D01*
X226466666Y-136202438D02*
X226514285Y-136250057D01*
X227133333Y-136154819D02*
X227323809Y-136154819D01*
X227323809Y-136154819D02*
X227419047Y-136202438D01*
X227419047Y-136202438D02*
X227514285Y-136297676D01*
X227514285Y-136297676D02*
X227561904Y-136488152D01*
X227561904Y-136488152D02*
X227561904Y-136821485D01*
X227561904Y-136821485D02*
X227514285Y-137011961D01*
X227514285Y-137011961D02*
X227419047Y-137107200D01*
X227419047Y-137107200D02*
X227323809Y-137154819D01*
X227323809Y-137154819D02*
X227133333Y-137154819D01*
X227133333Y-137154819D02*
X227038095Y-137107200D01*
X227038095Y-137107200D02*
X226942857Y-137011961D01*
X226942857Y-137011961D02*
X226895238Y-136821485D01*
X226895238Y-136821485D02*
X226895238Y-136488152D01*
X226895238Y-136488152D02*
X226942857Y-136297676D01*
X226942857Y-136297676D02*
X227038095Y-136202438D01*
X227038095Y-136202438D02*
X227133333Y-136154819D01*
X227990476Y-137154819D02*
X227990476Y-136154819D01*
X227990476Y-136154819D02*
X228323809Y-136869104D01*
X228323809Y-136869104D02*
X228657142Y-136154819D01*
X228657142Y-136154819D02*
X228657142Y-137154819D01*
X227683333Y-112309580D02*
X227635714Y-112357200D01*
X227635714Y-112357200D02*
X227492857Y-112404819D01*
X227492857Y-112404819D02*
X227397619Y-112404819D01*
X227397619Y-112404819D02*
X227254762Y-112357200D01*
X227254762Y-112357200D02*
X227159524Y-112261961D01*
X227159524Y-112261961D02*
X227111905Y-112166723D01*
X227111905Y-112166723D02*
X227064286Y-111976247D01*
X227064286Y-111976247D02*
X227064286Y-111833390D01*
X227064286Y-111833390D02*
X227111905Y-111642914D01*
X227111905Y-111642914D02*
X227159524Y-111547676D01*
X227159524Y-111547676D02*
X227254762Y-111452438D01*
X227254762Y-111452438D02*
X227397619Y-111404819D01*
X227397619Y-111404819D02*
X227492857Y-111404819D01*
X227492857Y-111404819D02*
X227635714Y-111452438D01*
X227635714Y-111452438D02*
X227683333Y-111500057D01*
X228064286Y-111500057D02*
X228111905Y-111452438D01*
X228111905Y-111452438D02*
X228207143Y-111404819D01*
X228207143Y-111404819D02*
X228445238Y-111404819D01*
X228445238Y-111404819D02*
X228540476Y-111452438D01*
X228540476Y-111452438D02*
X228588095Y-111500057D01*
X228588095Y-111500057D02*
X228635714Y-111595295D01*
X228635714Y-111595295D02*
X228635714Y-111690533D01*
X228635714Y-111690533D02*
X228588095Y-111833390D01*
X228588095Y-111833390D02*
X228016667Y-112404819D01*
X228016667Y-112404819D02*
X228635714Y-112404819D01*
X213283333Y-139154819D02*
X212950000Y-138678628D01*
X212711905Y-139154819D02*
X212711905Y-138154819D01*
X212711905Y-138154819D02*
X213092857Y-138154819D01*
X213092857Y-138154819D02*
X213188095Y-138202438D01*
X213188095Y-138202438D02*
X213235714Y-138250057D01*
X213235714Y-138250057D02*
X213283333Y-138345295D01*
X213283333Y-138345295D02*
X213283333Y-138488152D01*
X213283333Y-138488152D02*
X213235714Y-138583390D01*
X213235714Y-138583390D02*
X213188095Y-138631009D01*
X213188095Y-138631009D02*
X213092857Y-138678628D01*
X213092857Y-138678628D02*
X212711905Y-138678628D01*
X213616667Y-138154819D02*
X214235714Y-138154819D01*
X214235714Y-138154819D02*
X213902381Y-138535771D01*
X213902381Y-138535771D02*
X214045238Y-138535771D01*
X214045238Y-138535771D02*
X214140476Y-138583390D01*
X214140476Y-138583390D02*
X214188095Y-138631009D01*
X214188095Y-138631009D02*
X214235714Y-138726247D01*
X214235714Y-138726247D02*
X214235714Y-138964342D01*
X214235714Y-138964342D02*
X214188095Y-139059580D01*
X214188095Y-139059580D02*
X214140476Y-139107200D01*
X214140476Y-139107200D02*
X214045238Y-139154819D01*
X214045238Y-139154819D02*
X213759524Y-139154819D01*
X213759524Y-139154819D02*
X213664286Y-139107200D01*
X213664286Y-139107200D02*
X213616667Y-139059580D01*
X120859580Y-67042857D02*
X120907200Y-67090476D01*
X120907200Y-67090476D02*
X120954819Y-67233333D01*
X120954819Y-67233333D02*
X120954819Y-67328571D01*
X120954819Y-67328571D02*
X120907200Y-67471428D01*
X120907200Y-67471428D02*
X120811961Y-67566666D01*
X120811961Y-67566666D02*
X120716723Y-67614285D01*
X120716723Y-67614285D02*
X120526247Y-67661904D01*
X120526247Y-67661904D02*
X120383390Y-67661904D01*
X120383390Y-67661904D02*
X120192914Y-67614285D01*
X120192914Y-67614285D02*
X120097676Y-67566666D01*
X120097676Y-67566666D02*
X120002438Y-67471428D01*
X120002438Y-67471428D02*
X119954819Y-67328571D01*
X119954819Y-67328571D02*
X119954819Y-67233333D01*
X119954819Y-67233333D02*
X120002438Y-67090476D01*
X120002438Y-67090476D02*
X120050057Y-67042857D01*
X119954819Y-66709523D02*
X119954819Y-66090476D01*
X119954819Y-66090476D02*
X120335771Y-66423809D01*
X120335771Y-66423809D02*
X120335771Y-66280952D01*
X120335771Y-66280952D02*
X120383390Y-66185714D01*
X120383390Y-66185714D02*
X120431009Y-66138095D01*
X120431009Y-66138095D02*
X120526247Y-66090476D01*
X120526247Y-66090476D02*
X120764342Y-66090476D01*
X120764342Y-66090476D02*
X120859580Y-66138095D01*
X120859580Y-66138095D02*
X120907200Y-66185714D01*
X120907200Y-66185714D02*
X120954819Y-66280952D01*
X120954819Y-66280952D02*
X120954819Y-66566666D01*
X120954819Y-66566666D02*
X120907200Y-66661904D01*
X120907200Y-66661904D02*
X120859580Y-66709523D01*
X119954819Y-65757142D02*
X119954819Y-65138095D01*
X119954819Y-65138095D02*
X120335771Y-65471428D01*
X120335771Y-65471428D02*
X120335771Y-65328571D01*
X120335771Y-65328571D02*
X120383390Y-65233333D01*
X120383390Y-65233333D02*
X120431009Y-65185714D01*
X120431009Y-65185714D02*
X120526247Y-65138095D01*
X120526247Y-65138095D02*
X120764342Y-65138095D01*
X120764342Y-65138095D02*
X120859580Y-65185714D01*
X120859580Y-65185714D02*
X120907200Y-65233333D01*
X120907200Y-65233333D02*
X120954819Y-65328571D01*
X120954819Y-65328571D02*
X120954819Y-65614285D01*
X120954819Y-65614285D02*
X120907200Y-65709523D01*
X120907200Y-65709523D02*
X120859580Y-65757142D01*
%TO.C,D4*%
D14*
X187599800Y-124298100D02*
X187599800Y-129301900D01*
X187599800Y-129301900D02*
X188016360Y-129301900D01*
X188016360Y-124298100D02*
X187599800Y-124298100D01*
X190383640Y-129301900D02*
X190800200Y-129301900D01*
X190800200Y-124298100D02*
X190383640Y-124298100D01*
X190800200Y-129301900D02*
X190800200Y-124298100D01*
X189276200Y-122761400D02*
G75*
G02*
X189123800Y-122761400I-76200J0D01*
G01*
X189123800Y-122761400D02*
G75*
G02*
X189276200Y-122761400I76200J0D01*
G01*
%TO.C,C34*%
X94078500Y-59478500D02*
X94078500Y-73321500D01*
X94078500Y-73321500D02*
X99768760Y-73321500D01*
X99768760Y-59478500D02*
X94078500Y-59478500D01*
X102231240Y-73321500D02*
X107921500Y-73321500D01*
X107921500Y-59478500D02*
X102231240Y-59478500D01*
X107921500Y-73321500D02*
X107921500Y-59478500D01*
X101076200Y-74659699D02*
G75*
G02*
X100923800Y-74659699I-76200J0D01*
G01*
X100923800Y-74659699D02*
G75*
G02*
X101076200Y-74659699I76200J0D01*
G01*
%TO.C,Y2*%
D15*
X198040000Y-87660000D02*
X205410000Y-87660000D01*
X205410000Y-83940000D02*
X198040000Y-83940000D01*
X205410000Y-87660000D02*
X205410000Y-83940000D01*
%TO.C,U5*%
D14*
X128880200Y-99469014D02*
X128880200Y-101094614D01*
X128880200Y-101094614D02*
X130632800Y-101094614D01*
X130150200Y-97297314D02*
X129210400Y-97297314D01*
X130150200Y-98186314D02*
X129210400Y-98186314D01*
X130150200Y-102377314D02*
X129210400Y-102377314D01*
X130150200Y-103266314D02*
X129210400Y-103266314D01*
X130632800Y-95024014D02*
X130632800Y-99469014D01*
X130632800Y-99469014D02*
X128880200Y-99469014D01*
X130632800Y-101094614D02*
X130632800Y-105539614D01*
X130632800Y-105539614D02*
X140132400Y-105539614D01*
X140132400Y-95024014D02*
X130632800Y-95024014D01*
%TO.C,START*%
X185937602Y-133668700D02*
X185937602Y-143828700D01*
X185937602Y-143828700D02*
X196341599Y-143828700D01*
X196341599Y-133668700D02*
X185937602Y-133668700D01*
X196341599Y-143828700D02*
X196341599Y-133668700D01*
D16*
X197611599Y-134785700D02*
G75*
G02*
X196849599Y-134785700I-381000J0D01*
G01*
X196849599Y-134785700D02*
G75*
G02*
X197611599Y-134785700I381000J0D01*
G01*
%TO.C,IC1*%
D10*
X201800000Y-120880000D02*
X203750000Y-120880000D01*
X204100000Y-120850000D02*
X210900000Y-120850000D01*
X204100000Y-131150000D02*
X204100000Y-120850000D01*
X210900000Y-120850000D02*
X210900000Y-131150000D01*
X210900000Y-131150000D02*
X204100000Y-131150000D01*
%TO.C,/WP*%
D15*
X190050000Y-86100000D02*
X190050000Y-85500000D01*
X190700000Y-84800000D02*
X193500000Y-84800000D01*
X193300000Y-84600000D02*
X193000000Y-84300000D01*
X193300000Y-84600000D02*
X193600000Y-84300000D01*
X193500000Y-86800000D02*
X190700000Y-86800000D01*
X193600000Y-84300000D02*
X193000000Y-84300000D01*
X194150000Y-85500000D02*
X194150000Y-86100000D01*
X190050000Y-85500000D02*
G75*
G02*
X190750000Y-84800000I700000J0D01*
G01*
X190750000Y-86800000D02*
G75*
G02*
X190050000Y-86100000I0J700000D01*
G01*
X193450000Y-84800000D02*
G75*
G02*
X194150000Y-85500000I1J-699999D01*
G01*
X194150000Y-86100000D02*
G75*
G02*
X193450000Y-86800000I-699999J-1D01*
G01*
%TO.C,IC3*%
D10*
X170125000Y-83676000D02*
X172090000Y-83676000D01*
X172090000Y-73516000D02*
X170325000Y-73516000D01*
X172090000Y-83676000D02*
X172090000Y-73516000D01*
D11*
D17*
X178425000Y-82000000D02*
X178424999Y-82000000D01*
X178424999Y-82000000D01*
X178424999Y-82000000D01*
X178424999Y-82000000D01*
X178424999Y-82000000D01*
X178424999Y-82000000D01*
X178424999Y-82000000D01*
X178424999Y-81999999D01*
X178424999Y-81999999D01*
X178424999Y-81999999D01*
X178424999Y-81999999D01*
X178424999Y-81999999D01*
X178425000Y-81999999D01*
X178425000Y-81999999D01*
X178425000Y-81999999D01*
X178425000Y-81999999D01*
X178425000Y-81999999D01*
X178425000Y-81999999D01*
X178425000Y-81999999D01*
X178425000Y-81999999D01*
X178425000Y-81999999D01*
X178425000Y-81999999D01*
X178425000Y-81999999D01*
X178425000Y-81999999D01*
X178425001Y-81999999D01*
X178425001Y-81999999D01*
X178425001Y-81999999D01*
X178425001Y-81999999D01*
X178425001Y-81999999D01*
X178425001Y-81999999D01*
X178425001Y-82000000D01*
X178425001Y-82000000D01*
X178425001Y-82000000D01*
X178425001Y-82000000D01*
X178425001Y-82000000D01*
X178425001Y-82000000D01*
X178425001Y-82000000D01*
X178425000Y-82000000D01*
X178425000Y-82000000D02*
X178425001Y-82000000D01*
X178425001Y-82000000D01*
X178425001Y-82000000D01*
X178425001Y-82000000D01*
X178425001Y-82000000D01*
X178425001Y-82000000D01*
X178425001Y-82000001D01*
X178425001Y-82000001D01*
X178425001Y-82000001D01*
X178425001Y-82000001D01*
X178425001Y-82000001D01*
X178425001Y-82000001D01*
X178425001Y-82000001D01*
X178425000Y-82000001D01*
X178425000Y-82000001D01*
X178425000Y-82000001D01*
X178425000Y-82000001D01*
X178425000Y-82000001D01*
X178425000Y-82000001D01*
X178425000Y-82000001D01*
X178425000Y-82000001D01*
X178425000Y-82000001D01*
X178425000Y-82000001D01*
X178425000Y-82000001D01*
X178425000Y-82000001D01*
X178424999Y-82000001D01*
X178424999Y-82000001D01*
X178424999Y-82000001D01*
X178424999Y-82000001D01*
X178424999Y-82000001D01*
X178424999Y-82000001D01*
X178424999Y-82000000D01*
X178424999Y-82000000D01*
X178424999Y-82000000D01*
X178424999Y-82000000D01*
X178424999Y-82000000D01*
X178424999Y-82000000D01*
X178425000Y-82000000D01*
D11*
D17*
X178525000Y-82000000D02*
X178524999Y-82000000D01*
X178524999Y-82000000D01*
X178524999Y-82000000D01*
X178524999Y-82000000D01*
X178524999Y-82000000D01*
X178524999Y-82000000D01*
X178524999Y-82000000D01*
X178524999Y-81999999D01*
X178524999Y-81999999D01*
X178524999Y-81999999D01*
X178524999Y-81999999D01*
X178524999Y-81999999D01*
X178525000Y-81999999D01*
X178525000Y-81999999D01*
X178525000Y-81999999D01*
X178525000Y-81999999D01*
X178525000Y-81999999D01*
X178525000Y-81999999D01*
X178525000Y-81999999D01*
X178525000Y-81999999D01*
X178525000Y-81999999D01*
X178525000Y-81999999D01*
X178525000Y-81999999D01*
X178525000Y-81999999D01*
X178525001Y-81999999D01*
X178525001Y-81999999D01*
X178525001Y-81999999D01*
X178525001Y-81999999D01*
X178525001Y-81999999D01*
X178525001Y-81999999D01*
X178525001Y-82000000D01*
X178525001Y-82000000D01*
X178525001Y-82000000D01*
X178525001Y-82000000D01*
X178525001Y-82000000D01*
X178525001Y-82000000D01*
X178525001Y-82000000D01*
X178525000Y-82000000D01*
X178525000Y-82000000D02*
X178525001Y-82000000D01*
X178525001Y-82000000D01*
X178525001Y-82000000D01*
X178525001Y-82000000D01*
X178525001Y-82000000D01*
X178525001Y-82000000D01*
X178525001Y-82000001D01*
X178525001Y-82000001D01*
X178525001Y-82000001D01*
X178525001Y-82000001D01*
X178525001Y-82000001D01*
X178525001Y-82000001D01*
X178525001Y-82000001D01*
X178525000Y-82000001D01*
X178525000Y-82000001D01*
X178525000Y-82000001D01*
X178525000Y-82000001D01*
X178525000Y-82000001D01*
X178525000Y-82000001D01*
X178525000Y-82000001D01*
X178525000Y-82000001D01*
X178525000Y-82000001D01*
X178525000Y-82000001D01*
X178525000Y-82000001D01*
X178525000Y-82000001D01*
X178524999Y-82000001D01*
X178524999Y-82000001D01*
X178524999Y-82000001D01*
X178524999Y-82000001D01*
X178524999Y-82000001D01*
X178524999Y-82000001D01*
X178524999Y-82000000D01*
X178524999Y-82000000D01*
X178524999Y-82000000D01*
X178524999Y-82000000D01*
X178524999Y-82000000D01*
X178524999Y-82000000D01*
X178525000Y-82000000D01*
D11*
X178425000Y-82000000D02*
G75*
G02*
X178525000Y-82000000I50000J0D01*
G01*
X178525000Y-82000000D02*
G75*
G02*
X178425000Y-82000000I-50000J0D01*
G01*
%TO.C,C25*%
D15*
X210388748Y-89090000D02*
X211811252Y-89090000D01*
X210388748Y-90910000D02*
X211811252Y-90910000D01*
%TO.C,C32*%
X94840000Y-96704437D02*
X94840000Y-106160000D01*
X94840000Y-106160000D02*
X98590000Y-106160000D01*
X95904437Y-95640000D02*
X94840000Y-96704437D01*
X95904437Y-95640000D02*
X98590000Y-95640000D01*
X102860000Y-94150000D02*
X102860000Y-95400000D01*
X103485000Y-94775000D02*
X102235000Y-94775000D01*
X104295563Y-95640000D02*
X101610000Y-95640000D01*
X104295563Y-95640000D02*
X105360000Y-96704437D01*
X105360000Y-96704437D02*
X105360000Y-106160000D01*
X105360000Y-106160000D02*
X101610000Y-106160000D01*
%TO.C,C1*%
X225590000Y-124711252D02*
X225590000Y-123288748D01*
X227410000Y-124711252D02*
X227410000Y-123288748D01*
%TO.C,R1*%
X226590000Y-131272936D02*
X226590000Y-132727064D01*
X228410000Y-131272936D02*
X228410000Y-132727064D01*
%TO.C,DIAG*%
D12*
X215900000Y-100570000D02*
X216525000Y-100570000D01*
X215900000Y-104630000D02*
X215900000Y-100570000D01*
X216525000Y-104630000D02*
X215900000Y-104630000D01*
X218875000Y-100570000D02*
X219105000Y-100570000D01*
X219105000Y-100870000D02*
X219105000Y-100570000D01*
X219105000Y-100870000D02*
X221250000Y-100870000D01*
X219105000Y-104330000D02*
X219105000Y-104630000D01*
X219105000Y-104630000D02*
X218875000Y-104630000D01*
X221250000Y-104330000D02*
X219105000Y-104330000D01*
X222150000Y-105000000D02*
X222550000Y-105700000D01*
X222550000Y-105700000D02*
X222950000Y-105000000D01*
X222950000Y-105000000D02*
X222150000Y-105000000D01*
X223800000Y-100870000D02*
X227450000Y-100870000D01*
X227450000Y-104330000D02*
X223800000Y-104330000D01*
%TO.C,C3*%
D15*
X214090000Y-124711252D02*
X214090000Y-123288748D01*
X215910000Y-124711252D02*
X215910000Y-123288748D01*
%TO.C,R50*%
D10*
X98100000Y-84300000D02*
X108900000Y-84300000D01*
%TO.C,J3*%
D14*
X81271301Y-76635400D02*
X81271301Y-93043800D01*
X81271301Y-93043800D02*
X91431301Y-93043800D01*
X91431301Y-76635400D02*
X81271301Y-76635400D01*
X91431301Y-93043800D02*
X91431301Y-76635400D01*
D16*
X90695301Y-93932800D02*
G75*
G02*
X89933301Y-93932800I-381000J0D01*
G01*
X89933301Y-93932800D02*
G75*
G02*
X90695301Y-93932800I381000J0D01*
G01*
%TO.C,IC2*%
D10*
X170125000Y-97520000D02*
X172090000Y-97520000D01*
X172090000Y-87360000D02*
X170325000Y-87360000D01*
X172090000Y-97520000D02*
X172090000Y-87360000D01*
D11*
D17*
X178425000Y-95844000D02*
X178424999Y-95844000D01*
X178424999Y-95844000D01*
X178424999Y-95844000D01*
X178424999Y-95844000D01*
X178424999Y-95844000D01*
X178424999Y-95844000D01*
X178424999Y-95844000D01*
X178424999Y-95843999D01*
X178424999Y-95843999D01*
X178424999Y-95843999D01*
X178424999Y-95843999D01*
X178424999Y-95843999D01*
X178425000Y-95843999D01*
X178425000Y-95843999D01*
X178425000Y-95843999D01*
X178425000Y-95843999D01*
X178425000Y-95843999D01*
X178425000Y-95843999D01*
X178425000Y-95843999D01*
X178425000Y-95843999D01*
X178425000Y-95843999D01*
X178425000Y-95843999D01*
X178425000Y-95843999D01*
X178425000Y-95843999D01*
X178425001Y-95843999D01*
X178425001Y-95843999D01*
X178425001Y-95843999D01*
X178425001Y-95843999D01*
X178425001Y-95843999D01*
X178425001Y-95843999D01*
X178425001Y-95844000D01*
X178425001Y-95844000D01*
X178425001Y-95844000D01*
X178425001Y-95844000D01*
X178425001Y-95844000D01*
X178425001Y-95844000D01*
X178425001Y-95844000D01*
X178425000Y-95844000D01*
X178425000Y-95844000D02*
X178425001Y-95844000D01*
X178425001Y-95844000D01*
X178425001Y-95844000D01*
X178425001Y-95844000D01*
X178425001Y-95844000D01*
X178425001Y-95844000D01*
X178425001Y-95844001D01*
X178425001Y-95844001D01*
X178425001Y-95844001D01*
X178425001Y-95844001D01*
X178425001Y-95844001D01*
X178425001Y-95844001D01*
X178425001Y-95844001D01*
X178425000Y-95844001D01*
X178425000Y-95844001D01*
X178425000Y-95844001D01*
X178425000Y-95844001D01*
X178425000Y-95844001D01*
X178425000Y-95844001D01*
X178425000Y-95844001D01*
X178425000Y-95844001D01*
X178425000Y-95844001D01*
X178425000Y-95844001D01*
X178425000Y-95844001D01*
X178425000Y-95844001D01*
X178424999Y-95844001D01*
X178424999Y-95844001D01*
X178424999Y-95844001D01*
X178424999Y-95844001D01*
X178424999Y-95844001D01*
X178424999Y-95844001D01*
X178424999Y-95844000D01*
X178424999Y-95844000D01*
X178424999Y-95844000D01*
X178424999Y-95844000D01*
X178424999Y-95844000D01*
X178424999Y-95844000D01*
X178425000Y-95844000D01*
D11*
D17*
X178525000Y-95844000D02*
X178524999Y-95844000D01*
X178524999Y-95844000D01*
X178524999Y-95844000D01*
X178524999Y-95844000D01*
X178524999Y-95844000D01*
X178524999Y-95844000D01*
X178524999Y-95844000D01*
X178524999Y-95843999D01*
X178524999Y-95843999D01*
X178524999Y-95843999D01*
X178524999Y-95843999D01*
X178524999Y-95843999D01*
X178525000Y-95843999D01*
X178525000Y-95843999D01*
X178525000Y-95843999D01*
X178525000Y-95843999D01*
X178525000Y-95843999D01*
X178525000Y-95843999D01*
X178525000Y-95843999D01*
X178525000Y-95843999D01*
X178525000Y-95843999D01*
X178525000Y-95843999D01*
X178525000Y-95843999D01*
X178525000Y-95843999D01*
X178525001Y-95843999D01*
X178525001Y-95843999D01*
X178525001Y-95843999D01*
X178525001Y-95843999D01*
X178525001Y-95843999D01*
X178525001Y-95843999D01*
X178525001Y-95844000D01*
X178525001Y-95844000D01*
X178525001Y-95844000D01*
X178525001Y-95844000D01*
X178525001Y-95844000D01*
X178525001Y-95844000D01*
X178525001Y-95844000D01*
X178525000Y-95844000D01*
X178525000Y-95844000D02*
X178525001Y-95844000D01*
X178525001Y-95844000D01*
X178525001Y-95844000D01*
X178525001Y-95844000D01*
X178525001Y-95844000D01*
X178525001Y-95844000D01*
X178525001Y-95844001D01*
X178525001Y-95844001D01*
X178525001Y-95844001D01*
X178525001Y-95844001D01*
X178525001Y-95844001D01*
X178525001Y-95844001D01*
X178525001Y-95844001D01*
X178525000Y-95844001D01*
X178525000Y-95844001D01*
X178525000Y-95844001D01*
X178525000Y-95844001D01*
X178525000Y-95844001D01*
X178525000Y-95844001D01*
X178525000Y-95844001D01*
X178525000Y-95844001D01*
X178525000Y-95844001D01*
X178525000Y-95844001D01*
X178525000Y-95844001D01*
X178525000Y-95844001D01*
X178524999Y-95844001D01*
X178524999Y-95844001D01*
X178524999Y-95844001D01*
X178524999Y-95844001D01*
X178524999Y-95844001D01*
X178524999Y-95844001D01*
X178524999Y-95844000D01*
X178524999Y-95844000D01*
X178524999Y-95844000D01*
X178524999Y-95844000D01*
X178524999Y-95844000D01*
X178524999Y-95844000D01*
X178525000Y-95844000D01*
D11*
X178425000Y-95844000D02*
G75*
G02*
X178525000Y-95844000I50000J0D01*
G01*
X178525000Y-95844000D02*
G75*
G02*
X178425000Y-95844000I-50000J0D01*
G01*
%TO.C,R24*%
D15*
X191290000Y-90527064D02*
X191290000Y-89072936D01*
X193110000Y-90527064D02*
X193110000Y-89072936D01*
%TO.C,C22*%
X210388748Y-91490000D02*
X211811252Y-91490000D01*
X210388748Y-93310000D02*
X211811252Y-93310000D01*
%TO.C,F1*%
X95602064Y-74190000D02*
X94397936Y-74190000D01*
X95602064Y-76010000D02*
X94397936Y-76010000D01*
%TO.C,C31*%
D14*
X106078500Y-94070600D02*
X106078500Y-107913600D01*
X106078500Y-107913600D02*
X111768760Y-107913600D01*
X111768760Y-94070600D02*
X106078500Y-94070600D01*
X114231240Y-107913600D02*
X119921500Y-107913600D01*
X119921500Y-94070600D02*
X114231240Y-94070600D01*
X119921500Y-107913600D02*
X119921500Y-94070600D01*
X113076200Y-92732401D02*
G75*
G02*
X112923800Y-92732401I-76200J0D01*
G01*
X112923800Y-92732401D02*
G75*
G02*
X113076200Y-92732401I76200J0D01*
G01*
%TO.C,R2*%
D15*
X220727064Y-122590000D02*
X219272936Y-122590000D01*
X220727064Y-124410000D02*
X219272936Y-124410000D01*
%TO.C,C17*%
X197490000Y-103088748D02*
X197490000Y-104511252D01*
X199310000Y-103088748D02*
X199310000Y-104511252D01*
%TO.C,U6*%
D14*
X144421400Y-105579614D02*
X153921000Y-105579614D01*
X153921000Y-95064014D02*
X144421400Y-95064014D01*
X153921000Y-99509014D02*
X153921000Y-95064014D01*
X153921000Y-101134614D02*
X155673600Y-101134614D01*
X153921000Y-105579614D02*
X153921000Y-101134614D01*
X154403600Y-97337314D02*
X155343400Y-97337314D01*
X154403600Y-98226314D02*
X155343400Y-98226314D01*
X154403600Y-102417314D02*
X155343400Y-102417314D01*
X154403600Y-103306314D02*
X155343400Y-103306314D01*
X155673600Y-99509014D02*
X153921000Y-99509014D01*
X155673600Y-101134614D02*
X155673600Y-99509014D01*
%TO.C,PWR_IN*%
X220818700Y-53456200D02*
X220818700Y-69864600D01*
X220818700Y-69864600D02*
X230978700Y-69864600D01*
X230978700Y-53456200D02*
X220818700Y-53456200D01*
X230978700Y-69864600D02*
X230978700Y-53456200D01*
D16*
X222316700Y-52567200D02*
G75*
G02*
X221554700Y-52567200I-381000J0D01*
G01*
X221554700Y-52567200D02*
G75*
G02*
X222316700Y-52567200I381000J0D01*
G01*
%TO.C,U3*%
D15*
X190340000Y-94940000D02*
X190435000Y-94940000D01*
X190340000Y-99060000D02*
X190340000Y-94940000D01*
X190435000Y-99060000D02*
X190340000Y-99060000D01*
X195365000Y-94940000D02*
X195460000Y-94940000D01*
X195460000Y-94940000D02*
X195460000Y-99060000D01*
X195460000Y-99060000D02*
X195365000Y-99060000D01*
X195700000Y-94640000D02*
X195370000Y-94400000D01*
X195700000Y-94160000D01*
X195700000Y-94640000D01*
G36*
X195700000Y-94640000D02*
G01*
X195370000Y-94400000D01*
X195700000Y-94160000D01*
X195700000Y-94640000D01*
G37*
%TO.C,BOOT1*%
X196100000Y-100400000D02*
X196100000Y-97600000D01*
X196800000Y-96950000D02*
X197400000Y-96950000D01*
X197400000Y-101050000D02*
X196800000Y-101050000D01*
X198100000Y-97600000D02*
X198100000Y-100400000D01*
X198300000Y-100200000D02*
X198600000Y-99900000D01*
X198300000Y-100200000D02*
X198600000Y-100500000D01*
X198600000Y-100500000D02*
X198600000Y-99900000D01*
X196100000Y-97650000D02*
G75*
G02*
X196800000Y-96950000I700000J0D01*
G01*
X196800000Y-101050000D02*
G75*
G02*
X196100000Y-100350000I-1J699999D01*
G01*
X197400000Y-96950000D02*
G75*
G02*
X198100000Y-97650000I0J-700000D01*
G01*
X198100000Y-100350000D02*
G75*
G02*
X197400000Y-101050000I-699999J-1D01*
G01*
%TO.C,D2*%
D14*
X191399800Y-124298100D02*
X191399800Y-129301900D01*
X191399800Y-129301900D02*
X191816360Y-129301900D01*
X191816360Y-124298100D02*
X191399800Y-124298100D01*
X194183640Y-129301900D02*
X194600200Y-129301900D01*
X194600200Y-124298100D02*
X194183640Y-124298100D01*
X194600200Y-129301900D02*
X194600200Y-124298100D01*
X193076200Y-122761400D02*
G75*
G02*
X192923800Y-122761400I-76200J0D01*
G01*
X192923800Y-122761400D02*
G75*
G02*
X193076200Y-122761400I76200J0D01*
G01*
%TO.C,Y1*%
D15*
X208890000Y-84890000D02*
X207910000Y-84890000D01*
X208890000Y-86910000D02*
X207910000Y-86910000D01*
X211160000Y-86800000D02*
X211160000Y-85000000D01*
%TO.C,U2*%
X200790000Y-93090000D02*
X201240000Y-93090000D01*
X200790000Y-93540000D02*
X200790000Y-93090000D01*
X200790000Y-100310000D02*
X200790000Y-99860000D01*
X201240000Y-100310000D02*
X200790000Y-100310000D01*
X207560000Y-93090000D02*
X208010000Y-93090000D01*
X208010000Y-93090000D02*
X208010000Y-93540000D01*
X208010000Y-99860000D02*
X208010000Y-100310000D01*
X208010000Y-100310000D02*
X207560000Y-100310000D01*
X208030000Y-92790000D02*
X207560000Y-92450000D01*
X208030000Y-92110000D01*
X208030000Y-92790000D01*
G36*
X208030000Y-92790000D02*
G01*
X207560000Y-92450000D01*
X208030000Y-92110000D01*
X208030000Y-92790000D01*
G37*
%TO.C,C14*%
X193290000Y-102688748D02*
X193290000Y-104111252D01*
X195110000Y-102688748D02*
X195110000Y-104111252D01*
%TO.C,SWD*%
X225620000Y-94330000D02*
X225620000Y-86600000D01*
X228380000Y-86600000D02*
X225620000Y-86600000D01*
X228380000Y-94330000D02*
X225620000Y-94330000D01*
X228380000Y-94330000D02*
X228380000Y-86600000D01*
X228380000Y-95600000D02*
X228380000Y-96980000D01*
X228380000Y-96980000D02*
X227000000Y-96980000D01*
%TO.C,K1*%
D10*
X197750000Y-53500000D02*
X197750000Y-82500000D01*
X197750000Y-82500000D02*
X210250000Y-82500000D01*
X210250000Y-53500000D02*
X197750000Y-53500000D01*
X210250000Y-82500000D02*
X210250000Y-53500000D01*
D11*
D17*
X210650000Y-79960000D02*
X210649999Y-79960000D01*
X210649999Y-79960000D01*
X210649999Y-79960000D01*
X210649999Y-79960000D01*
X210649999Y-79960000D01*
X210649999Y-79960000D01*
X210649999Y-79960000D01*
X210649999Y-79959999D01*
X210649999Y-79959999D01*
X210649999Y-79959999D01*
X210649999Y-79959999D01*
X210649999Y-79959999D01*
X210650000Y-79959999D01*
X210650000Y-79959999D01*
X210650000Y-79959999D01*
X210650000Y-79959999D01*
X210650000Y-79959999D01*
X210650000Y-79959999D01*
X210650000Y-79959999D01*
X210650000Y-79959999D01*
X210650000Y-79959999D01*
X210650000Y-79959999D01*
X210650000Y-79959999D01*
X210650000Y-79959999D01*
X210650001Y-79959999D01*
X210650001Y-79959999D01*
X210650001Y-79959999D01*
X210650001Y-79959999D01*
X210650001Y-79959999D01*
X210650001Y-79959999D01*
X210650001Y-79960000D01*
X210650001Y-79960000D01*
X210650001Y-79960000D01*
X210650001Y-79960000D01*
X210650001Y-79960000D01*
X210650001Y-79960000D01*
X210650001Y-79960000D01*
X210650000Y-79960000D01*
X210650000Y-79960000D02*
X210650001Y-79960000D01*
X210650001Y-79960000D01*
X210650001Y-79960000D01*
X210650001Y-79960000D01*
X210650001Y-79960000D01*
X210650001Y-79960000D01*
X210650001Y-79960001D01*
X210650001Y-79960001D01*
X210650001Y-79960001D01*
X210650001Y-79960001D01*
X210650001Y-79960001D01*
X210650001Y-79960001D01*
X210650001Y-79960001D01*
X210650000Y-79960001D01*
X210650000Y-79960001D01*
X210650000Y-79960001D01*
X210650000Y-79960001D01*
X210650000Y-79960001D01*
X210650000Y-79960001D01*
X210650000Y-79960001D01*
X210650000Y-79960001D01*
X210650000Y-79960001D01*
X210650000Y-79960001D01*
X210650000Y-79960001D01*
X210650000Y-79960001D01*
X210649999Y-79960001D01*
X210649999Y-79960001D01*
X210649999Y-79960001D01*
X210649999Y-79960001D01*
X210649999Y-79960001D01*
X210649999Y-79960001D01*
X210649999Y-79960000D01*
X210649999Y-79960000D01*
X210649999Y-79960000D01*
X210649999Y-79960000D01*
X210649999Y-79960000D01*
X210649999Y-79960000D01*
X210650000Y-79960000D01*
D11*
D17*
X210750000Y-79960000D02*
X210749999Y-79960000D01*
X210749999Y-79960000D01*
X210749999Y-79960000D01*
X210749999Y-79960000D01*
X210749999Y-79960000D01*
X210749999Y-79960000D01*
X210749999Y-79960000D01*
X210749999Y-79959999D01*
X210749999Y-79959999D01*
X210749999Y-79959999D01*
X210749999Y-79959999D01*
X210749999Y-79959999D01*
X210750000Y-79959999D01*
X210750000Y-79959999D01*
X210750000Y-79959999D01*
X210750000Y-79959999D01*
X210750000Y-79959999D01*
X210750000Y-79959999D01*
X210750000Y-79959999D01*
X210750000Y-79959999D01*
X210750000Y-79959999D01*
X210750000Y-79959999D01*
X210750000Y-79959999D01*
X210750000Y-79959999D01*
X210750001Y-79959999D01*
X210750001Y-79959999D01*
X210750001Y-79959999D01*
X210750001Y-79959999D01*
X210750001Y-79959999D01*
X210750001Y-79959999D01*
X210750001Y-79960000D01*
X210750001Y-79960000D01*
X210750001Y-79960000D01*
X210750001Y-79960000D01*
X210750001Y-79960000D01*
X210750001Y-79960000D01*
X210750001Y-79960000D01*
X210750000Y-79960000D01*
X210750000Y-79960000D02*
X210750001Y-79960000D01*
X210750001Y-79960000D01*
X210750001Y-79960000D01*
X210750001Y-79960000D01*
X210750001Y-79960000D01*
X210750001Y-79960000D01*
X210750001Y-79960001D01*
X210750001Y-79960001D01*
X210750001Y-79960001D01*
X210750001Y-79960001D01*
X210750001Y-79960001D01*
X210750001Y-79960001D01*
X210750001Y-79960001D01*
X210750000Y-79960001D01*
X210750000Y-79960001D01*
X210750000Y-79960001D01*
X210750000Y-79960001D01*
X210750000Y-79960001D01*
X210750000Y-79960001D01*
X210750000Y-79960001D01*
X210750000Y-79960001D01*
X210750000Y-79960001D01*
X210750000Y-79960001D01*
X210750000Y-79960001D01*
X210750000Y-79960001D01*
X210749999Y-79960001D01*
X210749999Y-79960001D01*
X210749999Y-79960001D01*
X210749999Y-79960001D01*
X210749999Y-79960001D01*
X210749999Y-79960001D01*
X210749999Y-79960000D01*
X210749999Y-79960000D01*
X210749999Y-79960000D01*
X210749999Y-79960000D01*
X210749999Y-79960000D01*
X210749999Y-79960000D01*
X210750000Y-79960000D01*
D11*
X210650000Y-79960000D02*
G75*
G02*
X210750000Y-79960000I50000J0D01*
G01*
X210750000Y-79960000D02*
G75*
G02*
X210650000Y-79960000I-50000J0D01*
G01*
%TO.C,F2*%
D15*
X215602064Y-54090000D02*
X214397936Y-54090000D01*
X215602064Y-55910000D02*
X214397936Y-55910000D01*
%TO.C,TP38*%
X225800000Y-127300000D02*
X227200000Y-127300000D01*
X225800000Y-128700000D02*
X225800000Y-127300000D01*
X227200000Y-127300000D02*
X227200000Y-128700000D01*
X227200000Y-128700000D02*
X225800000Y-128700000D01*
%TO.C,U1*%
X214740000Y-111140000D02*
X214995000Y-111140000D01*
X214740000Y-118860000D02*
X214740000Y-111140000D01*
X214995000Y-118860000D02*
X214740000Y-118860000D01*
X225005000Y-111140000D02*
X225260000Y-111140000D01*
X225260000Y-111140000D02*
X225260000Y-118860000D01*
X225260000Y-118860000D02*
X225005000Y-118860000D01*
X225480000Y-110690000D02*
X225010000Y-110350000D01*
X225480000Y-110010000D01*
X225480000Y-110690000D01*
G36*
X225480000Y-110690000D02*
G01*
X225010000Y-110350000D01*
X225480000Y-110010000D01*
X225480000Y-110690000D01*
G37*
%TO.C,L1*%
X133665000Y-75796814D02*
X151335000Y-75796814D01*
X133665000Y-77821814D02*
X133665000Y-75796814D01*
X133665000Y-93166814D02*
X133665000Y-91141814D01*
X151335000Y-75796814D02*
X151335000Y-77821814D01*
X151335000Y-91141814D02*
X151335000Y-93166814D01*
X151335000Y-93166814D02*
X133665000Y-93166814D01*
%TO.C,RST*%
X198900000Y-89500000D02*
X198900000Y-88900000D01*
X199600000Y-88200000D02*
X201000000Y-88200000D01*
X201000000Y-90200000D02*
X199600000Y-90200000D01*
X201700000Y-88900000D02*
X201700000Y-89500000D01*
X198900000Y-88900000D02*
G75*
G02*
X199600000Y-88200000I699999J1D01*
G01*
X199600000Y-90200000D02*
G75*
G02*
X198900000Y-89500000I-1J699999D01*
G01*
X201000000Y-88200000D02*
G75*
G02*
X201700000Y-88900000I0J-700000D01*
G01*
X201700000Y-89500000D02*
G75*
G02*
X201000000Y-90200000I-700000J0D01*
G01*
%TO.C,U7*%
D14*
X128768800Y-67589014D02*
X128768800Y-69214614D01*
X128768800Y-69214614D02*
X130521400Y-69214614D01*
X130038800Y-65417314D02*
X129099000Y-65417314D01*
X130038800Y-66306314D02*
X129099000Y-66306314D01*
X130038800Y-70497314D02*
X129099000Y-70497314D01*
X130038800Y-71386314D02*
X129099000Y-71386314D01*
X130521400Y-63144014D02*
X130521400Y-67589014D01*
X130521400Y-67589014D02*
X128768800Y-67589014D01*
X130521400Y-69214614D02*
X130521400Y-73659614D01*
X130521400Y-73659614D02*
X140021000Y-73659614D01*
X140021000Y-63144014D02*
X130521400Y-63144014D01*
%TO.C,C4*%
D15*
X215788748Y-127090000D02*
X217211252Y-127090000D01*
X215788748Y-128910000D02*
X217211252Y-128910000D01*
%TO.C,BOOT0*%
X211400000Y-94500000D02*
X211400000Y-95100000D01*
X211700000Y-94800000D02*
X211400000Y-94500000D01*
X211700000Y-94800000D02*
X211400000Y-95100000D01*
X211900000Y-97400000D02*
X211900000Y-94600000D01*
X212600000Y-93950000D02*
X213200000Y-93950000D01*
X213200000Y-98050000D02*
X212600000Y-98050000D01*
X213900000Y-94600000D02*
X213900000Y-97400000D01*
X211900000Y-94650000D02*
G75*
G02*
X212600000Y-93950000I699999J1D01*
G01*
X212600000Y-98050000D02*
G75*
G02*
X211900000Y-97350000I0J700000D01*
G01*
X213200000Y-93950000D02*
G75*
G02*
X213900000Y-94650000I1J-699999D01*
G01*
X213900000Y-97350000D02*
G75*
G02*
X213200000Y-98050000I-700000J0D01*
G01*
%TO.C,U8*%
D14*
X144310000Y-73739614D02*
X153809600Y-73739614D01*
X153809600Y-63224014D02*
X144310000Y-63224014D01*
X153809600Y-67669014D02*
X153809600Y-63224014D01*
X153809600Y-69294614D02*
X155562200Y-69294614D01*
X153809600Y-73739614D02*
X153809600Y-69294614D01*
X154292200Y-65497314D02*
X155232000Y-65497314D01*
X154292200Y-66386314D02*
X155232000Y-66386314D01*
X154292200Y-70577314D02*
X155232000Y-70577314D01*
X154292200Y-71466314D02*
X155232000Y-71466314D01*
X155562200Y-67669014D02*
X153809600Y-67669014D01*
X155562200Y-69294614D02*
X155562200Y-67669014D01*
%TO.C,COM*%
X215137602Y-133818700D02*
X215137602Y-143978700D01*
X215137602Y-143978700D02*
X225541599Y-143978700D01*
X225541599Y-133818700D02*
X215137602Y-133818700D01*
X225541599Y-143978700D02*
X225541599Y-133818700D01*
D16*
X226811599Y-134935700D02*
G75*
G02*
X226049599Y-134935700I-381000J0D01*
G01*
X226049599Y-134935700D02*
G75*
G02*
X226811599Y-134935700I381000J0D01*
G01*
%TO.C,C2*%
D15*
X226990000Y-109311252D02*
X226990000Y-107888748D01*
X228810000Y-109311252D02*
X228810000Y-107888748D01*
%TO.C,R3*%
X212590000Y-136227064D02*
X212590000Y-134772936D01*
X214410000Y-136227064D02*
X214410000Y-134772936D01*
%TO.C,C33*%
X108540000Y-61140000D02*
X112290000Y-61140000D01*
X108540000Y-70595563D02*
X108540000Y-61140000D01*
X109604437Y-71660000D02*
X108540000Y-70595563D01*
X109604437Y-71660000D02*
X112290000Y-71660000D01*
X110415000Y-72525000D02*
X111665000Y-72525000D01*
X111040000Y-73150000D02*
X111040000Y-71900000D01*
X117995563Y-71660000D02*
X115310000Y-71660000D01*
X117995563Y-71660000D02*
X119060000Y-70595563D01*
X119060000Y-61140000D02*
X115310000Y-61140000D01*
X119060000Y-70595563D02*
X119060000Y-61140000D01*
%TD*%
M02*
