%TF.GenerationSoftware,KiCad,Pcbnew,10.0.1*%
%TF.CreationDate,2026-05-19T08:06:43+02:00*%
%TF.ProjectId,LV_Regulator,4c565f52-6567-4756-9c61-746f722e6b69,1.00*%
%TF.SameCoordinates,Original*%
%TF.FileFunction,Copper,L2,Inr*%
%TF.FilePolarity,Positive*%
%FSLAX46Y46*%
G04 Gerber Fmt 4.6, Leading zero omitted, Abs format (unit mm)*
G04 Created by KiCad (PCBNEW 10.0.1) date 2026-05-19 08:06:43*
%MOMM*%
%LPD*%
G01*
G04 APERTURE LIST*
%TA.AperFunction,ComponentPad*%
%ADD10C,1.574800*%
%TD*%
%TA.AperFunction,ComponentPad*%
%ADD11C,0.600000*%
%TD*%
%TA.AperFunction,ComponentPad*%
%ADD12O,1.900000X0.900000*%
%TD*%
%TA.AperFunction,ComponentPad*%
%ADD13R,1.700000X1.700000*%
%TD*%
%TA.AperFunction,ComponentPad*%
%ADD14C,1.700000*%
%TD*%
%TA.AperFunction,ComponentPad*%
%ADD15C,1.950000*%
%TD*%
%TA.AperFunction,ComponentPad*%
%ADD16R,1.950000X1.950000*%
%TD*%
%TA.AperFunction,ViaPad*%
%ADD17C,0.800000*%
%TD*%
%TA.AperFunction,Conductor*%
%ADD18C,1.000000*%
%TD*%
%TA.AperFunction,Conductor*%
%ADD19C,0.800000*%
%TD*%
%TA.AperFunction,Conductor*%
%ADD20C,0.250000*%
%TD*%
%TA.AperFunction,Conductor*%
%ADD21C,0.300000*%
%TD*%
%TA.AperFunction,Conductor*%
%ADD22C,0.200000*%
%TD*%
G04 APERTURE END LIST*
D10*
%TO.N,GND*%
%TO.C,START*%
X192639600Y-134785700D03*
X189639601Y-134785700D03*
%TO.N,5V_EXT*%
X192639600Y-131785701D03*
%TO.N,3V3_EXT*%
X189639601Y-131785701D03*
%TD*%
D11*
%TO.N,GND*%
%TO.C,DIAG*%
X222550000Y-102990000D03*
%TO.N,unconnected-(J6-VBUS1-PadA4)*%
X221650000Y-102990000D03*
%TO.N,Net-(J6-CC1)*%
X220750000Y-102990000D03*
%TO.N,CON_DP*%
X219850000Y-102990000D03*
%TO.N,CON_DN*%
X218950000Y-102990000D03*
%TO.N,unconnected-(J6-VBUS2-PadA9)*%
X218050000Y-102990000D03*
%TO.N,GND*%
X217150000Y-102990000D03*
X217600000Y-102210000D03*
%TO.N,unconnected-(J6-VBUS3-PadB4)*%
X218500000Y-102210000D03*
%TO.N,Net-(J6-CC2)*%
X219400000Y-102210000D03*
%TO.N,CON_DP*%
X220300000Y-102210000D03*
%TO.N,CON_DN*%
X221200000Y-102210000D03*
%TO.N,unconnected-(J6-VBUS4-PadB9)*%
X222100000Y-102210000D03*
%TO.N,GND*%
X223000000Y-102210000D03*
D12*
X222500000Y-104030000D03*
X222500000Y-101170000D03*
X217700000Y-104030000D03*
X217700000Y-101170000D03*
%TD*%
D10*
%TO.N,Net-(F1-Pad2)*%
%TO.C,J3*%
X90314301Y-89339599D03*
X90314301Y-86339600D03*
X90314301Y-83339601D03*
X90314301Y-80339602D03*
%TO.N,GND*%
X93314300Y-89339599D03*
X93314300Y-86339600D03*
X93314300Y-83339601D03*
X93314300Y-80339602D03*
%TD*%
%TO.N,BAT-*%
%TO.C,PWR_IN*%
X221935700Y-57160401D03*
X221935700Y-60160400D03*
X221935700Y-63160399D03*
X221935700Y-66160398D03*
%TO.N,Net-(F2-Pad1)*%
X218935701Y-57160401D03*
X218935701Y-60160400D03*
X218935701Y-63160399D03*
X218935701Y-66160398D03*
%TD*%
D13*
%TO.N,VBAT*%
%TO.C,SWD*%
X227000000Y-95600000D03*
D14*
%TO.N,SWDIO*%
X227000000Y-93060000D03*
%TO.N,SWCLK*%
X227000000Y-90520000D03*
%TO.N,GND*%
X227000000Y-87980000D03*
%TD*%
D15*
%TO.N,SYS*%
%TO.C,K1*%
X207750000Y-59960000D03*
%TO.N,unconnected-(K1-NC_1-Pad12)*%
X207750000Y-64960000D03*
%TO.N,BAT+*%
X207750000Y-54960000D03*
%TO.N,GND*%
X200250000Y-59960000D03*
%TO.N,unconnected-(K1-NC_2-Pad22)*%
X200250000Y-64960000D03*
%TO.N,BAT-*%
X200250000Y-54960000D03*
D16*
%TO.N,Net-(D1-K)*%
X207750000Y-79960000D03*
D15*
%TO.N,GND*%
X200250000Y-79960000D03*
%TD*%
D10*
%TO.N,RS485-B*%
%TO.C,COM*%
X221839600Y-134935700D03*
%TO.N,RS485-A*%
X218839601Y-134935700D03*
%TO.N,GND_ISO*%
X221839600Y-131935701D03*
%TO.N,+5V_ISO*%
X218839601Y-131935701D03*
%TD*%
D17*
%TO.N,VBAT*%
X208700000Y-101600000D03*
X184400000Y-107700000D03*
X182500000Y-72200000D03*
X196700000Y-90200000D03*
X158500000Y-72500000D03*
X130000000Y-88500000D03*
%TO.N,VOUT*%
X140200000Y-80900000D03*
X113838227Y-73198040D03*
X100985359Y-75002796D03*
X110450000Y-82000000D03*
%TO.N,GND*%
X204600000Y-129200000D03*
X100100000Y-107900000D03*
X196200000Y-104962500D03*
X142000000Y-84900000D03*
X227900000Y-105800000D03*
X223174999Y-112174999D03*
X190400000Y-94400000D03*
X113800000Y-59300000D03*
X198500000Y-89200000D03*
X196000000Y-101400000D03*
X138000000Y-82500000D03*
X210700000Y-94500000D03*
X173410000Y-78590000D03*
X138000000Y-81500000D03*
X146700000Y-83400000D03*
X214500000Y-110400000D03*
X159941814Y-65941814D03*
X203600000Y-93900000D03*
X113000000Y-109584200D03*
X101000000Y-58300000D03*
X204600000Y-122800000D03*
X124658186Y-70941814D03*
X178600000Y-92440000D03*
X194500000Y-85900000D03*
X206700000Y-102300000D03*
%TO.N,HSC_IN*%
X203399998Y-85800000D03*
%TO.N,HSC_OUT*%
X199200000Y-85900000D03*
%TO.N,HIDRV1_FET1*%
X130201200Y-97751812D03*
X147250000Y-88850000D03*
%TO.N,SYS*%
X157399999Y-104003679D03*
X144500000Y-90550000D03*
X160500000Y-93500000D03*
X143500000Y-90550000D03*
X142500000Y-90550000D03*
X169275000Y-84725000D03*
%TO.N,SW1*%
X145900000Y-88600000D03*
X137354000Y-62554000D03*
%TO.N,+5V*%
X174700000Y-97950000D03*
X192400000Y-123400000D03*
X204600000Y-121600000D03*
X217750000Y-80850000D03*
X204600000Y-124100000D03*
X192000000Y-124600000D03*
X194000000Y-124600000D03*
X193600000Y-123400000D03*
X193600000Y-125800000D03*
X192400000Y-125800000D03*
%TO.N,GND_ISO*%
X228200000Y-128200000D03*
X216800000Y-122000000D03*
X224609375Y-124390625D03*
X210000000Y-128500000D03*
X218062501Y-129937499D03*
%TO.N,Net-(IC3-IN)*%
X173475000Y-80325000D03*
%TO.N,3V3_INT*%
X173540000Y-76910000D03*
%TO.N,Net-(IC3-ADJ)*%
X170575000Y-70600000D03*
%TO.N,Net-(U6-D)*%
X152345325Y-104691796D03*
X110350000Y-86550000D03*
X152300000Y-98200000D03*
X144900000Y-74725000D03*
X151150000Y-94350000D03*
%TO.N,Net-(J6-CC1)*%
X222000000Y-106500000D03*
%TO.N,Net-(J6-CC2)*%
X221700000Y-96600000D03*
%TO.N,Net-(IC2-IN)*%
X178538502Y-94142000D03*
%TO.N,5V_INT*%
X173300000Y-90738000D03*
X178537999Y-90737999D03*
%TO.N,Net-(IC2-ADJ)*%
X173200000Y-89000000D03*
%TO.N,HIDRV2_FET4*%
X159711814Y-102861814D03*
X145300000Y-80800000D03*
%TO.N,SW2*%
X147000000Y-62700000D03*
%TO.N,SS*%
X202000000Y-93900000D03*
X194800000Y-92800000D03*
%TO.N,MISO_DOBROTO*%
X202200000Y-96000000D03*
X193800650Y-92950000D03*
%TO.N,SCK*%
X201920406Y-94938365D03*
X192285652Y-101200000D03*
%TO.N,LSC_IN*%
X210100000Y-86000000D03*
%TO.N,LSC_OUT*%
X206800000Y-86000000D03*
%TO.N,RS485-DIR*%
X206700000Y-93800000D03*
X220000000Y-112000000D03*
%TO.N,RESET*%
X201700000Y-89200000D03*
%TO.N,DIAG_OK*%
X197342229Y-93200000D03*
%TO.N,DIAG_ERR*%
X197216752Y-95751876D03*
%TO.N,RELEJ*%
X202300000Y-97200000D03*
%TO.N,INT_N*%
X138000000Y-86500000D03*
X203000000Y-98000000D03*
X187000000Y-97900000D03*
X186900000Y-88500000D03*
%TO.N,ADR1*%
X200400000Y-100300000D03*
%TO.N,ADR2*%
X201200000Y-103600000D03*
%TO.N,ADR3*%
X201200000Y-106500000D03*
%TO.N,ADR4*%
X201700000Y-108800000D03*
%TO.N,ADR5*%
X202000000Y-111400000D03*
%TO.N,DIAG_RUN*%
X203200000Y-111500000D03*
%TO.N,DIAG_TX*%
X204000000Y-108900000D03*
%TO.N,DIAG_RX*%
X204900000Y-105400000D03*
%TO.N,USB_DN*%
X215400000Y-104600000D03*
%TO.N,USB_DP*%
X215400000Y-100500000D03*
%TO.N,SWDIO*%
X206172606Y-99657387D03*
%TO.N,SWCLK*%
X212600000Y-99500000D03*
%TO.N,CE_N*%
X137975008Y-83500313D03*
X156500000Y-92750000D03*
X206697321Y-98750000D03*
%TO.N,RS485-TX*%
X207247321Y-97200000D03*
X218069669Y-111930331D03*
%TO.N,RS485-RX*%
X210300000Y-97000000D03*
X221900000Y-112000000D03*
%TO.N,I2C_SCL*%
X182950000Y-89800000D03*
X138000000Y-88500000D03*
X207244736Y-95710736D03*
X153000000Y-90750000D03*
%TO.N,I2C_SDA*%
X207250117Y-94710748D03*
X137700000Y-87500000D03*
X159000000Y-91700000D03*
%TO.N,LODRV1_FET2*%
X147000000Y-85900000D03*
X124900000Y-65850000D03*
%TO.N,LODRV2_FET3*%
X159750000Y-71000000D03*
X146775757Y-82214923D03*
%TO.N,REGN*%
X125200000Y-84800000D03*
X146219376Y-85025001D03*
%TD*%
%TO.N,VBAT*%
D18*
X158500000Y-73450000D02*
X158500000Y-72500000D01*
X130000000Y-88500000D02*
X130000000Y-87944365D01*
X153900000Y-78050000D02*
X158500000Y-73450000D01*
X130000000Y-87944365D02*
X139894365Y-78050000D01*
X139894365Y-78050000D02*
X153900000Y-78050000D01*
%TO.N,HIDRV1_FET1*%
D19*
X144448188Y-97751812D02*
X130201200Y-97751812D01*
X147250000Y-94950000D02*
X144448188Y-97751812D01*
X147250000Y-88850000D02*
X147250000Y-94950000D01*
%TO.N,HIDRV2_FET4*%
X154211814Y-102861814D02*
X149200000Y-97850000D01*
X149200000Y-97850000D02*
X149200000Y-81050000D01*
X146310786Y-79700000D02*
X145300000Y-80710786D01*
X145300000Y-80710786D02*
X145300000Y-80800000D01*
D20*
X145300000Y-80800000D02*
X145175000Y-80925000D01*
D19*
X147850000Y-79700000D02*
X146310786Y-79700000D01*
X149200000Y-81050000D02*
X147850000Y-79700000D01*
X159711814Y-102861814D02*
X154211814Y-102861814D01*
%TO.N,SS*%
D21*
X196000000Y-94000000D02*
X201900000Y-94000000D01*
X194800000Y-92800000D02*
X196000000Y-94000000D01*
X201900000Y-94000000D02*
X202000000Y-93900000D01*
%TO.N,MISO_DOBROTO*%
X193700000Y-93050650D02*
X193800650Y-92950000D01*
X197600000Y-96700000D02*
X194300000Y-96700000D01*
X193700000Y-96100000D02*
X193700000Y-93050650D01*
X198300000Y-96000000D02*
X197600000Y-96700000D01*
X194300000Y-96700000D02*
X193700000Y-96100000D01*
X202200000Y-96000000D02*
X198300000Y-96000000D01*
%TO.N,INT_N*%
X187200000Y-98000000D02*
X203000000Y-98000000D01*
D22*
X187000000Y-97900000D02*
X187100000Y-97900000D01*
D20*
X138025305Y-86500000D02*
X138000000Y-86500000D01*
X186800000Y-88300000D02*
X177815000Y-79315000D01*
X148625000Y-78975000D02*
X145550305Y-78975000D01*
X148965000Y-79315000D02*
X148625000Y-78975000D01*
D22*
X187100000Y-97900000D02*
X187200000Y-98000000D01*
D20*
X177815000Y-79315000D02*
X148965000Y-79315000D01*
X145550305Y-78975000D02*
X138025305Y-86500000D01*
%TO.N,SWDIO*%
D21*
X227000000Y-93060000D02*
X221140000Y-93060000D01*
X213900000Y-100300000D02*
X206815219Y-100300000D01*
X221140000Y-93060000D02*
X213900000Y-100300000D01*
X206815219Y-100300000D02*
X206172606Y-99657387D01*
%TO.N,SWCLK*%
X226880000Y-90400000D02*
X227000000Y-90520000D01*
X212600000Y-99500000D02*
X213500000Y-99500000D01*
X213500000Y-99500000D02*
X222600000Y-90400000D01*
X222600000Y-90400000D02*
X226880000Y-90400000D01*
%TO.N,CE_N*%
X156500000Y-92750000D02*
X160250000Y-96500000D01*
X185450000Y-98750000D02*
X206697321Y-98750000D01*
X160250000Y-96500000D02*
X183200000Y-96500000D01*
X183200000Y-96500000D02*
X185450000Y-98750000D01*
%TO.N,I2C_SCL*%
D20*
X153950000Y-89800000D02*
X153000000Y-90750000D01*
X182950000Y-89800000D02*
X153950000Y-89800000D01*
%TO.N,I2C_SDA*%
D21*
X159010000Y-91690000D02*
X178910661Y-91690000D01*
X159000000Y-91700000D02*
X159010000Y-91690000D01*
X178910661Y-91690000D02*
X179220661Y-92000000D01*
X206210748Y-94710748D02*
X207250117Y-94710748D01*
X179220661Y-92000000D02*
X203500000Y-92000000D01*
X203500000Y-92000000D02*
X206210748Y-94710748D01*
%TO.N,LODRV1_FET2*%
D19*
X138150000Y-91800000D02*
X139000000Y-90950000D01*
X140350000Y-85900000D02*
X147000000Y-85900000D01*
X139000000Y-90950000D02*
X139000000Y-87250000D01*
X139000000Y-87250000D02*
X140350000Y-85900000D01*
X124900000Y-65850000D02*
X127250000Y-68200000D01*
X127250000Y-89050000D02*
X130000000Y-91800000D01*
X130000000Y-91800000D02*
X138150000Y-91800000D01*
X127250000Y-68200000D02*
X127250000Y-89050000D01*
%TD*%
%TA.AperFunction,Conductor*%
%TO.N,GND*%
G36*
X181000000Y-82039673D02*
G01*
X178014862Y-79054535D01*
X177977750Y-79033108D01*
X177940640Y-79011682D01*
X177899246Y-79000591D01*
X177857853Y-78989500D01*
X177857852Y-78989500D01*
X154026454Y-78989500D01*
X153959415Y-78969815D01*
X153913660Y-78917011D01*
X153903716Y-78847853D01*
X153932741Y-78784297D01*
X153991519Y-78746523D01*
X154002262Y-78743883D01*
X154076386Y-78729138D01*
X154104328Y-78723580D01*
X154168069Y-78697177D01*
X154231807Y-78670777D01*
X154231808Y-78670776D01*
X154231811Y-78670775D01*
X154346543Y-78594114D01*
X154346546Y-78594111D01*
X156109715Y-76830943D01*
X172939500Y-76830943D01*
X172939500Y-76989056D01*
X172980423Y-77141783D01*
X172980426Y-77141790D01*
X173059475Y-77278709D01*
X173059479Y-77278714D01*
X173059480Y-77278716D01*
X173171284Y-77390520D01*
X173171286Y-77390521D01*
X173171290Y-77390524D01*
X173308209Y-77469573D01*
X173308216Y-77469577D01*
X173460943Y-77510500D01*
X173460945Y-77510500D01*
X173619055Y-77510500D01*
X173619057Y-77510500D01*
X173771784Y-77469577D01*
X173908716Y-77390520D01*
X174020520Y-77278716D01*
X174099577Y-77141784D01*
X174140500Y-76989057D01*
X174140500Y-76830943D01*
X174099577Y-76678216D01*
X174099573Y-76678209D01*
X174020524Y-76541290D01*
X174020518Y-76541282D01*
X173908717Y-76429481D01*
X173908709Y-76429475D01*
X173771790Y-76350426D01*
X173771786Y-76350424D01*
X173771784Y-76350423D01*
X173619057Y-76309500D01*
X173460943Y-76309500D01*
X173308216Y-76350423D01*
X173308209Y-76350426D01*
X173171290Y-76429475D01*
X173171282Y-76429481D01*
X173059481Y-76541282D01*
X173059475Y-76541290D01*
X172980426Y-76678209D01*
X172980423Y-76678216D01*
X172939500Y-76830943D01*
X156109715Y-76830943D01*
X156205523Y-76735135D01*
X159044110Y-73896546D01*
X159044113Y-73896543D01*
X159120774Y-73781812D01*
X159120775Y-73781811D01*
X159173580Y-73654328D01*
X159200500Y-73518993D01*
X159200500Y-72431007D01*
X159200500Y-72431004D01*
X159173581Y-72295677D01*
X159173580Y-72295676D01*
X159173580Y-72295672D01*
X159173578Y-72295667D01*
X159120778Y-72168195D01*
X159120771Y-72168182D01*
X159044114Y-72053458D01*
X159044111Y-72053454D01*
X158946545Y-71955888D01*
X158946541Y-71955885D01*
X158831817Y-71879228D01*
X158831804Y-71879221D01*
X158704332Y-71826421D01*
X158704322Y-71826418D01*
X158568995Y-71799500D01*
X158568993Y-71799500D01*
X158431007Y-71799500D01*
X158431005Y-71799500D01*
X158295677Y-71826418D01*
X158295667Y-71826421D01*
X158168195Y-71879221D01*
X158168182Y-71879228D01*
X158053458Y-71955885D01*
X158053454Y-71955888D01*
X157955888Y-72053454D01*
X157955885Y-72053458D01*
X157879228Y-72168182D01*
X157879221Y-72168195D01*
X157826421Y-72295667D01*
X157826418Y-72295677D01*
X157799500Y-72431004D01*
X157799500Y-73108481D01*
X157779815Y-73175520D01*
X157763181Y-73196162D01*
X153646162Y-77313181D01*
X153584839Y-77346666D01*
X153558481Y-77349500D01*
X139825368Y-77349500D01*
X139716955Y-77371065D01*
X139716954Y-77371065D01*
X139690036Y-77376420D01*
X139562555Y-77429224D01*
X139447819Y-77505887D01*
X129455887Y-87497819D01*
X129379223Y-87612557D01*
X129326421Y-87740033D01*
X129326420Y-87740037D01*
X129312588Y-87809577D01*
X129312588Y-87809578D01*
X129300824Y-87868717D01*
X129299500Y-87875372D01*
X129299500Y-88568993D01*
X129299500Y-88568995D01*
X129299499Y-88568995D01*
X129326418Y-88704322D01*
X129326421Y-88704332D01*
X129379221Y-88831804D01*
X129379228Y-88831817D01*
X129455885Y-88946541D01*
X129455888Y-88946545D01*
X129553454Y-89044111D01*
X129553458Y-89044114D01*
X129668182Y-89120771D01*
X129668195Y-89120778D01*
X129795667Y-89173578D01*
X129795672Y-89173580D01*
X129795676Y-89173580D01*
X129795677Y-89173581D01*
X129931004Y-89200500D01*
X129931007Y-89200500D01*
X130068995Y-89200500D01*
X130160041Y-89182389D01*
X130204328Y-89173580D01*
X130331811Y-89120775D01*
X130446542Y-89044114D01*
X130544114Y-88946542D01*
X130620775Y-88831811D01*
X130673580Y-88704328D01*
X130688108Y-88631290D01*
X130700500Y-88568995D01*
X130700500Y-88285884D01*
X130720185Y-88218845D01*
X130736819Y-88198203D01*
X135513766Y-83421256D01*
X137374508Y-83421256D01*
X137374508Y-83579370D01*
X137398020Y-83667116D01*
X137415431Y-83732096D01*
X137415434Y-83732103D01*
X137494483Y-83869022D01*
X137494487Y-83869027D01*
X137494488Y-83869029D01*
X137606292Y-83980833D01*
X137606294Y-83980834D01*
X137606298Y-83980837D01*
X137664342Y-84014348D01*
X137743224Y-84059890D01*
X137895951Y-84100813D01*
X137895953Y-84100813D01*
X138054063Y-84100813D01*
X138054065Y-84100813D01*
X138206792Y-84059890D01*
X138343724Y-83980833D01*
X138455528Y-83869029D01*
X138534585Y-83732097D01*
X138575508Y-83579370D01*
X138575508Y-83421256D01*
X138534585Y-83268529D01*
X138534581Y-83268522D01*
X138455532Y-83131603D01*
X138455526Y-83131595D01*
X138343725Y-83019794D01*
X138343717Y-83019788D01*
X138206798Y-82940739D01*
X138206794Y-82940737D01*
X138206792Y-82940736D01*
X138054065Y-82899813D01*
X137895951Y-82899813D01*
X137743224Y-82940736D01*
X137743217Y-82940739D01*
X137606298Y-83019788D01*
X137606290Y-83019794D01*
X137494489Y-83131595D01*
X137494483Y-83131603D01*
X137415434Y-83268522D01*
X137415431Y-83268529D01*
X137374508Y-83421256D01*
X135513766Y-83421256D01*
X138114079Y-80820943D01*
X139599500Y-80820943D01*
X139599500Y-80979057D01*
X139620252Y-81056502D01*
X139640423Y-81131783D01*
X139640426Y-81131790D01*
X139719475Y-81268709D01*
X139719479Y-81268714D01*
X139719480Y-81268716D01*
X139831284Y-81380520D01*
X139831286Y-81380521D01*
X139831290Y-81380524D01*
X139882442Y-81410056D01*
X139968216Y-81459577D01*
X140120943Y-81500500D01*
X140120945Y-81500500D01*
X140279055Y-81500500D01*
X140279057Y-81500500D01*
X140431784Y-81459577D01*
X140568716Y-81380520D01*
X140680520Y-81268716D01*
X140759577Y-81131784D01*
X140800500Y-80979057D01*
X140800500Y-80820943D01*
X140759577Y-80668216D01*
X140759573Y-80668209D01*
X140680524Y-80531290D01*
X140680518Y-80531282D01*
X140568717Y-80419481D01*
X140568709Y-80419475D01*
X140431790Y-80340426D01*
X140431786Y-80340424D01*
X140431784Y-80340423D01*
X140279057Y-80299500D01*
X140120943Y-80299500D01*
X139968216Y-80340423D01*
X139968209Y-80340426D01*
X139831290Y-80419475D01*
X139831282Y-80419481D01*
X139719481Y-80531282D01*
X139719475Y-80531290D01*
X139640426Y-80668209D01*
X139640423Y-80668216D01*
X139599500Y-80820943D01*
X138114079Y-80820943D01*
X140148203Y-78786819D01*
X140209526Y-78753334D01*
X140235884Y-78750500D01*
X145015116Y-78750500D01*
X145082155Y-78770185D01*
X145127910Y-78822989D01*
X145137854Y-78892147D01*
X145108829Y-78955703D01*
X145102797Y-78962181D01*
X138197837Y-85867139D01*
X138136514Y-85900624D01*
X138087263Y-85899452D01*
X138087118Y-85900561D01*
X138079057Y-85899500D01*
X137920943Y-85899500D01*
X137768216Y-85940423D01*
X137768209Y-85940426D01*
X137631290Y-86019475D01*
X137631282Y-86019481D01*
X137519481Y-86131282D01*
X137519475Y-86131290D01*
X137440426Y-86268209D01*
X137440423Y-86268216D01*
X137399500Y-86420943D01*
X137399500Y-86579057D01*
X137440423Y-86731784D01*
X137462185Y-86769478D01*
X137475714Y-86792910D01*
X137492187Y-86860810D01*
X137469334Y-86926837D01*
X137430327Y-86962297D01*
X137331287Y-87019477D01*
X137331282Y-87019481D01*
X137219481Y-87131282D01*
X137219475Y-87131290D01*
X137140426Y-87268209D01*
X137140423Y-87268216D01*
X137099500Y-87420943D01*
X137099500Y-87579057D01*
X137112347Y-87627000D01*
X137140423Y-87731783D01*
X137140426Y-87731790D01*
X137219475Y-87868709D01*
X137219479Y-87868714D01*
X137219480Y-87868716D01*
X137331284Y-87980520D01*
X137430326Y-88037701D01*
X137478542Y-88088268D01*
X137491766Y-88156875D01*
X137475715Y-88207088D01*
X137440423Y-88268215D01*
X137440423Y-88268216D01*
X137399500Y-88420943D01*
X137399500Y-88579057D01*
X137434545Y-88709845D01*
X137440423Y-88731783D01*
X137440426Y-88731790D01*
X137519475Y-88868709D01*
X137519479Y-88868714D01*
X137519480Y-88868716D01*
X137631284Y-88980520D01*
X137631286Y-88980521D01*
X137631290Y-88980524D01*
X137764572Y-89057473D01*
X137768216Y-89059577D01*
X137920943Y-89100500D01*
X137920945Y-89100500D01*
X138079055Y-89100500D01*
X138079057Y-89100500D01*
X138231784Y-89059577D01*
X138231785Y-89059576D01*
X138239635Y-89057473D01*
X138240262Y-89059813D01*
X138297500Y-89053652D01*
X138359984Y-89084919D01*
X138395644Y-89145003D01*
X138399500Y-89175685D01*
X138399500Y-90649902D01*
X138379815Y-90716941D01*
X138363181Y-90737583D01*
X137937584Y-91163181D01*
X137876261Y-91196666D01*
X137849903Y-91199500D01*
X130300097Y-91199500D01*
X130233058Y-91179815D01*
X130212416Y-91163181D01*
X127886819Y-88837584D01*
X127853334Y-88776261D01*
X127850500Y-88749903D01*
X127850500Y-74645943D01*
X144299500Y-74645943D01*
X144299500Y-74804056D01*
X144340423Y-74956783D01*
X144340426Y-74956790D01*
X144419475Y-75093709D01*
X144419479Y-75093714D01*
X144419480Y-75093716D01*
X144531284Y-75205520D01*
X144531286Y-75205521D01*
X144531290Y-75205524D01*
X144581628Y-75234586D01*
X144668216Y-75284577D01*
X144820943Y-75325500D01*
X144820945Y-75325500D01*
X144979055Y-75325500D01*
X144979057Y-75325500D01*
X145131784Y-75284577D01*
X145268716Y-75205520D01*
X145380520Y-75093716D01*
X145459577Y-74956784D01*
X145500500Y-74804057D01*
X145500500Y-74645943D01*
X145459577Y-74493216D01*
X145430713Y-74443222D01*
X145380524Y-74356290D01*
X145380518Y-74356282D01*
X145268717Y-74244481D01*
X145268709Y-74244475D01*
X145131790Y-74165426D01*
X145131786Y-74165424D01*
X145131784Y-74165423D01*
X144979057Y-74124500D01*
X144820943Y-74124500D01*
X144668216Y-74165423D01*
X144668209Y-74165426D01*
X144531290Y-74244475D01*
X144531282Y-74244481D01*
X144419481Y-74356282D01*
X144419475Y-74356290D01*
X144340426Y-74493209D01*
X144340423Y-74493216D01*
X144299500Y-74645943D01*
X127850500Y-74645943D01*
X127850500Y-70920943D01*
X159149500Y-70920943D01*
X159149500Y-71079057D01*
X159182041Y-71200500D01*
X159190423Y-71231783D01*
X159190426Y-71231790D01*
X159269475Y-71368709D01*
X159269479Y-71368714D01*
X159269480Y-71368716D01*
X159381284Y-71480520D01*
X159381286Y-71480521D01*
X159381290Y-71480524D01*
X159518209Y-71559573D01*
X159518216Y-71559577D01*
X159670943Y-71600500D01*
X159670945Y-71600500D01*
X159829055Y-71600500D01*
X159829057Y-71600500D01*
X159981784Y-71559577D01*
X160118716Y-71480520D01*
X160230520Y-71368716D01*
X160309577Y-71231784D01*
X160350500Y-71079057D01*
X160350500Y-70920943D01*
X160309577Y-70768216D01*
X160258101Y-70679056D01*
X160230524Y-70631290D01*
X160230518Y-70631282D01*
X160120179Y-70520943D01*
X169974500Y-70520943D01*
X169974500Y-70679056D01*
X170015423Y-70831783D01*
X170015426Y-70831790D01*
X170094475Y-70968709D01*
X170094479Y-70968714D01*
X170094480Y-70968716D01*
X170206284Y-71080520D01*
X170206286Y-71080521D01*
X170206290Y-71080524D01*
X170343209Y-71159573D01*
X170343216Y-71159577D01*
X170495943Y-71200500D01*
X170495945Y-71200500D01*
X170654055Y-71200500D01*
X170654057Y-71200500D01*
X170806784Y-71159577D01*
X170943716Y-71080520D01*
X171055520Y-70968716D01*
X171134577Y-70831784D01*
X171175500Y-70679057D01*
X171175500Y-70520943D01*
X171134577Y-70368216D01*
X171134573Y-70368209D01*
X171055524Y-70231290D01*
X171055518Y-70231282D01*
X170943717Y-70119481D01*
X170943709Y-70119475D01*
X170806790Y-70040426D01*
X170806786Y-70040424D01*
X170806784Y-70040423D01*
X170654057Y-69999500D01*
X170495943Y-69999500D01*
X170343216Y-70040423D01*
X170343209Y-70040426D01*
X170206290Y-70119475D01*
X170206282Y-70119481D01*
X170094481Y-70231282D01*
X170094475Y-70231290D01*
X170015426Y-70368209D01*
X170015423Y-70368216D01*
X169974500Y-70520943D01*
X160120179Y-70520943D01*
X160118717Y-70519481D01*
X160118709Y-70519475D01*
X159981790Y-70440426D01*
X159981786Y-70440424D01*
X159981784Y-70440423D01*
X159829057Y-70399500D01*
X159670943Y-70399500D01*
X159518216Y-70440423D01*
X159518209Y-70440426D01*
X159381290Y-70519475D01*
X159381282Y-70519481D01*
X159269481Y-70631282D01*
X159269475Y-70631290D01*
X159190426Y-70768209D01*
X159190423Y-70768216D01*
X159149500Y-70920943D01*
X127850500Y-70920943D01*
X127850500Y-68289059D01*
X127850501Y-68289046D01*
X127850501Y-68120945D01*
X127850501Y-68120943D01*
X127809577Y-67968215D01*
X127780639Y-67918095D01*
X127730520Y-67831284D01*
X127618716Y-67719480D01*
X127618715Y-67719479D01*
X127614385Y-67715149D01*
X127614374Y-67715139D01*
X125387590Y-65488355D01*
X125387588Y-65488352D01*
X125268717Y-65369481D01*
X125268716Y-65369480D01*
X125181904Y-65319360D01*
X125181904Y-65319359D01*
X125181900Y-65319358D01*
X125131785Y-65290423D01*
X124979057Y-65249499D01*
X124820943Y-65249499D01*
X124713587Y-65278265D01*
X124668210Y-65290424D01*
X124668209Y-65290425D01*
X124618096Y-65319359D01*
X124618095Y-65319360D01*
X124574689Y-65344420D01*
X124531285Y-65369479D01*
X124531282Y-65369481D01*
X124419479Y-65481284D01*
X124394562Y-65524443D01*
X124384030Y-65542686D01*
X124340423Y-65618215D01*
X124299499Y-65770943D01*
X124299499Y-65770945D01*
X124299499Y-65929054D01*
X124299498Y-65929054D01*
X124340423Y-66081785D01*
X124369358Y-66131900D01*
X124369359Y-66131904D01*
X124369360Y-66131904D01*
X124419479Y-66218714D01*
X124419481Y-66218717D01*
X124538349Y-66337585D01*
X124538355Y-66337590D01*
X126613181Y-68412416D01*
X126646666Y-68473739D01*
X126649500Y-68500097D01*
X126649500Y-88963330D01*
X126649499Y-88963348D01*
X126649499Y-89129054D01*
X126649498Y-89129054D01*
X126690423Y-89281785D01*
X126710402Y-89316388D01*
X126710403Y-89316392D01*
X126769475Y-89418709D01*
X126769481Y-89418717D01*
X126888349Y-89537585D01*
X126888355Y-89537590D01*
X129515139Y-92164374D01*
X129515149Y-92164385D01*
X129519479Y-92168715D01*
X129519480Y-92168716D01*
X129631284Y-92280520D01*
X129711122Y-92326614D01*
X129711123Y-92326615D01*
X129768209Y-92359574D01*
X129768210Y-92359574D01*
X129768215Y-92359577D01*
X129920942Y-92400500D01*
X129920943Y-92400500D01*
X138063331Y-92400500D01*
X138063347Y-92400501D01*
X138070943Y-92400501D01*
X138229054Y-92400501D01*
X138229057Y-92400501D01*
X138381785Y-92359577D01*
X138381789Y-92359575D01*
X138381790Y-92359574D01*
X138438877Y-92326615D01*
X138438878Y-92326614D01*
X138518716Y-92280520D01*
X138630520Y-92168716D01*
X138630520Y-92168714D01*
X138640724Y-92158511D01*
X138640727Y-92158506D01*
X139480520Y-91318716D01*
X139559577Y-91181784D01*
X139600501Y-91029057D01*
X139600501Y-90870942D01*
X139600501Y-90863347D01*
X139600500Y-90863329D01*
X139600500Y-90470943D01*
X141899500Y-90470943D01*
X141899500Y-90629057D01*
X141928580Y-90737583D01*
X141940423Y-90781783D01*
X141940426Y-90781790D01*
X142019475Y-90918709D01*
X142019479Y-90918714D01*
X142019480Y-90918716D01*
X142131284Y-91030520D01*
X142131286Y-91030521D01*
X142131290Y-91030524D01*
X142263262Y-91106717D01*
X142268216Y-91109577D01*
X142420943Y-91150500D01*
X142420945Y-91150500D01*
X142579055Y-91150500D01*
X142579057Y-91150500D01*
X142731784Y-91109577D01*
X142868716Y-91030520D01*
X142912319Y-90986917D01*
X142973642Y-90953432D01*
X143043334Y-90958416D01*
X143087681Y-90986917D01*
X143131284Y-91030520D01*
X143131286Y-91030521D01*
X143131290Y-91030524D01*
X143263262Y-91106717D01*
X143268216Y-91109577D01*
X143420943Y-91150500D01*
X143420945Y-91150500D01*
X143579055Y-91150500D01*
X143579057Y-91150500D01*
X143731784Y-91109577D01*
X143868716Y-91030520D01*
X143912319Y-90986917D01*
X143973642Y-90953432D01*
X144043334Y-90958416D01*
X144087681Y-90986917D01*
X144131284Y-91030520D01*
X144131286Y-91030521D01*
X144131290Y-91030524D01*
X144263262Y-91106717D01*
X144268216Y-91109577D01*
X144420943Y-91150500D01*
X144420945Y-91150500D01*
X144579055Y-91150500D01*
X144579057Y-91150500D01*
X144731784Y-91109577D01*
X144868716Y-91030520D01*
X144980520Y-90918716D01*
X145059577Y-90781784D01*
X145100500Y-90629057D01*
X145100500Y-90470943D01*
X145059577Y-90318216D01*
X145030093Y-90267147D01*
X144980524Y-90181290D01*
X144980518Y-90181282D01*
X144868717Y-90069481D01*
X144868709Y-90069475D01*
X144731790Y-89990426D01*
X144731786Y-89990424D01*
X144731784Y-89990423D01*
X144579057Y-89949500D01*
X144420943Y-89949500D01*
X144268216Y-89990423D01*
X144268209Y-89990426D01*
X144131290Y-90069475D01*
X144131282Y-90069481D01*
X144087681Y-90113083D01*
X144026358Y-90146568D01*
X143956666Y-90141584D01*
X143912319Y-90113083D01*
X143868717Y-90069481D01*
X143868709Y-90069475D01*
X143731790Y-89990426D01*
X143731786Y-89990424D01*
X143731784Y-89990423D01*
X143579057Y-89949500D01*
X143420943Y-89949500D01*
X143268216Y-89990423D01*
X143268209Y-89990426D01*
X143131290Y-90069475D01*
X143131282Y-90069481D01*
X143087681Y-90113083D01*
X143026358Y-90146568D01*
X142956666Y-90141584D01*
X142912319Y-90113083D01*
X142868717Y-90069481D01*
X142868709Y-90069475D01*
X142731790Y-89990426D01*
X142731786Y-89990424D01*
X142731784Y-89990423D01*
X142579057Y-89949500D01*
X142420943Y-89949500D01*
X142268216Y-89990423D01*
X142268209Y-89990426D01*
X142131290Y-90069475D01*
X142131282Y-90069481D01*
X142019481Y-90181282D01*
X142019475Y-90181290D01*
X141940426Y-90318209D01*
X141940423Y-90318216D01*
X141899500Y-90470943D01*
X139600500Y-90470943D01*
X139600500Y-87550097D01*
X139620185Y-87483058D01*
X139636819Y-87462416D01*
X140562416Y-86536819D01*
X140623739Y-86503334D01*
X140650097Y-86500500D01*
X147079055Y-86500500D01*
X147079057Y-86500500D01*
X147231784Y-86459577D01*
X147368716Y-86380520D01*
X147480520Y-86268716D01*
X147559577Y-86131784D01*
X147600500Y-85979057D01*
X147600500Y-85820943D01*
X147559577Y-85668216D01*
X147533298Y-85622699D01*
X147480524Y-85531290D01*
X147480518Y-85531282D01*
X147368717Y-85419481D01*
X147368709Y-85419475D01*
X147231790Y-85340426D01*
X147231786Y-85340424D01*
X147231784Y-85340423D01*
X147079057Y-85299500D01*
X147079056Y-85299500D01*
X146929107Y-85299500D01*
X146862068Y-85279815D01*
X146816313Y-85227011D01*
X146806369Y-85157853D01*
X146809329Y-85143418D01*
X146819876Y-85104058D01*
X146819876Y-84945944D01*
X146778953Y-84793217D01*
X146737226Y-84720943D01*
X146699900Y-84656291D01*
X146699894Y-84656283D01*
X146588093Y-84544482D01*
X146588085Y-84544476D01*
X146451166Y-84465427D01*
X146451162Y-84465425D01*
X146451160Y-84465424D01*
X146298433Y-84424501D01*
X146140319Y-84424501D01*
X145987592Y-84465424D01*
X145987585Y-84465427D01*
X145850666Y-84544476D01*
X145850658Y-84544482D01*
X145738857Y-84656283D01*
X145738851Y-84656291D01*
X145659802Y-84793210D01*
X145659799Y-84793217D01*
X145618876Y-84945944D01*
X145618876Y-85104058D01*
X145629419Y-85143408D01*
X145627757Y-85213256D01*
X145588595Y-85271119D01*
X145524366Y-85298623D01*
X145509645Y-85299500D01*
X140270942Y-85299500D01*
X140118214Y-85340423D01*
X140098683Y-85351700D01*
X140098682Y-85351700D01*
X139981287Y-85419477D01*
X139981282Y-85419481D01*
X138812181Y-86588583D01*
X138792744Y-86599195D01*
X138776011Y-86613696D01*
X138762679Y-86615612D01*
X138750858Y-86622068D01*
X138728771Y-86620488D01*
X138706853Y-86623640D01*
X138694601Y-86618044D01*
X138681166Y-86617084D01*
X138663439Y-86603813D01*
X138643297Y-86594615D01*
X138636014Y-86583283D01*
X138625233Y-86575212D01*
X138617495Y-86554466D01*
X138605523Y-86535837D01*
X138602371Y-86513918D01*
X138600816Y-86509748D01*
X138600500Y-86500902D01*
X138600500Y-86436493D01*
X138620185Y-86369454D01*
X138636819Y-86348812D01*
X142113983Y-82871648D01*
X142849765Y-82135866D01*
X146175257Y-82135866D01*
X146175257Y-82293980D01*
X146211963Y-82430967D01*
X146216180Y-82446706D01*
X146216183Y-82446713D01*
X146295232Y-82583632D01*
X146295236Y-82583637D01*
X146295237Y-82583639D01*
X146407041Y-82695443D01*
X146407043Y-82695444D01*
X146407047Y-82695447D01*
X146543966Y-82774496D01*
X146543973Y-82774500D01*
X146696700Y-82815423D01*
X146696702Y-82815423D01*
X146854812Y-82815423D01*
X146854814Y-82815423D01*
X147007541Y-82774500D01*
X147144473Y-82695443D01*
X147256277Y-82583639D01*
X147335334Y-82446707D01*
X147376257Y-82293980D01*
X147376257Y-82135866D01*
X147335334Y-81983139D01*
X147299427Y-81920945D01*
X147256281Y-81846213D01*
X147256275Y-81846205D01*
X147144474Y-81734404D01*
X147144466Y-81734398D01*
X147007547Y-81655349D01*
X147007543Y-81655347D01*
X147007541Y-81655346D01*
X146854814Y-81614423D01*
X146696700Y-81614423D01*
X146543973Y-81655346D01*
X146543966Y-81655349D01*
X146407047Y-81734398D01*
X146407039Y-81734404D01*
X146295238Y-81846205D01*
X146295232Y-81846213D01*
X146216183Y-81983132D01*
X146216180Y-81983139D01*
X146175257Y-82135866D01*
X142849765Y-82135866D01*
X144498767Y-80486863D01*
X144560089Y-80453380D01*
X144629781Y-80458364D01*
X144685714Y-80500236D01*
X144710131Y-80565700D01*
X144710301Y-80580564D01*
X144709656Y-80593819D01*
X144699499Y-80631729D01*
X144699499Y-80789843D01*
X144699500Y-80789846D01*
X144699500Y-80879057D01*
X144735753Y-81014353D01*
X144740423Y-81031783D01*
X144740426Y-81031790D01*
X144819475Y-81168709D01*
X144819479Y-81168714D01*
X144819480Y-81168716D01*
X144931284Y-81280520D01*
X144931286Y-81280521D01*
X144931290Y-81280524D01*
X145006142Y-81323739D01*
X145068216Y-81359577D01*
X145220943Y-81400500D01*
X145220945Y-81400500D01*
X145379055Y-81400500D01*
X145379057Y-81400500D01*
X145531784Y-81359577D01*
X145668716Y-81280520D01*
X145780520Y-81168716D01*
X145859577Y-81031784D01*
X145862448Y-81021067D01*
X145894541Y-80965478D01*
X146523202Y-80336819D01*
X146584525Y-80303334D01*
X146610883Y-80300500D01*
X147549903Y-80300500D01*
X147616942Y-80320185D01*
X147637584Y-80336819D01*
X148563181Y-81262416D01*
X148596666Y-81323739D01*
X148599500Y-81350097D01*
X148599500Y-97763330D01*
X148599499Y-97763348D01*
X148599499Y-97929054D01*
X148599498Y-97929054D01*
X148640423Y-98081785D01*
X148662790Y-98120524D01*
X148662791Y-98120528D01*
X148662792Y-98120528D01*
X148719479Y-98218714D01*
X148719481Y-98218717D01*
X148838349Y-98337585D01*
X148838355Y-98337590D01*
X153726953Y-103226188D01*
X153726963Y-103226199D01*
X153731293Y-103230529D01*
X153731294Y-103230530D01*
X153843098Y-103342334D01*
X153843100Y-103342335D01*
X153843104Y-103342338D01*
X153980023Y-103421387D01*
X153980030Y-103421391D01*
X154064789Y-103444102D01*
X154132756Y-103462314D01*
X154132757Y-103462314D01*
X156804384Y-103462314D01*
X156871423Y-103481999D01*
X156917178Y-103534803D01*
X156927122Y-103603961D01*
X156911771Y-103648314D01*
X156840423Y-103771892D01*
X156840422Y-103771895D01*
X156799499Y-103924622D01*
X156799499Y-104082736D01*
X156833942Y-104211277D01*
X156840422Y-104235462D01*
X156840425Y-104235469D01*
X156919474Y-104372388D01*
X156919478Y-104372393D01*
X156919479Y-104372395D01*
X157031283Y-104484199D01*
X157031285Y-104484200D01*
X157031289Y-104484203D01*
X157168208Y-104563252D01*
X157168215Y-104563256D01*
X157320942Y-104604179D01*
X157320944Y-104604179D01*
X157479054Y-104604179D01*
X157479056Y-104604179D01*
X157631783Y-104563256D01*
X157768715Y-104484199D01*
X157880519Y-104372395D01*
X157959576Y-104235463D01*
X158000499Y-104082736D01*
X158000499Y-103924622D01*
X157959576Y-103771895D01*
X157888226Y-103648313D01*
X157871754Y-103580413D01*
X157894607Y-103514387D01*
X157949528Y-103471196D01*
X157995614Y-103462314D01*
X159790869Y-103462314D01*
X159790871Y-103462314D01*
X159943598Y-103421391D01*
X160080530Y-103342334D01*
X160192334Y-103230530D01*
X160271391Y-103093598D01*
X160312314Y-102940871D01*
X160312314Y-102782757D01*
X160271391Y-102630030D01*
X160271387Y-102630023D01*
X160192338Y-102493104D01*
X160192332Y-102493096D01*
X160080531Y-102381295D01*
X160080523Y-102381289D01*
X159943604Y-102302240D01*
X159943600Y-102302238D01*
X159943598Y-102302237D01*
X159790871Y-102261314D01*
X159790870Y-102261314D01*
X154511911Y-102261314D01*
X154444872Y-102241629D01*
X154424230Y-102224995D01*
X150320178Y-98120943D01*
X151699500Y-98120943D01*
X151699500Y-98279057D01*
X151740423Y-98431783D01*
X151740426Y-98431790D01*
X151819475Y-98568709D01*
X151819479Y-98568714D01*
X151819480Y-98568716D01*
X151931284Y-98680520D01*
X151931286Y-98680521D01*
X151931290Y-98680524D01*
X152068209Y-98759573D01*
X152068216Y-98759577D01*
X152220943Y-98800500D01*
X152220945Y-98800500D01*
X152379055Y-98800500D01*
X152379057Y-98800500D01*
X152531784Y-98759577D01*
X152668716Y-98680520D01*
X152780520Y-98568716D01*
X152859577Y-98431784D01*
X152900500Y-98279057D01*
X152900500Y-98120943D01*
X152859577Y-97968216D01*
X152803417Y-97870943D01*
X174099500Y-97870943D01*
X174099500Y-98029057D01*
X174124122Y-98120945D01*
X174140423Y-98181783D01*
X174140426Y-98181790D01*
X174219475Y-98318709D01*
X174219479Y-98318714D01*
X174219480Y-98318716D01*
X174331284Y-98430520D01*
X174331286Y-98430521D01*
X174331290Y-98430524D01*
X174468209Y-98509573D01*
X174468216Y-98509577D01*
X174620943Y-98550500D01*
X174620945Y-98550500D01*
X174779055Y-98550500D01*
X174779057Y-98550500D01*
X174931784Y-98509577D01*
X175068716Y-98430520D01*
X175180520Y-98318716D01*
X175259577Y-98181784D01*
X175300500Y-98029057D01*
X175300500Y-97870943D01*
X175259577Y-97718216D01*
X175259573Y-97718209D01*
X175180524Y-97581290D01*
X175180518Y-97581282D01*
X175068717Y-97469481D01*
X175068709Y-97469475D01*
X174931790Y-97390426D01*
X174931786Y-97390424D01*
X174931784Y-97390423D01*
X174779057Y-97349500D01*
X174620943Y-97349500D01*
X174468216Y-97390423D01*
X174468209Y-97390426D01*
X174331290Y-97469475D01*
X174331282Y-97469481D01*
X174219481Y-97581282D01*
X174219475Y-97581290D01*
X174140426Y-97718209D01*
X174140423Y-97718216D01*
X174099500Y-97870943D01*
X152803417Y-97870943D01*
X152780520Y-97831284D01*
X152668716Y-97719480D01*
X152668714Y-97719479D01*
X152668709Y-97719475D01*
X152531790Y-97640426D01*
X152531786Y-97640424D01*
X152531784Y-97640423D01*
X152379057Y-97599500D01*
X152220943Y-97599500D01*
X152068216Y-97640423D01*
X152068209Y-97640426D01*
X151931290Y-97719475D01*
X151931282Y-97719481D01*
X151819481Y-97831282D01*
X151819475Y-97831290D01*
X151740426Y-97968209D01*
X151740423Y-97968216D01*
X151699500Y-98120943D01*
X150320178Y-98120943D01*
X149836819Y-97637584D01*
X149803334Y-97576261D01*
X149800500Y-97549903D01*
X149800500Y-94270943D01*
X150549500Y-94270943D01*
X150549500Y-94429057D01*
X150571381Y-94510716D01*
X150590423Y-94581783D01*
X150590426Y-94581790D01*
X150669475Y-94718709D01*
X150669479Y-94718714D01*
X150669480Y-94718716D01*
X150781284Y-94830520D01*
X150781286Y-94830521D01*
X150781290Y-94830524D01*
X150918209Y-94909573D01*
X150918216Y-94909577D01*
X151070943Y-94950500D01*
X151070945Y-94950500D01*
X151229055Y-94950500D01*
X151229057Y-94950500D01*
X151381784Y-94909577D01*
X151518716Y-94830520D01*
X151630520Y-94718716D01*
X151709577Y-94581784D01*
X151750500Y-94429057D01*
X151750500Y-94270943D01*
X151709577Y-94118216D01*
X151677667Y-94062945D01*
X151630524Y-93981290D01*
X151630518Y-93981282D01*
X151518717Y-93869481D01*
X151518709Y-93869475D01*
X151381790Y-93790426D01*
X151381786Y-93790424D01*
X151381784Y-93790423D01*
X151229057Y-93749500D01*
X151070943Y-93749500D01*
X150918216Y-93790423D01*
X150918209Y-93790426D01*
X150781290Y-93869475D01*
X150781282Y-93869481D01*
X150669481Y-93981282D01*
X150669475Y-93981290D01*
X150590426Y-94118209D01*
X150590423Y-94118216D01*
X150549500Y-94270943D01*
X149800500Y-94270943D01*
X149800500Y-84645943D01*
X168674500Y-84645943D01*
X168674500Y-84804057D01*
X168712519Y-84945944D01*
X168715423Y-84956783D01*
X168715426Y-84956790D01*
X168794475Y-85093709D01*
X168794479Y-85093714D01*
X168794480Y-85093716D01*
X168906284Y-85205520D01*
X168906286Y-85205521D01*
X168906290Y-85205524D01*
X169036189Y-85280520D01*
X169043216Y-85284577D01*
X169195943Y-85325500D01*
X169195945Y-85325500D01*
X169354055Y-85325500D01*
X169354057Y-85325500D01*
X169506784Y-85284577D01*
X169643716Y-85205520D01*
X169755520Y-85093716D01*
X169834577Y-84956784D01*
X169875500Y-84804057D01*
X169875500Y-84645943D01*
X169834577Y-84493216D01*
X169818533Y-84465427D01*
X169755524Y-84356290D01*
X169755518Y-84356282D01*
X169643717Y-84244481D01*
X169643709Y-84244475D01*
X169506790Y-84165426D01*
X169506786Y-84165424D01*
X169506784Y-84165423D01*
X169354057Y-84124500D01*
X169195943Y-84124500D01*
X169043216Y-84165423D01*
X169043209Y-84165426D01*
X168906290Y-84244475D01*
X168906282Y-84244481D01*
X168794481Y-84356282D01*
X168794475Y-84356290D01*
X168715426Y-84493209D01*
X168715423Y-84493216D01*
X168674500Y-84645943D01*
X149800500Y-84645943D01*
X149800500Y-80970946D01*
X149800500Y-80970943D01*
X149777359Y-80884577D01*
X149759577Y-80818215D01*
X149717573Y-80745463D01*
X149680520Y-80681284D01*
X149568716Y-80569480D01*
X149568715Y-80569479D01*
X149564385Y-80565149D01*
X149564374Y-80565139D01*
X148851417Y-79852182D01*
X148840806Y-79832749D01*
X148826304Y-79816014D01*
X148824386Y-79802679D01*
X148817932Y-79790859D01*
X148819511Y-79768773D01*
X148816360Y-79746856D01*
X148821955Y-79734603D01*
X148822916Y-79721167D01*
X148836186Y-79703440D01*
X148845384Y-79683299D01*
X148856716Y-79676015D01*
X148864788Y-79665234D01*
X148885532Y-79657496D01*
X148904162Y-79645524D01*
X148926081Y-79642372D01*
X148930252Y-79640817D01*
X148939096Y-79640501D01*
X149007853Y-79640501D01*
X149007856Y-79640500D01*
X149015463Y-79640500D01*
X173010902Y-79640500D01*
X173077941Y-79660185D01*
X173123696Y-79712989D01*
X173133640Y-79782147D01*
X173104615Y-79845703D01*
X173098583Y-79852181D01*
X172994481Y-79956282D01*
X172994475Y-79956290D01*
X172915426Y-80093209D01*
X172915423Y-80093216D01*
X172874500Y-80245943D01*
X172874500Y-80404057D01*
X172908591Y-80531284D01*
X172915423Y-80556783D01*
X172915426Y-80556790D01*
X172994475Y-80693709D01*
X172994479Y-80693714D01*
X172994480Y-80693716D01*
X173106284Y-80805520D01*
X173106286Y-80805521D01*
X173106290Y-80805524D01*
X173223167Y-80873002D01*
X173243216Y-80884577D01*
X173395943Y-80925500D01*
X173395945Y-80925500D01*
X173554055Y-80925500D01*
X173554057Y-80925500D01*
X173706784Y-80884577D01*
X173843716Y-80805520D01*
X173955520Y-80693716D01*
X174034577Y-80556784D01*
X174075500Y-80404057D01*
X174075500Y-80245943D01*
X174034577Y-80093216D01*
X174010459Y-80051442D01*
X173955524Y-79956290D01*
X173955518Y-79956282D01*
X173851417Y-79852181D01*
X173817932Y-79790858D01*
X173822916Y-79721166D01*
X173864788Y-79665233D01*
X173930252Y-79640816D01*
X173939098Y-79640500D01*
X177628811Y-79640500D01*
X177695850Y-79660185D01*
X177716492Y-79676819D01*
X181000000Y-82960327D01*
X181000000Y-89474500D01*
X173834219Y-89474500D01*
X173767180Y-89454815D01*
X173721425Y-89402011D01*
X173711481Y-89332853D01*
X173726832Y-89288500D01*
X173737873Y-89269376D01*
X173759577Y-89231784D01*
X173800500Y-89079057D01*
X173800500Y-88920943D01*
X173759577Y-88768216D01*
X173701841Y-88668213D01*
X173680524Y-88631290D01*
X173680518Y-88631282D01*
X173568717Y-88519481D01*
X173568709Y-88519475D01*
X173431790Y-88440426D01*
X173431786Y-88440424D01*
X173431784Y-88440423D01*
X173279057Y-88399500D01*
X173120943Y-88399500D01*
X172968216Y-88440423D01*
X172968209Y-88440426D01*
X172831290Y-88519475D01*
X172831282Y-88519481D01*
X172719481Y-88631282D01*
X172719475Y-88631290D01*
X172640426Y-88768209D01*
X172640423Y-88768216D01*
X172599500Y-88920943D01*
X172599500Y-89079057D01*
X172632041Y-89200500D01*
X172640423Y-89231783D01*
X172640424Y-89231786D01*
X172673168Y-89288500D01*
X172689641Y-89356400D01*
X172666788Y-89422427D01*
X172611867Y-89465618D01*
X172565781Y-89474500D01*
X153907147Y-89474500D01*
X153824359Y-89496682D01*
X153750138Y-89539535D01*
X153750135Y-89539537D01*
X153176301Y-90113370D01*
X153114978Y-90146855D01*
X153087184Y-90148014D01*
X153087184Y-90149500D01*
X152920943Y-90149500D01*
X152768216Y-90190423D01*
X152768209Y-90190426D01*
X152631290Y-90269475D01*
X152631282Y-90269481D01*
X152519481Y-90381282D01*
X152519475Y-90381290D01*
X152440426Y-90518209D01*
X152440423Y-90518216D01*
X152399500Y-90670943D01*
X152399500Y-90829057D01*
X152437208Y-90969783D01*
X152440423Y-90981783D01*
X152440426Y-90981790D01*
X152519475Y-91118709D01*
X152519479Y-91118714D01*
X152519480Y-91118716D01*
X152631284Y-91230520D01*
X152631286Y-91230521D01*
X152631290Y-91230524D01*
X152747429Y-91297576D01*
X152768216Y-91309577D01*
X152920943Y-91350500D01*
X152920945Y-91350500D01*
X153079055Y-91350500D01*
X153079057Y-91350500D01*
X153231784Y-91309577D01*
X153368716Y-91230520D01*
X153480520Y-91118716D01*
X153559577Y-90981784D01*
X153600500Y-90829057D01*
X153600500Y-90670943D01*
X153600500Y-90662815D01*
X153603680Y-90662815D01*
X153612112Y-90608579D01*
X153636626Y-90573699D01*
X154048508Y-90161819D01*
X154109831Y-90128334D01*
X154136189Y-90125500D01*
X172763902Y-90125500D01*
X172830941Y-90145185D01*
X172876696Y-90197989D01*
X172886640Y-90267147D01*
X172857615Y-90330703D01*
X172851583Y-90337181D01*
X172819481Y-90369282D01*
X172819475Y-90369290D01*
X172740426Y-90506209D01*
X172740423Y-90506216D01*
X172699500Y-90658943D01*
X172699500Y-90817057D01*
X172740423Y-90969782D01*
X172740423Y-90969783D01*
X172740426Y-90969790D01*
X172819475Y-91106709D01*
X172819481Y-91106717D01*
X172840583Y-91127819D01*
X172874068Y-91189142D01*
X172869084Y-91258834D01*
X172827212Y-91314767D01*
X172761748Y-91339184D01*
X172752902Y-91339500D01*
X159540098Y-91339500D01*
X159473059Y-91319815D01*
X159452417Y-91303181D01*
X159368717Y-91219481D01*
X159368709Y-91219475D01*
X159231790Y-91140426D01*
X159231786Y-91140424D01*
X159231784Y-91140423D01*
X159079057Y-91099500D01*
X158920943Y-91099500D01*
X158768216Y-91140423D01*
X158768209Y-91140426D01*
X158631290Y-91219475D01*
X158631282Y-91219481D01*
X158519481Y-91331282D01*
X158519475Y-91331290D01*
X158440426Y-91468209D01*
X158440423Y-91468216D01*
X158399500Y-91620943D01*
X158399500Y-91779056D01*
X158440423Y-91931783D01*
X158440426Y-91931790D01*
X158519475Y-92068709D01*
X158519479Y-92068714D01*
X158519480Y-92068716D01*
X158631284Y-92180520D01*
X158631286Y-92180521D01*
X158631290Y-92180524D01*
X158768209Y-92259573D01*
X158768216Y-92259577D01*
X158920943Y-92300500D01*
X158920945Y-92300500D01*
X159079055Y-92300500D01*
X159079057Y-92300500D01*
X159231784Y-92259577D01*
X159368716Y-92180520D01*
X159472417Y-92076819D01*
X159533740Y-92043334D01*
X159560098Y-92040500D01*
X178714117Y-92040500D01*
X178781156Y-92060185D01*
X178801798Y-92076819D01*
X179005449Y-92280470D01*
X179005450Y-92280471D01*
X179005452Y-92280472D01*
X179005537Y-92280521D01*
X179085373Y-92326614D01*
X179174517Y-92350500D01*
X179174519Y-92350500D01*
X181000000Y-92350500D01*
X181000000Y-96149500D01*
X160446544Y-96149500D01*
X160379505Y-96129815D01*
X160358863Y-96113181D01*
X157666625Y-93420943D01*
X159899500Y-93420943D01*
X159899500Y-93579057D01*
X159921586Y-93661481D01*
X159940423Y-93731783D01*
X159940426Y-93731790D01*
X160019475Y-93868709D01*
X160019479Y-93868714D01*
X160019480Y-93868716D01*
X160131284Y-93980520D01*
X160131286Y-93980521D01*
X160131290Y-93980524D01*
X160268209Y-94059573D01*
X160268216Y-94059577D01*
X160420943Y-94100500D01*
X160420945Y-94100500D01*
X160579055Y-94100500D01*
X160579057Y-94100500D01*
X160719222Y-94062943D01*
X177938002Y-94062943D01*
X177938002Y-94221057D01*
X177951370Y-94270945D01*
X177978925Y-94373783D01*
X177978928Y-94373790D01*
X178057977Y-94510709D01*
X178057981Y-94510714D01*
X178057982Y-94510716D01*
X178169786Y-94622520D01*
X178169788Y-94622521D01*
X178169792Y-94622524D01*
X178217213Y-94649902D01*
X178306718Y-94701577D01*
X178459445Y-94742500D01*
X178459447Y-94742500D01*
X178617557Y-94742500D01*
X178617559Y-94742500D01*
X178770286Y-94701577D01*
X178907218Y-94622520D01*
X179019022Y-94510716D01*
X179098079Y-94373784D01*
X179139002Y-94221057D01*
X179139002Y-94062943D01*
X179098079Y-93910216D01*
X179074560Y-93869480D01*
X179019026Y-93773290D01*
X179019020Y-93773282D01*
X178907219Y-93661481D01*
X178907211Y-93661475D01*
X178770292Y-93582426D01*
X178770288Y-93582424D01*
X178770286Y-93582423D01*
X178617559Y-93541500D01*
X178459445Y-93541500D01*
X178306718Y-93582423D01*
X178306711Y-93582426D01*
X178169792Y-93661475D01*
X178169784Y-93661481D01*
X178057983Y-93773282D01*
X178057977Y-93773290D01*
X177978928Y-93910209D01*
X177978925Y-93910216D01*
X177938002Y-94062943D01*
X160719222Y-94062943D01*
X160731784Y-94059577D01*
X160868716Y-93980520D01*
X160980520Y-93868716D01*
X161059577Y-93731784D01*
X161100500Y-93579057D01*
X161100500Y-93420943D01*
X161059577Y-93268216D01*
X161037816Y-93230524D01*
X160980524Y-93131290D01*
X160980518Y-93131282D01*
X160868717Y-93019481D01*
X160868709Y-93019475D01*
X160731790Y-92940426D01*
X160731786Y-92940424D01*
X160731784Y-92940423D01*
X160579057Y-92899500D01*
X160420943Y-92899500D01*
X160268216Y-92940423D01*
X160268209Y-92940426D01*
X160131290Y-93019475D01*
X160131282Y-93019481D01*
X160019481Y-93131282D01*
X160019475Y-93131290D01*
X159940426Y-93268209D01*
X159940423Y-93268216D01*
X159899500Y-93420943D01*
X157666625Y-93420943D01*
X157136819Y-92891137D01*
X157103334Y-92829814D01*
X157100500Y-92803456D01*
X157100500Y-92670945D01*
X157100500Y-92670943D01*
X157059577Y-92518216D01*
X156991615Y-92400501D01*
X156980524Y-92381290D01*
X156980518Y-92381282D01*
X156868717Y-92269481D01*
X156868709Y-92269475D01*
X156731790Y-92190426D01*
X156731786Y-92190424D01*
X156731784Y-92190423D01*
X156579057Y-92149500D01*
X156420943Y-92149500D01*
X156268216Y-92190423D01*
X156268209Y-92190426D01*
X156131290Y-92269475D01*
X156131282Y-92269481D01*
X156019481Y-92381282D01*
X156019475Y-92381290D01*
X155940426Y-92518209D01*
X155940423Y-92518216D01*
X155899500Y-92670943D01*
X155899500Y-92829057D01*
X155929341Y-92940423D01*
X155940423Y-92981783D01*
X155940426Y-92981790D01*
X156019475Y-93118709D01*
X156019479Y-93118714D01*
X156019480Y-93118716D01*
X156131284Y-93230520D01*
X156131286Y-93230521D01*
X156131290Y-93230524D01*
X156268209Y-93309573D01*
X156268216Y-93309577D01*
X156420943Y-93350500D01*
X156420945Y-93350500D01*
X156553456Y-93350500D01*
X156620495Y-93370185D01*
X156641137Y-93386819D01*
X160034788Y-96780470D01*
X160114712Y-96826614D01*
X160203856Y-96850500D01*
X160203858Y-96850500D01*
X181000000Y-96850500D01*
X181000000Y-112000000D01*
X83174000Y-112000000D01*
X83106961Y-111980315D01*
X83061206Y-111927511D01*
X83050000Y-111876000D01*
X83050000Y-104612739D01*
X151744825Y-104612739D01*
X151744825Y-104770852D01*
X151785748Y-104923579D01*
X151785751Y-104923586D01*
X151864800Y-105060505D01*
X151864804Y-105060510D01*
X151864805Y-105060512D01*
X151976609Y-105172316D01*
X151976611Y-105172317D01*
X151976615Y-105172320D01*
X152113534Y-105251369D01*
X152113541Y-105251373D01*
X152266268Y-105292296D01*
X152266270Y-105292296D01*
X152424380Y-105292296D01*
X152424382Y-105292296D01*
X152577109Y-105251373D01*
X152714041Y-105172316D01*
X152825845Y-105060512D01*
X152904902Y-104923580D01*
X152945825Y-104770853D01*
X152945825Y-104612739D01*
X152904902Y-104460012D01*
X152904898Y-104460005D01*
X152825849Y-104323086D01*
X152825843Y-104323078D01*
X152714042Y-104211277D01*
X152714034Y-104211271D01*
X152577115Y-104132222D01*
X152577111Y-104132220D01*
X152577109Y-104132219D01*
X152424382Y-104091296D01*
X152266268Y-104091296D01*
X152113541Y-104132219D01*
X152113534Y-104132222D01*
X151976615Y-104211271D01*
X151976607Y-104211277D01*
X151864806Y-104323078D01*
X151864800Y-104323086D01*
X151785751Y-104460005D01*
X151785748Y-104460012D01*
X151744825Y-104612739D01*
X83050000Y-104612739D01*
X83050000Y-97672755D01*
X129600700Y-97672755D01*
X129600700Y-97830869D01*
X129627010Y-97929057D01*
X129641623Y-97983595D01*
X129641626Y-97983602D01*
X129720675Y-98120521D01*
X129720678Y-98120525D01*
X129720680Y-98120528D01*
X129832484Y-98232332D01*
X129832486Y-98232333D01*
X129832490Y-98232336D01*
X129969409Y-98311385D01*
X129969416Y-98311389D01*
X130122143Y-98352312D01*
X144361519Y-98352312D01*
X144361535Y-98352313D01*
X144369131Y-98352313D01*
X144527242Y-98352313D01*
X144527245Y-98352313D01*
X144679973Y-98311389D01*
X144735973Y-98279057D01*
X144816904Y-98232332D01*
X144928708Y-98120528D01*
X144928708Y-98120526D01*
X144938912Y-98110323D01*
X144938915Y-98110318D01*
X147730520Y-95318716D01*
X147809577Y-95181784D01*
X147850501Y-95029057D01*
X147850501Y-94870942D01*
X147850501Y-94863347D01*
X147850500Y-94863329D01*
X147850500Y-88770945D01*
X147850500Y-88770943D01*
X147809577Y-88618216D01*
X147799650Y-88601022D01*
X147730524Y-88481290D01*
X147730518Y-88481282D01*
X147618717Y-88369481D01*
X147618709Y-88369475D01*
X147481790Y-88290426D01*
X147481786Y-88290424D01*
X147481784Y-88290423D01*
X147329057Y-88249500D01*
X147170943Y-88249500D01*
X147018216Y-88290423D01*
X147018209Y-88290426D01*
X146881290Y-88369475D01*
X146881282Y-88369481D01*
X146769481Y-88481282D01*
X146769477Y-88481287D01*
X146728186Y-88552807D01*
X146677619Y-88601022D01*
X146609012Y-88614246D01*
X146544147Y-88588278D01*
X146503619Y-88531364D01*
X146501024Y-88522900D01*
X146500108Y-88519480D01*
X146459577Y-88368216D01*
X146444934Y-88342853D01*
X146380524Y-88231290D01*
X146380518Y-88231282D01*
X146268717Y-88119481D01*
X146268709Y-88119475D01*
X146131790Y-88040426D01*
X146131786Y-88040424D01*
X146131784Y-88040423D01*
X145979057Y-87999500D01*
X145820943Y-87999500D01*
X145668216Y-88040423D01*
X145668209Y-88040426D01*
X145531290Y-88119475D01*
X145531282Y-88119481D01*
X145419481Y-88231282D01*
X145419475Y-88231290D01*
X145340426Y-88368209D01*
X145340423Y-88368216D01*
X145299500Y-88520943D01*
X145299500Y-88679057D01*
X145332246Y-88801265D01*
X145340423Y-88831783D01*
X145340426Y-88831790D01*
X145419475Y-88968709D01*
X145419479Y-88968714D01*
X145419480Y-88968716D01*
X145531284Y-89080520D01*
X145531286Y-89080521D01*
X145531290Y-89080524D01*
X145642973Y-89145003D01*
X145668216Y-89159577D01*
X145820943Y-89200500D01*
X145820945Y-89200500D01*
X145979055Y-89200500D01*
X145979057Y-89200500D01*
X146131784Y-89159577D01*
X146268716Y-89080520D01*
X146380520Y-88968716D01*
X146418113Y-88903601D01*
X146468679Y-88855387D01*
X146537286Y-88842163D01*
X146602151Y-88868131D01*
X146642680Y-88925044D01*
X146649500Y-88965602D01*
X146649500Y-94649902D01*
X146629815Y-94716941D01*
X146613181Y-94737583D01*
X144235772Y-97114993D01*
X144174449Y-97148478D01*
X144148091Y-97151312D01*
X130122143Y-97151312D01*
X129969416Y-97192235D01*
X129969409Y-97192238D01*
X129832490Y-97271287D01*
X129832482Y-97271293D01*
X129720681Y-97383094D01*
X129720675Y-97383102D01*
X129641626Y-97520021D01*
X129641623Y-97520028D01*
X129600700Y-97672755D01*
X83050000Y-97672755D01*
X83050000Y-89242294D01*
X89326401Y-89242294D01*
X89326401Y-89436903D01*
X89364363Y-89627751D01*
X89364365Y-89627759D01*
X89438833Y-89807542D01*
X89438838Y-89807551D01*
X89546948Y-89969348D01*
X89546951Y-89969352D01*
X89684547Y-90106948D01*
X89684551Y-90106951D01*
X89846348Y-90215061D01*
X89846354Y-90215064D01*
X89846355Y-90215065D01*
X90026141Y-90289535D01*
X90170297Y-90318209D01*
X90216996Y-90327498D01*
X90217000Y-90327499D01*
X90217001Y-90327499D01*
X90411602Y-90327499D01*
X90411603Y-90327498D01*
X90602461Y-90289535D01*
X90782247Y-90215065D01*
X90944051Y-90106951D01*
X91081653Y-89969349D01*
X91189767Y-89807545D01*
X91264237Y-89627759D01*
X91302201Y-89436899D01*
X91302201Y-89242299D01*
X91302201Y-89242296D01*
X91302200Y-89242295D01*
X91301401Y-89238278D01*
X92026900Y-89238278D01*
X92026900Y-89440919D01*
X92058599Y-89641062D01*
X92121221Y-89833791D01*
X92213216Y-90014343D01*
X92243845Y-90056498D01*
X92243846Y-90056499D01*
X92804065Y-89496279D01*
X92817250Y-89545484D01*
X92887474Y-89667114D01*
X92986785Y-89766425D01*
X93108415Y-89836649D01*
X93157619Y-89849833D01*
X92597399Y-90410052D01*
X92597399Y-90410053D01*
X92639554Y-90440681D01*
X92820107Y-90532677D01*
X93012836Y-90595299D01*
X93012835Y-90595299D01*
X93212980Y-90626999D01*
X93415620Y-90626999D01*
X93615763Y-90595299D01*
X93808492Y-90532677D01*
X93989047Y-90440680D01*
X93989051Y-90440678D01*
X94031199Y-90410053D01*
X94031200Y-90410053D01*
X93470980Y-89849833D01*
X93520185Y-89836649D01*
X93641815Y-89766425D01*
X93741126Y-89667114D01*
X93811350Y-89545484D01*
X93824534Y-89496279D01*
X94384754Y-90056499D01*
X94384754Y-90056498D01*
X94415379Y-90014350D01*
X94415381Y-90014346D01*
X94507378Y-89833791D01*
X94570000Y-89641062D01*
X94601700Y-89440919D01*
X94601700Y-89238278D01*
X94570000Y-89038135D01*
X94507378Y-88845406D01*
X94415382Y-88664853D01*
X94384753Y-88622698D01*
X93824533Y-89182917D01*
X93811350Y-89133714D01*
X93741126Y-89012084D01*
X93641815Y-88912773D01*
X93520185Y-88842549D01*
X93470980Y-88829364D01*
X94031200Y-88269145D01*
X94031199Y-88269144D01*
X93989044Y-88238515D01*
X93808492Y-88146520D01*
X93615763Y-88083898D01*
X93615764Y-88083898D01*
X93415620Y-88052199D01*
X93212980Y-88052199D01*
X93012836Y-88083898D01*
X92820107Y-88146520D01*
X92639550Y-88238518D01*
X92597399Y-88269143D01*
X92597398Y-88269144D01*
X93157619Y-88829364D01*
X93108415Y-88842549D01*
X92986785Y-88912773D01*
X92887474Y-89012084D01*
X92817250Y-89133714D01*
X92804066Y-89182918D01*
X92243845Y-88622697D01*
X92243844Y-88622698D01*
X92213219Y-88664849D01*
X92121221Y-88845406D01*
X92058599Y-89038135D01*
X92026900Y-89238278D01*
X91301401Y-89238278D01*
X91293887Y-89200500D01*
X91264237Y-89051439D01*
X91189767Y-88871653D01*
X91189766Y-88871652D01*
X91189763Y-88871646D01*
X91081653Y-88709849D01*
X91081650Y-88709845D01*
X90944054Y-88572249D01*
X90944050Y-88572246D01*
X90782253Y-88464136D01*
X90782243Y-88464131D01*
X90702173Y-88430965D01*
X90602461Y-88389663D01*
X90602453Y-88389661D01*
X90411605Y-88351699D01*
X90411601Y-88351699D01*
X90217001Y-88351699D01*
X90216996Y-88351699D01*
X90026148Y-88389661D01*
X90026140Y-88389663D01*
X89846357Y-88464131D01*
X89846348Y-88464136D01*
X89684551Y-88572246D01*
X89684547Y-88572249D01*
X89546951Y-88709845D01*
X89546948Y-88709849D01*
X89438838Y-88871646D01*
X89438833Y-88871655D01*
X89364365Y-89051438D01*
X89364363Y-89051446D01*
X89326401Y-89242294D01*
X83050000Y-89242294D01*
X83050000Y-87073286D01*
X84219799Y-87073286D01*
X84219799Y-87305915D01*
X84233510Y-87410053D01*
X84250162Y-87536531D01*
X84253797Y-87550097D01*
X84310367Y-87761221D01*
X84399382Y-87976122D01*
X84399387Y-87976133D01*
X84515686Y-88177567D01*
X84515697Y-88177583D01*
X84657295Y-88362118D01*
X84657301Y-88362125D01*
X84821774Y-88526598D01*
X84821781Y-88526604D01*
X84902157Y-88588278D01*
X85006325Y-88668209D01*
X85006332Y-88668213D01*
X85207766Y-88784512D01*
X85207771Y-88784514D01*
X85207774Y-88784516D01*
X85248210Y-88801265D01*
X85422678Y-88873532D01*
X85422679Y-88873532D01*
X85422681Y-88873533D01*
X85647369Y-88933738D01*
X85867619Y-88962735D01*
X85872272Y-88963348D01*
X85877992Y-88964101D01*
X85877999Y-88964101D01*
X86110599Y-88964101D01*
X86110606Y-88964101D01*
X86341229Y-88933738D01*
X86565917Y-88873533D01*
X86780824Y-88784516D01*
X86982273Y-88668209D01*
X87166818Y-88526603D01*
X87331301Y-88362120D01*
X87472907Y-88177575D01*
X87589214Y-87976126D01*
X87678231Y-87761219D01*
X87738436Y-87536531D01*
X87768799Y-87305908D01*
X87768799Y-87073294D01*
X87738436Y-86842671D01*
X87678231Y-86617983D01*
X87676455Y-86613696D01*
X87612616Y-86459573D01*
X87589214Y-86403076D01*
X87589212Y-86403073D01*
X87589210Y-86403068D01*
X87528670Y-86298210D01*
X87528669Y-86298209D01*
X87520122Y-86283406D01*
X87496387Y-86242295D01*
X89326401Y-86242295D01*
X89326401Y-86436904D01*
X89364363Y-86627752D01*
X89364365Y-86627760D01*
X89438833Y-86807543D01*
X89438838Y-86807552D01*
X89546948Y-86969349D01*
X89546951Y-86969353D01*
X89684547Y-87106949D01*
X89684551Y-87106952D01*
X89846348Y-87215062D01*
X89846354Y-87215065D01*
X89846355Y-87215066D01*
X90026141Y-87289536D01*
X90216996Y-87327499D01*
X90217000Y-87327500D01*
X90217001Y-87327500D01*
X90411602Y-87327500D01*
X90411603Y-87327499D01*
X90602461Y-87289536D01*
X90782247Y-87215066D01*
X90944051Y-87106952D01*
X91081653Y-86969350D01*
X91189767Y-86807546D01*
X91264237Y-86627760D01*
X91302201Y-86436900D01*
X91302201Y-86242300D01*
X91302201Y-86242297D01*
X91302200Y-86242296D01*
X91301401Y-86238279D01*
X92026900Y-86238279D01*
X92026900Y-86440920D01*
X92058599Y-86641063D01*
X92121221Y-86833792D01*
X92213216Y-87014344D01*
X92243845Y-87056499D01*
X92243846Y-87056500D01*
X92804065Y-86496280D01*
X92817250Y-86545485D01*
X92887474Y-86667115D01*
X92986785Y-86766426D01*
X93108415Y-86836650D01*
X93157619Y-86849834D01*
X92597399Y-87410053D01*
X92597399Y-87410054D01*
X92639554Y-87440682D01*
X92820107Y-87532678D01*
X93012836Y-87595300D01*
X93012835Y-87595300D01*
X93212980Y-87627000D01*
X93415620Y-87627000D01*
X93615763Y-87595300D01*
X93808492Y-87532678D01*
X93989047Y-87440681D01*
X93989051Y-87440679D01*
X94031199Y-87410054D01*
X94031200Y-87410054D01*
X93470980Y-86849834D01*
X93520185Y-86836650D01*
X93641815Y-86766426D01*
X93741126Y-86667115D01*
X93811350Y-86545485D01*
X93824534Y-86496280D01*
X94384754Y-87056500D01*
X94384754Y-87056499D01*
X94415379Y-87014351D01*
X94415381Y-87014347D01*
X94507378Y-86833792D01*
X94570000Y-86641063D01*
X94570001Y-86641062D01*
X94596945Y-86470943D01*
X109749500Y-86470943D01*
X109749500Y-86629057D01*
X109777026Y-86731783D01*
X109790423Y-86781783D01*
X109790426Y-86781790D01*
X109869475Y-86918709D01*
X109869479Y-86918714D01*
X109869480Y-86918716D01*
X109981284Y-87030520D01*
X109981286Y-87030521D01*
X109981290Y-87030524D01*
X110076622Y-87085563D01*
X110118216Y-87109577D01*
X110270943Y-87150500D01*
X110270945Y-87150500D01*
X110429055Y-87150500D01*
X110429057Y-87150500D01*
X110581784Y-87109577D01*
X110718716Y-87030520D01*
X110830520Y-86918716D01*
X110909577Y-86781784D01*
X110950500Y-86629057D01*
X110950500Y-86470943D01*
X110909577Y-86318216D01*
X110880999Y-86268717D01*
X110830524Y-86181290D01*
X110830518Y-86181282D01*
X110718717Y-86069481D01*
X110718709Y-86069475D01*
X110581790Y-85990426D01*
X110581786Y-85990424D01*
X110581784Y-85990423D01*
X110429057Y-85949500D01*
X110270943Y-85949500D01*
X110118216Y-85990423D01*
X110118209Y-85990426D01*
X109981290Y-86069475D01*
X109981282Y-86069481D01*
X109869481Y-86181282D01*
X109869475Y-86181290D01*
X109790426Y-86318209D01*
X109790423Y-86318216D01*
X109749500Y-86470943D01*
X94596945Y-86470943D01*
X94601304Y-86443419D01*
X94601305Y-86443412D01*
X94601700Y-86440918D01*
X94601700Y-86238279D01*
X94570000Y-86038136D01*
X94507378Y-85845407D01*
X94415382Y-85664854D01*
X94384753Y-85622699D01*
X93824533Y-86182918D01*
X93811350Y-86133715D01*
X93741126Y-86012085D01*
X93641815Y-85912774D01*
X93520185Y-85842550D01*
X93470980Y-85829365D01*
X94031200Y-85269146D01*
X94031199Y-85269145D01*
X93989044Y-85238516D01*
X93808492Y-85146521D01*
X93615763Y-85083899D01*
X93615764Y-85083899D01*
X93415620Y-85052200D01*
X93212980Y-85052200D01*
X93012836Y-85083899D01*
X92820107Y-85146521D01*
X92639550Y-85238519D01*
X92597399Y-85269144D01*
X92597398Y-85269145D01*
X93157619Y-85829365D01*
X93108415Y-85842550D01*
X92986785Y-85912774D01*
X92887474Y-86012085D01*
X92817250Y-86133715D01*
X92804066Y-86182919D01*
X92243845Y-85622698D01*
X92243844Y-85622699D01*
X92213219Y-85664850D01*
X92121221Y-85845407D01*
X92058599Y-86038136D01*
X92026900Y-86238279D01*
X91301401Y-86238279D01*
X91294112Y-86201634D01*
X91264237Y-86051440D01*
X91189767Y-85871654D01*
X91189766Y-85871653D01*
X91189763Y-85871647D01*
X91081653Y-85709850D01*
X91081650Y-85709846D01*
X90944054Y-85572250D01*
X90944050Y-85572247D01*
X90782253Y-85464137D01*
X90782243Y-85464132D01*
X90702173Y-85430966D01*
X90602461Y-85389664D01*
X90602453Y-85389662D01*
X90411605Y-85351700D01*
X90411601Y-85351700D01*
X90217001Y-85351700D01*
X90216996Y-85351700D01*
X90026148Y-85389662D01*
X90026140Y-85389664D01*
X89846357Y-85464132D01*
X89846348Y-85464137D01*
X89684551Y-85572247D01*
X89684547Y-85572250D01*
X89546951Y-85709846D01*
X89546948Y-85709850D01*
X89438838Y-85871647D01*
X89438833Y-85871656D01*
X89364365Y-86051439D01*
X89364363Y-86051447D01*
X89326401Y-86242295D01*
X87496387Y-86242295D01*
X87472907Y-86201627D01*
X87371507Y-86069480D01*
X87331302Y-86017083D01*
X87331296Y-86017076D01*
X87166823Y-85852603D01*
X87166816Y-85852597D01*
X86982281Y-85710999D01*
X86982279Y-85710997D01*
X86982273Y-85710993D01*
X86982268Y-85710990D01*
X86982265Y-85710988D01*
X86780831Y-85594689D01*
X86780820Y-85594684D01*
X86565919Y-85505669D01*
X86453573Y-85475566D01*
X86341229Y-85445464D01*
X86289979Y-85438716D01*
X86110613Y-85415101D01*
X86110606Y-85415101D01*
X85877992Y-85415101D01*
X85877984Y-85415101D01*
X85672993Y-85442090D01*
X85647369Y-85445464D01*
X85591197Y-85460515D01*
X85422678Y-85505669D01*
X85207777Y-85594684D01*
X85207766Y-85594689D01*
X85006332Y-85710988D01*
X85006316Y-85710999D01*
X84821781Y-85852597D01*
X84821774Y-85852603D01*
X84657301Y-86017076D01*
X84657295Y-86017083D01*
X84515697Y-86201618D01*
X84515686Y-86201634D01*
X84399387Y-86403068D01*
X84399382Y-86403079D01*
X84310367Y-86617980D01*
X84270592Y-86766426D01*
X84251776Y-86836650D01*
X84250162Y-86842672D01*
X84219799Y-87073286D01*
X83050000Y-87073286D01*
X83050000Y-84720943D01*
X124599500Y-84720943D01*
X124599500Y-84879057D01*
X124620329Y-84956790D01*
X124640423Y-85031783D01*
X124640426Y-85031790D01*
X124719475Y-85168709D01*
X124719479Y-85168714D01*
X124719480Y-85168716D01*
X124831284Y-85280520D01*
X124831286Y-85280521D01*
X124831290Y-85280524D01*
X124968209Y-85359573D01*
X124968216Y-85359577D01*
X125120943Y-85400500D01*
X125120945Y-85400500D01*
X125279055Y-85400500D01*
X125279057Y-85400500D01*
X125431784Y-85359577D01*
X125568716Y-85280520D01*
X125680520Y-85168716D01*
X125759577Y-85031784D01*
X125800500Y-84879057D01*
X125800500Y-84720943D01*
X125759577Y-84568216D01*
X125716272Y-84493209D01*
X125680524Y-84431290D01*
X125680518Y-84431282D01*
X125568717Y-84319481D01*
X125568709Y-84319475D01*
X125431790Y-84240426D01*
X125431786Y-84240424D01*
X125431784Y-84240423D01*
X125279057Y-84199500D01*
X125120943Y-84199500D01*
X124968216Y-84240423D01*
X124968209Y-84240426D01*
X124831290Y-84319475D01*
X124831282Y-84319481D01*
X124719481Y-84431282D01*
X124719475Y-84431290D01*
X124640426Y-84568209D01*
X124640423Y-84568216D01*
X124599500Y-84720943D01*
X83050000Y-84720943D01*
X83050000Y-82373285D01*
X84219799Y-82373285D01*
X84219799Y-82605914D01*
X84233483Y-82709847D01*
X84250162Y-82836530D01*
X84267119Y-82899813D01*
X84310367Y-83061220D01*
X84399382Y-83276121D01*
X84399387Y-83276132D01*
X84515686Y-83477566D01*
X84515697Y-83477582D01*
X84657295Y-83662117D01*
X84657301Y-83662124D01*
X84821774Y-83826597D01*
X84821781Y-83826603D01*
X84953186Y-83927433D01*
X85006325Y-83968208D01*
X85006332Y-83968212D01*
X85207766Y-84084511D01*
X85207771Y-84084513D01*
X85207774Y-84084515D01*
X85304307Y-84124500D01*
X85422678Y-84173531D01*
X85422679Y-84173531D01*
X85422681Y-84173532D01*
X85647369Y-84233737D01*
X85877992Y-84264100D01*
X85877999Y-84264100D01*
X86110599Y-84264100D01*
X86110606Y-84264100D01*
X86341229Y-84233737D01*
X86565917Y-84173532D01*
X86780824Y-84084515D01*
X86982273Y-83968208D01*
X87166818Y-83826602D01*
X87331301Y-83662119D01*
X87472907Y-83477574D01*
X87589214Y-83276125D01*
X87603226Y-83242296D01*
X89326401Y-83242296D01*
X89326401Y-83436905D01*
X89364363Y-83627753D01*
X89364365Y-83627761D01*
X89438833Y-83807544D01*
X89438838Y-83807553D01*
X89546948Y-83969350D01*
X89546951Y-83969354D01*
X89684547Y-84106950D01*
X89684551Y-84106953D01*
X89846348Y-84215063D01*
X89846354Y-84215066D01*
X89846355Y-84215067D01*
X90026141Y-84289537D01*
X90216996Y-84327500D01*
X90217000Y-84327501D01*
X90217001Y-84327501D01*
X90411602Y-84327501D01*
X90411603Y-84327500D01*
X90602461Y-84289537D01*
X90782247Y-84215067D01*
X90944051Y-84106953D01*
X91081653Y-83969351D01*
X91189767Y-83807547D01*
X91264237Y-83627761D01*
X91302201Y-83436901D01*
X91302201Y-83242301D01*
X91302201Y-83242298D01*
X91302200Y-83242297D01*
X91301401Y-83238280D01*
X92026900Y-83238280D01*
X92026900Y-83440921D01*
X92058599Y-83641064D01*
X92121221Y-83833793D01*
X92213216Y-84014345D01*
X92243845Y-84056500D01*
X92243846Y-84056501D01*
X92804065Y-83496281D01*
X92817250Y-83545486D01*
X92887474Y-83667116D01*
X92986785Y-83766427D01*
X93108415Y-83836651D01*
X93157619Y-83849835D01*
X92597399Y-84410054D01*
X92597399Y-84410055D01*
X92639554Y-84440683D01*
X92820107Y-84532679D01*
X93012836Y-84595301D01*
X93012835Y-84595301D01*
X93212980Y-84627001D01*
X93415620Y-84627001D01*
X93615761Y-84595301D01*
X93617045Y-84594885D01*
X93617046Y-84594884D01*
X93808492Y-84532679D01*
X93989047Y-84440682D01*
X93989051Y-84440680D01*
X94031199Y-84410055D01*
X94031200Y-84410055D01*
X93470980Y-83849835D01*
X93520185Y-83836651D01*
X93641815Y-83766427D01*
X93741126Y-83667116D01*
X93811350Y-83545486D01*
X93824534Y-83496281D01*
X94384754Y-84056501D01*
X94384754Y-84056500D01*
X94415379Y-84014352D01*
X94415381Y-84014348D01*
X94507378Y-83833793D01*
X94570000Y-83641064D01*
X94601700Y-83440921D01*
X94601700Y-83238280D01*
X94570000Y-83038137D01*
X94507378Y-82845408D01*
X94415382Y-82664855D01*
X94384753Y-82622700D01*
X93824533Y-83182919D01*
X93811350Y-83133716D01*
X93741126Y-83012086D01*
X93641815Y-82912775D01*
X93520185Y-82842551D01*
X93470980Y-82829366D01*
X94031200Y-82269147D01*
X94031199Y-82269146D01*
X93989044Y-82238517D01*
X93808492Y-82146522D01*
X93615763Y-82083900D01*
X93615764Y-82083900D01*
X93415620Y-82052201D01*
X93212980Y-82052201D01*
X93012836Y-82083900D01*
X92820107Y-82146522D01*
X92639550Y-82238520D01*
X92597399Y-82269145D01*
X92597398Y-82269146D01*
X93157619Y-82829366D01*
X93108415Y-82842551D01*
X92986785Y-82912775D01*
X92887474Y-83012086D01*
X92817250Y-83133716D01*
X92804066Y-83182920D01*
X92243845Y-82622699D01*
X92243844Y-82622700D01*
X92213219Y-82664851D01*
X92121221Y-82845408D01*
X92058599Y-83038137D01*
X92026900Y-83238280D01*
X91301401Y-83238280D01*
X91280180Y-83131595D01*
X91264237Y-83051441D01*
X91206637Y-82912384D01*
X91189768Y-82871657D01*
X91189763Y-82871648D01*
X91081653Y-82709851D01*
X91081650Y-82709847D01*
X90944054Y-82572251D01*
X90944050Y-82572248D01*
X90782253Y-82464138D01*
X90782243Y-82464133D01*
X90702173Y-82430967D01*
X90602461Y-82389665D01*
X90602453Y-82389663D01*
X90411605Y-82351701D01*
X90411601Y-82351701D01*
X90217001Y-82351701D01*
X90216996Y-82351701D01*
X90026148Y-82389663D01*
X90026140Y-82389665D01*
X89846357Y-82464133D01*
X89846348Y-82464138D01*
X89684551Y-82572248D01*
X89684547Y-82572251D01*
X89546951Y-82709847D01*
X89546948Y-82709851D01*
X89438838Y-82871648D01*
X89438833Y-82871657D01*
X89364365Y-83051440D01*
X89364363Y-83051448D01*
X89326401Y-83242296D01*
X87603226Y-83242296D01*
X87610670Y-83224323D01*
X87625404Y-83188756D01*
X87625404Y-83188754D01*
X87678229Y-83061223D01*
X87678230Y-83061220D01*
X87678231Y-83061218D01*
X87738436Y-82836530D01*
X87768799Y-82605907D01*
X87768799Y-82373293D01*
X87768195Y-82368709D01*
X87758357Y-82293980D01*
X87738436Y-82142670D01*
X87679024Y-81920943D01*
X109849500Y-81920943D01*
X109849500Y-82079057D01*
X109866546Y-82142671D01*
X109890423Y-82231783D01*
X109890426Y-82231790D01*
X109969475Y-82368709D01*
X109969479Y-82368714D01*
X109969480Y-82368716D01*
X110081284Y-82480520D01*
X110081286Y-82480521D01*
X110081290Y-82480524D01*
X110218209Y-82559573D01*
X110218216Y-82559577D01*
X110370943Y-82600500D01*
X110370945Y-82600500D01*
X110529055Y-82600500D01*
X110529057Y-82600500D01*
X110681784Y-82559577D01*
X110818716Y-82480520D01*
X110930520Y-82368716D01*
X111009577Y-82231784D01*
X111050500Y-82079057D01*
X111050500Y-81920943D01*
X111009577Y-81768216D01*
X110990055Y-81734403D01*
X110930524Y-81631290D01*
X110930518Y-81631282D01*
X110818717Y-81519481D01*
X110818709Y-81519475D01*
X110681790Y-81440426D01*
X110681786Y-81440424D01*
X110681784Y-81440423D01*
X110529057Y-81399500D01*
X110370943Y-81399500D01*
X110218216Y-81440423D01*
X110218209Y-81440426D01*
X110081290Y-81519475D01*
X110081282Y-81519481D01*
X109969481Y-81631282D01*
X109969475Y-81631290D01*
X109890426Y-81768209D01*
X109890423Y-81768216D01*
X109849500Y-81920943D01*
X87679024Y-81920943D01*
X87678231Y-81917982D01*
X87589214Y-81703075D01*
X87589212Y-81703072D01*
X87589210Y-81703067D01*
X87472911Y-81501633D01*
X87472907Y-81501626D01*
X87402642Y-81410055D01*
X87331302Y-81317082D01*
X87331296Y-81317075D01*
X87166823Y-81152602D01*
X87166816Y-81152596D01*
X86982281Y-81010998D01*
X86982279Y-81010996D01*
X86982273Y-81010992D01*
X86982268Y-81010989D01*
X86982265Y-81010987D01*
X86780831Y-80894688D01*
X86780820Y-80894683D01*
X86565919Y-80805668D01*
X86419471Y-80766428D01*
X86341229Y-80745463D01*
X86289979Y-80738715D01*
X86110613Y-80715100D01*
X86110606Y-80715100D01*
X85877992Y-80715100D01*
X85877984Y-80715100D01*
X85672993Y-80742089D01*
X85647369Y-80745463D01*
X85591197Y-80760514D01*
X85422678Y-80805668D01*
X85207777Y-80894683D01*
X85207766Y-80894688D01*
X85006332Y-81010987D01*
X85006316Y-81010998D01*
X84821781Y-81152596D01*
X84821774Y-81152602D01*
X84657301Y-81317075D01*
X84657295Y-81317082D01*
X84515697Y-81501617D01*
X84515686Y-81501633D01*
X84399387Y-81703067D01*
X84399382Y-81703078D01*
X84310367Y-81917979D01*
X84250162Y-82142671D01*
X84219799Y-82373285D01*
X83050000Y-82373285D01*
X83050000Y-80242297D01*
X89326401Y-80242297D01*
X89326401Y-80436906D01*
X89364363Y-80627754D01*
X89364365Y-80627762D01*
X89438833Y-80807545D01*
X89438838Y-80807554D01*
X89546948Y-80969351D01*
X89546951Y-80969355D01*
X89684547Y-81106951D01*
X89684551Y-81106954D01*
X89846348Y-81215064D01*
X89846354Y-81215067D01*
X89846355Y-81215068D01*
X90026141Y-81289538D01*
X90164611Y-81317081D01*
X90216996Y-81327501D01*
X90217000Y-81327502D01*
X90217001Y-81327502D01*
X90411602Y-81327502D01*
X90411603Y-81327501D01*
X90602461Y-81289538D01*
X90782247Y-81215068D01*
X90944051Y-81106954D01*
X91081653Y-80969352D01*
X91189767Y-80807548D01*
X91264237Y-80627762D01*
X91302201Y-80436902D01*
X91302201Y-80242302D01*
X91302201Y-80242299D01*
X91302200Y-80242298D01*
X91301401Y-80238281D01*
X92026900Y-80238281D01*
X92026900Y-80440922D01*
X92058599Y-80641065D01*
X92121221Y-80833794D01*
X92213216Y-81014346D01*
X92243845Y-81056501D01*
X92243846Y-81056502D01*
X92804065Y-80496282D01*
X92817250Y-80545487D01*
X92887474Y-80667117D01*
X92986785Y-80766428D01*
X93108415Y-80836652D01*
X93157619Y-80849836D01*
X92597399Y-81410055D01*
X92597399Y-81410056D01*
X92639554Y-81440684D01*
X92820107Y-81532680D01*
X93012836Y-81595302D01*
X93012835Y-81595302D01*
X93212980Y-81627002D01*
X93415620Y-81627002D01*
X93615763Y-81595302D01*
X93808492Y-81532680D01*
X93989047Y-81440683D01*
X93989051Y-81440681D01*
X94031199Y-81410056D01*
X94031200Y-81410056D01*
X93470980Y-80849836D01*
X93520185Y-80836652D01*
X93641815Y-80766428D01*
X93741126Y-80667117D01*
X93811350Y-80545487D01*
X93824534Y-80496282D01*
X94384754Y-81056502D01*
X94384754Y-81056501D01*
X94415379Y-81014353D01*
X94415381Y-81014349D01*
X94507378Y-80833794D01*
X94570000Y-80641065D01*
X94601700Y-80440922D01*
X94601700Y-80238281D01*
X94570000Y-80038138D01*
X94507378Y-79845409D01*
X94415382Y-79664856D01*
X94384753Y-79622701D01*
X93824533Y-80182920D01*
X93811350Y-80133717D01*
X93741126Y-80012087D01*
X93641815Y-79912776D01*
X93520185Y-79842552D01*
X93470980Y-79829367D01*
X94031200Y-79269148D01*
X94031199Y-79269147D01*
X93989044Y-79238518D01*
X93808492Y-79146523D01*
X93615763Y-79083901D01*
X93615764Y-79083901D01*
X93415620Y-79052202D01*
X93212980Y-79052202D01*
X93012836Y-79083901D01*
X92820107Y-79146523D01*
X92639550Y-79238521D01*
X92597399Y-79269146D01*
X92597398Y-79269147D01*
X93157619Y-79829367D01*
X93108415Y-79842552D01*
X92986785Y-79912776D01*
X92887474Y-80012087D01*
X92817250Y-80133717D01*
X92804066Y-80182921D01*
X92243845Y-79622700D01*
X92243844Y-79622701D01*
X92213219Y-79664852D01*
X92121221Y-79845409D01*
X92058599Y-80038138D01*
X92026900Y-80238281D01*
X91301401Y-80238281D01*
X91299807Y-80230266D01*
X91264237Y-80051442D01*
X91189767Y-79871656D01*
X91189766Y-79871655D01*
X91189763Y-79871649D01*
X91081653Y-79709852D01*
X91081650Y-79709848D01*
X90944054Y-79572252D01*
X90944050Y-79572249D01*
X90782253Y-79464139D01*
X90782243Y-79464134D01*
X90702173Y-79430968D01*
X90602461Y-79389666D01*
X90602453Y-79389664D01*
X90411605Y-79351702D01*
X90411601Y-79351702D01*
X90217001Y-79351702D01*
X90216996Y-79351702D01*
X90026148Y-79389664D01*
X90026140Y-79389666D01*
X89846357Y-79464134D01*
X89846348Y-79464139D01*
X89684551Y-79572249D01*
X89684547Y-79572252D01*
X89546951Y-79709848D01*
X89546948Y-79709852D01*
X89438838Y-79871649D01*
X89438833Y-79871658D01*
X89364365Y-80051441D01*
X89364363Y-80051449D01*
X89326401Y-80242297D01*
X83050000Y-80242297D01*
X83050000Y-74923739D01*
X100384859Y-74923739D01*
X100384859Y-75081853D01*
X100417997Y-75205524D01*
X100425782Y-75234579D01*
X100425785Y-75234586D01*
X100504834Y-75371505D01*
X100504838Y-75371510D01*
X100504839Y-75371512D01*
X100616643Y-75483316D01*
X100616645Y-75483317D01*
X100616649Y-75483320D01*
X100753568Y-75562369D01*
X100753575Y-75562373D01*
X100906302Y-75603296D01*
X100906304Y-75603296D01*
X101064414Y-75603296D01*
X101064416Y-75603296D01*
X101217143Y-75562373D01*
X101354075Y-75483316D01*
X101465879Y-75371512D01*
X101544936Y-75234580D01*
X101585859Y-75081853D01*
X101585859Y-74923739D01*
X101544936Y-74771012D01*
X101544932Y-74771005D01*
X101465883Y-74634086D01*
X101465877Y-74634078D01*
X101354076Y-74522277D01*
X101354068Y-74522271D01*
X101217149Y-74443222D01*
X101217145Y-74443220D01*
X101217143Y-74443219D01*
X101064416Y-74402296D01*
X100906302Y-74402296D01*
X100753575Y-74443219D01*
X100753568Y-74443222D01*
X100616649Y-74522271D01*
X100616641Y-74522277D01*
X100504840Y-74634078D01*
X100504834Y-74634086D01*
X100425785Y-74771005D01*
X100425782Y-74771012D01*
X100384859Y-74923739D01*
X83050000Y-74923739D01*
X83050000Y-73118983D01*
X113237727Y-73118983D01*
X113237727Y-73277096D01*
X113278650Y-73429823D01*
X113278653Y-73429830D01*
X113357702Y-73566749D01*
X113357706Y-73566754D01*
X113357707Y-73566756D01*
X113469511Y-73678560D01*
X113469513Y-73678561D01*
X113469517Y-73678564D01*
X113606436Y-73757613D01*
X113606443Y-73757617D01*
X113759170Y-73798540D01*
X113759172Y-73798540D01*
X113917282Y-73798540D01*
X113917284Y-73798540D01*
X114070011Y-73757617D01*
X114206943Y-73678560D01*
X114318747Y-73566756D01*
X114397804Y-73429824D01*
X114438727Y-73277097D01*
X114438727Y-73118983D01*
X114397804Y-72966256D01*
X114397800Y-72966249D01*
X114318751Y-72829330D01*
X114318745Y-72829322D01*
X114206944Y-72717521D01*
X114206936Y-72717515D01*
X114070017Y-72638466D01*
X114070013Y-72638464D01*
X114070011Y-72638463D01*
X113917284Y-72597540D01*
X113759170Y-72597540D01*
X113606443Y-72638463D01*
X113606436Y-72638466D01*
X113469517Y-72717515D01*
X113469509Y-72717521D01*
X113357708Y-72829322D01*
X113357702Y-72829330D01*
X113278653Y-72966249D01*
X113278650Y-72966256D01*
X113237727Y-73118983D01*
X83050000Y-73118983D01*
X83050000Y-62474943D01*
X136753500Y-62474943D01*
X136753500Y-62633057D01*
X136792621Y-62779056D01*
X136794423Y-62785783D01*
X136794426Y-62785790D01*
X136873475Y-62922709D01*
X136873479Y-62922714D01*
X136873480Y-62922716D01*
X136985284Y-63034520D01*
X136985286Y-63034521D01*
X136985290Y-63034524D01*
X137044515Y-63068717D01*
X137122216Y-63113577D01*
X137274943Y-63154500D01*
X137274945Y-63154500D01*
X137433055Y-63154500D01*
X137433057Y-63154500D01*
X137585784Y-63113577D01*
X137722716Y-63034520D01*
X137834520Y-62922716D01*
X137913577Y-62785784D01*
X137954500Y-62633057D01*
X137954500Y-62620943D01*
X146399500Y-62620943D01*
X146399500Y-62779057D01*
X146437994Y-62922716D01*
X146440423Y-62931783D01*
X146440426Y-62931790D01*
X146519475Y-63068709D01*
X146519479Y-63068714D01*
X146519480Y-63068716D01*
X146631284Y-63180520D01*
X146631286Y-63180521D01*
X146631290Y-63180524D01*
X146768209Y-63259573D01*
X146768216Y-63259577D01*
X146920943Y-63300500D01*
X146920945Y-63300500D01*
X147079055Y-63300500D01*
X147079057Y-63300500D01*
X147231784Y-63259577D01*
X147368716Y-63180520D01*
X147480520Y-63068716D01*
X147559577Y-62931784D01*
X147600500Y-62779057D01*
X147600500Y-62620943D01*
X147559577Y-62468216D01*
X147559573Y-62468209D01*
X147480524Y-62331290D01*
X147480518Y-62331282D01*
X147368717Y-62219481D01*
X147368709Y-62219475D01*
X147231790Y-62140426D01*
X147231786Y-62140424D01*
X147231784Y-62140423D01*
X147079057Y-62099500D01*
X146920943Y-62099500D01*
X146768216Y-62140423D01*
X146768209Y-62140426D01*
X146631290Y-62219475D01*
X146631282Y-62219481D01*
X146519481Y-62331282D01*
X146519475Y-62331290D01*
X146440426Y-62468209D01*
X146440423Y-62468216D01*
X146399500Y-62620943D01*
X137954500Y-62620943D01*
X137954500Y-62474943D01*
X137913577Y-62322216D01*
X137913573Y-62322209D01*
X137834524Y-62185290D01*
X137834518Y-62185282D01*
X137722717Y-62073481D01*
X137722709Y-62073475D01*
X137585790Y-61994426D01*
X137585786Y-61994424D01*
X137585784Y-61994423D01*
X137433057Y-61953500D01*
X137274943Y-61953500D01*
X137122216Y-61994423D01*
X137122209Y-61994426D01*
X136985290Y-62073475D01*
X136985282Y-62073481D01*
X136873481Y-62185282D01*
X136873475Y-62185290D01*
X136794426Y-62322209D01*
X136794423Y-62322216D01*
X136753500Y-62474943D01*
X83050000Y-62474943D01*
X83050000Y-56124000D01*
X83069685Y-56056961D01*
X83122489Y-56011206D01*
X83174000Y-56000000D01*
X181000000Y-56000000D01*
X181000000Y-82039673D01*
G37*
%TD.AperFunction*%
%TA.AperFunction,Conductor*%
G36*
X181000000Y-91649500D02*
G01*
X179417205Y-91649500D01*
X179350166Y-91629815D01*
X179329524Y-91613181D01*
X179125874Y-91409531D01*
X179125869Y-91409527D01*
X179045951Y-91363387D01*
X179045950Y-91363386D01*
X179045949Y-91363386D01*
X179029337Y-91358934D01*
X178969679Y-91322570D01*
X178939151Y-91259723D01*
X178947446Y-91190347D01*
X178973751Y-91151482D01*
X179018519Y-91106715D01*
X179097576Y-90969783D01*
X179138499Y-90817056D01*
X179138499Y-90658942D01*
X179097576Y-90506215D01*
X179077212Y-90470943D01*
X179018523Y-90369289D01*
X179018520Y-90369285D01*
X179018519Y-90369283D01*
X178986417Y-90337181D01*
X178952932Y-90275858D01*
X178957916Y-90206166D01*
X178999788Y-90150233D01*
X179065252Y-90125816D01*
X179074098Y-90125500D01*
X181000000Y-90125500D01*
X181000000Y-91649500D01*
G37*
%TD.AperFunction*%
%TD*%
%TA.AperFunction,Conductor*%
%TO.N,GND*%
G36*
X193740062Y-44520185D02*
G01*
X193785817Y-44572989D01*
X193797023Y-44624838D01*
X193793690Y-45848748D01*
X193767195Y-55576339D01*
X199191400Y-55589391D01*
X199258391Y-55609237D01*
X199291418Y-55640505D01*
X199353379Y-55725787D01*
X199484213Y-55856621D01*
X199633904Y-55965378D01*
X199714763Y-56006577D01*
X199798764Y-56049379D01*
X199798767Y-56049380D01*
X199886750Y-56077967D01*
X199974736Y-56106555D01*
X200157486Y-56135500D01*
X200157487Y-56135500D01*
X200342513Y-56135500D01*
X200342514Y-56135500D01*
X200525264Y-56106555D01*
X200701235Y-56049379D01*
X200866096Y-55965378D01*
X201015787Y-55856621D01*
X201146621Y-55725787D01*
X201204885Y-55645592D01*
X201260212Y-55602928D01*
X201305497Y-55594478D01*
X206704535Y-55607470D01*
X206771526Y-55627316D01*
X206804553Y-55658584D01*
X206853379Y-55725787D01*
X206984213Y-55856621D01*
X207133904Y-55965378D01*
X207214763Y-56006577D01*
X207298764Y-56049379D01*
X207298767Y-56049380D01*
X207386750Y-56077967D01*
X207474736Y-56106555D01*
X207657486Y-56135500D01*
X207657487Y-56135500D01*
X207842513Y-56135500D01*
X207842514Y-56135500D01*
X208025264Y-56106555D01*
X208201235Y-56049379D01*
X208366096Y-55965378D01*
X208515787Y-55856621D01*
X208646621Y-55725787D01*
X208691795Y-55663608D01*
X208747123Y-55620944D01*
X208792408Y-55612494D01*
X212290780Y-55620913D01*
X212357770Y-55640759D01*
X212403398Y-55693673D01*
X212414480Y-55745200D01*
X212385600Y-68219259D01*
X212365760Y-68286253D01*
X212312850Y-68331885D01*
X212261650Y-68342972D01*
X193693693Y-68350419D01*
X193693692Y-68350419D01*
X193695269Y-72279055D01*
X193695437Y-72697884D01*
X230375500Y-72697884D01*
X230442539Y-72717569D01*
X230488294Y-72770373D01*
X230499500Y-72821884D01*
X230499500Y-113376000D01*
X230479815Y-113443039D01*
X230427011Y-113488794D01*
X230375500Y-113500000D01*
X206500000Y-113500000D01*
X206500000Y-143375500D01*
X206480315Y-143442539D01*
X206427511Y-143488294D01*
X206376000Y-143499500D01*
X183004428Y-143499500D01*
X182995582Y-143499184D01*
X182973622Y-143497613D01*
X182795442Y-143484869D01*
X182777931Y-143482351D01*
X182586209Y-143440645D01*
X182569234Y-143435661D01*
X182385394Y-143367093D01*
X182369300Y-143359743D01*
X182197091Y-143265709D01*
X182182208Y-143256144D01*
X182025135Y-143138561D01*
X182011764Y-143126975D01*
X181873024Y-142988235D01*
X181861438Y-142974864D01*
X181743855Y-142817791D01*
X181734290Y-142802908D01*
X181640256Y-142630699D01*
X181632909Y-142614611D01*
X181564336Y-142430760D01*
X181559354Y-142413790D01*
X181517648Y-142222068D01*
X181515130Y-142204556D01*
X181500816Y-142004418D01*
X181500500Y-141995572D01*
X181500500Y-138989387D01*
X189365100Y-138989387D01*
X189365100Y-139222016D01*
X189384848Y-139372009D01*
X189395463Y-139452632D01*
X189425565Y-139564976D01*
X189455668Y-139677322D01*
X189544683Y-139892223D01*
X189544688Y-139892234D01*
X189660987Y-140093668D01*
X189660998Y-140093684D01*
X189802596Y-140278219D01*
X189802602Y-140278226D01*
X189967075Y-140442699D01*
X189967081Y-140442704D01*
X190151626Y-140584310D01*
X190151633Y-140584314D01*
X190353067Y-140700613D01*
X190353072Y-140700615D01*
X190353075Y-140700617D01*
X190460528Y-140745125D01*
X190567979Y-140789633D01*
X190567980Y-140789633D01*
X190567982Y-140789634D01*
X190792670Y-140849839D01*
X191023293Y-140880202D01*
X191023300Y-140880202D01*
X191255900Y-140880202D01*
X191255907Y-140880202D01*
X191486530Y-140849839D01*
X191711218Y-140789634D01*
X191926125Y-140700617D01*
X192127574Y-140584310D01*
X192312119Y-140442704D01*
X192476602Y-140278221D01*
X192618208Y-140093676D01*
X192734515Y-139892227D01*
X192823532Y-139677320D01*
X192883737Y-139452632D01*
X192914100Y-139222009D01*
X192914100Y-138989395D01*
X192883737Y-138758772D01*
X192823532Y-138534084D01*
X192734515Y-138319177D01*
X192734513Y-138319174D01*
X192734511Y-138319169D01*
X192618212Y-138117735D01*
X192618208Y-138117728D01*
X192476602Y-137933183D01*
X192476597Y-137933177D01*
X192312124Y-137768704D01*
X192312117Y-137768698D01*
X192127582Y-137627100D01*
X192127580Y-137627098D01*
X192127574Y-137627094D01*
X192127569Y-137627091D01*
X192127566Y-137627089D01*
X191926132Y-137510790D01*
X191926121Y-137510785D01*
X191711220Y-137421770D01*
X191598874Y-137391667D01*
X191486530Y-137361565D01*
X191435280Y-137354817D01*
X191255914Y-137331202D01*
X191255907Y-137331202D01*
X191023293Y-137331202D01*
X191023285Y-137331202D01*
X190818294Y-137358191D01*
X190792670Y-137361565D01*
X190736498Y-137376616D01*
X190567979Y-137421770D01*
X190353078Y-137510785D01*
X190353067Y-137510790D01*
X190151633Y-137627089D01*
X190151617Y-137627100D01*
X189967082Y-137768698D01*
X189967075Y-137768704D01*
X189802602Y-137933177D01*
X189802596Y-137933184D01*
X189660998Y-138117719D01*
X189660987Y-138117735D01*
X189544688Y-138319169D01*
X189544683Y-138319180D01*
X189455668Y-138534081D01*
X189395463Y-138758773D01*
X189365100Y-138989387D01*
X181500500Y-138989387D01*
X181500500Y-134684379D01*
X188352201Y-134684379D01*
X188352201Y-134887020D01*
X188383900Y-135087163D01*
X188446522Y-135279892D01*
X188538517Y-135460444D01*
X188569146Y-135502599D01*
X188569147Y-135502600D01*
X189129366Y-134942380D01*
X189142551Y-134991585D01*
X189212775Y-135113215D01*
X189312086Y-135212526D01*
X189433716Y-135282750D01*
X189482920Y-135295934D01*
X188922700Y-135856153D01*
X188922700Y-135856154D01*
X188964855Y-135886782D01*
X189145408Y-135978778D01*
X189338137Y-136041400D01*
X189338136Y-136041400D01*
X189538281Y-136073100D01*
X189740921Y-136073100D01*
X189941064Y-136041400D01*
X190133793Y-135978778D01*
X190314348Y-135886781D01*
X190314352Y-135886779D01*
X190356500Y-135856154D01*
X190356501Y-135856154D01*
X189796281Y-135295934D01*
X189845486Y-135282750D01*
X189967116Y-135212526D01*
X190066427Y-135113215D01*
X190136651Y-134991585D01*
X190149835Y-134942380D01*
X190710054Y-135502600D01*
X190710055Y-135502599D01*
X190740680Y-135460451D01*
X190740682Y-135460447D01*
X190832679Y-135279892D01*
X190895301Y-135087163D01*
X190927001Y-134887020D01*
X190927001Y-134684379D01*
X191352200Y-134684379D01*
X191352200Y-134887020D01*
X191383899Y-135087163D01*
X191446521Y-135279892D01*
X191538516Y-135460444D01*
X191569145Y-135502599D01*
X191569146Y-135502600D01*
X192129365Y-134942380D01*
X192142550Y-134991585D01*
X192212774Y-135113215D01*
X192312085Y-135212526D01*
X192433715Y-135282750D01*
X192482919Y-135295934D01*
X191922699Y-135856153D01*
X191922699Y-135856154D01*
X191964854Y-135886782D01*
X192145407Y-135978778D01*
X192338136Y-136041400D01*
X192338135Y-136041400D01*
X192538280Y-136073100D01*
X192740920Y-136073100D01*
X192941063Y-136041400D01*
X193133792Y-135978778D01*
X193314347Y-135886781D01*
X193314351Y-135886779D01*
X193356499Y-135856154D01*
X193356500Y-135856154D01*
X192796280Y-135295934D01*
X192845485Y-135282750D01*
X192967115Y-135212526D01*
X193066426Y-135113215D01*
X193136650Y-134991585D01*
X193149834Y-134942380D01*
X193710053Y-135502600D01*
X193710054Y-135502599D01*
X193740679Y-135460451D01*
X193740681Y-135460447D01*
X193832678Y-135279892D01*
X193895300Y-135087163D01*
X193927000Y-134887020D01*
X193927000Y-134684379D01*
X193895300Y-134484236D01*
X193832678Y-134291507D01*
X193740682Y-134110954D01*
X193710053Y-134068799D01*
X193149833Y-134629018D01*
X193136650Y-134579815D01*
X193066426Y-134458185D01*
X192967115Y-134358874D01*
X192845485Y-134288650D01*
X192796280Y-134275465D01*
X193356500Y-133715246D01*
X193356499Y-133715245D01*
X193314344Y-133684616D01*
X193133792Y-133592621D01*
X192941063Y-133529999D01*
X192941064Y-133529999D01*
X192740920Y-133498300D01*
X192538280Y-133498300D01*
X192338136Y-133529999D01*
X192145407Y-133592621D01*
X191964850Y-133684619D01*
X191922699Y-133715244D01*
X191922698Y-133715245D01*
X192482919Y-134275465D01*
X192433715Y-134288650D01*
X192312085Y-134358874D01*
X192212774Y-134458185D01*
X192142550Y-134579815D01*
X192129366Y-134629019D01*
X191569145Y-134068798D01*
X191569144Y-134068799D01*
X191538519Y-134110950D01*
X191446521Y-134291507D01*
X191383899Y-134484236D01*
X191352200Y-134684379D01*
X190927001Y-134684379D01*
X190895301Y-134484236D01*
X190832679Y-134291507D01*
X190740683Y-134110954D01*
X190710054Y-134068799D01*
X190149834Y-134629018D01*
X190136651Y-134579815D01*
X190066427Y-134458185D01*
X189967116Y-134358874D01*
X189845486Y-134288650D01*
X189796281Y-134275465D01*
X190356501Y-133715246D01*
X190356500Y-133715245D01*
X190314345Y-133684616D01*
X190133793Y-133592621D01*
X189941064Y-133529999D01*
X189941065Y-133529999D01*
X189740921Y-133498300D01*
X189538281Y-133498300D01*
X189338137Y-133529999D01*
X189145408Y-133592621D01*
X188964851Y-133684619D01*
X188922700Y-133715244D01*
X188922699Y-133715245D01*
X189482920Y-134275465D01*
X189433716Y-134288650D01*
X189312086Y-134358874D01*
X189212775Y-134458185D01*
X189142551Y-134579815D01*
X189129367Y-134629019D01*
X188569146Y-134068798D01*
X188569145Y-134068799D01*
X188538520Y-134110950D01*
X188446522Y-134291507D01*
X188383900Y-134484236D01*
X188352201Y-134684379D01*
X181500500Y-134684379D01*
X181500500Y-131688396D01*
X188651701Y-131688396D01*
X188651701Y-131883005D01*
X188689663Y-132073853D01*
X188689665Y-132073861D01*
X188764133Y-132253644D01*
X188764138Y-132253653D01*
X188872248Y-132415450D01*
X188872251Y-132415454D01*
X189009847Y-132553050D01*
X189009851Y-132553053D01*
X189171648Y-132661163D01*
X189171654Y-132661166D01*
X189171655Y-132661167D01*
X189351441Y-132735637D01*
X189542296Y-132773600D01*
X189542300Y-132773601D01*
X189542301Y-132773601D01*
X189736902Y-132773601D01*
X189736903Y-132773600D01*
X189927761Y-132735637D01*
X190107547Y-132661167D01*
X190269351Y-132553053D01*
X190406953Y-132415451D01*
X190515067Y-132253647D01*
X190589537Y-132073861D01*
X190627501Y-131883001D01*
X190627501Y-131688401D01*
X190627500Y-131688396D01*
X191651700Y-131688396D01*
X191651700Y-131883005D01*
X191689662Y-132073853D01*
X191689664Y-132073861D01*
X191764132Y-132253644D01*
X191764137Y-132253653D01*
X191872247Y-132415450D01*
X191872250Y-132415454D01*
X192009846Y-132553050D01*
X192009850Y-132553053D01*
X192171647Y-132661163D01*
X192171653Y-132661166D01*
X192171654Y-132661167D01*
X192351440Y-132735637D01*
X192542295Y-132773600D01*
X192542299Y-132773601D01*
X192542300Y-132773601D01*
X192736901Y-132773601D01*
X192736902Y-132773600D01*
X192927760Y-132735637D01*
X193107546Y-132661167D01*
X193269350Y-132553053D01*
X193406952Y-132415451D01*
X193515066Y-132253647D01*
X193589536Y-132073861D01*
X193627500Y-131883001D01*
X193627500Y-131688401D01*
X193589536Y-131497541D01*
X193515066Y-131317755D01*
X193515065Y-131317754D01*
X193515062Y-131317748D01*
X193406952Y-131155951D01*
X193406949Y-131155947D01*
X193269353Y-131018351D01*
X193269349Y-131018348D01*
X193107552Y-130910238D01*
X193107543Y-130910233D01*
X192927760Y-130835765D01*
X192927752Y-130835763D01*
X192736904Y-130797801D01*
X192736900Y-130797801D01*
X192542300Y-130797801D01*
X192542295Y-130797801D01*
X192351447Y-130835763D01*
X192351439Y-130835765D01*
X192171656Y-130910233D01*
X192171647Y-130910238D01*
X192009850Y-131018348D01*
X192009846Y-131018351D01*
X191872250Y-131155947D01*
X191872247Y-131155951D01*
X191764137Y-131317748D01*
X191764132Y-131317757D01*
X191689664Y-131497540D01*
X191689662Y-131497548D01*
X191651700Y-131688396D01*
X190627500Y-131688396D01*
X190589537Y-131497541D01*
X190515067Y-131317755D01*
X190515066Y-131317754D01*
X190515063Y-131317748D01*
X190406953Y-131155951D01*
X190406950Y-131155947D01*
X190269354Y-131018351D01*
X190269350Y-131018348D01*
X190107553Y-130910238D01*
X190107544Y-130910233D01*
X189927761Y-130835765D01*
X189927753Y-130835763D01*
X189736905Y-130797801D01*
X189736901Y-130797801D01*
X189542301Y-130797801D01*
X189542296Y-130797801D01*
X189351448Y-130835763D01*
X189351440Y-130835765D01*
X189171657Y-130910233D01*
X189171648Y-130910238D01*
X189009851Y-131018348D01*
X189009847Y-131018351D01*
X188872251Y-131155947D01*
X188872248Y-131155951D01*
X188764138Y-131317748D01*
X188764133Y-131317757D01*
X188689665Y-131497540D01*
X188689663Y-131497548D01*
X188651701Y-131688396D01*
X181500500Y-131688396D01*
X181500500Y-125848745D01*
X181484982Y-125720945D01*
X181464037Y-125548449D01*
X181391643Y-125254734D01*
X181376149Y-125213881D01*
X181335771Y-125107413D01*
X181284373Y-124971887D01*
X181143793Y-124704032D01*
X181058537Y-124580518D01*
X181021950Y-124527512D01*
X181019784Y-124520943D01*
X191399500Y-124520943D01*
X191399500Y-124679057D01*
X191415439Y-124738540D01*
X191440423Y-124831783D01*
X191440426Y-124831790D01*
X191519475Y-124968709D01*
X191519479Y-124968714D01*
X191519480Y-124968716D01*
X191631284Y-125080520D01*
X191631286Y-125080521D01*
X191631290Y-125080524D01*
X191677864Y-125107413D01*
X191768216Y-125159577D01*
X191894347Y-125193373D01*
X191954007Y-125229738D01*
X191984536Y-125292585D01*
X191976241Y-125361961D01*
X191949935Y-125400828D01*
X191919481Y-125431282D01*
X191919475Y-125431290D01*
X191840426Y-125568209D01*
X191840423Y-125568216D01*
X191799500Y-125720943D01*
X191799500Y-125879056D01*
X191840423Y-126031783D01*
X191840426Y-126031790D01*
X191919475Y-126168709D01*
X191919479Y-126168714D01*
X191919480Y-126168716D01*
X192031284Y-126280520D01*
X192031286Y-126280521D01*
X192031290Y-126280524D01*
X192168209Y-126359573D01*
X192168216Y-126359577D01*
X192320943Y-126400500D01*
X192320945Y-126400500D01*
X192479055Y-126400500D01*
X192479057Y-126400500D01*
X192631784Y-126359577D01*
X192768716Y-126280520D01*
X192880520Y-126168716D01*
X192892612Y-126147772D01*
X192943178Y-126099555D01*
X193011785Y-126086331D01*
X193076650Y-126112298D01*
X193107388Y-126147772D01*
X193119477Y-126168712D01*
X193119479Y-126168715D01*
X193119480Y-126168716D01*
X193231284Y-126280520D01*
X193231286Y-126280521D01*
X193231290Y-126280524D01*
X193368209Y-126359573D01*
X193368216Y-126359577D01*
X193520943Y-126400500D01*
X193520945Y-126400500D01*
X193679055Y-126400500D01*
X193679057Y-126400500D01*
X193831784Y-126359577D01*
X193968716Y-126280520D01*
X194080520Y-126168716D01*
X194159577Y-126031784D01*
X194200500Y-125879057D01*
X194200500Y-125720943D01*
X194159577Y-125568216D01*
X194120450Y-125500445D01*
X194080524Y-125431290D01*
X194080518Y-125431282D01*
X194050065Y-125400829D01*
X194016580Y-125339506D01*
X194021564Y-125269814D01*
X194063436Y-125213881D01*
X194105650Y-125193374D01*
X194231784Y-125159577D01*
X194368716Y-125080520D01*
X194480520Y-124968716D01*
X194559577Y-124831784D01*
X194600500Y-124679057D01*
X194600500Y-124520943D01*
X194559577Y-124368216D01*
X194524416Y-124307315D01*
X194480524Y-124231290D01*
X194480518Y-124231282D01*
X194368717Y-124119481D01*
X194368716Y-124119480D01*
X194231784Y-124040423D01*
X194231785Y-124040423D01*
X194159084Y-124020943D01*
X203999500Y-124020943D01*
X203999500Y-124179056D01*
X204040423Y-124331783D01*
X204040426Y-124331790D01*
X204119475Y-124468709D01*
X204119479Y-124468714D01*
X204119480Y-124468716D01*
X204231284Y-124580520D01*
X204231286Y-124580521D01*
X204231290Y-124580524D01*
X204327389Y-124636006D01*
X204368216Y-124659577D01*
X204520943Y-124700500D01*
X204520945Y-124700500D01*
X204679055Y-124700500D01*
X204679057Y-124700500D01*
X204831784Y-124659577D01*
X204968716Y-124580520D01*
X205080520Y-124468716D01*
X205159577Y-124331784D01*
X205200500Y-124179057D01*
X205200500Y-124020943D01*
X205159577Y-123868216D01*
X205102132Y-123768717D01*
X205080524Y-123731290D01*
X205080518Y-123731282D01*
X204968717Y-123619481D01*
X204968709Y-123619475D01*
X204831790Y-123540426D01*
X204831786Y-123540424D01*
X204831784Y-123540423D01*
X204679057Y-123499500D01*
X204520943Y-123499500D01*
X204368216Y-123540423D01*
X204368209Y-123540426D01*
X204231290Y-123619475D01*
X204231282Y-123619481D01*
X204119481Y-123731282D01*
X204119475Y-123731290D01*
X204040426Y-123868209D01*
X204040423Y-123868216D01*
X203999500Y-124020943D01*
X194159084Y-124020943D01*
X194105652Y-124006626D01*
X194045992Y-123970260D01*
X194015463Y-123907413D01*
X194023758Y-123838038D01*
X194050063Y-123799172D01*
X194080520Y-123768716D01*
X194159577Y-123631784D01*
X194200500Y-123479057D01*
X194200500Y-123320943D01*
X194159577Y-123168216D01*
X194120450Y-123100445D01*
X194080524Y-123031290D01*
X194080518Y-123031282D01*
X193968717Y-122919481D01*
X193968709Y-122919475D01*
X193831790Y-122840426D01*
X193831786Y-122840424D01*
X193831784Y-122840423D01*
X193679057Y-122799500D01*
X193520943Y-122799500D01*
X193368216Y-122840423D01*
X193368209Y-122840426D01*
X193231290Y-122919475D01*
X193231282Y-122919481D01*
X193119481Y-123031282D01*
X193119477Y-123031287D01*
X193107387Y-123052229D01*
X193056820Y-123100445D01*
X192988213Y-123113668D01*
X192923348Y-123087700D01*
X192892613Y-123052229D01*
X192880522Y-123031287D01*
X192880518Y-123031282D01*
X192768717Y-122919481D01*
X192768709Y-122919475D01*
X192631790Y-122840426D01*
X192631786Y-122840424D01*
X192631784Y-122840423D01*
X192479057Y-122799500D01*
X192320943Y-122799500D01*
X192168216Y-122840423D01*
X192168209Y-122840426D01*
X192031290Y-122919475D01*
X192031282Y-122919481D01*
X191919481Y-123031282D01*
X191919475Y-123031290D01*
X191840426Y-123168209D01*
X191840423Y-123168216D01*
X191799500Y-123320943D01*
X191799500Y-123479057D01*
X191837127Y-123619481D01*
X191840423Y-123631783D01*
X191840426Y-123631790D01*
X191919475Y-123768709D01*
X191919481Y-123768717D01*
X191949934Y-123799170D01*
X191983419Y-123860493D01*
X191978435Y-123930185D01*
X191936563Y-123986118D01*
X191894347Y-124006626D01*
X191768214Y-124040423D01*
X191768209Y-124040426D01*
X191631290Y-124119475D01*
X191631282Y-124119481D01*
X191519481Y-124231282D01*
X191519475Y-124231290D01*
X191440426Y-124368209D01*
X191440423Y-124368216D01*
X191399500Y-124520943D01*
X181019784Y-124520943D01*
X181000067Y-124461157D01*
X181000000Y-124457072D01*
X181000000Y-121520943D01*
X203999500Y-121520943D01*
X203999500Y-121679056D01*
X204040423Y-121831783D01*
X204040426Y-121831790D01*
X204119475Y-121968709D01*
X204119479Y-121968714D01*
X204119480Y-121968716D01*
X204231284Y-122080520D01*
X204231286Y-122080521D01*
X204231290Y-122080524D01*
X204368209Y-122159573D01*
X204368216Y-122159577D01*
X204520943Y-122200500D01*
X204520945Y-122200500D01*
X204679055Y-122200500D01*
X204679057Y-122200500D01*
X204831784Y-122159577D01*
X204968716Y-122080520D01*
X205080520Y-121968716D01*
X205159577Y-121831784D01*
X205200500Y-121679057D01*
X205200500Y-121520943D01*
X205159577Y-121368216D01*
X205159573Y-121368209D01*
X205080524Y-121231290D01*
X205080518Y-121231282D01*
X204968717Y-121119481D01*
X204968709Y-121119475D01*
X204831790Y-121040426D01*
X204831786Y-121040424D01*
X204831784Y-121040423D01*
X204679057Y-120999500D01*
X204520943Y-120999500D01*
X204368216Y-121040423D01*
X204368209Y-121040426D01*
X204231290Y-121119475D01*
X204231282Y-121119481D01*
X204119481Y-121231282D01*
X204119475Y-121231290D01*
X204040426Y-121368209D01*
X204040423Y-121368216D01*
X203999500Y-121520943D01*
X181000000Y-121520943D01*
X181000000Y-112000000D01*
X181000000Y-111320943D01*
X201399500Y-111320943D01*
X201399500Y-111479057D01*
X201440289Y-111631282D01*
X201440423Y-111631783D01*
X201440426Y-111631790D01*
X201519475Y-111768709D01*
X201519479Y-111768714D01*
X201519480Y-111768716D01*
X201631284Y-111880520D01*
X201631286Y-111880521D01*
X201631290Y-111880524D01*
X201768209Y-111959573D01*
X201768216Y-111959577D01*
X201920943Y-112000500D01*
X201920945Y-112000500D01*
X202079055Y-112000500D01*
X202079057Y-112000500D01*
X202231784Y-111959577D01*
X202368716Y-111880520D01*
X202480520Y-111768716D01*
X202480522Y-111768711D01*
X202481142Y-111768092D01*
X202542465Y-111734607D01*
X202612157Y-111739591D01*
X202668091Y-111781462D01*
X202676211Y-111793773D01*
X202719477Y-111868712D01*
X202719479Y-111868715D01*
X202719480Y-111868716D01*
X202831284Y-111980520D01*
X202831286Y-111980521D01*
X202831290Y-111980524D01*
X202881285Y-112009388D01*
X202968216Y-112059577D01*
X203120943Y-112100500D01*
X203120945Y-112100500D01*
X203279055Y-112100500D01*
X203279057Y-112100500D01*
X203431784Y-112059577D01*
X203568716Y-111980520D01*
X203680520Y-111868716D01*
X203690590Y-111851274D01*
X217469169Y-111851274D01*
X217469169Y-112009388D01*
X217493583Y-112100500D01*
X217510092Y-112162114D01*
X217510095Y-112162121D01*
X217589144Y-112299040D01*
X217589148Y-112299045D01*
X217589149Y-112299047D01*
X217700953Y-112410851D01*
X217700955Y-112410852D01*
X217700959Y-112410855D01*
X217821621Y-112480518D01*
X217837885Y-112489908D01*
X217990612Y-112530831D01*
X217990614Y-112530831D01*
X218148724Y-112530831D01*
X218148726Y-112530831D01*
X218301453Y-112489908D01*
X218438385Y-112410851D01*
X218550189Y-112299047D01*
X218629246Y-112162115D01*
X218670169Y-112009388D01*
X218670169Y-111920943D01*
X219399500Y-111920943D01*
X219399500Y-112079057D01*
X219421756Y-112162115D01*
X219440423Y-112231783D01*
X219440426Y-112231790D01*
X219519475Y-112368709D01*
X219519479Y-112368714D01*
X219519480Y-112368716D01*
X219631284Y-112480520D01*
X219631286Y-112480521D01*
X219631290Y-112480524D01*
X219718424Y-112530830D01*
X219768216Y-112559577D01*
X219920943Y-112600500D01*
X219920945Y-112600500D01*
X220079055Y-112600500D01*
X220079057Y-112600500D01*
X220231784Y-112559577D01*
X220368716Y-112480520D01*
X220480520Y-112368716D01*
X220559577Y-112231784D01*
X220600500Y-112079057D01*
X220600500Y-111920943D01*
X221299500Y-111920943D01*
X221299500Y-112079057D01*
X221321756Y-112162115D01*
X221340423Y-112231783D01*
X221340426Y-112231790D01*
X221419475Y-112368709D01*
X221419479Y-112368714D01*
X221419480Y-112368716D01*
X221531284Y-112480520D01*
X221531286Y-112480521D01*
X221531290Y-112480524D01*
X221618424Y-112530830D01*
X221668216Y-112559577D01*
X221820943Y-112600500D01*
X221820945Y-112600500D01*
X221979055Y-112600500D01*
X221979057Y-112600500D01*
X222131784Y-112559577D01*
X222268716Y-112480520D01*
X222380520Y-112368716D01*
X222459577Y-112231784D01*
X222500500Y-112079057D01*
X222500500Y-111920943D01*
X222459577Y-111768216D01*
X222419350Y-111698540D01*
X222380524Y-111631290D01*
X222380518Y-111631282D01*
X222268717Y-111519481D01*
X222268709Y-111519475D01*
X222131790Y-111440426D01*
X222131786Y-111440424D01*
X222131784Y-111440423D01*
X221979057Y-111399500D01*
X221820943Y-111399500D01*
X221668216Y-111440423D01*
X221668209Y-111440426D01*
X221531290Y-111519475D01*
X221531282Y-111519481D01*
X221419481Y-111631282D01*
X221419475Y-111631290D01*
X221340426Y-111768209D01*
X221340423Y-111768216D01*
X221299500Y-111920943D01*
X220600500Y-111920943D01*
X220559577Y-111768216D01*
X220519350Y-111698540D01*
X220480524Y-111631290D01*
X220480518Y-111631282D01*
X220368717Y-111519481D01*
X220368709Y-111519475D01*
X220231790Y-111440426D01*
X220231786Y-111440424D01*
X220231784Y-111440423D01*
X220079057Y-111399500D01*
X219920943Y-111399500D01*
X219768216Y-111440423D01*
X219768209Y-111440426D01*
X219631290Y-111519475D01*
X219631282Y-111519481D01*
X219519481Y-111631282D01*
X219519475Y-111631290D01*
X219440426Y-111768209D01*
X219440423Y-111768216D01*
X219399500Y-111920943D01*
X218670169Y-111920943D01*
X218670169Y-111851274D01*
X218629246Y-111698547D01*
X218590411Y-111631282D01*
X218550193Y-111561621D01*
X218550187Y-111561613D01*
X218438386Y-111449812D01*
X218438378Y-111449806D01*
X218301459Y-111370757D01*
X218301455Y-111370755D01*
X218301453Y-111370754D01*
X218148726Y-111329831D01*
X217990612Y-111329831D01*
X217837885Y-111370754D01*
X217837878Y-111370757D01*
X217700959Y-111449806D01*
X217700951Y-111449812D01*
X217589150Y-111561613D01*
X217589144Y-111561621D01*
X217510095Y-111698540D01*
X217510092Y-111698547D01*
X217469169Y-111851274D01*
X203690590Y-111851274D01*
X203738255Y-111768716D01*
X203740310Y-111765154D01*
X203759577Y-111731784D01*
X203800500Y-111579057D01*
X203800500Y-111420943D01*
X203759577Y-111268216D01*
X203701843Y-111168216D01*
X203680524Y-111131290D01*
X203680518Y-111131282D01*
X203568717Y-111019481D01*
X203568709Y-111019475D01*
X203431790Y-110940426D01*
X203431786Y-110940424D01*
X203431784Y-110940423D01*
X203279057Y-110899500D01*
X203120943Y-110899500D01*
X202968216Y-110940423D01*
X202968209Y-110940426D01*
X202831290Y-111019475D01*
X202831286Y-111019478D01*
X202718856Y-111131908D01*
X202657533Y-111165392D01*
X202587841Y-111160408D01*
X202531908Y-111118536D01*
X202523788Y-111106226D01*
X202480522Y-111031287D01*
X202480518Y-111031282D01*
X202368717Y-110919481D01*
X202368709Y-110919475D01*
X202231790Y-110840426D01*
X202231786Y-110840424D01*
X202231784Y-110840423D01*
X202079057Y-110799500D01*
X201920943Y-110799500D01*
X201768216Y-110840423D01*
X201768209Y-110840426D01*
X201631290Y-110919475D01*
X201631282Y-110919481D01*
X201519481Y-111031282D01*
X201519475Y-111031290D01*
X201440426Y-111168209D01*
X201440423Y-111168216D01*
X201399500Y-111320943D01*
X181000000Y-111320943D01*
X181000000Y-108720943D01*
X201099500Y-108720943D01*
X201099500Y-108879057D01*
X201126295Y-108979055D01*
X201140423Y-109031783D01*
X201140426Y-109031790D01*
X201219475Y-109168709D01*
X201219479Y-109168714D01*
X201219480Y-109168716D01*
X201331284Y-109280520D01*
X201331286Y-109280521D01*
X201331290Y-109280524D01*
X201468209Y-109359573D01*
X201468216Y-109359577D01*
X201620943Y-109400500D01*
X201620945Y-109400500D01*
X201779055Y-109400500D01*
X201779057Y-109400500D01*
X201931784Y-109359577D01*
X202068716Y-109280520D01*
X202180520Y-109168716D01*
X202259577Y-109031784D01*
X202300500Y-108879057D01*
X202300500Y-108820943D01*
X203399500Y-108820943D01*
X203399500Y-108979056D01*
X203440423Y-109131783D01*
X203440426Y-109131790D01*
X203519475Y-109268709D01*
X203519479Y-109268714D01*
X203519480Y-109268716D01*
X203631284Y-109380520D01*
X203631286Y-109380521D01*
X203631290Y-109380524D01*
X203768209Y-109459573D01*
X203768216Y-109459577D01*
X203920943Y-109500500D01*
X203920945Y-109500500D01*
X204079055Y-109500500D01*
X204079057Y-109500500D01*
X204231784Y-109459577D01*
X204368716Y-109380520D01*
X204480520Y-109268716D01*
X204559577Y-109131784D01*
X204600500Y-108979057D01*
X204600500Y-108820943D01*
X204559577Y-108668216D01*
X204501843Y-108568216D01*
X204480524Y-108531290D01*
X204480518Y-108531282D01*
X204368717Y-108419481D01*
X204368709Y-108419475D01*
X204231790Y-108340426D01*
X204231786Y-108340424D01*
X204231784Y-108340423D01*
X204079057Y-108299500D01*
X203920943Y-108299500D01*
X203768216Y-108340423D01*
X203768209Y-108340426D01*
X203631290Y-108419475D01*
X203631282Y-108419481D01*
X203519481Y-108531282D01*
X203519475Y-108531290D01*
X203440426Y-108668209D01*
X203440423Y-108668216D01*
X203399500Y-108820943D01*
X202300500Y-108820943D01*
X202300500Y-108720943D01*
X202259577Y-108568216D01*
X202238258Y-108531290D01*
X202180524Y-108431290D01*
X202180518Y-108431282D01*
X202068717Y-108319481D01*
X202068709Y-108319475D01*
X201931790Y-108240426D01*
X201931786Y-108240424D01*
X201931784Y-108240423D01*
X201779057Y-108199500D01*
X201620943Y-108199500D01*
X201468216Y-108240423D01*
X201468209Y-108240426D01*
X201331290Y-108319475D01*
X201331282Y-108319481D01*
X201219481Y-108431282D01*
X201219475Y-108431290D01*
X201140426Y-108568209D01*
X201140423Y-108568216D01*
X201099500Y-108720943D01*
X181000000Y-108720943D01*
X181000000Y-107620943D01*
X183799500Y-107620943D01*
X183799500Y-107779056D01*
X183840423Y-107931783D01*
X183840426Y-107931790D01*
X183919475Y-108068709D01*
X183919479Y-108068714D01*
X183919480Y-108068716D01*
X184031284Y-108180520D01*
X184031286Y-108180521D01*
X184031290Y-108180524D01*
X184135040Y-108240423D01*
X184168216Y-108259577D01*
X184320943Y-108300500D01*
X184320945Y-108300500D01*
X184479055Y-108300500D01*
X184479057Y-108300500D01*
X184631784Y-108259577D01*
X184768716Y-108180520D01*
X184880520Y-108068716D01*
X184959577Y-107931784D01*
X185000500Y-107779057D01*
X185000500Y-107620943D01*
X184959577Y-107468216D01*
X184959573Y-107468209D01*
X184880524Y-107331290D01*
X184880518Y-107331282D01*
X184768717Y-107219481D01*
X184768709Y-107219475D01*
X184631790Y-107140426D01*
X184631786Y-107140424D01*
X184631784Y-107140423D01*
X184479057Y-107099500D01*
X184320943Y-107099500D01*
X184168216Y-107140423D01*
X184168209Y-107140426D01*
X184031290Y-107219475D01*
X184031282Y-107219481D01*
X183919481Y-107331282D01*
X183919475Y-107331290D01*
X183840426Y-107468209D01*
X183840423Y-107468216D01*
X183799500Y-107620943D01*
X181000000Y-107620943D01*
X181000000Y-106420943D01*
X200599500Y-106420943D01*
X200599500Y-106579056D01*
X200640423Y-106731783D01*
X200640426Y-106731790D01*
X200719475Y-106868709D01*
X200719479Y-106868714D01*
X200719480Y-106868716D01*
X200831284Y-106980520D01*
X200831286Y-106980521D01*
X200831290Y-106980524D01*
X200968209Y-107059573D01*
X200968216Y-107059577D01*
X201120943Y-107100500D01*
X201120945Y-107100500D01*
X201279055Y-107100500D01*
X201279057Y-107100500D01*
X201431784Y-107059577D01*
X201568716Y-106980520D01*
X201680520Y-106868716D01*
X201759577Y-106731784D01*
X201800500Y-106579057D01*
X201800500Y-106420943D01*
X221399500Y-106420943D01*
X221399500Y-106579056D01*
X221440423Y-106731783D01*
X221440426Y-106731790D01*
X221519475Y-106868709D01*
X221519479Y-106868714D01*
X221519480Y-106868716D01*
X221631284Y-106980520D01*
X221631286Y-106980521D01*
X221631290Y-106980524D01*
X221768209Y-107059573D01*
X221768216Y-107059577D01*
X221920943Y-107100500D01*
X221920945Y-107100500D01*
X222079055Y-107100500D01*
X222079057Y-107100500D01*
X222231784Y-107059577D01*
X222368716Y-106980520D01*
X222480520Y-106868716D01*
X222559577Y-106731784D01*
X222600500Y-106579057D01*
X222600500Y-106420943D01*
X222559577Y-106268216D01*
X222559573Y-106268209D01*
X222480524Y-106131290D01*
X222480518Y-106131282D01*
X222368717Y-106019481D01*
X222368709Y-106019475D01*
X222231790Y-105940426D01*
X222231786Y-105940424D01*
X222231784Y-105940423D01*
X222079057Y-105899500D01*
X221920943Y-105899500D01*
X221768216Y-105940423D01*
X221768209Y-105940426D01*
X221631290Y-106019475D01*
X221631282Y-106019481D01*
X221519481Y-106131282D01*
X221519475Y-106131290D01*
X221440426Y-106268209D01*
X221440423Y-106268216D01*
X221399500Y-106420943D01*
X201800500Y-106420943D01*
X201759577Y-106268216D01*
X201759573Y-106268209D01*
X201680524Y-106131290D01*
X201680518Y-106131282D01*
X201568717Y-106019481D01*
X201568709Y-106019475D01*
X201431790Y-105940426D01*
X201431786Y-105940424D01*
X201431784Y-105940423D01*
X201279057Y-105899500D01*
X201120943Y-105899500D01*
X200968216Y-105940423D01*
X200968209Y-105940426D01*
X200831290Y-106019475D01*
X200831282Y-106019481D01*
X200719481Y-106131282D01*
X200719475Y-106131290D01*
X200640426Y-106268209D01*
X200640423Y-106268216D01*
X200599500Y-106420943D01*
X181000000Y-106420943D01*
X181000000Y-105320943D01*
X204299500Y-105320943D01*
X204299500Y-105479056D01*
X204340423Y-105631783D01*
X204340426Y-105631790D01*
X204419475Y-105768709D01*
X204419479Y-105768714D01*
X204419480Y-105768716D01*
X204531284Y-105880520D01*
X204531286Y-105880521D01*
X204531290Y-105880524D01*
X204635040Y-105940423D01*
X204668216Y-105959577D01*
X204820943Y-106000500D01*
X204820945Y-106000500D01*
X204979055Y-106000500D01*
X204979057Y-106000500D01*
X205131784Y-105959577D01*
X205268716Y-105880520D01*
X205380520Y-105768716D01*
X205459577Y-105631784D01*
X205500500Y-105479057D01*
X205500500Y-105320943D01*
X205459577Y-105168216D01*
X205454587Y-105159573D01*
X205380524Y-105031290D01*
X205380518Y-105031282D01*
X205268717Y-104919481D01*
X205268709Y-104919475D01*
X205131790Y-104840426D01*
X205131786Y-104840424D01*
X205131784Y-104840423D01*
X204979057Y-104799500D01*
X204820943Y-104799500D01*
X204668216Y-104840423D01*
X204668209Y-104840426D01*
X204531290Y-104919475D01*
X204531282Y-104919481D01*
X204419481Y-105031282D01*
X204419475Y-105031290D01*
X204340426Y-105168209D01*
X204340423Y-105168216D01*
X204299500Y-105320943D01*
X181000000Y-105320943D01*
X181000000Y-104520943D01*
X214799500Y-104520943D01*
X214799500Y-104679056D01*
X214840423Y-104831783D01*
X214840426Y-104831790D01*
X214919475Y-104968709D01*
X214919479Y-104968714D01*
X214919480Y-104968716D01*
X215031284Y-105080520D01*
X215031286Y-105080521D01*
X215031290Y-105080524D01*
X215168209Y-105159573D01*
X215168216Y-105159577D01*
X215320943Y-105200500D01*
X215320945Y-105200500D01*
X215479055Y-105200500D01*
X215479057Y-105200500D01*
X215631784Y-105159577D01*
X215768716Y-105080520D01*
X215880520Y-104968716D01*
X215959577Y-104831784D01*
X216000500Y-104679057D01*
X216000500Y-104520943D01*
X215959577Y-104368216D01*
X215902907Y-104270060D01*
X215880522Y-104231287D01*
X215880518Y-104231282D01*
X215768717Y-104119481D01*
X215768709Y-104119475D01*
X215631790Y-104040426D01*
X215631786Y-104040424D01*
X215631784Y-104040423D01*
X215479057Y-103999500D01*
X215320943Y-103999500D01*
X215168216Y-104040423D01*
X215168209Y-104040426D01*
X215031290Y-104119475D01*
X215031282Y-104119481D01*
X214919481Y-104231282D01*
X214919475Y-104231290D01*
X214840426Y-104368209D01*
X214840423Y-104368216D01*
X214799500Y-104520943D01*
X181000000Y-104520943D01*
X181000000Y-103520943D01*
X200599500Y-103520943D01*
X200599500Y-103679057D01*
X200626548Y-103779999D01*
X200640423Y-103831783D01*
X200640426Y-103831790D01*
X200719475Y-103968709D01*
X200719479Y-103968714D01*
X200719480Y-103968716D01*
X200831284Y-104080520D01*
X200831286Y-104080521D01*
X200831290Y-104080524D01*
X200898765Y-104119480D01*
X200968216Y-104159577D01*
X201120943Y-104200500D01*
X201120945Y-104200500D01*
X201279055Y-104200500D01*
X201279057Y-104200500D01*
X201431784Y-104159577D01*
X201568716Y-104080520D01*
X201680520Y-103968716D01*
X201759577Y-103831784D01*
X201800500Y-103679057D01*
X201800500Y-103520943D01*
X201759577Y-103368216D01*
X201724231Y-103306994D01*
X201680524Y-103231290D01*
X201680518Y-103231282D01*
X201568717Y-103119481D01*
X201568709Y-103119475D01*
X201431790Y-103040426D01*
X201431786Y-103040424D01*
X201431784Y-103040423D01*
X201279057Y-102999500D01*
X201120943Y-102999500D01*
X200968216Y-103040423D01*
X200968209Y-103040426D01*
X200831290Y-103119475D01*
X200831282Y-103119481D01*
X200719481Y-103231282D01*
X200719475Y-103231290D01*
X200640426Y-103368209D01*
X200640423Y-103368216D01*
X200599500Y-103520943D01*
X181000000Y-103520943D01*
X181000000Y-101120943D01*
X191685152Y-101120943D01*
X191685152Y-101279057D01*
X191722918Y-101420000D01*
X191726075Y-101431783D01*
X191726078Y-101431790D01*
X191805127Y-101568709D01*
X191805131Y-101568714D01*
X191805132Y-101568716D01*
X191916936Y-101680520D01*
X191916938Y-101680521D01*
X191916942Y-101680524D01*
X192026321Y-101743673D01*
X192053868Y-101759577D01*
X192206595Y-101800500D01*
X192206597Y-101800500D01*
X192364707Y-101800500D01*
X192364709Y-101800500D01*
X192517436Y-101759577D01*
X192654368Y-101680520D01*
X192766172Y-101568716D01*
X192793754Y-101520943D01*
X208099500Y-101520943D01*
X208099500Y-101679057D01*
X208136017Y-101815338D01*
X208140423Y-101831783D01*
X208140426Y-101831790D01*
X208219475Y-101968709D01*
X208219479Y-101968714D01*
X208219480Y-101968716D01*
X208331284Y-102080520D01*
X208331286Y-102080521D01*
X208331290Y-102080524D01*
X208468209Y-102159573D01*
X208468216Y-102159577D01*
X208620943Y-102200500D01*
X208620945Y-102200500D01*
X208779055Y-102200500D01*
X208779057Y-102200500D01*
X208931784Y-102159577D01*
X209068716Y-102080520D01*
X209180520Y-101968716D01*
X209259577Y-101831784D01*
X209300500Y-101679057D01*
X209300500Y-101520943D01*
X209259577Y-101368216D01*
X209251488Y-101354205D01*
X209180524Y-101231290D01*
X209180518Y-101231282D01*
X209068717Y-101119481D01*
X209068709Y-101119475D01*
X208931790Y-101040426D01*
X208931786Y-101040424D01*
X208931784Y-101040423D01*
X208779057Y-100999500D01*
X208620943Y-100999500D01*
X208468216Y-101040423D01*
X208468209Y-101040426D01*
X208331290Y-101119475D01*
X208331282Y-101119481D01*
X208219481Y-101231282D01*
X208219475Y-101231290D01*
X208140426Y-101368209D01*
X208140423Y-101368216D01*
X208099500Y-101520943D01*
X192793754Y-101520943D01*
X192845229Y-101431784D01*
X192886152Y-101279057D01*
X192886152Y-101120943D01*
X192845229Y-100968216D01*
X192801745Y-100892899D01*
X192766176Y-100831290D01*
X192766170Y-100831282D01*
X192654369Y-100719481D01*
X192654361Y-100719475D01*
X192517442Y-100640426D01*
X192517438Y-100640424D01*
X192517436Y-100640423D01*
X192364709Y-100599500D01*
X192206595Y-100599500D01*
X192053868Y-100640423D01*
X192053861Y-100640426D01*
X191916942Y-100719475D01*
X191916934Y-100719481D01*
X191805133Y-100831282D01*
X191805127Y-100831290D01*
X191726078Y-100968209D01*
X191726075Y-100968216D01*
X191685152Y-101120943D01*
X181000000Y-101120943D01*
X181000000Y-100220943D01*
X199799500Y-100220943D01*
X199799500Y-100379057D01*
X199810724Y-100420943D01*
X199840423Y-100531783D01*
X199840426Y-100531790D01*
X199919475Y-100668709D01*
X199919479Y-100668714D01*
X199919480Y-100668716D01*
X200031284Y-100780520D01*
X200031286Y-100780521D01*
X200031290Y-100780524D01*
X200119221Y-100831290D01*
X200168216Y-100859577D01*
X200320943Y-100900500D01*
X200320945Y-100900500D01*
X200479055Y-100900500D01*
X200479057Y-100900500D01*
X200631784Y-100859577D01*
X200768716Y-100780520D01*
X200880520Y-100668716D01*
X200959577Y-100531784D01*
X201000500Y-100379057D01*
X201000500Y-100220943D01*
X200959577Y-100068216D01*
X200885909Y-99940618D01*
X200880524Y-99931290D01*
X200880518Y-99931282D01*
X200768717Y-99819481D01*
X200768709Y-99819475D01*
X200631790Y-99740426D01*
X200631786Y-99740424D01*
X200631784Y-99740423D01*
X200479057Y-99699500D01*
X200320943Y-99699500D01*
X200168216Y-99740423D01*
X200168209Y-99740426D01*
X200031290Y-99819475D01*
X200031282Y-99819481D01*
X199919481Y-99931282D01*
X199919475Y-99931290D01*
X199840426Y-100068209D01*
X199840423Y-100068216D01*
X199799500Y-100220943D01*
X181000000Y-100220943D01*
X181000000Y-96850500D01*
X183003456Y-96850500D01*
X183070495Y-96870185D01*
X183091137Y-96886819D01*
X185234788Y-99030470D01*
X185314712Y-99076614D01*
X185403856Y-99100500D01*
X185403857Y-99100500D01*
X185496144Y-99100500D01*
X205585952Y-99100500D01*
X205652991Y-99120185D01*
X205698746Y-99172989D01*
X205708690Y-99242147D01*
X205693340Y-99286499D01*
X205613029Y-99425602D01*
X205613029Y-99425603D01*
X205572106Y-99578330D01*
X205572106Y-99736444D01*
X205594356Y-99819480D01*
X205613029Y-99889170D01*
X205613032Y-99889177D01*
X205692081Y-100026096D01*
X205692085Y-100026101D01*
X205692086Y-100026103D01*
X205803890Y-100137907D01*
X205803892Y-100137908D01*
X205803896Y-100137911D01*
X205940815Y-100216960D01*
X205940822Y-100216964D01*
X206093549Y-100257887D01*
X206093551Y-100257887D01*
X206226062Y-100257887D01*
X206293101Y-100277572D01*
X206313743Y-100294206D01*
X206600007Y-100580470D01*
X206679931Y-100626614D01*
X206769075Y-100650500D01*
X206769077Y-100650500D01*
X213946142Y-100650500D01*
X213946144Y-100650500D01*
X214035288Y-100626614D01*
X214115212Y-100580470D01*
X214274739Y-100420943D01*
X214799500Y-100420943D01*
X214799500Y-100579057D01*
X214837127Y-100719481D01*
X214840423Y-100731783D01*
X214840426Y-100731790D01*
X214919475Y-100868709D01*
X214919479Y-100868714D01*
X214919480Y-100868716D01*
X215031284Y-100980520D01*
X215031286Y-100980521D01*
X215031290Y-100980524D01*
X215168209Y-101059573D01*
X215168216Y-101059577D01*
X215320943Y-101100500D01*
X215320945Y-101100500D01*
X215479055Y-101100500D01*
X215479057Y-101100500D01*
X215631784Y-101059577D01*
X215768716Y-100980520D01*
X215829237Y-100919999D01*
X216281115Y-100919999D01*
X216281116Y-100920000D01*
X217033012Y-100920000D01*
X217015795Y-100929940D01*
X216959940Y-100985795D01*
X216920444Y-101054204D01*
X216900000Y-101130504D01*
X216900000Y-101209496D01*
X216920444Y-101285796D01*
X216959940Y-101354205D01*
X217015795Y-101410060D01*
X217033012Y-101420000D01*
X216281116Y-101420000D01*
X216286506Y-101447100D01*
X216286507Y-101447103D01*
X216358119Y-101619991D01*
X216358124Y-101620000D01*
X216462086Y-101775589D01*
X216462089Y-101775593D01*
X216594406Y-101907910D01*
X216594410Y-101907913D01*
X216746195Y-102009333D01*
X216791000Y-102062945D01*
X216801290Y-102114279D01*
X216799986Y-102201979D01*
X216799740Y-102202772D01*
X216797617Y-102224329D01*
X216787705Y-102274152D01*
X217239095Y-102725542D01*
X217272580Y-102786865D01*
X217269718Y-102826875D01*
X217263291Y-102820448D01*
X217189782Y-102790000D01*
X217110218Y-102790000D01*
X217036709Y-102820448D01*
X216980448Y-102876709D01*
X216950000Y-102950218D01*
X216950000Y-103029782D01*
X216980448Y-103103291D01*
X216988978Y-103111821D01*
X216929889Y-103107596D01*
X216885542Y-103079095D01*
X216434153Y-102627705D01*
X216380743Y-102756648D01*
X216380741Y-102756656D01*
X216350000Y-102911202D01*
X216350000Y-103068797D01*
X216380741Y-103223343D01*
X216380743Y-103223351D01*
X216437919Y-103361385D01*
X216445388Y-103430854D01*
X216426460Y-103477729D01*
X216358124Y-103579999D01*
X216358119Y-103580008D01*
X216286507Y-103752896D01*
X216286506Y-103752899D01*
X216281115Y-103779999D01*
X216281116Y-103780000D01*
X217033012Y-103780000D01*
X217015795Y-103789940D01*
X216959940Y-103845795D01*
X216920444Y-103914204D01*
X216900000Y-103990504D01*
X216900000Y-104069496D01*
X216920444Y-104145796D01*
X216959940Y-104214205D01*
X217015795Y-104270060D01*
X217033012Y-104280000D01*
X216281116Y-104280000D01*
X216286506Y-104307100D01*
X216286507Y-104307103D01*
X216358119Y-104479991D01*
X216358124Y-104480000D01*
X216462086Y-104635589D01*
X216462089Y-104635593D01*
X216594406Y-104767910D01*
X216594410Y-104767913D01*
X216749999Y-104871875D01*
X216750008Y-104871880D01*
X216922894Y-104943491D01*
X216922902Y-104943493D01*
X217106428Y-104979999D01*
X217106431Y-104980000D01*
X217450000Y-104980000D01*
X217450000Y-104330000D01*
X217950000Y-104330000D01*
X217950000Y-104980000D01*
X218293569Y-104980000D01*
X218293571Y-104979999D01*
X218477097Y-104943493D01*
X218477105Y-104943491D01*
X218649991Y-104871880D01*
X218650000Y-104871875D01*
X218805589Y-104767913D01*
X218805593Y-104767910D01*
X218937910Y-104635593D01*
X218937913Y-104635589D01*
X219041875Y-104480000D01*
X219041880Y-104479991D01*
X219113492Y-104307103D01*
X219113493Y-104307100D01*
X219118884Y-104280000D01*
X218366988Y-104280000D01*
X218384205Y-104270060D01*
X218440060Y-104214205D01*
X218479556Y-104145796D01*
X218500000Y-104069496D01*
X218500000Y-103990504D01*
X218479556Y-103914204D01*
X218440060Y-103845795D01*
X218384205Y-103789940D01*
X218366988Y-103780000D01*
X219118884Y-103780000D01*
X219118884Y-103779999D01*
X219113493Y-103752899D01*
X219113492Y-103752896D01*
X219060021Y-103623806D01*
X219052552Y-103554337D01*
X219083827Y-103491857D01*
X219136071Y-103460439D01*
X219135682Y-103459500D01*
X219141950Y-103456903D01*
X219142492Y-103456577D01*
X219143186Y-103456392D01*
X219257314Y-103390500D01*
X219312319Y-103335495D01*
X219373642Y-103302010D01*
X219443334Y-103306994D01*
X219487681Y-103335495D01*
X219542686Y-103390500D01*
X219656814Y-103456392D01*
X219784108Y-103490500D01*
X219784110Y-103490500D01*
X219915890Y-103490500D01*
X219915892Y-103490500D01*
X220043186Y-103456392D01*
X220157314Y-103390500D01*
X220212319Y-103335495D01*
X220273642Y-103302010D01*
X220343334Y-103306994D01*
X220387681Y-103335495D01*
X220442686Y-103390500D01*
X220556814Y-103456392D01*
X220684108Y-103490500D01*
X220684110Y-103490500D01*
X220815890Y-103490500D01*
X220815892Y-103490500D01*
X220943186Y-103456392D01*
X220976620Y-103437088D01*
X221044519Y-103420615D01*
X221110546Y-103443466D01*
X221153738Y-103498387D01*
X221160381Y-103567940D01*
X221153182Y-103591927D01*
X221086508Y-103752892D01*
X221086506Y-103752899D01*
X221081115Y-103779999D01*
X221081116Y-103780000D01*
X221833012Y-103780000D01*
X221815795Y-103789940D01*
X221759940Y-103845795D01*
X221720444Y-103914204D01*
X221700000Y-103990504D01*
X221700000Y-104069496D01*
X221720444Y-104145796D01*
X221759940Y-104214205D01*
X221815795Y-104270060D01*
X221833012Y-104280000D01*
X221081116Y-104280000D01*
X221086506Y-104307100D01*
X221086507Y-104307103D01*
X221158119Y-104479991D01*
X221158124Y-104480000D01*
X221262086Y-104635589D01*
X221262089Y-104635593D01*
X221394406Y-104767910D01*
X221394410Y-104767913D01*
X221549999Y-104871875D01*
X221550008Y-104871880D01*
X221722894Y-104943491D01*
X221722902Y-104943493D01*
X221906428Y-104979999D01*
X221906431Y-104980000D01*
X222250000Y-104980000D01*
X222250000Y-104330000D01*
X222750000Y-104330000D01*
X222750000Y-104980000D01*
X223093569Y-104980000D01*
X223093571Y-104979999D01*
X223277097Y-104943493D01*
X223277105Y-104943491D01*
X223449991Y-104871880D01*
X223450000Y-104871875D01*
X223605589Y-104767913D01*
X223605593Y-104767910D01*
X223737910Y-104635593D01*
X223737913Y-104635589D01*
X223841875Y-104480000D01*
X223841880Y-104479991D01*
X223913492Y-104307103D01*
X223913493Y-104307100D01*
X223918884Y-104280000D01*
X223166988Y-104280000D01*
X223184205Y-104270060D01*
X223240060Y-104214205D01*
X223279556Y-104145796D01*
X223300000Y-104069496D01*
X223300000Y-103990504D01*
X223279556Y-103914204D01*
X223240060Y-103845795D01*
X223184205Y-103789940D01*
X223166988Y-103780000D01*
X223918884Y-103780000D01*
X223918884Y-103779999D01*
X223913493Y-103752899D01*
X223913492Y-103752896D01*
X223841880Y-103580008D01*
X223841875Y-103579999D01*
X223737913Y-103424410D01*
X223737910Y-103424406D01*
X223605593Y-103292089D01*
X223605589Y-103292086D01*
X223450000Y-103188124D01*
X223449988Y-103188118D01*
X223426545Y-103178407D01*
X223410980Y-103165864D01*
X223392797Y-103157560D01*
X223384332Y-103144389D01*
X223372142Y-103134565D01*
X223365829Y-103115597D01*
X223355023Y-103098782D01*
X223351059Y-103071216D01*
X223350079Y-103068270D01*
X223350000Y-103063847D01*
X223350000Y-102999870D01*
X223352382Y-102975683D01*
X223362293Y-102925845D01*
X222910904Y-102474457D01*
X222877419Y-102413134D01*
X222880280Y-102373123D01*
X222886709Y-102379552D01*
X222960218Y-102410000D01*
X223039782Y-102410000D01*
X223113291Y-102379552D01*
X223169552Y-102323291D01*
X223200000Y-102249782D01*
X223200000Y-102170218D01*
X223169552Y-102096709D01*
X223161020Y-102088177D01*
X223220110Y-102092403D01*
X223264457Y-102120904D01*
X223715845Y-102572293D01*
X223769257Y-102443347D01*
X223769258Y-102443343D01*
X223799999Y-102288797D01*
X223800000Y-102288794D01*
X223800000Y-102131206D01*
X223799999Y-102131202D01*
X223769258Y-101976656D01*
X223769256Y-101976648D01*
X223731215Y-101884808D01*
X223723746Y-101815338D01*
X223742674Y-101768464D01*
X223841875Y-101619999D01*
X223841880Y-101619991D01*
X223913492Y-101447103D01*
X223913493Y-101447100D01*
X223918884Y-101420000D01*
X223166988Y-101420000D01*
X223184205Y-101410060D01*
X223240060Y-101354205D01*
X223279556Y-101285796D01*
X223300000Y-101209496D01*
X223300000Y-101130504D01*
X223279556Y-101054204D01*
X223240060Y-100985795D01*
X223184205Y-100929940D01*
X223166988Y-100920000D01*
X223918884Y-100920000D01*
X223918884Y-100919999D01*
X223913493Y-100892899D01*
X223913492Y-100892896D01*
X223841880Y-100720008D01*
X223841875Y-100719999D01*
X223737913Y-100564410D01*
X223737910Y-100564406D01*
X223605593Y-100432089D01*
X223605589Y-100432086D01*
X223450000Y-100328124D01*
X223449991Y-100328119D01*
X223277105Y-100256508D01*
X223277097Y-100256506D01*
X223093570Y-100220000D01*
X222750000Y-100220000D01*
X222750000Y-100870000D01*
X222250000Y-100870000D01*
X222250000Y-100220000D01*
X221906430Y-100220000D01*
X221722902Y-100256506D01*
X221722894Y-100256508D01*
X221550008Y-100328119D01*
X221549999Y-100328124D01*
X221394410Y-100432086D01*
X221394406Y-100432089D01*
X221262089Y-100564406D01*
X221262086Y-100564410D01*
X221158124Y-100719999D01*
X221158119Y-100720008D01*
X221086507Y-100892896D01*
X221086506Y-100892899D01*
X221081115Y-100919999D01*
X221081116Y-100920000D01*
X221833012Y-100920000D01*
X221815795Y-100929940D01*
X221759940Y-100985795D01*
X221720444Y-101054204D01*
X221700000Y-101130504D01*
X221700000Y-101209496D01*
X221720444Y-101285796D01*
X221759940Y-101354205D01*
X221815795Y-101410060D01*
X221833012Y-101420000D01*
X221081116Y-101420000D01*
X221086506Y-101447100D01*
X221086507Y-101447103D01*
X221134983Y-101564134D01*
X221142452Y-101633604D01*
X221111177Y-101696083D01*
X221052517Y-101731361D01*
X221006815Y-101743607D01*
X221006814Y-101743607D01*
X220892686Y-101809500D01*
X220892683Y-101809502D01*
X220837681Y-101864505D01*
X220776358Y-101897990D01*
X220706666Y-101893006D01*
X220662319Y-101864505D01*
X220607316Y-101809502D01*
X220607314Y-101809500D01*
X220536238Y-101768464D01*
X220493187Y-101743608D01*
X220429539Y-101726554D01*
X220365892Y-101709500D01*
X220234108Y-101709500D01*
X220106812Y-101743608D01*
X219992686Y-101809500D01*
X219992683Y-101809502D01*
X219937681Y-101864505D01*
X219876358Y-101897990D01*
X219806666Y-101893006D01*
X219762319Y-101864505D01*
X219707316Y-101809502D01*
X219707314Y-101809500D01*
X219636238Y-101768464D01*
X219593187Y-101743608D01*
X219529539Y-101726554D01*
X219465892Y-101709500D01*
X219334108Y-101709500D01*
X219206571Y-101743673D01*
X219136721Y-101742010D01*
X219078859Y-101702847D01*
X219051355Y-101638618D01*
X219059917Y-101576445D01*
X219113492Y-101447103D01*
X219113493Y-101447100D01*
X219118884Y-101420000D01*
X218366988Y-101420000D01*
X218384205Y-101410060D01*
X218440060Y-101354205D01*
X218479556Y-101285796D01*
X218500000Y-101209496D01*
X218500000Y-101130504D01*
X218479556Y-101054204D01*
X218440060Y-100985795D01*
X218384205Y-100929940D01*
X218366988Y-100920000D01*
X219118884Y-100920000D01*
X219118884Y-100919999D01*
X219113493Y-100892899D01*
X219113492Y-100892896D01*
X219041880Y-100720008D01*
X219041875Y-100719999D01*
X218937913Y-100564410D01*
X218937910Y-100564406D01*
X218805593Y-100432089D01*
X218805589Y-100432086D01*
X218650000Y-100328124D01*
X218649991Y-100328119D01*
X218477105Y-100256508D01*
X218477097Y-100256506D01*
X218293570Y-100220000D01*
X217950000Y-100220000D01*
X217950000Y-100870000D01*
X217450000Y-100870000D01*
X217450000Y-100220000D01*
X217106430Y-100220000D01*
X216922902Y-100256506D01*
X216922894Y-100256508D01*
X216750008Y-100328119D01*
X216749999Y-100328124D01*
X216594410Y-100432086D01*
X216594406Y-100432089D01*
X216462089Y-100564406D01*
X216462086Y-100564410D01*
X216358124Y-100719999D01*
X216358119Y-100720008D01*
X216286507Y-100892896D01*
X216286506Y-100892899D01*
X216281115Y-100919999D01*
X215829237Y-100919999D01*
X215880520Y-100868716D01*
X215959577Y-100731784D01*
X216000500Y-100579057D01*
X216000500Y-100420943D01*
X215959577Y-100268216D01*
X215953613Y-100257886D01*
X215880524Y-100131290D01*
X215880518Y-100131282D01*
X215768717Y-100019481D01*
X215768709Y-100019475D01*
X215631790Y-99940426D01*
X215631786Y-99940424D01*
X215631784Y-99940423D01*
X215479057Y-99899500D01*
X215320943Y-99899500D01*
X215168216Y-99940423D01*
X215168209Y-99940426D01*
X215031290Y-100019475D01*
X215031282Y-100019481D01*
X214919481Y-100131282D01*
X214919475Y-100131290D01*
X214840426Y-100268209D01*
X214840423Y-100268216D01*
X214799500Y-100420943D01*
X214274739Y-100420943D01*
X218174739Y-96520943D01*
X221099500Y-96520943D01*
X221099500Y-96679057D01*
X221140289Y-96831282D01*
X221140423Y-96831783D01*
X221140426Y-96831790D01*
X221219475Y-96968709D01*
X221219479Y-96968714D01*
X221219480Y-96968716D01*
X221331284Y-97080520D01*
X221331286Y-97080521D01*
X221331290Y-97080524D01*
X221468209Y-97159573D01*
X221468216Y-97159577D01*
X221620943Y-97200500D01*
X221620945Y-97200500D01*
X221779055Y-97200500D01*
X221779057Y-97200500D01*
X221931784Y-97159577D01*
X222068716Y-97080520D01*
X222180520Y-96968716D01*
X222259577Y-96831784D01*
X222300500Y-96679057D01*
X222300500Y-96520943D01*
X222259577Y-96368216D01*
X222249349Y-96350500D01*
X222180524Y-96231290D01*
X222180518Y-96231282D01*
X222068717Y-96119481D01*
X222068709Y-96119475D01*
X221931790Y-96040426D01*
X221931786Y-96040424D01*
X221931784Y-96040423D01*
X221779057Y-95999500D01*
X221620943Y-95999500D01*
X221468216Y-96040423D01*
X221468209Y-96040426D01*
X221331290Y-96119475D01*
X221331282Y-96119481D01*
X221219481Y-96231282D01*
X221219475Y-96231290D01*
X221140426Y-96368209D01*
X221140423Y-96368216D01*
X221099500Y-96520943D01*
X218174739Y-96520943D01*
X219965435Y-94730247D01*
X225949500Y-94730247D01*
X225949500Y-96469752D01*
X225961131Y-96528229D01*
X225961132Y-96528230D01*
X226005447Y-96594552D01*
X226071769Y-96638867D01*
X226071770Y-96638868D01*
X226130247Y-96650499D01*
X226130250Y-96650500D01*
X226130252Y-96650500D01*
X227869750Y-96650500D01*
X227869751Y-96650499D01*
X227884568Y-96647552D01*
X227928229Y-96638868D01*
X227928229Y-96638867D01*
X227928231Y-96638867D01*
X227994552Y-96594552D01*
X228038867Y-96528231D01*
X228038867Y-96528229D01*
X228038868Y-96528229D01*
X228050499Y-96469752D01*
X228050500Y-96469750D01*
X228050500Y-94730249D01*
X228050499Y-94730247D01*
X228038868Y-94671770D01*
X228038867Y-94671769D01*
X227994552Y-94605447D01*
X227928230Y-94561132D01*
X227928229Y-94561131D01*
X227869752Y-94549500D01*
X227869748Y-94549500D01*
X226130252Y-94549500D01*
X226130247Y-94549500D01*
X226071770Y-94561131D01*
X226071769Y-94561132D01*
X226005447Y-94605447D01*
X225961132Y-94671769D01*
X225961131Y-94671770D01*
X225949500Y-94730247D01*
X219965435Y-94730247D01*
X221248863Y-93446819D01*
X221310186Y-93413334D01*
X221336544Y-93410500D01*
X225925275Y-93410500D01*
X225992314Y-93430185D01*
X226038069Y-93482989D01*
X226039836Y-93487048D01*
X226069056Y-93557594D01*
X226184024Y-93729657D01*
X226330342Y-93875975D01*
X226330345Y-93875977D01*
X226502402Y-93990941D01*
X226693580Y-94070130D01*
X226895268Y-94110248D01*
X226896530Y-94110499D01*
X226896534Y-94110500D01*
X226896535Y-94110500D01*
X227103466Y-94110500D01*
X227103467Y-94110499D01*
X227306420Y-94070130D01*
X227497598Y-93990941D01*
X227669655Y-93875977D01*
X227815977Y-93729655D01*
X227930941Y-93557598D01*
X228010130Y-93366420D01*
X228050500Y-93163465D01*
X228050500Y-92956535D01*
X228010130Y-92753580D01*
X227930941Y-92562402D01*
X227815977Y-92390345D01*
X227815975Y-92390342D01*
X227669657Y-92244024D01*
X227506920Y-92135288D01*
X227497598Y-92129059D01*
X227306420Y-92049870D01*
X227306412Y-92049868D01*
X227103469Y-92009500D01*
X227103465Y-92009500D01*
X226896535Y-92009500D01*
X226896530Y-92009500D01*
X226693587Y-92049868D01*
X226693579Y-92049870D01*
X226502403Y-92129058D01*
X226330342Y-92244024D01*
X226184024Y-92390342D01*
X226069056Y-92562405D01*
X226039836Y-92632952D01*
X225995995Y-92687356D01*
X225929701Y-92709421D01*
X225925275Y-92709500D01*
X221085729Y-92709500D01*
X221085729Y-92705991D01*
X221032576Y-92697659D01*
X220980357Y-92651238D01*
X220961525Y-92583954D01*
X220982059Y-92517169D01*
X220997834Y-92497847D01*
X222708862Y-90786819D01*
X222770185Y-90753334D01*
X222796543Y-90750500D01*
X225875569Y-90750500D01*
X225942608Y-90770185D01*
X225988363Y-90822989D01*
X225990130Y-90827047D01*
X226069058Y-91017596D01*
X226184024Y-91189657D01*
X226330342Y-91335975D01*
X226330345Y-91335977D01*
X226502402Y-91450941D01*
X226693580Y-91530130D01*
X226896530Y-91570499D01*
X226896534Y-91570500D01*
X226896535Y-91570500D01*
X227103466Y-91570500D01*
X227103467Y-91570499D01*
X227306420Y-91530130D01*
X227497598Y-91450941D01*
X227669655Y-91335977D01*
X227815977Y-91189655D01*
X227930941Y-91017598D01*
X228010130Y-90826420D01*
X228050500Y-90623465D01*
X228050500Y-90416535D01*
X228010130Y-90213580D01*
X227930941Y-90022402D01*
X227815977Y-89850345D01*
X227815975Y-89850342D01*
X227669657Y-89704024D01*
X227513224Y-89599500D01*
X227497598Y-89589059D01*
X227497593Y-89589057D01*
X227378037Y-89539535D01*
X227332890Y-89520834D01*
X227278488Y-89476994D01*
X227256423Y-89410700D01*
X227273702Y-89343001D01*
X227324839Y-89295390D01*
X227342026Y-89288343D01*
X227518217Y-89231095D01*
X227707554Y-89134622D01*
X227761716Y-89095270D01*
X227761717Y-89095270D01*
X227129408Y-88462962D01*
X227192993Y-88445925D01*
X227307007Y-88380099D01*
X227400099Y-88287007D01*
X227465925Y-88172993D01*
X227482962Y-88109408D01*
X228115270Y-88741717D01*
X228115270Y-88741716D01*
X228154622Y-88687554D01*
X228251095Y-88498217D01*
X228316757Y-88296130D01*
X228316757Y-88296127D01*
X228350000Y-88086246D01*
X228350000Y-87873753D01*
X228316757Y-87663872D01*
X228316757Y-87663869D01*
X228251095Y-87461782D01*
X228154624Y-87272449D01*
X228115270Y-87218282D01*
X228115269Y-87218282D01*
X227482962Y-87850590D01*
X227465925Y-87787007D01*
X227400099Y-87672993D01*
X227307007Y-87579901D01*
X227192993Y-87514075D01*
X227129409Y-87497037D01*
X227761716Y-86864728D01*
X227707550Y-86825375D01*
X227518217Y-86728904D01*
X227316129Y-86663242D01*
X227106246Y-86630000D01*
X226893754Y-86630000D01*
X226683872Y-86663242D01*
X226683869Y-86663242D01*
X226481782Y-86728904D01*
X226292439Y-86825380D01*
X226238282Y-86864727D01*
X226238282Y-86864728D01*
X226870591Y-87497037D01*
X226807007Y-87514075D01*
X226692993Y-87579901D01*
X226599901Y-87672993D01*
X226534075Y-87787007D01*
X226517037Y-87850591D01*
X225884728Y-87218282D01*
X225884727Y-87218282D01*
X225845380Y-87272439D01*
X225748904Y-87461782D01*
X225683242Y-87663869D01*
X225683242Y-87663872D01*
X225650000Y-87873753D01*
X225650000Y-88086246D01*
X225683242Y-88296127D01*
X225683242Y-88296130D01*
X225748904Y-88498217D01*
X225845375Y-88687550D01*
X225884728Y-88741716D01*
X226517037Y-88109408D01*
X226534075Y-88172993D01*
X226599901Y-88287007D01*
X226692993Y-88380099D01*
X226807007Y-88445925D01*
X226870590Y-88462962D01*
X226238282Y-89095269D01*
X226238282Y-89095270D01*
X226292449Y-89134624D01*
X226481782Y-89231095D01*
X226657973Y-89288343D01*
X226715648Y-89327780D01*
X226742847Y-89392139D01*
X226730932Y-89460985D01*
X226683688Y-89512461D01*
X226667108Y-89520835D01*
X226502403Y-89589057D01*
X226330342Y-89704024D01*
X226184025Y-89850341D01*
X226184019Y-89850349D01*
X226087775Y-89994390D01*
X226034163Y-90039196D01*
X225984673Y-90049500D01*
X222553856Y-90049500D01*
X222464712Y-90073386D01*
X222464711Y-90073386D01*
X222464709Y-90073387D01*
X222464706Y-90073388D01*
X222384794Y-90119526D01*
X222384785Y-90119533D01*
X213391137Y-99113181D01*
X213364209Y-99127884D01*
X213338391Y-99144477D01*
X213332190Y-99145368D01*
X213329814Y-99146666D01*
X213303456Y-99149500D01*
X213150098Y-99149500D01*
X213083059Y-99129815D01*
X213062417Y-99113181D01*
X212968717Y-99019481D01*
X212968709Y-99019475D01*
X212831790Y-98940426D01*
X212831786Y-98940424D01*
X212831784Y-98940423D01*
X212679057Y-98899500D01*
X212520943Y-98899500D01*
X212368216Y-98940423D01*
X212368209Y-98940426D01*
X212231290Y-99019475D01*
X212231282Y-99019481D01*
X212119481Y-99131282D01*
X212119475Y-99131290D01*
X212040426Y-99268209D01*
X212040423Y-99268216D01*
X211999500Y-99420943D01*
X211999500Y-99579056D01*
X212040423Y-99731783D01*
X212040424Y-99731786D01*
X212058734Y-99763500D01*
X212075207Y-99831401D01*
X212052354Y-99897427D01*
X211997433Y-99940618D01*
X211951347Y-99949500D01*
X207011763Y-99949500D01*
X206982322Y-99940855D01*
X206952336Y-99934332D01*
X206947320Y-99930577D01*
X206944724Y-99929815D01*
X206924082Y-99913181D01*
X206809425Y-99798524D01*
X206775940Y-99737201D01*
X206773106Y-99710843D01*
X206773106Y-99578332D01*
X206773106Y-99578330D01*
X206748460Y-99486350D01*
X206750123Y-99416504D01*
X206789285Y-99358641D01*
X206836138Y-99334487D01*
X206929105Y-99309577D01*
X207066037Y-99230520D01*
X207177841Y-99118716D01*
X207256898Y-98981784D01*
X207297821Y-98829057D01*
X207297821Y-98670943D01*
X207256898Y-98518216D01*
X207183230Y-98390618D01*
X207177845Y-98381290D01*
X207177839Y-98381282D01*
X207066038Y-98269481D01*
X207066030Y-98269475D01*
X206929111Y-98190426D01*
X206929107Y-98190424D01*
X206929105Y-98190423D01*
X206776378Y-98149500D01*
X206618264Y-98149500D01*
X206465537Y-98190423D01*
X206465530Y-98190426D01*
X206328611Y-98269475D01*
X206328603Y-98269481D01*
X206234904Y-98363181D01*
X206173581Y-98396666D01*
X206147223Y-98399500D01*
X203675686Y-98399500D01*
X203608647Y-98379815D01*
X203562892Y-98327011D01*
X203552948Y-98257853D01*
X203557912Y-98239752D01*
X203557473Y-98239635D01*
X203559577Y-98231784D01*
X203600500Y-98079057D01*
X203600500Y-97920943D01*
X203559577Y-97768216D01*
X203554587Y-97759573D01*
X203480524Y-97631290D01*
X203480518Y-97631282D01*
X203368717Y-97519481D01*
X203368709Y-97519475D01*
X203231790Y-97440426D01*
X203231786Y-97440424D01*
X203231784Y-97440423D01*
X203079057Y-97399500D01*
X203024500Y-97399500D01*
X203015814Y-97396949D01*
X203006853Y-97398238D01*
X202982812Y-97387259D01*
X202957461Y-97379815D01*
X202951533Y-97372974D01*
X202943297Y-97369213D01*
X202929007Y-97346978D01*
X202911706Y-97327011D01*
X202909418Y-97316496D01*
X202905523Y-97310435D01*
X202900500Y-97275500D01*
X202900500Y-97120945D01*
X202900500Y-97120943D01*
X206646821Y-97120943D01*
X206646821Y-97279057D01*
X206684448Y-97419481D01*
X206687744Y-97431783D01*
X206687747Y-97431790D01*
X206766796Y-97568709D01*
X206766800Y-97568714D01*
X206766801Y-97568716D01*
X206878605Y-97680520D01*
X206878607Y-97680521D01*
X206878611Y-97680524D01*
X207015530Y-97759573D01*
X207015537Y-97759577D01*
X207168264Y-97800500D01*
X207168266Y-97800500D01*
X207326376Y-97800500D01*
X207326378Y-97800500D01*
X207479105Y-97759577D01*
X207616037Y-97680520D01*
X207727841Y-97568716D01*
X207806898Y-97431784D01*
X207847821Y-97279057D01*
X207847821Y-97120943D01*
X207806898Y-96968216D01*
X207779606Y-96920945D01*
X207779605Y-96920943D01*
X209699500Y-96920943D01*
X209699500Y-97079057D01*
X209732041Y-97200500D01*
X209740423Y-97231783D01*
X209740426Y-97231790D01*
X209819475Y-97368709D01*
X209819479Y-97368714D01*
X209819480Y-97368716D01*
X209931284Y-97480520D01*
X209931286Y-97480521D01*
X209931290Y-97480524D01*
X210019212Y-97531285D01*
X210068216Y-97559577D01*
X210220943Y-97600500D01*
X210220945Y-97600500D01*
X210379055Y-97600500D01*
X210379057Y-97600500D01*
X210531784Y-97559577D01*
X210668716Y-97480520D01*
X210780520Y-97368716D01*
X210859577Y-97231784D01*
X210900500Y-97079057D01*
X210900500Y-96920943D01*
X210859577Y-96768216D01*
X210831079Y-96718856D01*
X210780524Y-96631290D01*
X210780518Y-96631282D01*
X210668717Y-96519481D01*
X210668709Y-96519475D01*
X210531790Y-96440426D01*
X210531786Y-96440424D01*
X210531784Y-96440423D01*
X210379057Y-96399500D01*
X210220943Y-96399500D01*
X210068216Y-96440423D01*
X210068209Y-96440426D01*
X209931290Y-96519475D01*
X209931282Y-96519481D01*
X209819481Y-96631282D01*
X209819475Y-96631290D01*
X209740426Y-96768209D01*
X209740423Y-96768216D01*
X209699500Y-96920943D01*
X207779605Y-96920943D01*
X207727843Y-96831287D01*
X207727839Y-96831282D01*
X207616038Y-96719481D01*
X207616030Y-96719475D01*
X207479111Y-96640426D01*
X207479107Y-96640424D01*
X207479105Y-96640423D01*
X207326378Y-96599500D01*
X207168264Y-96599500D01*
X207015537Y-96640423D01*
X207015530Y-96640426D01*
X206878611Y-96719475D01*
X206878603Y-96719481D01*
X206766802Y-96831282D01*
X206766796Y-96831290D01*
X206687747Y-96968209D01*
X206687747Y-96968210D01*
X206687744Y-96968216D01*
X206646821Y-97120943D01*
X202900500Y-97120943D01*
X202859577Y-96968216D01*
X202859573Y-96968209D01*
X202780524Y-96831290D01*
X202780518Y-96831282D01*
X202668717Y-96719481D01*
X202668712Y-96719477D01*
X202593773Y-96676211D01*
X202545557Y-96625644D01*
X202532335Y-96557037D01*
X202558303Y-96492172D01*
X202568092Y-96481142D01*
X202568711Y-96480522D01*
X202568716Y-96480520D01*
X202680520Y-96368716D01*
X202759577Y-96231784D01*
X202800500Y-96079057D01*
X202800500Y-95920943D01*
X202759577Y-95768216D01*
X202718200Y-95696548D01*
X202680524Y-95631290D01*
X202680518Y-95631282D01*
X202568717Y-95519481D01*
X202568716Y-95519480D01*
X202458287Y-95455724D01*
X202410073Y-95405159D01*
X202396849Y-95336552D01*
X202412899Y-95286341D01*
X202479983Y-95170149D01*
X202520906Y-95017422D01*
X202520906Y-94859308D01*
X202479983Y-94706581D01*
X202459885Y-94671770D01*
X202400930Y-94569655D01*
X202400924Y-94569647D01*
X202377937Y-94546660D01*
X202344452Y-94485337D01*
X202349436Y-94415645D01*
X202377933Y-94371302D01*
X202480520Y-94268716D01*
X202559577Y-94131784D01*
X202600500Y-93979057D01*
X202600500Y-93820943D01*
X202559577Y-93668216D01*
X202559573Y-93668209D01*
X202480524Y-93531290D01*
X202480521Y-93531286D01*
X202480520Y-93531284D01*
X202368716Y-93419480D01*
X202368714Y-93419479D01*
X202368709Y-93419475D01*
X202231790Y-93340426D01*
X202231786Y-93340424D01*
X202231784Y-93340423D01*
X202079057Y-93299500D01*
X201920943Y-93299500D01*
X201768216Y-93340423D01*
X201768209Y-93340426D01*
X201631290Y-93419475D01*
X201631282Y-93419481D01*
X201519481Y-93531282D01*
X201519479Y-93531285D01*
X201487025Y-93587499D01*
X201436458Y-93635715D01*
X201379637Y-93649500D01*
X197990882Y-93649500D01*
X197923843Y-93629815D01*
X197878088Y-93577011D01*
X197868144Y-93507853D01*
X197883495Y-93463500D01*
X197884945Y-93460987D01*
X197901806Y-93431784D01*
X197942729Y-93279057D01*
X197942729Y-93120943D01*
X197901806Y-92968216D01*
X197895062Y-92956535D01*
X197822753Y-92831290D01*
X197822747Y-92831282D01*
X197710946Y-92719481D01*
X197710938Y-92719475D01*
X197574019Y-92640426D01*
X197574015Y-92640424D01*
X197574013Y-92640423D01*
X197421286Y-92599500D01*
X197263172Y-92599500D01*
X197110445Y-92640423D01*
X197110438Y-92640426D01*
X196973519Y-92719475D01*
X196973511Y-92719481D01*
X196861710Y-92831282D01*
X196861704Y-92831290D01*
X196782655Y-92968209D01*
X196782652Y-92968216D01*
X196741729Y-93120943D01*
X196741729Y-93279057D01*
X196782518Y-93431282D01*
X196782652Y-93431783D01*
X196782653Y-93431786D01*
X196800963Y-93463500D01*
X196817436Y-93531401D01*
X196794583Y-93597427D01*
X196739662Y-93640618D01*
X196693576Y-93649500D01*
X196196543Y-93649500D01*
X196129504Y-93629815D01*
X196108862Y-93613181D01*
X195436819Y-92941137D01*
X195403334Y-92879814D01*
X195400500Y-92853456D01*
X195400500Y-92720945D01*
X195400500Y-92720943D01*
X195359577Y-92568216D01*
X195341266Y-92536500D01*
X195324793Y-92468599D01*
X195347646Y-92402573D01*
X195402567Y-92359382D01*
X195448653Y-92350500D01*
X203303456Y-92350500D01*
X203370495Y-92370185D01*
X203391137Y-92386819D01*
X205995536Y-94991218D01*
X206075460Y-95037362D01*
X206164604Y-95061248D01*
X206164605Y-95061248D01*
X206256892Y-95061248D01*
X206700019Y-95061248D01*
X206729459Y-95069892D01*
X206759446Y-95076416D01*
X206764461Y-95080170D01*
X206767058Y-95080933D01*
X206787700Y-95097567D01*
X206810503Y-95120370D01*
X206843988Y-95181693D01*
X206839004Y-95251385D01*
X206810504Y-95295731D01*
X206764217Y-95342018D01*
X206764211Y-95342026D01*
X206685162Y-95478945D01*
X206685159Y-95478952D01*
X206644236Y-95631679D01*
X206644236Y-95789793D01*
X206681755Y-95929814D01*
X206685159Y-95942519D01*
X206685162Y-95942526D01*
X206764211Y-96079445D01*
X206764215Y-96079450D01*
X206764216Y-96079452D01*
X206876020Y-96191256D01*
X206876022Y-96191257D01*
X206876026Y-96191260D01*
X207010390Y-96268834D01*
X207012952Y-96270313D01*
X207165679Y-96311236D01*
X207165681Y-96311236D01*
X207323791Y-96311236D01*
X207323793Y-96311236D01*
X207476520Y-96270313D01*
X207613452Y-96191256D01*
X207725256Y-96079452D01*
X207804313Y-95942520D01*
X207845236Y-95789793D01*
X207845236Y-95631679D01*
X207804313Y-95478952D01*
X207790904Y-95455726D01*
X207725260Y-95342026D01*
X207725254Y-95342018D01*
X207684349Y-95301113D01*
X207650864Y-95239790D01*
X207655848Y-95170098D01*
X207684348Y-95125752D01*
X207730637Y-95079464D01*
X207809694Y-94942532D01*
X207850617Y-94789805D01*
X207850617Y-94631691D01*
X207809694Y-94478964D01*
X207735526Y-94350500D01*
X207730641Y-94342038D01*
X207730635Y-94342030D01*
X207618834Y-94230229D01*
X207618826Y-94230223D01*
X207481907Y-94151174D01*
X207481902Y-94151171D01*
X207364397Y-94119686D01*
X207304737Y-94083321D01*
X207274208Y-94020473D01*
X207276715Y-93967820D01*
X207300500Y-93879057D01*
X207300500Y-93720943D01*
X207259577Y-93568216D01*
X207253446Y-93557596D01*
X207180524Y-93431290D01*
X207180518Y-93431282D01*
X207068717Y-93319481D01*
X207068709Y-93319475D01*
X206931790Y-93240426D01*
X206931786Y-93240424D01*
X206931784Y-93240423D01*
X206779057Y-93199500D01*
X206620943Y-93199500D01*
X206468216Y-93240423D01*
X206468209Y-93240426D01*
X206331290Y-93319475D01*
X206331282Y-93319481D01*
X206219481Y-93431282D01*
X206219475Y-93431290D01*
X206140426Y-93568209D01*
X206140423Y-93568216D01*
X206099500Y-93720943D01*
X206099500Y-93804456D01*
X206079815Y-93871495D01*
X206027011Y-93917250D01*
X205957853Y-93927194D01*
X205894297Y-93898169D01*
X205887819Y-93892137D01*
X203715213Y-91719531D01*
X203715208Y-91719527D01*
X203635290Y-91673387D01*
X203635289Y-91673386D01*
X203635288Y-91673386D01*
X203546144Y-91649500D01*
X181000000Y-91649500D01*
X181000000Y-90125500D01*
X182375170Y-90125500D01*
X182442209Y-90145185D01*
X182462679Y-90164022D01*
X182463733Y-90162969D01*
X182469480Y-90168716D01*
X182581284Y-90280520D01*
X182581286Y-90280521D01*
X182581290Y-90280524D01*
X182718209Y-90359573D01*
X182718216Y-90359577D01*
X182870943Y-90400500D01*
X182870945Y-90400500D01*
X183029055Y-90400500D01*
X183029057Y-90400500D01*
X183181784Y-90359577D01*
X183318716Y-90280520D01*
X183430520Y-90168716D01*
X183458102Y-90120943D01*
X196099500Y-90120943D01*
X196099500Y-90279057D01*
X196132041Y-90400500D01*
X196140423Y-90431783D01*
X196140426Y-90431790D01*
X196219475Y-90568709D01*
X196219479Y-90568714D01*
X196219480Y-90568716D01*
X196331284Y-90680520D01*
X196331286Y-90680521D01*
X196331290Y-90680524D01*
X196452494Y-90750500D01*
X196468216Y-90759577D01*
X196620943Y-90800500D01*
X196620945Y-90800500D01*
X196779055Y-90800500D01*
X196779057Y-90800500D01*
X196931784Y-90759577D01*
X197068716Y-90680520D01*
X197180520Y-90568716D01*
X197259577Y-90431784D01*
X197300500Y-90279057D01*
X197300500Y-90120943D01*
X197259577Y-89968216D01*
X197208101Y-89879056D01*
X197180524Y-89831290D01*
X197180518Y-89831282D01*
X197068717Y-89719481D01*
X197068709Y-89719475D01*
X196931790Y-89640426D01*
X196931786Y-89640424D01*
X196931784Y-89640423D01*
X196779057Y-89599500D01*
X196620943Y-89599500D01*
X196468216Y-89640423D01*
X196468209Y-89640426D01*
X196331290Y-89719475D01*
X196331282Y-89719481D01*
X196219481Y-89831282D01*
X196219475Y-89831290D01*
X196140426Y-89968209D01*
X196140423Y-89968216D01*
X196099500Y-90120943D01*
X183458102Y-90120943D01*
X183509577Y-90031784D01*
X183550500Y-89879057D01*
X183550500Y-89720943D01*
X183509577Y-89568216D01*
X183475891Y-89509870D01*
X183430524Y-89431290D01*
X183430518Y-89431282D01*
X183318717Y-89319481D01*
X183318709Y-89319475D01*
X183181790Y-89240426D01*
X183181786Y-89240424D01*
X183181784Y-89240423D01*
X183029057Y-89199500D01*
X182870943Y-89199500D01*
X182718216Y-89240423D01*
X182718209Y-89240426D01*
X182581290Y-89319475D01*
X182581282Y-89319481D01*
X182463733Y-89437031D01*
X182461487Y-89434785D01*
X182417145Y-89467179D01*
X182375170Y-89474500D01*
X181000000Y-89474500D01*
X181000000Y-89120943D01*
X201099500Y-89120943D01*
X201099500Y-89279057D01*
X201140289Y-89431282D01*
X201140423Y-89431783D01*
X201140426Y-89431790D01*
X201219475Y-89568709D01*
X201219479Y-89568714D01*
X201219480Y-89568716D01*
X201331284Y-89680520D01*
X201331286Y-89680521D01*
X201331290Y-89680524D01*
X201464007Y-89757147D01*
X201468216Y-89759577D01*
X201620943Y-89800500D01*
X201620945Y-89800500D01*
X201779055Y-89800500D01*
X201779057Y-89800500D01*
X201931784Y-89759577D01*
X202068716Y-89680520D01*
X202180520Y-89568716D01*
X202259577Y-89431784D01*
X202300500Y-89279057D01*
X202300500Y-89120943D01*
X202259577Y-88968216D01*
X202202132Y-88868717D01*
X202180524Y-88831290D01*
X202180518Y-88831282D01*
X202068717Y-88719481D01*
X202068709Y-88719475D01*
X201931790Y-88640426D01*
X201931786Y-88640424D01*
X201931784Y-88640423D01*
X201779057Y-88599500D01*
X201620943Y-88599500D01*
X201468216Y-88640423D01*
X201468209Y-88640426D01*
X201331290Y-88719475D01*
X201331282Y-88719481D01*
X201219481Y-88831282D01*
X201219475Y-88831290D01*
X201140426Y-88968209D01*
X201140423Y-88968216D01*
X201099500Y-89120943D01*
X181000000Y-89120943D01*
X181000000Y-82960327D01*
X186282924Y-88243251D01*
X186316409Y-88304574D01*
X186315018Y-88363023D01*
X186299500Y-88420943D01*
X186299500Y-88579057D01*
X186337127Y-88719481D01*
X186340423Y-88731783D01*
X186340426Y-88731790D01*
X186419475Y-88868709D01*
X186419479Y-88868714D01*
X186419480Y-88868716D01*
X186531284Y-88980520D01*
X186531286Y-88980521D01*
X186531290Y-88980524D01*
X186668209Y-89059573D01*
X186668216Y-89059577D01*
X186820943Y-89100500D01*
X186820945Y-89100500D01*
X186979055Y-89100500D01*
X186979057Y-89100500D01*
X187131784Y-89059577D01*
X187268716Y-88980520D01*
X187380520Y-88868716D01*
X187459577Y-88731784D01*
X187500500Y-88579057D01*
X187500500Y-88420943D01*
X187459577Y-88268216D01*
X187445164Y-88243251D01*
X187380524Y-88131290D01*
X187380518Y-88131282D01*
X187268717Y-88019481D01*
X187268716Y-88019480D01*
X187131784Y-87940423D01*
X186979057Y-87899500D01*
X186979056Y-87899500D01*
X186911189Y-87899500D01*
X186844150Y-87879815D01*
X186823508Y-87863181D01*
X184781270Y-85820943D01*
X198599500Y-85820943D01*
X198599500Y-85979057D01*
X198626295Y-86079055D01*
X198640423Y-86131783D01*
X198640426Y-86131790D01*
X198719475Y-86268709D01*
X198719479Y-86268714D01*
X198719480Y-86268716D01*
X198831284Y-86380520D01*
X198831286Y-86380521D01*
X198831290Y-86380524D01*
X198968209Y-86459573D01*
X198968216Y-86459577D01*
X199120943Y-86500500D01*
X199120945Y-86500500D01*
X199279055Y-86500500D01*
X199279057Y-86500500D01*
X199431784Y-86459577D01*
X199568716Y-86380520D01*
X199680520Y-86268716D01*
X199759577Y-86131784D01*
X199800500Y-85979057D01*
X199800500Y-85820943D01*
X199773705Y-85720943D01*
X202799498Y-85720943D01*
X202799498Y-85879057D01*
X202826293Y-85979055D01*
X202840421Y-86031783D01*
X202840424Y-86031790D01*
X202919473Y-86168709D01*
X202919477Y-86168714D01*
X202919478Y-86168716D01*
X203031282Y-86280520D01*
X203031284Y-86280521D01*
X203031288Y-86280524D01*
X203168207Y-86359573D01*
X203168214Y-86359577D01*
X203320941Y-86400500D01*
X203320943Y-86400500D01*
X203479053Y-86400500D01*
X203479055Y-86400500D01*
X203631782Y-86359577D01*
X203768714Y-86280520D01*
X203880518Y-86168716D01*
X203959575Y-86031784D01*
X203989275Y-85920943D01*
X206199500Y-85920943D01*
X206199500Y-86079057D01*
X206223525Y-86168717D01*
X206240423Y-86231783D01*
X206240426Y-86231790D01*
X206319475Y-86368709D01*
X206319479Y-86368714D01*
X206319480Y-86368716D01*
X206431284Y-86480520D01*
X206431286Y-86480521D01*
X206431290Y-86480524D01*
X206568209Y-86559573D01*
X206568216Y-86559577D01*
X206720943Y-86600500D01*
X206720945Y-86600500D01*
X206879055Y-86600500D01*
X206879057Y-86600500D01*
X207031784Y-86559577D01*
X207168716Y-86480520D01*
X207280520Y-86368716D01*
X207359577Y-86231784D01*
X207400500Y-86079057D01*
X207400500Y-85920943D01*
X209499500Y-85920943D01*
X209499500Y-86079057D01*
X209523525Y-86168717D01*
X209540423Y-86231783D01*
X209540426Y-86231790D01*
X209619475Y-86368709D01*
X209619479Y-86368714D01*
X209619480Y-86368716D01*
X209731284Y-86480520D01*
X209731286Y-86480521D01*
X209731290Y-86480524D01*
X209868209Y-86559573D01*
X209868216Y-86559577D01*
X210020943Y-86600500D01*
X210020945Y-86600500D01*
X210179055Y-86600500D01*
X210179057Y-86600500D01*
X210331784Y-86559577D01*
X210468716Y-86480520D01*
X210580520Y-86368716D01*
X210659577Y-86231784D01*
X210700500Y-86079057D01*
X210700500Y-85920943D01*
X210659577Y-85768216D01*
X210659573Y-85768209D01*
X210580524Y-85631290D01*
X210580518Y-85631282D01*
X210468717Y-85519481D01*
X210468709Y-85519475D01*
X210331790Y-85440426D01*
X210331786Y-85440424D01*
X210331784Y-85440423D01*
X210179057Y-85399500D01*
X210020943Y-85399500D01*
X209868216Y-85440423D01*
X209868209Y-85440426D01*
X209731290Y-85519475D01*
X209731282Y-85519481D01*
X209619481Y-85631282D01*
X209619475Y-85631290D01*
X209540426Y-85768209D01*
X209540423Y-85768216D01*
X209499500Y-85920943D01*
X207400500Y-85920943D01*
X207359577Y-85768216D01*
X207359573Y-85768209D01*
X207280524Y-85631290D01*
X207280518Y-85631282D01*
X207168717Y-85519481D01*
X207168709Y-85519475D01*
X207031790Y-85440426D01*
X207031786Y-85440424D01*
X207031784Y-85440423D01*
X206879057Y-85399500D01*
X206720943Y-85399500D01*
X206568216Y-85440423D01*
X206568209Y-85440426D01*
X206431290Y-85519475D01*
X206431282Y-85519481D01*
X206319481Y-85631282D01*
X206319475Y-85631290D01*
X206240426Y-85768209D01*
X206240423Y-85768216D01*
X206199500Y-85920943D01*
X203989275Y-85920943D01*
X204000498Y-85879057D01*
X204000498Y-85720943D01*
X203959575Y-85568216D01*
X203938256Y-85531290D01*
X203880522Y-85431290D01*
X203880516Y-85431282D01*
X203768715Y-85319481D01*
X203768707Y-85319475D01*
X203631788Y-85240426D01*
X203631784Y-85240424D01*
X203631782Y-85240423D01*
X203479055Y-85199500D01*
X203320941Y-85199500D01*
X203168214Y-85240423D01*
X203168207Y-85240426D01*
X203031288Y-85319475D01*
X203031280Y-85319481D01*
X202919479Y-85431282D01*
X202919473Y-85431290D01*
X202840424Y-85568209D01*
X202840421Y-85568216D01*
X202799498Y-85720943D01*
X199773705Y-85720943D01*
X199759577Y-85668216D01*
X199738258Y-85631290D01*
X199680524Y-85531290D01*
X199680518Y-85531282D01*
X199568717Y-85419481D01*
X199568709Y-85419475D01*
X199431790Y-85340426D01*
X199431786Y-85340424D01*
X199431784Y-85340423D01*
X199279057Y-85299500D01*
X199120943Y-85299500D01*
X198968216Y-85340423D01*
X198968209Y-85340426D01*
X198831290Y-85419475D01*
X198831282Y-85419481D01*
X198719481Y-85531282D01*
X198719475Y-85531290D01*
X198640426Y-85668209D01*
X198640423Y-85668216D01*
X198599500Y-85820943D01*
X184781270Y-85820943D01*
X181000000Y-82039673D01*
X181000000Y-79843909D01*
X198775000Y-79843909D01*
X198775000Y-80076090D01*
X198811318Y-80305393D01*
X198883065Y-80526205D01*
X198988465Y-80733064D01*
X199045238Y-80811207D01*
X199648958Y-80207487D01*
X199673978Y-80267890D01*
X199745112Y-80374351D01*
X199835649Y-80464888D01*
X199942110Y-80536022D01*
X200002510Y-80561041D01*
X199398791Y-81164759D01*
X199398791Y-81164760D01*
X199476935Y-81221534D01*
X199683794Y-81326934D01*
X199904606Y-81398681D01*
X200133910Y-81435000D01*
X200366090Y-81435000D01*
X200595393Y-81398681D01*
X200816205Y-81326934D01*
X201023071Y-81221530D01*
X201101207Y-81164762D01*
X201101208Y-81164760D01*
X200497488Y-80561041D01*
X200557890Y-80536022D01*
X200664351Y-80464888D01*
X200754888Y-80374351D01*
X200826022Y-80267890D01*
X200851041Y-80207488D01*
X201454760Y-80811208D01*
X201454762Y-80811207D01*
X201511530Y-80733071D01*
X201616934Y-80526205D01*
X201688681Y-80305393D01*
X201725000Y-80076090D01*
X201725000Y-79843909D01*
X201688681Y-79614606D01*
X201616934Y-79393794D01*
X201511534Y-79186935D01*
X201454760Y-79108791D01*
X201454759Y-79108791D01*
X200851041Y-79712510D01*
X200826022Y-79652110D01*
X200754888Y-79545649D01*
X200664351Y-79455112D01*
X200557890Y-79383978D01*
X200497487Y-79358957D01*
X200891199Y-78965247D01*
X206574500Y-78965247D01*
X206574500Y-80954752D01*
X206586131Y-81013229D01*
X206586132Y-81013230D01*
X206630447Y-81079552D01*
X206696769Y-81123867D01*
X206696770Y-81123868D01*
X206755247Y-81135499D01*
X206755250Y-81135500D01*
X206755252Y-81135500D01*
X208744750Y-81135500D01*
X208744751Y-81135499D01*
X208759568Y-81132552D01*
X208803229Y-81123868D01*
X208803229Y-81123867D01*
X208803231Y-81123867D01*
X208869552Y-81079552D01*
X208913867Y-81013231D01*
X208913867Y-81013229D01*
X208913868Y-81013229D01*
X208925499Y-80954752D01*
X208925500Y-80954750D01*
X208925500Y-80770943D01*
X217149500Y-80770943D01*
X217149500Y-80929057D01*
X217172055Y-81013231D01*
X217190423Y-81081783D01*
X217190426Y-81081790D01*
X217269475Y-81218709D01*
X217269479Y-81218714D01*
X217269480Y-81218716D01*
X217381284Y-81330520D01*
X217381286Y-81330521D01*
X217381290Y-81330524D01*
X217499343Y-81398681D01*
X217518216Y-81409577D01*
X217670943Y-81450500D01*
X217670945Y-81450500D01*
X217829055Y-81450500D01*
X217829057Y-81450500D01*
X217981784Y-81409577D01*
X218118716Y-81330520D01*
X218230520Y-81218716D01*
X218309577Y-81081784D01*
X218350500Y-80929057D01*
X218350500Y-80770943D01*
X218309577Y-80618216D01*
X218256455Y-80526205D01*
X218230524Y-80481290D01*
X218230518Y-80481282D01*
X218118717Y-80369481D01*
X218118709Y-80369475D01*
X217981790Y-80290426D01*
X217981786Y-80290424D01*
X217981784Y-80290423D01*
X217829057Y-80249500D01*
X217670943Y-80249500D01*
X217518216Y-80290423D01*
X217518209Y-80290426D01*
X217381290Y-80369475D01*
X217381282Y-80369481D01*
X217269481Y-80481282D01*
X217269475Y-80481290D01*
X217190426Y-80618209D01*
X217190423Y-80618216D01*
X217149500Y-80770943D01*
X208925500Y-80770943D01*
X208925500Y-78965249D01*
X208925499Y-78965247D01*
X208913868Y-78906770D01*
X208913867Y-78906769D01*
X208869552Y-78840447D01*
X208803230Y-78796132D01*
X208803229Y-78796131D01*
X208744752Y-78784500D01*
X208744748Y-78784500D01*
X206755252Y-78784500D01*
X206755247Y-78784500D01*
X206696770Y-78796131D01*
X206696769Y-78796132D01*
X206630447Y-78840447D01*
X206586132Y-78906769D01*
X206586131Y-78906770D01*
X206574500Y-78965247D01*
X200891199Y-78965247D01*
X200984967Y-78871479D01*
X201101207Y-78755238D01*
X201023064Y-78698465D01*
X200816205Y-78593065D01*
X200595393Y-78521318D01*
X200366090Y-78485000D01*
X200133910Y-78485000D01*
X199904606Y-78521318D01*
X199683794Y-78593065D01*
X199476925Y-78698470D01*
X199398791Y-78755237D01*
X199398791Y-78755238D01*
X200002511Y-79358958D01*
X199942110Y-79383978D01*
X199835649Y-79455112D01*
X199745112Y-79545649D01*
X199673978Y-79652110D01*
X199648958Y-79712511D01*
X199045238Y-79108791D01*
X199045237Y-79108791D01*
X198988470Y-79186925D01*
X198883065Y-79393794D01*
X198811318Y-79614606D01*
X198775000Y-79843909D01*
X181000000Y-79843909D01*
X181000000Y-72120943D01*
X181899500Y-72120943D01*
X181899500Y-72279056D01*
X181940423Y-72431783D01*
X181940426Y-72431790D01*
X182019475Y-72568709D01*
X182019479Y-72568714D01*
X182019480Y-72568716D01*
X182131284Y-72680520D01*
X182131286Y-72680521D01*
X182131290Y-72680524D01*
X182195455Y-72717569D01*
X182268216Y-72759577D01*
X182420943Y-72800500D01*
X182420945Y-72800500D01*
X182579055Y-72800500D01*
X182579057Y-72800500D01*
X182731784Y-72759577D01*
X182868716Y-72680520D01*
X182980520Y-72568716D01*
X183059577Y-72431784D01*
X183100500Y-72279057D01*
X183100500Y-72120943D01*
X183059577Y-71968216D01*
X183059573Y-71968209D01*
X182980524Y-71831290D01*
X182980518Y-71831282D01*
X182868717Y-71719481D01*
X182868709Y-71719475D01*
X182731790Y-71640426D01*
X182731786Y-71640424D01*
X182731784Y-71640423D01*
X182579057Y-71599500D01*
X182420943Y-71599500D01*
X182268216Y-71640423D01*
X182268209Y-71640426D01*
X182131290Y-71719475D01*
X182131282Y-71719481D01*
X182019481Y-71831282D01*
X182019475Y-71831290D01*
X181940426Y-71968209D01*
X181940423Y-71968216D01*
X181899500Y-72120943D01*
X181000000Y-72120943D01*
X181000000Y-64867486D01*
X199074500Y-64867486D01*
X199074500Y-65052513D01*
X199103445Y-65235265D01*
X199160619Y-65411232D01*
X199160620Y-65411235D01*
X199244622Y-65576096D01*
X199353379Y-65725787D01*
X199484213Y-65856621D01*
X199633904Y-65965378D01*
X199714763Y-66006577D01*
X199798764Y-66049379D01*
X199798767Y-66049380D01*
X199886750Y-66077967D01*
X199974736Y-66106555D01*
X200157486Y-66135500D01*
X200157487Y-66135500D01*
X200342513Y-66135500D01*
X200342514Y-66135500D01*
X200525264Y-66106555D01*
X200701235Y-66049379D01*
X200866096Y-65965378D01*
X201015787Y-65856621D01*
X201146621Y-65725787D01*
X201255378Y-65576096D01*
X201339379Y-65411235D01*
X201396555Y-65235264D01*
X201425500Y-65052514D01*
X201425500Y-64867486D01*
X206574500Y-64867486D01*
X206574500Y-65052513D01*
X206603445Y-65235265D01*
X206660619Y-65411232D01*
X206660620Y-65411235D01*
X206744622Y-65576096D01*
X206853379Y-65725787D01*
X206984213Y-65856621D01*
X207133904Y-65965378D01*
X207214763Y-66006577D01*
X207298764Y-66049379D01*
X207298767Y-66049380D01*
X207386750Y-66077967D01*
X207474736Y-66106555D01*
X207657486Y-66135500D01*
X207657487Y-66135500D01*
X207842513Y-66135500D01*
X207842514Y-66135500D01*
X208025264Y-66106555D01*
X208201235Y-66049379D01*
X208366096Y-65965378D01*
X208515787Y-65856621D01*
X208646621Y-65725787D01*
X208755378Y-65576096D01*
X208839379Y-65411235D01*
X208896555Y-65235264D01*
X208925500Y-65052514D01*
X208925500Y-64867486D01*
X208896555Y-64684736D01*
X208839379Y-64508765D01*
X208839379Y-64508764D01*
X208755377Y-64343903D01*
X208646621Y-64194213D01*
X208515787Y-64063379D01*
X208366096Y-63954622D01*
X208201235Y-63870620D01*
X208201232Y-63870619D01*
X208025265Y-63813445D01*
X207933889Y-63798972D01*
X207842514Y-63784500D01*
X207657486Y-63784500D01*
X207596569Y-63794148D01*
X207474734Y-63813445D01*
X207298767Y-63870619D01*
X207298764Y-63870620D01*
X207133903Y-63954622D01*
X207048499Y-64016672D01*
X206984213Y-64063379D01*
X206984211Y-64063381D01*
X206984210Y-64063381D01*
X206853381Y-64194210D01*
X206853381Y-64194211D01*
X206853379Y-64194213D01*
X206806672Y-64258499D01*
X206744622Y-64343903D01*
X206660620Y-64508764D01*
X206660619Y-64508767D01*
X206603445Y-64684734D01*
X206574500Y-64867486D01*
X201425500Y-64867486D01*
X201396555Y-64684736D01*
X201339379Y-64508765D01*
X201339379Y-64508764D01*
X201255377Y-64343903D01*
X201146621Y-64194213D01*
X201015787Y-64063379D01*
X200866096Y-63954622D01*
X200701235Y-63870620D01*
X200701232Y-63870619D01*
X200525265Y-63813445D01*
X200433889Y-63798972D01*
X200342514Y-63784500D01*
X200157486Y-63784500D01*
X200096569Y-63794148D01*
X199974734Y-63813445D01*
X199798767Y-63870619D01*
X199798764Y-63870620D01*
X199633903Y-63954622D01*
X199548499Y-64016672D01*
X199484213Y-64063379D01*
X199484211Y-64063381D01*
X199484210Y-64063381D01*
X199353381Y-64194210D01*
X199353381Y-64194211D01*
X199353379Y-64194213D01*
X199306672Y-64258499D01*
X199244622Y-64343903D01*
X199160620Y-64508764D01*
X199160619Y-64508767D01*
X199103445Y-64684734D01*
X199074500Y-64867486D01*
X181000000Y-64867486D01*
X181000000Y-59843909D01*
X198775000Y-59843909D01*
X198775000Y-60076090D01*
X198811318Y-60305393D01*
X198883065Y-60526205D01*
X198988465Y-60733064D01*
X199045238Y-60811207D01*
X199648958Y-60207487D01*
X199673978Y-60267890D01*
X199745112Y-60374351D01*
X199835649Y-60464888D01*
X199942110Y-60536022D01*
X200002510Y-60561041D01*
X199398791Y-61164759D01*
X199398791Y-61164760D01*
X199476935Y-61221534D01*
X199683794Y-61326934D01*
X199904606Y-61398681D01*
X200133910Y-61435000D01*
X200366090Y-61435000D01*
X200595393Y-61398681D01*
X200816205Y-61326934D01*
X201023071Y-61221530D01*
X201101207Y-61164762D01*
X201101208Y-61164760D01*
X200497488Y-60561041D01*
X200557890Y-60536022D01*
X200664351Y-60464888D01*
X200754888Y-60374351D01*
X200826022Y-60267890D01*
X200851041Y-60207488D01*
X201454760Y-60811208D01*
X201454762Y-60811207D01*
X201511530Y-60733071D01*
X201616934Y-60526205D01*
X201688681Y-60305393D01*
X201725000Y-60076090D01*
X201725000Y-59867486D01*
X206574500Y-59867486D01*
X206574500Y-60052513D01*
X206603445Y-60235265D01*
X206660619Y-60411232D01*
X206660620Y-60411235D01*
X206719201Y-60526205D01*
X206744622Y-60576096D01*
X206853379Y-60725787D01*
X206984213Y-60856621D01*
X207133904Y-60965378D01*
X207214763Y-61006577D01*
X207298764Y-61049379D01*
X207298767Y-61049380D01*
X207386750Y-61077967D01*
X207474736Y-61106555D01*
X207657486Y-61135500D01*
X207657487Y-61135500D01*
X207842513Y-61135500D01*
X207842514Y-61135500D01*
X208025264Y-61106555D01*
X208201235Y-61049379D01*
X208366096Y-60965378D01*
X208515787Y-60856621D01*
X208646621Y-60725787D01*
X208755378Y-60576096D01*
X208839379Y-60411235D01*
X208896555Y-60235264D01*
X208925500Y-60052514D01*
X208925500Y-59867486D01*
X208896555Y-59684736D01*
X208839379Y-59508765D01*
X208839379Y-59508764D01*
X208755377Y-59343903D01*
X208646621Y-59194213D01*
X208515787Y-59063379D01*
X208366096Y-58954622D01*
X208201235Y-58870620D01*
X208201232Y-58870619D01*
X208025265Y-58813445D01*
X207933889Y-58798972D01*
X207842514Y-58784500D01*
X207657486Y-58784500D01*
X207596569Y-58794148D01*
X207474734Y-58813445D01*
X207298767Y-58870619D01*
X207298764Y-58870620D01*
X207133903Y-58954622D01*
X207048499Y-59016672D01*
X206984213Y-59063379D01*
X206984211Y-59063381D01*
X206984210Y-59063381D01*
X206853381Y-59194210D01*
X206853381Y-59194211D01*
X206853379Y-59194213D01*
X206806672Y-59258499D01*
X206744622Y-59343903D01*
X206660620Y-59508764D01*
X206660619Y-59508767D01*
X206603445Y-59684734D01*
X206574500Y-59867486D01*
X201725000Y-59867486D01*
X201725000Y-59843909D01*
X201688681Y-59614606D01*
X201616934Y-59393794D01*
X201511534Y-59186935D01*
X201454760Y-59108791D01*
X201454759Y-59108791D01*
X200851041Y-59712510D01*
X200826022Y-59652110D01*
X200754888Y-59545649D01*
X200664351Y-59455112D01*
X200557890Y-59383978D01*
X200497487Y-59358957D01*
X201101207Y-58755238D01*
X201023064Y-58698465D01*
X200816205Y-58593065D01*
X200595393Y-58521318D01*
X200366090Y-58485000D01*
X200133910Y-58485000D01*
X199904606Y-58521318D01*
X199683794Y-58593065D01*
X199476925Y-58698470D01*
X199398791Y-58755237D01*
X199398791Y-58755238D01*
X200002511Y-59358958D01*
X199942110Y-59383978D01*
X199835649Y-59455112D01*
X199745112Y-59545649D01*
X199673978Y-59652110D01*
X199648958Y-59712511D01*
X199045238Y-59108791D01*
X199045237Y-59108791D01*
X198988470Y-59186925D01*
X198883065Y-59393794D01*
X198811318Y-59614606D01*
X198775000Y-59843909D01*
X181000000Y-59843909D01*
X181000000Y-44624500D01*
X181019685Y-44557461D01*
X181072489Y-44511706D01*
X181124000Y-44500500D01*
X193673023Y-44500500D01*
X193740062Y-44520185D01*
G37*
%TD.AperFunction*%
%TA.AperFunction,Conductor*%
G36*
X193272797Y-92356738D02*
G01*
X193294886Y-92358318D01*
X193305669Y-92366390D01*
X193318591Y-92370185D01*
X193333090Y-92386918D01*
X193350819Y-92400190D01*
X193355526Y-92412810D01*
X193364346Y-92422989D01*
X193367497Y-92444906D01*
X193375236Y-92465654D01*
X193372373Y-92478814D01*
X193374290Y-92492147D01*
X193365090Y-92512290D01*
X193360384Y-92533927D01*
X193347115Y-92551652D01*
X193345265Y-92555703D01*
X193339233Y-92562181D01*
X193320131Y-92581282D01*
X193320125Y-92581290D01*
X193241076Y-92718209D01*
X193241073Y-92718216D01*
X193200150Y-92870943D01*
X193200150Y-93029057D01*
X193236165Y-93163465D01*
X193241073Y-93181783D01*
X193241076Y-93181790D01*
X193320123Y-93318706D01*
X193320127Y-93318712D01*
X193320130Y-93318716D01*
X193320132Y-93318718D01*
X193323872Y-93323591D01*
X193349069Y-93388759D01*
X193349500Y-93399083D01*
X193349500Y-96146144D01*
X193368007Y-96215212D01*
X193371417Y-96227941D01*
X193373386Y-96235289D01*
X193419527Y-96315208D01*
X193419529Y-96315211D01*
X193419530Y-96315212D01*
X194084788Y-96980470D01*
X194164712Y-97026614D01*
X194253856Y-97050500D01*
X194253858Y-97050500D01*
X197646142Y-97050500D01*
X197646144Y-97050500D01*
X197735288Y-97026614D01*
X197815212Y-96980470D01*
X198408863Y-96386819D01*
X198470186Y-96353334D01*
X198496544Y-96350500D01*
X201649902Y-96350500D01*
X201673220Y-96357347D01*
X201697383Y-96359951D01*
X201709368Y-96367961D01*
X201716941Y-96370185D01*
X201727732Y-96377968D01*
X201732893Y-96382129D01*
X201831284Y-96480520D01*
X201914558Y-96528598D01*
X201922056Y-96534643D01*
X201936706Y-96555754D01*
X201954442Y-96574355D01*
X201956298Y-96583987D01*
X201961890Y-96592045D01*
X201962800Y-96617725D01*
X201967665Y-96642962D01*
X201964019Y-96652068D01*
X201964367Y-96661871D01*
X201951248Y-96683969D01*
X201941697Y-96707827D01*
X201931908Y-96718856D01*
X201819478Y-96831286D01*
X201819475Y-96831290D01*
X201740426Y-96968209D01*
X201740426Y-96968210D01*
X201740423Y-96968216D01*
X201699500Y-97120943D01*
X201699500Y-97279057D01*
X201737127Y-97419481D01*
X201740423Y-97431783D01*
X201740424Y-97431786D01*
X201758734Y-97463500D01*
X201775207Y-97531401D01*
X201752354Y-97597427D01*
X201697433Y-97640618D01*
X201651347Y-97649500D01*
X187620363Y-97649500D01*
X187553324Y-97629815D01*
X187512975Y-97587499D01*
X187480520Y-97531284D01*
X187368716Y-97419480D01*
X187368714Y-97419479D01*
X187368709Y-97419475D01*
X187231790Y-97340426D01*
X187231786Y-97340424D01*
X187231784Y-97340423D01*
X187079057Y-97299500D01*
X186920943Y-97299500D01*
X186768216Y-97340423D01*
X186768209Y-97340426D01*
X186631290Y-97419475D01*
X186631282Y-97419481D01*
X186519481Y-97531282D01*
X186519475Y-97531290D01*
X186440426Y-97668209D01*
X186440423Y-97668216D01*
X186399500Y-97820943D01*
X186399500Y-97979057D01*
X186426295Y-98079055D01*
X186440423Y-98131783D01*
X186440423Y-98131784D01*
X186487602Y-98213501D01*
X186504074Y-98281401D01*
X186481221Y-98347428D01*
X186426299Y-98390618D01*
X186380214Y-98399500D01*
X185646544Y-98399500D01*
X185579505Y-98379815D01*
X185558863Y-98363181D01*
X183415213Y-96219531D01*
X183415208Y-96219527D01*
X183335290Y-96173387D01*
X183335289Y-96173386D01*
X183335288Y-96173386D01*
X183246144Y-96149500D01*
X181000000Y-96149500D01*
X181000000Y-92350500D01*
X193251552Y-92350500D01*
X193272797Y-92356738D01*
G37*
%TD.AperFunction*%
%TD*%
M02*
