%TF.GenerationSoftware,KiCad,Pcbnew,10.0.1*%
%TF.CreationDate,2026-05-19T08:06:44+02:00*%
%TF.ProjectId,LV_Regulator,4c565f52-6567-4756-9c61-746f722e6b69,1.00*%
%TF.SameCoordinates,Original*%
%TF.FileFunction,Paste,Bot*%
%TF.FilePolarity,Positive*%
%FSLAX46Y46*%
G04 Gerber Fmt 4.6, Leading zero omitted, Abs format (unit mm)*
G04 Created by KiCad (PCBNEW 10.0.1) date 2026-05-19 08:06:44*
%MOMM*%
%LPD*%
G01*
G04 APERTURE LIST*
G04 Aperture macros list*
%AMRoundRect*
0 Rectangle with rounded corners*
0 $1 Rounding radius*
0 $2 $3 $4 $5 $6 $7 $8 $9 X,Y pos of 4 corners*
0 Add a 4 corners polygon primitive as box body*
4,1,4,$2,$3,$4,$5,$6,$7,$8,$9,$2,$3,0*
0 Add four circle primitives for the rounded corners*
1,1,$1+$1,$2,$3*
1,1,$1+$1,$4,$5*
1,1,$1+$1,$6,$7*
1,1,$1+$1,$8,$9*
0 Add four rect primitives between the rounded corners*
20,1,$1+$1,$2,$3,$4,$5,0*
20,1,$1+$1,$4,$5,$6,$7,0*
20,1,$1+$1,$6,$7,$8,$9,0*
20,1,$1+$1,$8,$9,$2,$3,0*%
G04 Aperture macros list end*
%ADD10C,0.000000*%
%ADD11RoundRect,0.250000X-0.412500X-0.650000X0.412500X-0.650000X0.412500X0.650000X-0.412500X0.650000X0*%
%ADD12RoundRect,0.250000X-0.400000X-0.625000X0.400000X-0.625000X0.400000X0.625000X-0.400000X0.625000X0*%
%ADD13RoundRect,0.250001X-0.624999X0.462499X-0.624999X-0.462499X0.624999X-0.462499X0.624999X0.462499X0*%
%ADD14RoundRect,0.250000X0.625000X-0.400000X0.625000X0.400000X-0.625000X0.400000X-0.625000X-0.400000X0*%
%ADD15RoundRect,0.250000X0.400000X0.625000X-0.400000X0.625000X-0.400000X-0.625000X0.400000X-0.625000X0*%
%ADD16RoundRect,0.250000X-0.625000X0.400000X-0.625000X-0.400000X0.625000X-0.400000X0.625000X0.400000X0*%
%ADD17RoundRect,0.250000X0.412500X0.650000X-0.412500X0.650000X-0.412500X-0.650000X0.412500X-0.650000X0*%
%ADD18RoundRect,0.250001X0.462499X0.624999X-0.462499X0.624999X-0.462499X-0.624999X0.462499X-0.624999X0*%
%ADD19R,1.701800X1.879600*%
%ADD20RoundRect,0.250000X0.650000X-0.412500X0.650000X0.412500X-0.650000X0.412500X-0.650000X-0.412500X0*%
%ADD21RoundRect,0.250000X0.650000X-0.325000X0.650000X0.325000X-0.650000X0.325000X-0.650000X-0.325000X0*%
%ADD22RoundRect,0.250001X-0.462499X-0.624999X0.462499X-0.624999X0.462499X0.624999X-0.462499X0.624999X0*%
%ADD23RoundRect,0.250001X0.624999X-0.462499X0.624999X0.462499X-0.624999X0.462499X-0.624999X-0.462499X0*%
%ADD24RoundRect,0.250000X-0.650000X0.325000X-0.650000X-0.325000X0.650000X-0.325000X0.650000X0.325000X0*%
%ADD25RoundRect,0.250000X-0.325000X-0.650000X0.325000X-0.650000X0.325000X0.650000X-0.325000X0.650000X0*%
%ADD26R,0.956066X0.242473*%
%ADD27R,0.242473X0.956066*%
%ADD28RoundRect,0.175000X0.825000X0.175000X-0.825000X0.175000X-0.825000X-0.175000X0.825000X-0.175000X0*%
%ADD29R,1.879600X1.701800*%
%ADD30RoundRect,0.250000X-0.650000X0.412500X-0.650000X-0.412500X0.650000X-0.412500X0.650000X0.412500X0*%
G04 APERTURE END LIST*
D10*
%TO.C,U4*%
G36*
X143271209Y-84710605D02*
G01*
X140728791Y-84710605D01*
X140728791Y-83228792D01*
X143271209Y-83228792D01*
X143271209Y-84710605D01*
G37*
G36*
X143271209Y-86771211D02*
G01*
X140728791Y-86771211D01*
X140728791Y-85289395D01*
X143271209Y-85289395D01*
X143271209Y-86771211D01*
G37*
%TD*%
D11*
%TO.C,C16*%
X195937500Y-85800000D03*
X199062500Y-85800000D03*
%TD*%
D12*
%TO.C,R43*%
X131300000Y-91300000D03*
X134400000Y-91300000D03*
%TD*%
D13*
%TO.C,3V3*%
X182400000Y-66512500D03*
X182400000Y-69487500D03*
%TD*%
D14*
%TO.C,R11*%
X163000000Y-79882500D03*
X163000000Y-76782500D03*
%TD*%
%TO.C,R12*%
X196000000Y-127150000D03*
X196000000Y-124050000D03*
%TD*%
D15*
%TO.C,R22*%
X224850000Y-96500000D03*
X221750000Y-96500000D03*
%TD*%
D16*
%TO.C,R10*%
X167800000Y-96050000D03*
X167800000Y-99150000D03*
%TD*%
D15*
%TO.C,R40*%
X147499293Y-100199293D03*
X144399293Y-100199293D03*
%TD*%
D12*
%TO.C,R29*%
X119950000Y-97245016D03*
X123050000Y-97245016D03*
%TD*%
D15*
%TO.C,R47*%
X154800000Y-82950000D03*
X151700000Y-82950000D03*
%TD*%
D17*
%TO.C,C24*%
X196662500Y-91400000D03*
X193537500Y-91400000D03*
%TD*%
D18*
%TO.C,TX*%
X208275000Y-109500000D03*
X205300000Y-109500000D03*
%TD*%
D15*
%TO.C,R27*%
X224850000Y-98900000D03*
X221750000Y-98900000D03*
%TD*%
%TO.C,R25*%
X219847560Y-106240935D03*
X216747560Y-106240935D03*
%TD*%
%TO.C,R30*%
X123050000Y-102445016D03*
X119950000Y-102445016D03*
%TD*%
D12*
%TO.C,R6*%
X162050000Y-89000000D03*
X165150000Y-89000000D03*
%TD*%
D15*
%TO.C,R18*%
X192950000Y-96700000D03*
X189850000Y-96700000D03*
%TD*%
%TO.C,R32*%
X152750000Y-107700000D03*
X149650000Y-107700000D03*
%TD*%
D17*
%TO.C,C6*%
X202862500Y-123500000D03*
X199737500Y-123500000D03*
%TD*%
D19*
%TO.C,D3*%
X170800000Y-95609800D03*
X170800000Y-91190200D03*
%TD*%
D12*
%TO.C,R54*%
X131226547Y-83419219D03*
X134326547Y-83419219D03*
%TD*%
D20*
%TO.C,C13*%
X227200000Y-101525000D03*
X227200000Y-98400000D03*
%TD*%
D12*
%TO.C,R48*%
X131250000Y-80700000D03*
X134350000Y-80700000D03*
%TD*%
%TO.C,R53*%
X131250000Y-86000000D03*
X134350000Y-86000000D03*
%TD*%
D18*
%TO.C,F3*%
X160087500Y-98200000D03*
X157112500Y-98200000D03*
%TD*%
D21*
%TO.C,C29*%
X144900000Y-95950000D03*
X144900000Y-93000000D03*
%TD*%
D16*
%TO.C,R51*%
X144900000Y-73175000D03*
X144900000Y-76275000D03*
%TD*%
D11*
%TO.C,C18*%
X208837500Y-103200000D03*
X211962500Y-103200000D03*
%TD*%
D17*
%TO.C,C23*%
X196662500Y-89000000D03*
X193537500Y-89000000D03*
%TD*%
D16*
%TO.C,R52*%
X137050000Y-73175000D03*
X137050000Y-76275000D03*
%TD*%
D15*
%TO.C,R39*%
X152699293Y-100199293D03*
X149599293Y-100199293D03*
%TD*%
D22*
%TO.C,OK*%
X194912500Y-94300000D03*
X197887500Y-94300000D03*
%TD*%
D15*
%TO.C,R7*%
X167575000Y-69325000D03*
X164475000Y-69325000D03*
%TD*%
D16*
%TO.C,R14*%
X225900000Y-75750000D03*
X225900000Y-78850000D03*
%TD*%
D17*
%TO.C,C5*%
X202862500Y-121100000D03*
X199737500Y-121100000D03*
%TD*%
D16*
%TO.C,R16*%
X184800000Y-66450000D03*
X184800000Y-69550000D03*
%TD*%
D15*
%TO.C,R17*%
X192950000Y-94300000D03*
X189850000Y-94300000D03*
%TD*%
D18*
%TO.C,5V_EXT*%
X196087500Y-129200000D03*
X193112500Y-129200000D03*
%TD*%
D12*
%TO.C,R21*%
X210250000Y-111900000D03*
X213350000Y-111900000D03*
%TD*%
%TO.C,R26*%
X216750000Y-98900000D03*
X219850000Y-98900000D03*
%TD*%
D15*
%TO.C,R28*%
X123050000Y-94645016D03*
X119950000Y-94645016D03*
%TD*%
D12*
%TO.C,R46*%
X151700000Y-86250000D03*
X154800000Y-86250000D03*
%TD*%
D23*
%TO.C,3V3_INT*%
X165400000Y-79887500D03*
X165400000Y-76912500D03*
%TD*%
D15*
%TO.C,R37*%
X123050000Y-99845016D03*
X119950000Y-99845016D03*
%TD*%
D17*
%TO.C,C19*%
X202162500Y-89100000D03*
X199037500Y-89100000D03*
%TD*%
D18*
%TO.C,D8*%
X129225000Y-86010000D03*
X126250000Y-86010000D03*
%TD*%
D24*
%TO.C,C36*%
X139700000Y-73350000D03*
X139700000Y-76300000D03*
%TD*%
D25*
%TO.C,C28*%
X157850000Y-86150000D03*
X160800000Y-86150000D03*
%TD*%
D21*
%TO.C,C26*%
X151050000Y-92375000D03*
X151050000Y-89425000D03*
%TD*%
D23*
%TO.C,D1*%
X207800000Y-77687500D03*
X207800000Y-74712500D03*
%TD*%
D12*
%TO.C,R31*%
X119950000Y-89300000D03*
X123050000Y-89300000D03*
%TD*%
D26*
%TO.C,U4*%
X139521966Y-87250001D03*
X139521966Y-86749999D03*
X139521966Y-86250000D03*
X139521966Y-85750001D03*
X139521966Y-85250000D03*
X139521966Y-84750000D03*
X139521966Y-84249999D03*
X139521966Y-83750000D03*
X139521966Y-83250001D03*
X139521966Y-82749999D03*
D27*
X140250001Y-82021967D03*
X140750000Y-82021967D03*
X141249999Y-82021967D03*
X141750000Y-82021967D03*
X142250000Y-82021967D03*
X142750001Y-82021967D03*
X143250000Y-82021967D03*
X143749999Y-82021967D03*
D26*
X144478034Y-82749999D03*
X144478034Y-83250001D03*
X144478034Y-83750000D03*
X144478034Y-84249999D03*
X144478034Y-84750000D03*
X144478034Y-85250000D03*
X144478034Y-85750001D03*
X144478034Y-86250000D03*
X144478034Y-86749999D03*
X144478034Y-87250001D03*
D27*
X143749999Y-87978033D03*
X143250000Y-87978033D03*
X142750001Y-87978033D03*
X142250000Y-87978033D03*
X141750000Y-87978033D03*
X141249999Y-87978033D03*
X140750000Y-87978033D03*
X140250001Y-87978033D03*
%TD*%
D15*
%TO.C,R33*%
X147450000Y-107700000D03*
X144350000Y-107700000D03*
%TD*%
D20*
%TO.C,C15*%
X206800000Y-89062500D03*
X206800000Y-85937500D03*
%TD*%
D19*
%TO.C,D5*%
X168575000Y-72495800D03*
X168575000Y-76915400D03*
%TD*%
D18*
%TO.C,F4*%
X172237500Y-80300000D03*
X169262500Y-80300000D03*
%TD*%
D15*
%TO.C,R36*%
X131450000Y-107700000D03*
X128350000Y-107700000D03*
%TD*%
D17*
%TO.C,C7*%
X160200000Y-95545800D03*
X157075000Y-95545800D03*
%TD*%
D14*
%TO.C,R15*%
X170900000Y-102400000D03*
X170900000Y-99300000D03*
%TD*%
D21*
%TO.C,C35*%
X142300000Y-76300000D03*
X142300000Y-73350000D03*
%TD*%
D28*
%TO.C,Q1*%
X216000000Y-78950000D03*
X216000000Y-80850000D03*
X212600000Y-79900000D03*
%TD*%
D24*
%TO.C,C27*%
X150850000Y-76925000D03*
X150850000Y-79875000D03*
%TD*%
D15*
%TO.C,R35*%
X136850000Y-107700000D03*
X133750000Y-107700000D03*
%TD*%
D22*
%TO.C,3V3_EXT*%
X186112500Y-129200000D03*
X189087500Y-129200000D03*
%TD*%
D15*
%TO.C,R41*%
X142249293Y-100199293D03*
X139149293Y-100199293D03*
%TD*%
D18*
%TO.C,D9*%
X129201547Y-83419219D03*
X126226547Y-83419219D03*
%TD*%
%TO.C,RX*%
X208275000Y-107100000D03*
X205300000Y-107100000D03*
%TD*%
D15*
%TO.C,R9*%
X177750000Y-69325000D03*
X174650000Y-69325000D03*
%TD*%
D11*
%TO.C,C20*%
X210137500Y-85900000D03*
X213262500Y-85900000D03*
%TD*%
D21*
%TO.C,C30*%
X142500000Y-95950000D03*
X142500000Y-93000000D03*
%TD*%
D18*
%TO.C,RUN*%
X208262500Y-111900000D03*
X205287500Y-111900000D03*
%TD*%
D20*
%TO.C,C11*%
X160250000Y-75612500D03*
X160250000Y-72487500D03*
%TD*%
D13*
%TO.C,K1*%
X223500000Y-75812500D03*
X223500000Y-78787500D03*
%TD*%
D15*
%TO.C,R34*%
X142250000Y-107700000D03*
X139150000Y-107700000D03*
%TD*%
%TO.C,R8*%
X172675000Y-69325000D03*
X169575000Y-69325000D03*
%TD*%
D14*
%TO.C,R13*%
X186200000Y-127150000D03*
X186200000Y-124050000D03*
%TD*%
D29*
%TO.C,D6*%
X154850000Y-89400000D03*
X159269600Y-89400000D03*
%TD*%
D23*
%TO.C,5V*%
X174700000Y-102387500D03*
X174700000Y-99412500D03*
%TD*%
D11*
%TO.C,C9*%
X162037500Y-91600000D03*
X165162500Y-91600000D03*
%TD*%
D17*
%TO.C,C10*%
X172400000Y-82875000D03*
X169275000Y-82875000D03*
%TD*%
D12*
%TO.C,R20*%
X210237500Y-109500000D03*
X213337500Y-109500000D03*
%TD*%
D15*
%TO.C,R4*%
X221350000Y-78800000D03*
X218250000Y-78800000D03*
%TD*%
D16*
%TO.C,R49*%
X147475000Y-73175000D03*
X147475000Y-76275000D03*
%TD*%
D12*
%TO.C,R38*%
X119950000Y-91900000D03*
X123050000Y-91900000D03*
%TD*%
D22*
%TO.C,ERR*%
X194912500Y-96700000D03*
X197887500Y-96700000D03*
%TD*%
D30*
%TO.C,C21*%
X204300000Y-85937500D03*
X204300000Y-89062500D03*
%TD*%
D25*
%TO.C,C37*%
X121125000Y-84800000D03*
X124075000Y-84800000D03*
%TD*%
D15*
%TO.C,R44*%
X160075000Y-83550000D03*
X156975000Y-83550000D03*
%TD*%
D12*
%TO.C,R19*%
X210250000Y-107100000D03*
X213350000Y-107100000D03*
%TD*%
D30*
%TO.C,C12*%
X172225000Y-73787500D03*
X172225000Y-76912500D03*
%TD*%
D12*
%TO.C,R23*%
X222150000Y-106600000D03*
X225250000Y-106600000D03*
%TD*%
%TO.C,R42*%
X131300000Y-88700000D03*
X134400000Y-88700000D03*
%TD*%
D29*
%TO.C,D7*%
X154795800Y-79900000D03*
X159215400Y-79900000D03*
%TD*%
D23*
%TO.C,5V_INT*%
X167800000Y-94087500D03*
X167800000Y-91112500D03*
%TD*%
D16*
%TO.C,R5*%
X174000000Y-92445800D03*
X174000000Y-95545800D03*
%TD*%
D11*
%TO.C,C8*%
X162237500Y-95545800D03*
X165362500Y-95545800D03*
%TD*%
D12*
%TO.C,R45*%
X131300000Y-93900000D03*
X134400000Y-93900000D03*
%TD*%
M02*
