%TF.GenerationSoftware,KiCad,Pcbnew,10.0.1*%
%TF.CreationDate,2026-05-19T08:06:44+02:00*%
%TF.ProjectId,LV_Regulator,4c565f52-6567-4756-9c61-746f722e6b69,1.00*%
%TF.SameCoordinates,Original*%
%TF.FileFunction,Paste,Top*%
%TF.FilePolarity,Positive*%
%FSLAX46Y46*%
G04 Gerber Fmt 4.6, Leading zero omitted, Abs format (unit mm)*
G04 Created by KiCad (PCBNEW 10.0.1) date 2026-05-19 08:06:44*
%MOMM*%
%LPD*%
G01*
G04 APERTURE LIST*
G04 Aperture macros list*
%AMRoundRect*
0 Rectangle with rounded corners*
0 $1 Rounding radius*
0 $2 $3 $4 $5 $6 $7 $8 $9 X,Y pos of 4 corners*
0 Add a 4 corners polygon primitive as box body*
4,1,4,$2,$3,$4,$5,$6,$7,$8,$9,$2,$3,0*
0 Add four circle primitives for the rounded corners*
1,1,$1+$1,$2,$3*
1,1,$1+$1,$4,$5*
1,1,$1+$1,$6,$7*
1,1,$1+$1,$8,$9*
0 Add four rect primitives between the rounded corners*
20,1,$1+$1,$2,$3,$4,$5,0*
20,1,$1+$1,$4,$5,$6,$7,0*
20,1,$1+$1,$6,$7,$8,$9,0*
20,1,$1+$1,$8,$9,$2,$3,0*%
G04 Aperture macros list end*
%ADD10R,1.701800X1.879600*%
%ADD11R,1.796999X5.403799*%
%ADD12RoundRect,0.250001X1.499999X0.949999X-1.499999X0.949999X-1.499999X-0.949999X1.499999X-0.949999X0*%
%ADD13R,3.302000X0.939800*%
%ADD14R,8.178800X9.601200*%
%ADD15R,1.950000X0.650000*%
%ADD16R,4.039000X1.041000*%
%ADD17R,8.306000X10.744000*%
%ADD18RoundRect,0.250000X-0.412500X-0.650000X0.412500X-0.650000X0.412500X0.650000X-0.412500X0.650000X0*%
%ADD19RoundRect,0.250000X-1.000000X1.750000X-1.000000X-1.750000X1.000000X-1.750000X1.000000X1.750000X0*%
%ADD20RoundRect,0.250000X0.650000X-0.412500X0.650000X0.412500X-0.650000X0.412500X-0.650000X-0.412500X0*%
%ADD21RoundRect,0.250000X-0.625000X0.400000X-0.625000X-0.400000X0.625000X-0.400000X0.625000X0.400000X0*%
%ADD22R,11.200000X1.450000*%
%ADD23RoundRect,0.250000X0.625000X-0.400000X0.625000X0.400000X-0.625000X0.400000X-0.625000X-0.400000X0*%
%ADD24RoundRect,0.250001X0.462499X0.624999X-0.462499X0.624999X-0.462499X-0.624999X0.462499X-0.624999X0*%
%ADD25RoundRect,0.250000X0.400000X0.625000X-0.400000X0.625000X-0.400000X-0.625000X0.400000X-0.625000X0*%
%ADD26RoundRect,0.250000X-0.650000X0.412500X-0.650000X-0.412500X0.650000X-0.412500X0.650000X0.412500X0*%
%ADD27RoundRect,0.150000X-0.150000X0.825000X-0.150000X-0.825000X0.150000X-0.825000X0.150000X0.825000X0*%
%ADD28RoundRect,0.250000X0.625000X0.650000X-0.625000X0.650000X-0.625000X-0.650000X0.625000X-0.650000X0*%
%ADD29RoundRect,0.075000X-0.075000X0.662500X-0.075000X-0.662500X0.075000X-0.662500X0.075000X0.662500X0*%
%ADD30RoundRect,0.075000X-0.662500X0.075000X-0.662500X-0.075000X0.662500X-0.075000X0.662500X0.075000X0*%
%ADD31RoundRect,0.150000X-0.150000X0.875000X-0.150000X-0.875000X0.150000X-0.875000X0.150000X0.875000X0*%
%ADD32RoundRect,0.250002X-1.499998X-6.149998X1.499998X-6.149998X1.499998X6.149998X-1.499998X6.149998X0*%
%ADD33RoundRect,0.250000X1.000000X-1.750000X1.000000X1.750000X-1.000000X1.750000X-1.000000X-1.750000X0*%
G04 APERTURE END LIST*
D10*
%TO.C,D4*%
X189200000Y-124590200D03*
X189200000Y-129009800D03*
%TD*%
D11*
%TO.C,C34*%
X101000000Y-71195800D03*
X101000000Y-61604200D03*
%TD*%
D12*
%TO.C,Y2*%
X203400000Y-85800000D03*
X198200000Y-85800000D03*
%TD*%
D13*
%TO.C,U5*%
X127203800Y-97741814D03*
D14*
X137465400Y-100281814D03*
D13*
X127203800Y-102821814D03*
%TD*%
D15*
%TO.C,IC1*%
X202775000Y-121555000D03*
X202775000Y-122825000D03*
X202775000Y-124095000D03*
X202775000Y-125365000D03*
X202775000Y-126635000D03*
X202775000Y-127905000D03*
X202775000Y-129175000D03*
X202775000Y-130445000D03*
X212225000Y-130445000D03*
X212225000Y-129175000D03*
X212225000Y-127905000D03*
X212225000Y-126635000D03*
X212225000Y-125365000D03*
X212225000Y-124095000D03*
X212225000Y-122825000D03*
X212225000Y-121555000D03*
%TD*%
D16*
%TO.C,IC3*%
X175977000Y-82000000D03*
X175977000Y-80298000D03*
X175977000Y-78596000D03*
X175977000Y-76894000D03*
X175977000Y-75192000D03*
D17*
X165524000Y-78596000D03*
%TD*%
D18*
%TO.C,C25*%
X209537500Y-90000000D03*
X212662500Y-90000000D03*
%TD*%
D19*
%TO.C,C32*%
X100100000Y-96900000D03*
X100100000Y-104900000D03*
%TD*%
D20*
%TO.C,C1*%
X226500000Y-125562500D03*
X226500000Y-122437500D03*
%TD*%
D21*
%TO.C,R1*%
X227500000Y-130450000D03*
X227500000Y-133550000D03*
%TD*%
D20*
%TO.C,C3*%
X215000000Y-125562500D03*
X215000000Y-122437500D03*
%TD*%
D22*
%TO.C,R50*%
X103500000Y-86550000D03*
X103500000Y-82050000D03*
%TD*%
D16*
%TO.C,IC2*%
X175977000Y-95844000D03*
X175977000Y-94142000D03*
X175977000Y-92440000D03*
X175977000Y-90738000D03*
X175977000Y-89036000D03*
D17*
X165524000Y-92440000D03*
%TD*%
D23*
%TO.C,R24*%
X192200000Y-91350000D03*
X192200000Y-88250000D03*
%TD*%
D18*
%TO.C,C22*%
X209537500Y-92400000D03*
X212662500Y-92400000D03*
%TD*%
D24*
%TO.C,F1*%
X96487500Y-75100000D03*
X93512500Y-75100000D03*
%TD*%
D11*
%TO.C,C31*%
X113000000Y-96196300D03*
X113000000Y-105787900D03*
%TD*%
D25*
%TO.C,R2*%
X221550000Y-123500000D03*
X218450000Y-123500000D03*
%TD*%
D26*
%TO.C,C17*%
X198400000Y-102237500D03*
X198400000Y-105362500D03*
%TD*%
D13*
%TO.C,U6*%
X157350000Y-102861814D03*
D14*
X147088400Y-100321814D03*
D13*
X157350000Y-97781814D03*
%TD*%
D27*
%TO.C,U3*%
X194805000Y-94525000D03*
X193535000Y-94525000D03*
X192265000Y-94525000D03*
X190995000Y-94525000D03*
X190995000Y-99475000D03*
X192265000Y-99475000D03*
X193535000Y-99475000D03*
X194805000Y-99475000D03*
%TD*%
D10*
%TO.C,D2*%
X193000000Y-124590200D03*
X193000000Y-129009800D03*
%TD*%
D28*
%TO.C,Y1*%
X210025000Y-85900000D03*
X206775000Y-85900000D03*
%TD*%
D29*
%TO.C,U2*%
X207150000Y-92537500D03*
X206650000Y-92537500D03*
X206150000Y-92537500D03*
X205650000Y-92537500D03*
X205150000Y-92537500D03*
X204650000Y-92537500D03*
X204150000Y-92537500D03*
X203650000Y-92537500D03*
X203150000Y-92537500D03*
X202650000Y-92537500D03*
X202150000Y-92537500D03*
X201650000Y-92537500D03*
D30*
X200237500Y-93950000D03*
X200237500Y-94450000D03*
X200237500Y-94950000D03*
X200237500Y-95450000D03*
X200237500Y-95950000D03*
X200237500Y-96450000D03*
X200237500Y-96950000D03*
X200237500Y-97450000D03*
X200237500Y-97950000D03*
X200237500Y-98450000D03*
X200237500Y-98950000D03*
X200237500Y-99450000D03*
D29*
X201650000Y-100862500D03*
X202150000Y-100862500D03*
X202650000Y-100862500D03*
X203150000Y-100862500D03*
X203650000Y-100862500D03*
X204150000Y-100862500D03*
X204650000Y-100862500D03*
X205150000Y-100862500D03*
X205650000Y-100862500D03*
X206150000Y-100862500D03*
X206650000Y-100862500D03*
X207150000Y-100862500D03*
D30*
X208562500Y-99450000D03*
X208562500Y-98950000D03*
X208562500Y-98450000D03*
X208562500Y-97950000D03*
X208562500Y-97450000D03*
X208562500Y-96950000D03*
X208562500Y-96450000D03*
X208562500Y-95950000D03*
X208562500Y-95450000D03*
X208562500Y-94950000D03*
X208562500Y-94450000D03*
X208562500Y-93950000D03*
%TD*%
D26*
%TO.C,C14*%
X194200000Y-101837500D03*
X194200000Y-104962500D03*
%TD*%
D24*
%TO.C,F2*%
X216487500Y-55000000D03*
X213512500Y-55000000D03*
%TD*%
D31*
%TO.C,U1*%
X224445000Y-110350000D03*
X223175000Y-110350000D03*
X221905000Y-110350000D03*
X220635000Y-110350000D03*
X219365000Y-110350000D03*
X218095000Y-110350000D03*
X216825000Y-110350000D03*
X215555000Y-110350000D03*
X215555000Y-119650000D03*
X216825000Y-119650000D03*
X218095000Y-119650000D03*
X219365000Y-119650000D03*
X220635000Y-119650000D03*
X221905000Y-119650000D03*
X223175000Y-119650000D03*
X224445000Y-119650000D03*
%TD*%
D32*
%TO.C,L1*%
X135150000Y-84481814D03*
X149850000Y-84481814D03*
%TD*%
D13*
%TO.C,U7*%
X127092400Y-65861814D03*
D14*
X137354000Y-68401814D03*
D13*
X127092400Y-70941814D03*
%TD*%
D18*
%TO.C,C4*%
X214937500Y-128000000D03*
X218062500Y-128000000D03*
%TD*%
D13*
%TO.C,U8*%
X157238600Y-71021814D03*
D14*
X146977000Y-68481814D03*
D13*
X157238600Y-65941814D03*
%TD*%
D20*
%TO.C,C2*%
X227900000Y-110162500D03*
X227900000Y-107037500D03*
%TD*%
D23*
%TO.C,R3*%
X213500000Y-137050000D03*
X213500000Y-133950000D03*
%TD*%
D33*
%TO.C,C33*%
X113800000Y-70400000D03*
X113800000Y-62400000D03*
%TD*%
M02*
