%TF.GenerationSoftware,KiCad,Pcbnew,10.0.1*%
%TF.CreationDate,2026-05-19T08:06:43+02:00*%
%TF.ProjectId,LV_Regulator,4c565f52-6567-4756-9c61-746f722e6b69,1.00*%
%TF.SameCoordinates,Original*%
%TF.FileFunction,Copper,L3,Inr*%
%TF.FilePolarity,Positive*%
%FSLAX46Y46*%
G04 Gerber Fmt 4.6, Leading zero omitted, Abs format (unit mm)*
G04 Created by KiCad (PCBNEW 10.0.1) date 2026-05-19 08:06:43*
%MOMM*%
%LPD*%
G01*
G04 APERTURE LIST*
%TA.AperFunction,ComponentPad*%
%ADD10C,1.574800*%
%TD*%
%TA.AperFunction,ComponentPad*%
%ADD11C,0.600000*%
%TD*%
%TA.AperFunction,ComponentPad*%
%ADD12O,1.900000X0.900000*%
%TD*%
%TA.AperFunction,ComponentPad*%
%ADD13R,1.700000X1.700000*%
%TD*%
%TA.AperFunction,ComponentPad*%
%ADD14C,1.700000*%
%TD*%
%TA.AperFunction,ComponentPad*%
%ADD15C,1.950000*%
%TD*%
%TA.AperFunction,ComponentPad*%
%ADD16R,1.950000X1.950000*%
%TD*%
%TA.AperFunction,ViaPad*%
%ADD17C,0.800000*%
%TD*%
%TA.AperFunction,Conductor*%
%ADD18C,0.800000*%
%TD*%
%TA.AperFunction,Conductor*%
%ADD19C,0.950000*%
%TD*%
%TA.AperFunction,Conductor*%
%ADD20C,0.300000*%
%TD*%
%TA.AperFunction,Conductor*%
%ADD21C,0.200000*%
%TD*%
%TA.AperFunction,Conductor*%
%ADD22C,0.250000*%
%TD*%
%TA.AperFunction,Conductor*%
%ADD23C,0.600000*%
%TD*%
G04 APERTURE END LIST*
D10*
%TO.N,GND*%
%TO.C,START*%
X192639600Y-134785700D03*
X189639601Y-134785700D03*
%TO.N,5V_EXT*%
X192639600Y-131785701D03*
%TO.N,3V3_EXT*%
X189639601Y-131785701D03*
%TD*%
D11*
%TO.N,GND*%
%TO.C,DIAG*%
X222550000Y-102990000D03*
%TO.N,unconnected-(J6-VBUS1-PadA4)*%
X221650000Y-102990000D03*
%TO.N,Net-(J6-CC1)*%
X220750000Y-102990000D03*
%TO.N,CON_DP*%
X219850000Y-102990000D03*
%TO.N,CON_DN*%
X218950000Y-102990000D03*
%TO.N,unconnected-(J6-VBUS2-PadA9)*%
X218050000Y-102990000D03*
%TO.N,GND*%
X217150000Y-102990000D03*
X217600000Y-102210000D03*
%TO.N,unconnected-(J6-VBUS3-PadB4)*%
X218500000Y-102210000D03*
%TO.N,Net-(J6-CC2)*%
X219400000Y-102210000D03*
%TO.N,CON_DP*%
X220300000Y-102210000D03*
%TO.N,CON_DN*%
X221200000Y-102210000D03*
%TO.N,unconnected-(J6-VBUS4-PadB9)*%
X222100000Y-102210000D03*
%TO.N,GND*%
X223000000Y-102210000D03*
D12*
X222500000Y-104030000D03*
X222500000Y-101170000D03*
X217700000Y-104030000D03*
X217700000Y-101170000D03*
%TD*%
D10*
%TO.N,Net-(F1-Pad2)*%
%TO.C,J3*%
X90314301Y-89339599D03*
X90314301Y-86339600D03*
X90314301Y-83339601D03*
X90314301Y-80339602D03*
%TO.N,GND*%
X93314300Y-89339599D03*
X93314300Y-86339600D03*
X93314300Y-83339601D03*
X93314300Y-80339602D03*
%TD*%
%TO.N,BAT-*%
%TO.C,PWR_IN*%
X221935700Y-57160401D03*
X221935700Y-60160400D03*
X221935700Y-63160399D03*
X221935700Y-66160398D03*
%TO.N,Net-(F2-Pad1)*%
X218935701Y-57160401D03*
X218935701Y-60160400D03*
X218935701Y-63160399D03*
X218935701Y-66160398D03*
%TD*%
D13*
%TO.N,VBAT*%
%TO.C,SWD*%
X227000000Y-95600000D03*
D14*
%TO.N,SWDIO*%
X227000000Y-93060000D03*
%TO.N,SWCLK*%
X227000000Y-90520000D03*
%TO.N,GND*%
X227000000Y-87980000D03*
%TD*%
D15*
%TO.N,SYS*%
%TO.C,K1*%
X207750000Y-59960000D03*
%TO.N,unconnected-(K1-NC_1-Pad12)*%
X207750000Y-64960000D03*
%TO.N,BAT+*%
X207750000Y-54960000D03*
%TO.N,GND*%
X200250000Y-59960000D03*
%TO.N,unconnected-(K1-NC_2-Pad22)*%
X200250000Y-64960000D03*
%TO.N,BAT-*%
X200250000Y-54960000D03*
D16*
%TO.N,Net-(D1-K)*%
X207750000Y-79960000D03*
D15*
%TO.N,GND*%
X200250000Y-79960000D03*
%TD*%
D10*
%TO.N,RS485-B*%
%TO.C,COM*%
X221839600Y-134935700D03*
%TO.N,RS485-A*%
X218839601Y-134935700D03*
%TO.N,GND_ISO*%
X221839600Y-131935701D03*
%TO.N,+5V_ISO*%
X218839601Y-131935701D03*
%TD*%
D17*
%TO.N,VBAT*%
X208700000Y-101600000D03*
X184400000Y-107700000D03*
X182500000Y-72200000D03*
X196700000Y-90200000D03*
X158500000Y-72500000D03*
X130000000Y-88500000D03*
%TO.N,VOUT*%
X140200000Y-80900000D03*
X113838227Y-73198040D03*
X100985359Y-75002796D03*
X110450000Y-82000000D03*
%TO.N,GND*%
X204600000Y-129200000D03*
X100100000Y-107900000D03*
X196200000Y-104962500D03*
X142000000Y-84900000D03*
X227900000Y-105800000D03*
X223174999Y-112174999D03*
X190400000Y-94400000D03*
X113800000Y-59300000D03*
X198500000Y-89200000D03*
X196000000Y-101400000D03*
X138000000Y-82500000D03*
X210700000Y-94500000D03*
X173410000Y-78590000D03*
X138000000Y-81500000D03*
X146700000Y-83400000D03*
X214500000Y-110400000D03*
X159941814Y-65941814D03*
X203600000Y-93900000D03*
X113000000Y-109584200D03*
X101000000Y-58300000D03*
X204600000Y-122800000D03*
X124658186Y-70941814D03*
X178600000Y-92440000D03*
X194500000Y-85900000D03*
X206700000Y-102300000D03*
%TO.N,HSC_IN*%
X203399998Y-85800000D03*
%TO.N,HSC_OUT*%
X199200000Y-85900000D03*
%TO.N,HIDRV1_FET1*%
X130201200Y-97751812D03*
X147250000Y-88850000D03*
%TO.N,SYS*%
X157399999Y-104003679D03*
X144500000Y-90550000D03*
X160500000Y-93500000D03*
X143500000Y-90550000D03*
X142500000Y-90550000D03*
X169275000Y-84725000D03*
%TO.N,SW1*%
X145900000Y-88600000D03*
X137354000Y-62554000D03*
%TO.N,+5V*%
X174700000Y-97950000D03*
X192400000Y-123400000D03*
X204600000Y-121600000D03*
X217750000Y-80850000D03*
X204600000Y-124100000D03*
X192000000Y-124600000D03*
X194000000Y-124600000D03*
X193600000Y-123400000D03*
X193600000Y-125800000D03*
X192400000Y-125800000D03*
%TO.N,GND_ISO*%
X228200000Y-128200000D03*
X216800000Y-122000000D03*
X224609375Y-124390625D03*
X210000000Y-128500000D03*
X218062501Y-129937499D03*
%TO.N,Net-(IC3-IN)*%
X173475000Y-80325000D03*
%TO.N,3V3_INT*%
X173540000Y-76910000D03*
%TO.N,Net-(IC3-ADJ)*%
X170575000Y-70600000D03*
%TO.N,Net-(U6-D)*%
X152345325Y-104691796D03*
X110350000Y-86550000D03*
X152300000Y-98200000D03*
X144900000Y-74725000D03*
X151150000Y-94350000D03*
%TO.N,Net-(J6-CC1)*%
X222000000Y-106500000D03*
%TO.N,Net-(J6-CC2)*%
X221700000Y-96600000D03*
%TO.N,Net-(IC2-IN)*%
X178538502Y-94142000D03*
%TO.N,5V_INT*%
X173300000Y-90738000D03*
X178537999Y-90737999D03*
%TO.N,Net-(IC2-ADJ)*%
X173200000Y-89000000D03*
%TO.N,HIDRV2_FET4*%
X159711814Y-102861814D03*
X145300000Y-80800000D03*
%TO.N,SW2*%
X147000000Y-62700000D03*
%TO.N,SS*%
X202000000Y-93900000D03*
X194800000Y-92800000D03*
%TO.N,MISO_DOBROTO*%
X202200000Y-96000000D03*
X193800650Y-92950000D03*
%TO.N,SCK*%
X201920406Y-94938365D03*
X192285652Y-101200000D03*
%TO.N,LSC_IN*%
X210100000Y-86000000D03*
%TO.N,LSC_OUT*%
X206800000Y-86000000D03*
%TO.N,RS485-DIR*%
X206700000Y-93800000D03*
X220000000Y-112000000D03*
%TO.N,RESET*%
X201700000Y-89200000D03*
%TO.N,DIAG_OK*%
X197342229Y-93200000D03*
%TO.N,DIAG_ERR*%
X197216752Y-95751876D03*
%TO.N,RELEJ*%
X202300000Y-97200000D03*
%TO.N,INT_N*%
X138000000Y-86500000D03*
X203000000Y-98000000D03*
X187000000Y-97900000D03*
X186900000Y-88500000D03*
%TO.N,ADR1*%
X200400000Y-100300000D03*
%TO.N,ADR2*%
X201200000Y-103600000D03*
%TO.N,ADR3*%
X201200000Y-106500000D03*
%TO.N,ADR4*%
X201700000Y-108800000D03*
%TO.N,ADR5*%
X202000000Y-111400000D03*
%TO.N,DIAG_RUN*%
X203200000Y-111500000D03*
%TO.N,DIAG_TX*%
X204000000Y-108900000D03*
%TO.N,DIAG_RX*%
X204900000Y-105400000D03*
%TO.N,USB_DN*%
X215400000Y-104600000D03*
%TO.N,USB_DP*%
X215400000Y-100500000D03*
%TO.N,SWDIO*%
X206172606Y-99657387D03*
%TO.N,SWCLK*%
X212600000Y-99500000D03*
%TO.N,CE_N*%
X137975008Y-83500313D03*
X156500000Y-92750000D03*
X206697321Y-98750000D03*
%TO.N,RS485-TX*%
X207247321Y-97200000D03*
X218069669Y-111930331D03*
%TO.N,RS485-RX*%
X210300000Y-97000000D03*
X221900000Y-112000000D03*
%TO.N,I2C_SCL*%
X182950000Y-89800000D03*
X138000000Y-88500000D03*
X207244736Y-95710736D03*
X153000000Y-90750000D03*
%TO.N,I2C_SDA*%
X207250117Y-94710748D03*
X137700000Y-87500000D03*
X159000000Y-91700000D03*
%TO.N,LODRV1_FET2*%
X147000000Y-85900000D03*
X124900000Y-65850000D03*
%TO.N,LODRV2_FET3*%
X159750000Y-71000000D03*
X146775757Y-82214923D03*
%TO.N,REGN*%
X125200000Y-84800000D03*
X146219376Y-85025001D03*
%TD*%
%TO.N,SYS*%
D18*
X160500000Y-93500000D02*
X169275000Y-84725000D01*
%TO.N,+5V*%
D19*
X174700000Y-97950000D02*
X182450000Y-97950000D01*
%TO.N,SCK*%
D20*
X192285652Y-101200000D02*
X192285652Y-97914348D01*
X192285652Y-97914348D02*
X195400000Y-94800000D01*
X201782041Y-94800000D02*
X201920406Y-94938365D01*
X195400000Y-94800000D02*
X201782041Y-94800000D01*
%TO.N,RS485-DIR*%
X213600000Y-102800000D02*
X213600000Y-106400000D01*
X207889950Y-93800000D02*
X208700000Y-94610050D01*
X206700000Y-93800000D02*
X207889950Y-93800000D01*
X208700000Y-97900000D02*
X213500000Y-102700000D01*
X208700000Y-94610050D02*
X208700000Y-97900000D01*
X213600000Y-106400000D02*
X219200000Y-112000000D01*
X219200000Y-112000000D02*
X220000000Y-112000000D01*
X213500000Y-102700000D02*
X213600000Y-102800000D01*
%TO.N,CE_N*%
X155925000Y-92175000D02*
X156500000Y-92750000D01*
X136750000Y-91121752D02*
X137803248Y-92175000D01*
X137803248Y-92175000D02*
X155925000Y-92175000D01*
X137400000Y-83500000D02*
X136750000Y-84150000D01*
X137975008Y-83500313D02*
X137974695Y-83500000D01*
X137974695Y-83500000D02*
X137400000Y-83500000D01*
X136750000Y-84150000D02*
X136750000Y-91121752D01*
%TO.N,RS485-TX*%
X207497322Y-97450001D02*
X207247321Y-97200000D01*
X213100000Y-103052679D02*
X207997320Y-97949999D01*
X213100000Y-106607106D02*
X213100000Y-103052679D01*
X207997320Y-97889340D02*
X207557981Y-97450001D01*
X218069669Y-111930331D02*
X218100000Y-111900000D01*
X218100000Y-111900000D02*
X218100000Y-111607106D01*
D21*
X207247321Y-97200000D02*
X207247321Y-97500001D01*
D20*
X218100000Y-111607106D02*
X213100000Y-106607106D01*
X207997320Y-97949999D02*
X207997320Y-97889340D01*
X207557981Y-97450001D02*
X207497322Y-97450001D01*
%TO.N,RS485-RX*%
X221900000Y-112000000D02*
X220500000Y-110600000D01*
X214100000Y-106192894D02*
X214100000Y-102592893D01*
X210300000Y-98792894D02*
X210300000Y-97000000D01*
X218507106Y-110600000D02*
X214100000Y-106192894D01*
X214100000Y-102592893D02*
X210300000Y-98792894D01*
X220500000Y-110600000D02*
X218507106Y-110600000D01*
%TO.N,I2C_SCL*%
D22*
X153000000Y-90750000D02*
X146500000Y-90750000D01*
X143750000Y-88000000D02*
X138500000Y-88000000D01*
D20*
X206939456Y-95460748D02*
X203478708Y-92000000D01*
D22*
X146500000Y-90750000D02*
X143750000Y-88000000D01*
D20*
X203478708Y-92000000D02*
X185150000Y-92000000D01*
D22*
X138500000Y-88000000D02*
X138000000Y-88500000D01*
D20*
X185150000Y-92000000D02*
X182950000Y-89800000D01*
%TO.N,I2C_SDA*%
D22*
X137250000Y-90950000D02*
X137250000Y-87950000D01*
X137250000Y-87950000D02*
X137700000Y-87500000D01*
X138000000Y-91700000D02*
X137250000Y-90950000D01*
X159000000Y-91700000D02*
X138000000Y-91700000D01*
%TO.N,LODRV2_FET3*%
D18*
X146775757Y-82214923D02*
X157990680Y-71000000D01*
X157990680Y-71000000D02*
X159750000Y-71000000D01*
%TO.N,REGN*%
D23*
X138400000Y-80400000D02*
X140300000Y-82300000D01*
X143494375Y-82300000D02*
X146219376Y-85025001D01*
X125200000Y-84800000D02*
X129600000Y-80400000D01*
X140300000Y-82300000D02*
X143494375Y-82300000D01*
X129600000Y-80400000D02*
X138400000Y-80400000D01*
%TD*%
%TA.AperFunction,Conductor*%
%TO.N,+5V*%
G36*
X193740062Y-44520185D02*
G01*
X193785817Y-44572989D01*
X193797023Y-44624838D01*
X193793690Y-45848748D01*
X193767195Y-55576339D01*
X199191400Y-55589391D01*
X199258391Y-55609237D01*
X199291418Y-55640505D01*
X199353379Y-55725787D01*
X199484213Y-55856621D01*
X199633904Y-55965378D01*
X199714763Y-56006577D01*
X199798764Y-56049379D01*
X199798767Y-56049380D01*
X199886750Y-56077967D01*
X199974736Y-56106555D01*
X200157486Y-56135500D01*
X200157487Y-56135500D01*
X200342513Y-56135500D01*
X200342514Y-56135500D01*
X200525264Y-56106555D01*
X200701235Y-56049379D01*
X200866096Y-55965378D01*
X201015787Y-55856621D01*
X201146621Y-55725787D01*
X201204885Y-55645592D01*
X201260212Y-55602928D01*
X201305497Y-55594478D01*
X206704535Y-55607470D01*
X206771526Y-55627316D01*
X206804553Y-55658584D01*
X206853379Y-55725787D01*
X206984213Y-55856621D01*
X207133904Y-55965378D01*
X207214763Y-56006577D01*
X207298764Y-56049379D01*
X207298767Y-56049380D01*
X207386750Y-56077967D01*
X207474736Y-56106555D01*
X207657486Y-56135500D01*
X207657487Y-56135500D01*
X207842513Y-56135500D01*
X207842514Y-56135500D01*
X208025264Y-56106555D01*
X208201235Y-56049379D01*
X208366096Y-55965378D01*
X208515787Y-55856621D01*
X208646621Y-55725787D01*
X208691795Y-55663608D01*
X208747123Y-55620944D01*
X208792408Y-55612494D01*
X212290780Y-55620913D01*
X212357770Y-55640759D01*
X212403398Y-55693673D01*
X212414480Y-55745200D01*
X212385600Y-68219259D01*
X212365760Y-68286253D01*
X212312850Y-68331885D01*
X212261650Y-68342972D01*
X193693693Y-68350419D01*
X193693692Y-68350419D01*
X193695269Y-72279055D01*
X193695437Y-72697884D01*
X230375500Y-72697884D01*
X230442539Y-72717569D01*
X230488294Y-72770373D01*
X230499500Y-72821884D01*
X230499500Y-113376000D01*
X230479815Y-113443039D01*
X230427011Y-113488794D01*
X230375500Y-113500000D01*
X206500000Y-113500000D01*
X206500000Y-143375500D01*
X206480315Y-143442539D01*
X206427511Y-143488294D01*
X206376000Y-143499500D01*
X183004428Y-143499500D01*
X182995582Y-143499184D01*
X182973622Y-143497613D01*
X182795442Y-143484869D01*
X182777931Y-143482351D01*
X182586209Y-143440645D01*
X182569234Y-143435661D01*
X182385394Y-143367093D01*
X182369300Y-143359743D01*
X182197091Y-143265709D01*
X182182208Y-143256144D01*
X182025135Y-143138561D01*
X182011764Y-143126975D01*
X181873024Y-142988235D01*
X181861438Y-142974864D01*
X181743855Y-142817791D01*
X181734290Y-142802908D01*
X181640256Y-142630699D01*
X181632909Y-142614611D01*
X181564336Y-142430760D01*
X181559354Y-142413790D01*
X181517648Y-142222068D01*
X181515130Y-142204556D01*
X181500816Y-142004418D01*
X181500500Y-141995572D01*
X181500500Y-138989387D01*
X189365100Y-138989387D01*
X189365100Y-139222016D01*
X189384848Y-139372009D01*
X189395463Y-139452632D01*
X189425565Y-139564976D01*
X189455668Y-139677322D01*
X189544683Y-139892223D01*
X189544688Y-139892234D01*
X189660987Y-140093668D01*
X189660998Y-140093684D01*
X189802596Y-140278219D01*
X189802602Y-140278226D01*
X189967075Y-140442699D01*
X189967081Y-140442704D01*
X190151626Y-140584310D01*
X190151633Y-140584314D01*
X190353067Y-140700613D01*
X190353072Y-140700615D01*
X190353075Y-140700617D01*
X190460528Y-140745125D01*
X190567979Y-140789633D01*
X190567980Y-140789633D01*
X190567982Y-140789634D01*
X190792670Y-140849839D01*
X191023293Y-140880202D01*
X191023300Y-140880202D01*
X191255900Y-140880202D01*
X191255907Y-140880202D01*
X191486530Y-140849839D01*
X191711218Y-140789634D01*
X191926125Y-140700617D01*
X192127574Y-140584310D01*
X192312119Y-140442704D01*
X192476602Y-140278221D01*
X192618208Y-140093676D01*
X192734515Y-139892227D01*
X192823532Y-139677320D01*
X192883737Y-139452632D01*
X192914100Y-139222009D01*
X192914100Y-138989395D01*
X192883737Y-138758772D01*
X192823532Y-138534084D01*
X192734515Y-138319177D01*
X192734513Y-138319174D01*
X192734511Y-138319169D01*
X192618212Y-138117735D01*
X192618208Y-138117728D01*
X192476602Y-137933183D01*
X192476597Y-137933177D01*
X192312124Y-137768704D01*
X192312117Y-137768698D01*
X192127582Y-137627100D01*
X192127580Y-137627098D01*
X192127574Y-137627094D01*
X192127569Y-137627091D01*
X192127566Y-137627089D01*
X191926132Y-137510790D01*
X191926121Y-137510785D01*
X191711220Y-137421770D01*
X191598874Y-137391667D01*
X191486530Y-137361565D01*
X191435280Y-137354817D01*
X191255914Y-137331202D01*
X191255907Y-137331202D01*
X191023293Y-137331202D01*
X191023285Y-137331202D01*
X190818294Y-137358191D01*
X190792670Y-137361565D01*
X190736498Y-137376616D01*
X190567979Y-137421770D01*
X190353078Y-137510785D01*
X190353067Y-137510790D01*
X190151633Y-137627089D01*
X190151617Y-137627100D01*
X189967082Y-137768698D01*
X189967075Y-137768704D01*
X189802602Y-137933177D01*
X189802596Y-137933184D01*
X189660998Y-138117719D01*
X189660987Y-138117735D01*
X189544688Y-138319169D01*
X189544683Y-138319180D01*
X189455668Y-138534081D01*
X189395463Y-138758773D01*
X189365100Y-138989387D01*
X181500500Y-138989387D01*
X181500500Y-134688395D01*
X188651701Y-134688395D01*
X188651701Y-134883004D01*
X188689663Y-135073852D01*
X188689665Y-135073860D01*
X188764133Y-135253643D01*
X188764138Y-135253652D01*
X188872248Y-135415449D01*
X188872251Y-135415453D01*
X189009847Y-135553049D01*
X189009851Y-135553052D01*
X189171648Y-135661162D01*
X189171654Y-135661165D01*
X189171655Y-135661166D01*
X189351441Y-135735636D01*
X189542296Y-135773599D01*
X189542300Y-135773600D01*
X189542301Y-135773600D01*
X189736902Y-135773600D01*
X189736903Y-135773599D01*
X189927761Y-135735636D01*
X190107547Y-135661166D01*
X190269351Y-135553052D01*
X190406953Y-135415450D01*
X190515067Y-135253646D01*
X190589537Y-135073860D01*
X190627501Y-134883000D01*
X190627501Y-134688400D01*
X190627500Y-134688395D01*
X191651700Y-134688395D01*
X191651700Y-134883004D01*
X191689662Y-135073852D01*
X191689664Y-135073860D01*
X191764132Y-135253643D01*
X191764137Y-135253652D01*
X191872247Y-135415449D01*
X191872250Y-135415453D01*
X192009846Y-135553049D01*
X192009850Y-135553052D01*
X192171647Y-135661162D01*
X192171653Y-135661165D01*
X192171654Y-135661166D01*
X192351440Y-135735636D01*
X192542295Y-135773599D01*
X192542299Y-135773600D01*
X192542300Y-135773600D01*
X192736901Y-135773600D01*
X192736902Y-135773599D01*
X192927760Y-135735636D01*
X193107546Y-135661166D01*
X193269350Y-135553052D01*
X193406952Y-135415450D01*
X193515066Y-135253646D01*
X193589536Y-135073860D01*
X193627500Y-134883000D01*
X193627500Y-134688400D01*
X193589536Y-134497540D01*
X193515066Y-134317754D01*
X193515065Y-134317753D01*
X193515062Y-134317747D01*
X193406952Y-134155950D01*
X193406949Y-134155946D01*
X193269353Y-134018350D01*
X193269349Y-134018347D01*
X193107552Y-133910237D01*
X193107543Y-133910232D01*
X192927760Y-133835764D01*
X192927752Y-133835762D01*
X192736904Y-133797800D01*
X192736900Y-133797800D01*
X192542300Y-133797800D01*
X192542295Y-133797800D01*
X192351447Y-133835762D01*
X192351439Y-133835764D01*
X192171656Y-133910232D01*
X192171647Y-133910237D01*
X192009850Y-134018347D01*
X192009846Y-134018350D01*
X191872250Y-134155946D01*
X191872247Y-134155950D01*
X191764137Y-134317747D01*
X191764132Y-134317756D01*
X191689664Y-134497539D01*
X191689662Y-134497547D01*
X191651700Y-134688395D01*
X190627500Y-134688395D01*
X190589537Y-134497540D01*
X190515067Y-134317754D01*
X190515066Y-134317753D01*
X190515063Y-134317747D01*
X190406953Y-134155950D01*
X190406950Y-134155946D01*
X190269354Y-134018350D01*
X190269350Y-134018347D01*
X190107553Y-133910237D01*
X190107544Y-133910232D01*
X189927761Y-133835764D01*
X189927753Y-133835762D01*
X189736905Y-133797800D01*
X189736901Y-133797800D01*
X189542301Y-133797800D01*
X189542296Y-133797800D01*
X189351448Y-133835762D01*
X189351440Y-133835764D01*
X189171657Y-133910232D01*
X189171648Y-133910237D01*
X189009851Y-134018347D01*
X189009847Y-134018350D01*
X188872251Y-134155946D01*
X188872248Y-134155950D01*
X188764138Y-134317747D01*
X188764133Y-134317756D01*
X188689665Y-134497539D01*
X188689663Y-134497547D01*
X188651701Y-134688395D01*
X181500500Y-134688395D01*
X181500500Y-131688396D01*
X188651701Y-131688396D01*
X188651701Y-131883005D01*
X188689663Y-132073853D01*
X188689665Y-132073861D01*
X188764133Y-132253644D01*
X188764138Y-132253653D01*
X188872248Y-132415450D01*
X188872251Y-132415454D01*
X189009847Y-132553050D01*
X189009851Y-132553053D01*
X189171648Y-132661163D01*
X189171654Y-132661166D01*
X189171655Y-132661167D01*
X189351441Y-132735637D01*
X189542296Y-132773600D01*
X189542300Y-132773601D01*
X189542301Y-132773601D01*
X189736902Y-132773601D01*
X189736903Y-132773600D01*
X189927761Y-132735637D01*
X190107547Y-132661167D01*
X190269351Y-132553053D01*
X190406953Y-132415451D01*
X190515067Y-132253647D01*
X190589537Y-132073861D01*
X190627501Y-131883001D01*
X190627501Y-131688401D01*
X190627500Y-131688396D01*
X191651700Y-131688396D01*
X191651700Y-131883005D01*
X191689662Y-132073853D01*
X191689664Y-132073861D01*
X191764132Y-132253644D01*
X191764137Y-132253653D01*
X191872247Y-132415450D01*
X191872250Y-132415454D01*
X192009846Y-132553050D01*
X192009850Y-132553053D01*
X192171647Y-132661163D01*
X192171653Y-132661166D01*
X192171654Y-132661167D01*
X192351440Y-132735637D01*
X192542295Y-132773600D01*
X192542299Y-132773601D01*
X192542300Y-132773601D01*
X192736901Y-132773601D01*
X192736902Y-132773600D01*
X192927760Y-132735637D01*
X193107546Y-132661167D01*
X193269350Y-132553053D01*
X193406952Y-132415451D01*
X193515066Y-132253647D01*
X193589536Y-132073861D01*
X193627500Y-131883001D01*
X193627500Y-131688401D01*
X193589536Y-131497541D01*
X193515066Y-131317755D01*
X193515065Y-131317754D01*
X193515062Y-131317748D01*
X193406952Y-131155951D01*
X193406949Y-131155947D01*
X193269353Y-131018351D01*
X193269349Y-131018348D01*
X193107552Y-130910238D01*
X193107543Y-130910233D01*
X192927760Y-130835765D01*
X192927752Y-130835763D01*
X192736904Y-130797801D01*
X192736900Y-130797801D01*
X192542300Y-130797801D01*
X192542295Y-130797801D01*
X192351447Y-130835763D01*
X192351439Y-130835765D01*
X192171656Y-130910233D01*
X192171647Y-130910238D01*
X192009850Y-131018348D01*
X192009846Y-131018351D01*
X191872250Y-131155947D01*
X191872247Y-131155951D01*
X191764137Y-131317748D01*
X191764132Y-131317757D01*
X191689664Y-131497540D01*
X191689662Y-131497548D01*
X191651700Y-131688396D01*
X190627500Y-131688396D01*
X190589537Y-131497541D01*
X190515067Y-131317755D01*
X190515066Y-131317754D01*
X190515063Y-131317748D01*
X190406953Y-131155951D01*
X190406950Y-131155947D01*
X190269354Y-131018351D01*
X190269350Y-131018348D01*
X190107553Y-130910238D01*
X190107544Y-130910233D01*
X189927761Y-130835765D01*
X189927753Y-130835763D01*
X189736905Y-130797801D01*
X189736901Y-130797801D01*
X189542301Y-130797801D01*
X189542296Y-130797801D01*
X189351448Y-130835763D01*
X189351440Y-130835765D01*
X189171657Y-130910233D01*
X189171648Y-130910238D01*
X189009851Y-131018348D01*
X189009847Y-131018351D01*
X188872251Y-131155947D01*
X188872248Y-131155951D01*
X188764138Y-131317748D01*
X188764133Y-131317757D01*
X188689665Y-131497540D01*
X188689663Y-131497548D01*
X188651701Y-131688396D01*
X181500500Y-131688396D01*
X181500500Y-129120943D01*
X203999500Y-129120943D01*
X203999500Y-129279057D01*
X204015026Y-129336999D01*
X204040423Y-129431783D01*
X204040426Y-129431790D01*
X204119475Y-129568709D01*
X204119479Y-129568714D01*
X204119480Y-129568716D01*
X204231284Y-129680520D01*
X204231286Y-129680521D01*
X204231290Y-129680524D01*
X204274923Y-129705715D01*
X204368216Y-129759577D01*
X204520943Y-129800500D01*
X204520945Y-129800500D01*
X204679055Y-129800500D01*
X204679057Y-129800500D01*
X204831784Y-129759577D01*
X204968716Y-129680520D01*
X205080520Y-129568716D01*
X205159577Y-129431784D01*
X205200500Y-129279057D01*
X205200500Y-129120943D01*
X205159577Y-128968216D01*
X205159573Y-128968209D01*
X205080524Y-128831290D01*
X205080518Y-128831282D01*
X204968717Y-128719481D01*
X204968709Y-128719475D01*
X204831790Y-128640426D01*
X204831786Y-128640424D01*
X204831784Y-128640423D01*
X204679057Y-128599500D01*
X204520943Y-128599500D01*
X204368216Y-128640423D01*
X204368209Y-128640426D01*
X204231290Y-128719475D01*
X204231282Y-128719481D01*
X204119481Y-128831282D01*
X204119475Y-128831290D01*
X204040426Y-128968209D01*
X204040423Y-128968216D01*
X203999500Y-129120943D01*
X181500500Y-129120943D01*
X181500500Y-125848745D01*
X181492235Y-125780680D01*
X181464037Y-125548449D01*
X181391643Y-125254734D01*
X181284373Y-124971887D01*
X181143793Y-124704032D01*
X181096838Y-124636006D01*
X181021950Y-124527512D01*
X181000067Y-124461158D01*
X181000000Y-124457072D01*
X181000000Y-122720943D01*
X203999500Y-122720943D01*
X203999500Y-122879056D01*
X204040423Y-123031783D01*
X204040426Y-123031790D01*
X204119475Y-123168709D01*
X204119479Y-123168714D01*
X204119480Y-123168716D01*
X204231284Y-123280520D01*
X204231286Y-123280521D01*
X204231290Y-123280524D01*
X204368209Y-123359573D01*
X204368216Y-123359577D01*
X204520943Y-123400500D01*
X204520945Y-123400500D01*
X204679055Y-123400500D01*
X204679057Y-123400500D01*
X204831784Y-123359577D01*
X204968716Y-123280520D01*
X205080520Y-123168716D01*
X205159577Y-123031784D01*
X205200500Y-122879057D01*
X205200500Y-122720943D01*
X205159577Y-122568216D01*
X205154589Y-122559577D01*
X205080524Y-122431290D01*
X205080518Y-122431282D01*
X204968717Y-122319481D01*
X204968709Y-122319475D01*
X204831790Y-122240426D01*
X204831786Y-122240424D01*
X204831784Y-122240423D01*
X204679057Y-122199500D01*
X204520943Y-122199500D01*
X204368216Y-122240423D01*
X204368209Y-122240426D01*
X204231290Y-122319475D01*
X204231282Y-122319481D01*
X204119481Y-122431282D01*
X204119475Y-122431290D01*
X204040426Y-122568209D01*
X204040423Y-122568216D01*
X203999500Y-122720943D01*
X181000000Y-122720943D01*
X181000000Y-111320943D01*
X201399500Y-111320943D01*
X201399500Y-111479057D01*
X201440289Y-111631282D01*
X201440423Y-111631783D01*
X201440426Y-111631790D01*
X201519475Y-111768709D01*
X201519479Y-111768714D01*
X201519480Y-111768716D01*
X201631284Y-111880520D01*
X201631286Y-111880521D01*
X201631290Y-111880524D01*
X201739864Y-111943208D01*
X201768216Y-111959577D01*
X201920943Y-112000500D01*
X201920945Y-112000500D01*
X202079055Y-112000500D01*
X202079057Y-112000500D01*
X202231784Y-111959577D01*
X202368716Y-111880520D01*
X202480520Y-111768716D01*
X202480522Y-111768711D01*
X202481142Y-111768092D01*
X202542465Y-111734607D01*
X202612157Y-111739591D01*
X202668091Y-111781462D01*
X202676211Y-111793773D01*
X202719477Y-111868712D01*
X202719479Y-111868715D01*
X202719480Y-111868716D01*
X202831284Y-111980520D01*
X202831286Y-111980521D01*
X202831290Y-111980524D01*
X202881285Y-112009388D01*
X202968216Y-112059577D01*
X203120943Y-112100500D01*
X203120945Y-112100500D01*
X203279055Y-112100500D01*
X203279057Y-112100500D01*
X203431784Y-112059577D01*
X203568716Y-111980520D01*
X203680520Y-111868716D01*
X203759577Y-111731784D01*
X203800500Y-111579057D01*
X203800500Y-111420943D01*
X203759577Y-111268216D01*
X203701843Y-111168216D01*
X203680524Y-111131290D01*
X203680518Y-111131282D01*
X203568717Y-111019481D01*
X203568709Y-111019475D01*
X203431790Y-110940426D01*
X203431786Y-110940424D01*
X203431784Y-110940423D01*
X203279057Y-110899500D01*
X203120943Y-110899500D01*
X202968216Y-110940423D01*
X202968209Y-110940426D01*
X202831290Y-111019475D01*
X202831286Y-111019478D01*
X202718856Y-111131908D01*
X202657533Y-111165392D01*
X202587841Y-111160408D01*
X202531908Y-111118536D01*
X202523788Y-111106226D01*
X202480522Y-111031287D01*
X202480518Y-111031282D01*
X202368717Y-110919481D01*
X202368709Y-110919475D01*
X202231790Y-110840426D01*
X202231786Y-110840424D01*
X202231784Y-110840423D01*
X202079057Y-110799500D01*
X201920943Y-110799500D01*
X201768216Y-110840423D01*
X201768209Y-110840426D01*
X201631290Y-110919475D01*
X201631282Y-110919481D01*
X201519481Y-111031282D01*
X201519475Y-111031290D01*
X201440426Y-111168209D01*
X201440423Y-111168216D01*
X201399500Y-111320943D01*
X181000000Y-111320943D01*
X181000000Y-110320943D01*
X213899500Y-110320943D01*
X213899500Y-110479056D01*
X213940423Y-110631783D01*
X213940426Y-110631790D01*
X214019475Y-110768709D01*
X214019479Y-110768714D01*
X214019480Y-110768716D01*
X214131284Y-110880520D01*
X214131286Y-110880521D01*
X214131290Y-110880524D01*
X214198765Y-110919480D01*
X214268216Y-110959577D01*
X214420943Y-111000500D01*
X214420945Y-111000500D01*
X214579055Y-111000500D01*
X214579057Y-111000500D01*
X214731784Y-110959577D01*
X214868716Y-110880520D01*
X214980520Y-110768716D01*
X215059577Y-110631784D01*
X215100500Y-110479057D01*
X215100500Y-110320943D01*
X215059577Y-110168216D01*
X215059573Y-110168209D01*
X214980524Y-110031290D01*
X214980518Y-110031282D01*
X214868717Y-109919481D01*
X214868709Y-109919475D01*
X214731790Y-109840426D01*
X214731786Y-109840424D01*
X214731784Y-109840423D01*
X214579057Y-109799500D01*
X214420943Y-109799500D01*
X214268216Y-109840423D01*
X214268209Y-109840426D01*
X214131290Y-109919475D01*
X214131282Y-109919481D01*
X214019481Y-110031282D01*
X214019475Y-110031290D01*
X213940426Y-110168209D01*
X213940423Y-110168216D01*
X213899500Y-110320943D01*
X181000000Y-110320943D01*
X181000000Y-108720943D01*
X201099500Y-108720943D01*
X201099500Y-108879057D01*
X201126295Y-108979055D01*
X201140423Y-109031783D01*
X201140426Y-109031790D01*
X201219475Y-109168709D01*
X201219479Y-109168714D01*
X201219480Y-109168716D01*
X201331284Y-109280520D01*
X201331286Y-109280521D01*
X201331290Y-109280524D01*
X201468209Y-109359573D01*
X201468216Y-109359577D01*
X201620943Y-109400500D01*
X201620945Y-109400500D01*
X201779055Y-109400500D01*
X201779057Y-109400500D01*
X201931784Y-109359577D01*
X202068716Y-109280520D01*
X202180520Y-109168716D01*
X202259577Y-109031784D01*
X202300500Y-108879057D01*
X202300500Y-108820943D01*
X203399500Y-108820943D01*
X203399500Y-108979056D01*
X203440423Y-109131783D01*
X203440426Y-109131790D01*
X203519475Y-109268709D01*
X203519479Y-109268714D01*
X203519480Y-109268716D01*
X203631284Y-109380520D01*
X203631286Y-109380521D01*
X203631290Y-109380524D01*
X203768209Y-109459573D01*
X203768216Y-109459577D01*
X203920943Y-109500500D01*
X203920945Y-109500500D01*
X204079055Y-109500500D01*
X204079057Y-109500500D01*
X204231784Y-109459577D01*
X204368716Y-109380520D01*
X204480520Y-109268716D01*
X204559577Y-109131784D01*
X204600500Y-108979057D01*
X204600500Y-108820943D01*
X204559577Y-108668216D01*
X204501843Y-108568216D01*
X204480524Y-108531290D01*
X204480518Y-108531282D01*
X204368717Y-108419481D01*
X204368709Y-108419475D01*
X204231790Y-108340426D01*
X204231786Y-108340424D01*
X204231784Y-108340423D01*
X204079057Y-108299500D01*
X203920943Y-108299500D01*
X203768216Y-108340423D01*
X203768209Y-108340426D01*
X203631290Y-108419475D01*
X203631282Y-108419481D01*
X203519481Y-108531282D01*
X203519475Y-108531290D01*
X203440426Y-108668209D01*
X203440423Y-108668216D01*
X203399500Y-108820943D01*
X202300500Y-108820943D01*
X202300500Y-108720943D01*
X202259577Y-108568216D01*
X202238258Y-108531290D01*
X202180524Y-108431290D01*
X202180518Y-108431282D01*
X202068717Y-108319481D01*
X202068709Y-108319475D01*
X201931790Y-108240426D01*
X201931786Y-108240424D01*
X201931784Y-108240423D01*
X201779057Y-108199500D01*
X201620943Y-108199500D01*
X201468216Y-108240423D01*
X201468209Y-108240426D01*
X201331290Y-108319475D01*
X201331282Y-108319481D01*
X201219481Y-108431282D01*
X201219475Y-108431290D01*
X201140426Y-108568209D01*
X201140423Y-108568216D01*
X201099500Y-108720943D01*
X181000000Y-108720943D01*
X181000000Y-107620943D01*
X183799500Y-107620943D01*
X183799500Y-107779056D01*
X183840423Y-107931783D01*
X183840426Y-107931790D01*
X183919475Y-108068709D01*
X183919479Y-108068714D01*
X183919480Y-108068716D01*
X184031284Y-108180520D01*
X184031286Y-108180521D01*
X184031290Y-108180524D01*
X184135040Y-108240423D01*
X184168216Y-108259577D01*
X184320943Y-108300500D01*
X184320945Y-108300500D01*
X184479055Y-108300500D01*
X184479057Y-108300500D01*
X184631784Y-108259577D01*
X184768716Y-108180520D01*
X184880520Y-108068716D01*
X184959577Y-107931784D01*
X185000500Y-107779057D01*
X185000500Y-107620943D01*
X184959577Y-107468216D01*
X184959573Y-107468209D01*
X184880524Y-107331290D01*
X184880518Y-107331282D01*
X184768717Y-107219481D01*
X184768709Y-107219475D01*
X184631790Y-107140426D01*
X184631786Y-107140424D01*
X184631784Y-107140423D01*
X184479057Y-107099500D01*
X184320943Y-107099500D01*
X184168216Y-107140423D01*
X184168209Y-107140426D01*
X184031290Y-107219475D01*
X184031282Y-107219481D01*
X183919481Y-107331282D01*
X183919475Y-107331290D01*
X183840426Y-107468209D01*
X183840423Y-107468216D01*
X183799500Y-107620943D01*
X181000000Y-107620943D01*
X181000000Y-106420943D01*
X200599500Y-106420943D01*
X200599500Y-106579057D01*
X200619381Y-106653252D01*
X200640423Y-106731783D01*
X200640426Y-106731790D01*
X200719475Y-106868709D01*
X200719479Y-106868714D01*
X200719480Y-106868716D01*
X200831284Y-106980520D01*
X200831286Y-106980521D01*
X200831290Y-106980524D01*
X200968209Y-107059573D01*
X200968216Y-107059577D01*
X201120943Y-107100500D01*
X201120945Y-107100500D01*
X201279055Y-107100500D01*
X201279057Y-107100500D01*
X201431784Y-107059577D01*
X201568716Y-106980520D01*
X201680520Y-106868716D01*
X201759577Y-106731784D01*
X201800500Y-106579057D01*
X201800500Y-106420943D01*
X201759577Y-106268216D01*
X201702132Y-106168717D01*
X201680524Y-106131290D01*
X201680518Y-106131282D01*
X201568717Y-106019481D01*
X201568709Y-106019475D01*
X201431790Y-105940426D01*
X201431786Y-105940424D01*
X201431784Y-105940423D01*
X201279057Y-105899500D01*
X201120943Y-105899500D01*
X200968216Y-105940423D01*
X200968209Y-105940426D01*
X200831290Y-106019475D01*
X200831282Y-106019481D01*
X200719481Y-106131282D01*
X200719475Y-106131290D01*
X200640426Y-106268209D01*
X200640423Y-106268216D01*
X200599500Y-106420943D01*
X181000000Y-106420943D01*
X181000000Y-104883443D01*
X195599500Y-104883443D01*
X195599500Y-105041557D01*
X195633437Y-105168209D01*
X195640423Y-105194283D01*
X195640426Y-105194290D01*
X195719475Y-105331209D01*
X195719479Y-105331214D01*
X195719480Y-105331216D01*
X195831284Y-105443020D01*
X195831286Y-105443021D01*
X195831290Y-105443024D01*
X195893702Y-105479057D01*
X195968216Y-105522077D01*
X196120943Y-105563000D01*
X196120945Y-105563000D01*
X196279055Y-105563000D01*
X196279057Y-105563000D01*
X196431784Y-105522077D01*
X196568716Y-105443020D01*
X196680520Y-105331216D01*
X196686451Y-105320943D01*
X204299500Y-105320943D01*
X204299500Y-105479057D01*
X204321993Y-105563000D01*
X204340423Y-105631783D01*
X204340426Y-105631790D01*
X204419475Y-105768709D01*
X204419479Y-105768714D01*
X204419480Y-105768716D01*
X204531284Y-105880520D01*
X204531286Y-105880521D01*
X204531290Y-105880524D01*
X204635040Y-105940423D01*
X204668216Y-105959577D01*
X204820943Y-106000500D01*
X204820945Y-106000500D01*
X204979055Y-106000500D01*
X204979057Y-106000500D01*
X205131784Y-105959577D01*
X205268716Y-105880520D01*
X205380520Y-105768716D01*
X205459577Y-105631784D01*
X205500500Y-105479057D01*
X205500500Y-105320943D01*
X205459577Y-105168216D01*
X205454587Y-105159573D01*
X205380524Y-105031290D01*
X205380518Y-105031282D01*
X205268717Y-104919481D01*
X205268709Y-104919475D01*
X205131790Y-104840426D01*
X205131786Y-104840424D01*
X205131784Y-104840423D01*
X204979057Y-104799500D01*
X204820943Y-104799500D01*
X204668216Y-104840423D01*
X204668209Y-104840426D01*
X204531290Y-104919475D01*
X204531282Y-104919481D01*
X204419481Y-105031282D01*
X204419475Y-105031290D01*
X204340426Y-105168209D01*
X204340423Y-105168216D01*
X204299500Y-105320943D01*
X196686451Y-105320943D01*
X196759577Y-105194284D01*
X196800500Y-105041557D01*
X196800500Y-104883443D01*
X196759577Y-104730716D01*
X196729752Y-104679057D01*
X196680524Y-104593790D01*
X196680518Y-104593782D01*
X196568717Y-104481981D01*
X196568709Y-104481975D01*
X196431790Y-104402926D01*
X196431786Y-104402924D01*
X196431784Y-104402923D01*
X196279057Y-104362000D01*
X196120943Y-104362000D01*
X195968216Y-104402923D01*
X195968209Y-104402926D01*
X195831290Y-104481975D01*
X195831282Y-104481981D01*
X195719481Y-104593782D01*
X195719475Y-104593790D01*
X195640426Y-104730709D01*
X195640423Y-104730716D01*
X195599500Y-104883443D01*
X181000000Y-104883443D01*
X181000000Y-103520943D01*
X200599500Y-103520943D01*
X200599500Y-103679057D01*
X200610973Y-103721873D01*
X200640423Y-103831783D01*
X200640426Y-103831790D01*
X200719475Y-103968709D01*
X200719479Y-103968714D01*
X200719480Y-103968716D01*
X200831284Y-104080520D01*
X200831286Y-104080521D01*
X200831290Y-104080524D01*
X200898765Y-104119480D01*
X200968216Y-104159577D01*
X201120943Y-104200500D01*
X201120945Y-104200500D01*
X201279055Y-104200500D01*
X201279057Y-104200500D01*
X201431784Y-104159577D01*
X201568716Y-104080520D01*
X201680520Y-103968716D01*
X201759577Y-103831784D01*
X201800500Y-103679057D01*
X201800500Y-103520943D01*
X201759577Y-103368216D01*
X201740686Y-103335495D01*
X201680524Y-103231290D01*
X201680518Y-103231282D01*
X201568717Y-103119481D01*
X201568709Y-103119475D01*
X201431790Y-103040426D01*
X201431786Y-103040424D01*
X201431784Y-103040423D01*
X201279057Y-102999500D01*
X201120943Y-102999500D01*
X200968216Y-103040423D01*
X200968209Y-103040426D01*
X200831290Y-103119475D01*
X200831282Y-103119481D01*
X200719481Y-103231282D01*
X200719475Y-103231290D01*
X200640426Y-103368209D01*
X200640423Y-103368216D01*
X200599500Y-103520943D01*
X181000000Y-103520943D01*
X181000000Y-102220943D01*
X206099500Y-102220943D01*
X206099500Y-102379057D01*
X206138233Y-102523608D01*
X206140423Y-102531783D01*
X206140426Y-102531790D01*
X206219475Y-102668709D01*
X206219479Y-102668714D01*
X206219480Y-102668716D01*
X206331284Y-102780520D01*
X206331286Y-102780521D01*
X206331290Y-102780524D01*
X206359506Y-102796814D01*
X206468216Y-102859577D01*
X206620943Y-102900500D01*
X206620945Y-102900500D01*
X206779055Y-102900500D01*
X206779057Y-102900500D01*
X206931784Y-102859577D01*
X207068716Y-102780520D01*
X207180520Y-102668716D01*
X207259577Y-102531784D01*
X207300500Y-102379057D01*
X207300500Y-102220943D01*
X207259577Y-102068216D01*
X207259573Y-102068209D01*
X207180524Y-101931290D01*
X207180518Y-101931282D01*
X207068717Y-101819481D01*
X207068709Y-101819475D01*
X206931790Y-101740426D01*
X206931786Y-101740424D01*
X206931784Y-101740423D01*
X206779057Y-101699500D01*
X206620943Y-101699500D01*
X206468216Y-101740423D01*
X206468209Y-101740426D01*
X206331290Y-101819475D01*
X206331282Y-101819481D01*
X206219481Y-101931282D01*
X206219475Y-101931290D01*
X206140426Y-102068209D01*
X206140423Y-102068216D01*
X206099500Y-102220943D01*
X181000000Y-102220943D01*
X181000000Y-101120943D01*
X191685152Y-101120943D01*
X191685152Y-101279057D01*
X191706771Y-101359738D01*
X191726075Y-101431783D01*
X191726078Y-101431790D01*
X191805127Y-101568709D01*
X191805131Y-101568714D01*
X191805132Y-101568716D01*
X191916936Y-101680520D01*
X191916938Y-101680521D01*
X191916942Y-101680524D01*
X192053861Y-101759573D01*
X192053868Y-101759577D01*
X192206595Y-101800500D01*
X192206597Y-101800500D01*
X192364707Y-101800500D01*
X192364709Y-101800500D01*
X192517436Y-101759577D01*
X192654368Y-101680520D01*
X192766172Y-101568716D01*
X192845229Y-101431784D01*
X192874929Y-101320943D01*
X195399500Y-101320943D01*
X195399500Y-101479057D01*
X195429257Y-101590109D01*
X195440423Y-101631783D01*
X195440426Y-101631790D01*
X195519475Y-101768709D01*
X195519479Y-101768714D01*
X195519480Y-101768716D01*
X195631284Y-101880520D01*
X195631286Y-101880521D01*
X195631290Y-101880524D01*
X195719221Y-101931290D01*
X195768216Y-101959577D01*
X195920943Y-102000500D01*
X195920945Y-102000500D01*
X196079055Y-102000500D01*
X196079057Y-102000500D01*
X196231784Y-101959577D01*
X196368716Y-101880520D01*
X196480520Y-101768716D01*
X196559577Y-101631784D01*
X196589277Y-101520943D01*
X208099500Y-101520943D01*
X208099500Y-101679057D01*
X208137400Y-101820500D01*
X208140423Y-101831783D01*
X208140426Y-101831790D01*
X208219475Y-101968709D01*
X208219479Y-101968714D01*
X208219480Y-101968716D01*
X208331284Y-102080520D01*
X208331286Y-102080521D01*
X208331290Y-102080524D01*
X208441426Y-102144110D01*
X208468216Y-102159577D01*
X208620943Y-102200500D01*
X208620945Y-102200500D01*
X208779055Y-102200500D01*
X208779057Y-102200500D01*
X208931784Y-102159577D01*
X209068716Y-102080520D01*
X209180520Y-101968716D01*
X209259577Y-101831784D01*
X209300500Y-101679057D01*
X209300500Y-101520943D01*
X209259577Y-101368216D01*
X209254682Y-101359738D01*
X209180524Y-101231290D01*
X209180518Y-101231282D01*
X209068717Y-101119481D01*
X209068709Y-101119475D01*
X208931790Y-101040426D01*
X208931786Y-101040424D01*
X208931784Y-101040423D01*
X208779057Y-100999500D01*
X208620943Y-100999500D01*
X208468216Y-101040423D01*
X208468209Y-101040426D01*
X208331290Y-101119475D01*
X208331282Y-101119481D01*
X208219481Y-101231282D01*
X208219475Y-101231290D01*
X208140426Y-101368209D01*
X208140423Y-101368216D01*
X208099500Y-101520943D01*
X196589277Y-101520943D01*
X196600500Y-101479057D01*
X196600500Y-101320943D01*
X196559577Y-101168216D01*
X196559573Y-101168209D01*
X196480524Y-101031290D01*
X196480518Y-101031282D01*
X196368717Y-100919481D01*
X196368709Y-100919475D01*
X196231790Y-100840426D01*
X196231786Y-100840424D01*
X196231784Y-100840423D01*
X196079057Y-100799500D01*
X195920943Y-100799500D01*
X195768216Y-100840423D01*
X195768209Y-100840426D01*
X195631290Y-100919475D01*
X195631282Y-100919481D01*
X195519481Y-101031282D01*
X195519475Y-101031290D01*
X195440426Y-101168209D01*
X195440423Y-101168216D01*
X195399500Y-101320943D01*
X192874929Y-101320943D01*
X192886152Y-101279057D01*
X192886152Y-101120943D01*
X192845229Y-100968216D01*
X192787784Y-100868717D01*
X192766176Y-100831290D01*
X192766170Y-100831282D01*
X192672471Y-100737583D01*
X192638986Y-100676260D01*
X192636152Y-100649902D01*
X192636152Y-100220943D01*
X199799500Y-100220943D01*
X199799500Y-100379057D01*
X199810724Y-100420943D01*
X199840423Y-100531783D01*
X199840426Y-100531790D01*
X199919475Y-100668709D01*
X199919479Y-100668714D01*
X199919480Y-100668716D01*
X200031284Y-100780520D01*
X200031286Y-100780521D01*
X200031290Y-100780524D01*
X200119221Y-100831290D01*
X200168216Y-100859577D01*
X200320943Y-100900500D01*
X200320945Y-100900500D01*
X200479055Y-100900500D01*
X200479057Y-100900500D01*
X200631784Y-100859577D01*
X200768716Y-100780520D01*
X200880520Y-100668716D01*
X200959577Y-100531784D01*
X201000500Y-100379057D01*
X201000500Y-100220943D01*
X200959577Y-100068216D01*
X200931437Y-100019475D01*
X200880524Y-99931290D01*
X200880518Y-99931282D01*
X200768717Y-99819481D01*
X200768709Y-99819475D01*
X200631790Y-99740426D01*
X200631786Y-99740424D01*
X200631784Y-99740423D01*
X200479057Y-99699500D01*
X200320943Y-99699500D01*
X200168216Y-99740423D01*
X200168209Y-99740426D01*
X200031290Y-99819475D01*
X200031282Y-99819481D01*
X199919481Y-99931282D01*
X199919475Y-99931290D01*
X199840426Y-100068209D01*
X199840423Y-100068216D01*
X199799500Y-100220943D01*
X192636152Y-100220943D01*
X192636152Y-99578330D01*
X205572106Y-99578330D01*
X205572106Y-99736444D01*
X205607549Y-99868717D01*
X205613029Y-99889170D01*
X205613032Y-99889177D01*
X205692081Y-100026096D01*
X205692085Y-100026101D01*
X205692086Y-100026103D01*
X205803890Y-100137907D01*
X205803892Y-100137908D01*
X205803896Y-100137911D01*
X205934883Y-100213535D01*
X205940822Y-100216964D01*
X206093549Y-100257887D01*
X206093551Y-100257887D01*
X206251661Y-100257887D01*
X206251663Y-100257887D01*
X206404390Y-100216964D01*
X206541322Y-100137907D01*
X206653126Y-100026103D01*
X206732183Y-99889171D01*
X206773106Y-99736444D01*
X206773106Y-99578330D01*
X206748460Y-99486350D01*
X206750123Y-99416504D01*
X206789285Y-99358641D01*
X206836138Y-99334487D01*
X206929105Y-99309577D01*
X207066037Y-99230520D01*
X207177841Y-99118716D01*
X207256898Y-98981784D01*
X207297821Y-98829057D01*
X207297821Y-98670943D01*
X207256898Y-98518216D01*
X207235137Y-98480524D01*
X207177845Y-98381290D01*
X207177839Y-98381282D01*
X207066038Y-98269481D01*
X207066030Y-98269475D01*
X206929111Y-98190426D01*
X206929107Y-98190424D01*
X206929105Y-98190423D01*
X206776378Y-98149500D01*
X206618264Y-98149500D01*
X206465537Y-98190423D01*
X206465530Y-98190426D01*
X206328611Y-98269475D01*
X206328603Y-98269481D01*
X206216802Y-98381282D01*
X206216796Y-98381290D01*
X206137747Y-98518209D01*
X206137744Y-98518216D01*
X206096821Y-98670943D01*
X206096821Y-98829056D01*
X206121466Y-98921033D01*
X206119803Y-98990883D01*
X206080640Y-99048745D01*
X206033786Y-99072900D01*
X205999416Y-99082109D01*
X205940820Y-99097810D01*
X205940815Y-99097813D01*
X205803896Y-99176862D01*
X205803888Y-99176868D01*
X205692087Y-99288669D01*
X205692081Y-99288677D01*
X205613032Y-99425596D01*
X205613029Y-99425603D01*
X205572106Y-99578330D01*
X192636152Y-99578330D01*
X192636152Y-98110892D01*
X192655837Y-98043853D01*
X192672471Y-98023211D01*
X195508863Y-95186819D01*
X195570186Y-95153334D01*
X195596544Y-95150500D01*
X196669530Y-95150500D01*
X196736569Y-95170185D01*
X196782324Y-95222989D01*
X196792268Y-95292147D01*
X196763243Y-95355703D01*
X196757211Y-95362181D01*
X196736233Y-95383158D01*
X196736227Y-95383166D01*
X196657178Y-95520085D01*
X196657175Y-95520092D01*
X196616252Y-95672819D01*
X196616252Y-95830933D01*
X196646152Y-95942519D01*
X196657175Y-95983659D01*
X196657178Y-95983666D01*
X196736227Y-96120585D01*
X196736231Y-96120590D01*
X196736232Y-96120592D01*
X196848036Y-96232396D01*
X196848038Y-96232397D01*
X196848042Y-96232400D01*
X196984590Y-96311235D01*
X196984968Y-96311453D01*
X197137695Y-96352376D01*
X197137697Y-96352376D01*
X197295807Y-96352376D01*
X197295809Y-96352376D01*
X197448536Y-96311453D01*
X197585468Y-96232396D01*
X197697272Y-96120592D01*
X197776329Y-95983660D01*
X197817252Y-95830933D01*
X197817252Y-95672819D01*
X197776329Y-95520092D01*
X197709973Y-95405159D01*
X197697276Y-95383166D01*
X197697270Y-95383158D01*
X197676293Y-95362181D01*
X197642808Y-95300858D01*
X197647792Y-95231166D01*
X197689664Y-95175233D01*
X197755128Y-95150816D01*
X197763974Y-95150500D01*
X201277893Y-95150500D01*
X201344932Y-95170185D01*
X201385280Y-95212501D01*
X201439881Y-95307074D01*
X201439885Y-95307079D01*
X201439886Y-95307081D01*
X201551690Y-95418885D01*
X201662117Y-95482639D01*
X201710332Y-95533205D01*
X201723556Y-95601812D01*
X201707505Y-95652025D01*
X201640423Y-95768215D01*
X201640423Y-95768216D01*
X201599500Y-95920943D01*
X201599500Y-96079057D01*
X201640289Y-96231282D01*
X201640423Y-96231783D01*
X201640426Y-96231790D01*
X201719475Y-96368709D01*
X201719479Y-96368714D01*
X201719480Y-96368716D01*
X201831284Y-96480520D01*
X201831285Y-96480521D01*
X201831287Y-96480522D01*
X201906226Y-96523788D01*
X201954442Y-96574355D01*
X201967665Y-96642962D01*
X201941697Y-96707827D01*
X201931908Y-96718856D01*
X201819478Y-96831286D01*
X201819475Y-96831290D01*
X201740426Y-96968209D01*
X201740423Y-96968216D01*
X201699500Y-97120943D01*
X201699500Y-97279057D01*
X201737127Y-97419481D01*
X201740423Y-97431783D01*
X201740426Y-97431790D01*
X201819475Y-97568709D01*
X201819479Y-97568714D01*
X201819480Y-97568716D01*
X201931284Y-97680520D01*
X201931286Y-97680521D01*
X201931290Y-97680524D01*
X202016664Y-97729814D01*
X202068216Y-97759577D01*
X202220943Y-97800500D01*
X202220945Y-97800500D01*
X202275500Y-97800500D01*
X202342539Y-97820185D01*
X202388294Y-97872989D01*
X202399500Y-97924500D01*
X202399500Y-98079057D01*
X202429341Y-98190423D01*
X202440423Y-98231783D01*
X202440426Y-98231790D01*
X202519475Y-98368709D01*
X202519479Y-98368714D01*
X202519480Y-98368716D01*
X202631284Y-98480520D01*
X202631286Y-98480521D01*
X202631290Y-98480524D01*
X202768209Y-98559573D01*
X202768216Y-98559577D01*
X202920943Y-98600500D01*
X202920945Y-98600500D01*
X203079055Y-98600500D01*
X203079057Y-98600500D01*
X203231784Y-98559577D01*
X203368716Y-98480520D01*
X203480520Y-98368716D01*
X203559577Y-98231784D01*
X203600500Y-98079057D01*
X203600500Y-97920943D01*
X203559577Y-97768216D01*
X203551842Y-97754818D01*
X203480524Y-97631290D01*
X203480518Y-97631282D01*
X203368717Y-97519481D01*
X203368709Y-97519475D01*
X203231790Y-97440426D01*
X203231786Y-97440424D01*
X203231784Y-97440423D01*
X203079057Y-97399500D01*
X203024500Y-97399500D01*
X202957461Y-97379815D01*
X202911706Y-97327011D01*
X202900500Y-97275500D01*
X202900500Y-97120945D01*
X202900500Y-97120943D01*
X202859577Y-96968216D01*
X202859573Y-96968209D01*
X202780524Y-96831290D01*
X202780518Y-96831282D01*
X202668717Y-96719481D01*
X202668712Y-96719477D01*
X202593773Y-96676211D01*
X202545557Y-96625644D01*
X202532335Y-96557037D01*
X202558303Y-96492172D01*
X202568092Y-96481142D01*
X202568711Y-96480522D01*
X202568716Y-96480520D01*
X202680520Y-96368716D01*
X202759577Y-96231784D01*
X202800500Y-96079057D01*
X202800500Y-95920943D01*
X202759577Y-95768216D01*
X202712234Y-95686214D01*
X202680524Y-95631290D01*
X202680518Y-95631282D01*
X202568717Y-95519481D01*
X202568716Y-95519480D01*
X202458287Y-95455724D01*
X202410073Y-95405159D01*
X202396849Y-95336552D01*
X202412899Y-95286341D01*
X202479983Y-95170149D01*
X202520906Y-95017422D01*
X202520906Y-94859308D01*
X202479983Y-94706581D01*
X202459885Y-94671770D01*
X202400930Y-94569655D01*
X202400924Y-94569647D01*
X202377937Y-94546660D01*
X202344452Y-94485337D01*
X202349436Y-94415645D01*
X202377933Y-94371302D01*
X202480520Y-94268716D01*
X202559577Y-94131784D01*
X202600500Y-93979057D01*
X202600500Y-93820943D01*
X202999500Y-93820943D01*
X202999500Y-93979057D01*
X203040289Y-94131282D01*
X203040423Y-94131783D01*
X203040426Y-94131790D01*
X203119475Y-94268709D01*
X203119479Y-94268714D01*
X203119480Y-94268716D01*
X203231284Y-94380520D01*
X203231286Y-94380521D01*
X203231290Y-94380524D01*
X203338047Y-94442159D01*
X203368216Y-94459577D01*
X203520943Y-94500500D01*
X203520945Y-94500500D01*
X203679055Y-94500500D01*
X203679057Y-94500500D01*
X203831784Y-94459577D01*
X203968716Y-94380520D01*
X204080520Y-94268716D01*
X204159577Y-94131784D01*
X204200500Y-93979057D01*
X204200500Y-93820943D01*
X204159577Y-93668216D01*
X204102132Y-93568717D01*
X204080524Y-93531290D01*
X204080518Y-93531282D01*
X203968717Y-93419481D01*
X203968709Y-93419475D01*
X203831790Y-93340426D01*
X203831786Y-93340424D01*
X203831784Y-93340423D01*
X203679057Y-93299500D01*
X203520943Y-93299500D01*
X203368216Y-93340423D01*
X203368209Y-93340426D01*
X203231290Y-93419475D01*
X203231282Y-93419481D01*
X203119481Y-93531282D01*
X203119475Y-93531290D01*
X203040426Y-93668209D01*
X203040423Y-93668216D01*
X202999500Y-93820943D01*
X202600500Y-93820943D01*
X202559577Y-93668216D01*
X202502132Y-93568717D01*
X202480524Y-93531290D01*
X202480518Y-93531282D01*
X202368717Y-93419481D01*
X202368709Y-93419475D01*
X202231790Y-93340426D01*
X202231786Y-93340424D01*
X202231784Y-93340423D01*
X202079057Y-93299500D01*
X201920943Y-93299500D01*
X201768216Y-93340423D01*
X201768209Y-93340426D01*
X201631290Y-93419475D01*
X201631282Y-93419481D01*
X201519481Y-93531282D01*
X201519475Y-93531290D01*
X201440426Y-93668209D01*
X201440423Y-93668216D01*
X201399500Y-93820943D01*
X201399500Y-93979057D01*
X201440289Y-94131282D01*
X201440423Y-94131783D01*
X201440423Y-94131784D01*
X201516469Y-94263501D01*
X201532941Y-94331401D01*
X201510088Y-94397428D01*
X201455166Y-94440618D01*
X201409081Y-94449500D01*
X195353856Y-94449500D01*
X195264712Y-94473386D01*
X195264709Y-94473387D01*
X195184791Y-94519527D01*
X195184786Y-94519531D01*
X192005183Y-97699134D01*
X192005179Y-97699139D01*
X191967323Y-97764707D01*
X191967324Y-97764708D01*
X191959038Y-97779060D01*
X191935152Y-97868204D01*
X191935152Y-100649902D01*
X191915467Y-100716941D01*
X191898833Y-100737583D01*
X191805133Y-100831282D01*
X191805127Y-100831290D01*
X191726078Y-100968209D01*
X191726075Y-100968216D01*
X191685152Y-101120943D01*
X181000000Y-101120943D01*
X181000000Y-97820943D01*
X186399500Y-97820943D01*
X186399500Y-97979057D01*
X186426295Y-98079055D01*
X186440423Y-98131783D01*
X186440426Y-98131790D01*
X186519475Y-98268709D01*
X186519479Y-98268714D01*
X186519480Y-98268716D01*
X186631284Y-98380520D01*
X186631286Y-98380521D01*
X186631290Y-98380524D01*
X186768209Y-98459573D01*
X186768216Y-98459577D01*
X186920943Y-98500500D01*
X186920945Y-98500500D01*
X187079055Y-98500500D01*
X187079057Y-98500500D01*
X187231784Y-98459577D01*
X187368716Y-98380520D01*
X187480520Y-98268716D01*
X187559577Y-98131784D01*
X187600500Y-97979057D01*
X187600500Y-97820943D01*
X187559577Y-97668216D01*
X187538258Y-97631290D01*
X187480524Y-97531290D01*
X187480518Y-97531282D01*
X187368717Y-97419481D01*
X187368709Y-97419475D01*
X187231790Y-97340426D01*
X187231786Y-97340424D01*
X187231784Y-97340423D01*
X187079057Y-97299500D01*
X186920943Y-97299500D01*
X186768216Y-97340423D01*
X186768209Y-97340426D01*
X186631290Y-97419475D01*
X186631282Y-97419481D01*
X186519481Y-97531282D01*
X186519475Y-97531290D01*
X186440426Y-97668209D01*
X186440423Y-97668216D01*
X186399500Y-97820943D01*
X181000000Y-97820943D01*
X181000000Y-94320943D01*
X189799500Y-94320943D01*
X189799500Y-94479057D01*
X189833367Y-94605448D01*
X189840423Y-94631783D01*
X189840426Y-94631790D01*
X189919475Y-94768709D01*
X189919479Y-94768714D01*
X189919480Y-94768716D01*
X190031284Y-94880520D01*
X190031286Y-94880521D01*
X190031290Y-94880524D01*
X190138691Y-94942531D01*
X190168216Y-94959577D01*
X190320943Y-95000500D01*
X190320945Y-95000500D01*
X190479055Y-95000500D01*
X190479057Y-95000500D01*
X190631784Y-94959577D01*
X190768716Y-94880520D01*
X190880520Y-94768716D01*
X190959577Y-94631784D01*
X191000500Y-94479057D01*
X191000500Y-94320943D01*
X190959577Y-94168216D01*
X190938258Y-94131290D01*
X190880524Y-94031290D01*
X190880518Y-94031282D01*
X190768717Y-93919481D01*
X190768709Y-93919475D01*
X190631790Y-93840426D01*
X190631786Y-93840424D01*
X190631784Y-93840423D01*
X190479057Y-93799500D01*
X190320943Y-93799500D01*
X190168216Y-93840423D01*
X190168209Y-93840426D01*
X190031290Y-93919475D01*
X190031282Y-93919481D01*
X189919481Y-94031282D01*
X189919475Y-94031290D01*
X189840426Y-94168209D01*
X189840423Y-94168216D01*
X189799500Y-94320943D01*
X181000000Y-94320943D01*
X181000000Y-89720943D01*
X182349500Y-89720943D01*
X182349500Y-89879057D01*
X182387910Y-90022403D01*
X182390423Y-90031783D01*
X182390426Y-90031790D01*
X182469475Y-90168709D01*
X182469479Y-90168714D01*
X182469480Y-90168716D01*
X182581284Y-90280520D01*
X182581286Y-90280521D01*
X182581290Y-90280524D01*
X182718209Y-90359573D01*
X182718216Y-90359577D01*
X182870943Y-90400500D01*
X182870945Y-90400500D01*
X183003456Y-90400500D01*
X183070495Y-90420185D01*
X183091137Y-90436819D01*
X184934788Y-92280470D01*
X185014712Y-92326614D01*
X185103856Y-92350500D01*
X185196144Y-92350500D01*
X193251552Y-92350500D01*
X193318591Y-92370185D01*
X193364346Y-92422989D01*
X193374290Y-92492147D01*
X193345265Y-92555703D01*
X193339233Y-92562181D01*
X193320131Y-92581282D01*
X193320125Y-92581290D01*
X193241076Y-92718209D01*
X193241073Y-92718216D01*
X193200150Y-92870943D01*
X193200150Y-93029057D01*
X193237572Y-93168716D01*
X193241073Y-93181783D01*
X193241076Y-93181790D01*
X193320125Y-93318709D01*
X193320129Y-93318714D01*
X193320130Y-93318716D01*
X193431934Y-93430520D01*
X193431936Y-93430521D01*
X193431940Y-93430524D01*
X193568859Y-93509573D01*
X193568866Y-93509577D01*
X193721593Y-93550500D01*
X193721595Y-93550500D01*
X193879705Y-93550500D01*
X193879707Y-93550500D01*
X194032434Y-93509577D01*
X194169366Y-93430520D01*
X194281170Y-93318716D01*
X194281175Y-93318706D01*
X194281360Y-93318467D01*
X194281578Y-93318307D01*
X194286917Y-93312969D01*
X194287748Y-93313800D01*
X194337784Y-93277259D01*
X194407530Y-93273099D01*
X194441742Y-93286558D01*
X194568216Y-93359577D01*
X194720943Y-93400500D01*
X194720945Y-93400500D01*
X194879055Y-93400500D01*
X194879057Y-93400500D01*
X195031784Y-93359577D01*
X195168716Y-93280520D01*
X195280520Y-93168716D01*
X195308102Y-93120943D01*
X196741729Y-93120943D01*
X196741729Y-93279057D01*
X196782518Y-93431282D01*
X196782652Y-93431783D01*
X196782655Y-93431790D01*
X196861704Y-93568709D01*
X196861708Y-93568714D01*
X196861709Y-93568716D01*
X196973513Y-93680520D01*
X196973515Y-93680521D01*
X196973519Y-93680524D01*
X197110438Y-93759573D01*
X197110445Y-93759577D01*
X197263172Y-93800500D01*
X197263174Y-93800500D01*
X197421284Y-93800500D01*
X197421286Y-93800500D01*
X197574013Y-93759577D01*
X197710945Y-93680520D01*
X197822749Y-93568716D01*
X197901806Y-93431784D01*
X197942729Y-93279057D01*
X197942729Y-93120943D01*
X197901806Y-92968216D01*
X197895062Y-92956535D01*
X197822753Y-92831290D01*
X197822747Y-92831282D01*
X197710946Y-92719481D01*
X197710938Y-92719475D01*
X197574019Y-92640426D01*
X197574015Y-92640424D01*
X197574013Y-92640423D01*
X197421286Y-92599500D01*
X197263172Y-92599500D01*
X197110445Y-92640423D01*
X197110438Y-92640426D01*
X196973519Y-92719475D01*
X196973511Y-92719481D01*
X196861710Y-92831282D01*
X196861704Y-92831290D01*
X196782655Y-92968209D01*
X196782652Y-92968216D01*
X196741729Y-93120943D01*
X195308102Y-93120943D01*
X195359577Y-93031784D01*
X195400500Y-92879057D01*
X195400500Y-92720943D01*
X195359577Y-92568216D01*
X195341266Y-92536500D01*
X195324793Y-92468599D01*
X195347646Y-92402573D01*
X195402567Y-92359382D01*
X195448653Y-92350500D01*
X203282164Y-92350500D01*
X203349203Y-92370185D01*
X203369845Y-92386819D01*
X206607917Y-95624891D01*
X206641402Y-95686214D01*
X206644236Y-95712572D01*
X206644236Y-95789793D01*
X206679378Y-95920943D01*
X206685159Y-95942519D01*
X206685162Y-95942526D01*
X206764211Y-96079445D01*
X206764215Y-96079450D01*
X206764216Y-96079452D01*
X206876020Y-96191256D01*
X206876022Y-96191257D01*
X206876026Y-96191260D01*
X206947277Y-96232396D01*
X207012952Y-96270313D01*
X207165679Y-96311236D01*
X207165681Y-96311236D01*
X207323791Y-96311236D01*
X207323793Y-96311236D01*
X207476520Y-96270313D01*
X207613452Y-96191256D01*
X207725256Y-96079452D01*
X207804313Y-95942520D01*
X207845236Y-95789793D01*
X207845236Y-95631679D01*
X207804313Y-95478952D01*
X207790904Y-95455726D01*
X207725260Y-95342026D01*
X207725254Y-95342018D01*
X207684349Y-95301113D01*
X207650864Y-95239790D01*
X207655848Y-95170098D01*
X207684348Y-95125752D01*
X207730637Y-95079464D01*
X207809694Y-94942532D01*
X207850617Y-94789805D01*
X207850617Y-94631691D01*
X207833006Y-94565965D01*
X207834669Y-94496119D01*
X207873831Y-94438256D01*
X207938060Y-94410752D01*
X208006962Y-94422338D01*
X208040462Y-94446194D01*
X208313181Y-94718913D01*
X208346666Y-94780236D01*
X208349500Y-94806594D01*
X208349500Y-97446476D01*
X208329815Y-97513515D01*
X208277011Y-97559270D01*
X208207853Y-97569214D01*
X208144297Y-97540189D01*
X208137819Y-97534157D01*
X207884140Y-97280478D01*
X207850655Y-97219155D01*
X207847821Y-97192797D01*
X207847821Y-97120945D01*
X207847821Y-97120943D01*
X207806898Y-96968216D01*
X207806894Y-96968209D01*
X207727845Y-96831290D01*
X207727839Y-96831282D01*
X207616038Y-96719481D01*
X207616030Y-96719475D01*
X207479111Y-96640426D01*
X207479107Y-96640424D01*
X207479105Y-96640423D01*
X207326378Y-96599500D01*
X207168264Y-96599500D01*
X207015537Y-96640423D01*
X207015530Y-96640426D01*
X206878611Y-96719475D01*
X206878603Y-96719481D01*
X206766802Y-96831282D01*
X206766796Y-96831290D01*
X206687747Y-96968209D01*
X206687744Y-96968216D01*
X206646821Y-97120943D01*
X206646821Y-97279057D01*
X206684448Y-97419481D01*
X206687744Y-97431783D01*
X206687747Y-97431790D01*
X206766796Y-97568709D01*
X206766800Y-97568714D01*
X206766801Y-97568716D01*
X206878605Y-97680520D01*
X206878607Y-97680521D01*
X206878611Y-97680524D01*
X206963985Y-97729814D01*
X207015537Y-97759577D01*
X207168264Y-97800500D01*
X207207755Y-97800500D01*
X207207759Y-97800501D01*
X207286883Y-97800501D01*
X207286887Y-97800500D01*
X207326378Y-97800500D01*
X207326378Y-97800499D01*
X207334435Y-97799439D01*
X207334638Y-97800987D01*
X207395230Y-97802428D01*
X207445158Y-97832860D01*
X207637372Y-98025074D01*
X207669464Y-98080654D01*
X207670705Y-98085285D01*
X207670707Y-98085290D01*
X207716847Y-98165207D01*
X207716849Y-98165210D01*
X207716850Y-98165211D01*
X210227899Y-100676260D01*
X212713181Y-103161541D01*
X212746666Y-103222864D01*
X212749500Y-103249222D01*
X212749500Y-106653252D01*
X212760200Y-106693186D01*
X212760201Y-106693186D01*
X212773386Y-106742395D01*
X212773387Y-106742396D01*
X212819527Y-106822314D01*
X212819531Y-106822319D01*
X217510770Y-111513558D01*
X217544255Y-111574881D01*
X217539271Y-111644573D01*
X217530477Y-111663237D01*
X217510092Y-111698544D01*
X217469961Y-111848318D01*
X217469169Y-111851274D01*
X217469169Y-112009388D01*
X217493583Y-112100500D01*
X217510092Y-112162114D01*
X217510095Y-112162121D01*
X217589144Y-112299040D01*
X217589148Y-112299045D01*
X217589149Y-112299047D01*
X217700953Y-112410851D01*
X217700955Y-112410852D01*
X217700959Y-112410855D01*
X217821621Y-112480518D01*
X217837885Y-112489908D01*
X217990612Y-112530831D01*
X217990614Y-112530831D01*
X218148724Y-112530831D01*
X218148726Y-112530831D01*
X218301453Y-112489908D01*
X218438385Y-112410851D01*
X218550189Y-112299047D01*
X218560914Y-112280470D01*
X218633310Y-112155077D01*
X218635408Y-112156288D01*
X218671520Y-112111460D01*
X218737810Y-112089383D01*
X218805513Y-112106649D01*
X218829940Y-112125622D01*
X218984788Y-112280470D01*
X219064712Y-112326614D01*
X219153856Y-112350500D01*
X219449902Y-112350500D01*
X219516941Y-112370185D01*
X219537583Y-112386819D01*
X219631284Y-112480520D01*
X219631286Y-112480521D01*
X219631290Y-112480524D01*
X219768209Y-112559573D01*
X219768216Y-112559577D01*
X219920943Y-112600500D01*
X219920945Y-112600500D01*
X220079055Y-112600500D01*
X220079057Y-112600500D01*
X220231784Y-112559577D01*
X220368716Y-112480520D01*
X220480520Y-112368716D01*
X220559577Y-112231784D01*
X220600500Y-112079057D01*
X220600500Y-111920943D01*
X220559577Y-111768216D01*
X220519354Y-111698547D01*
X220480524Y-111631290D01*
X220480518Y-111631282D01*
X220368717Y-111519481D01*
X220368709Y-111519475D01*
X220231790Y-111440426D01*
X220231786Y-111440424D01*
X220231784Y-111440423D01*
X220079057Y-111399500D01*
X219920943Y-111399500D01*
X219768216Y-111440423D01*
X219768209Y-111440426D01*
X219631290Y-111519475D01*
X219631282Y-111519481D01*
X219537583Y-111613181D01*
X219510655Y-111627884D01*
X219484837Y-111644477D01*
X219478636Y-111645368D01*
X219476260Y-111646666D01*
X219449902Y-111649500D01*
X219396544Y-111649500D01*
X219329505Y-111629815D01*
X219308863Y-111613181D01*
X218857863Y-111162181D01*
X218824378Y-111100858D01*
X218829362Y-111031166D01*
X218871234Y-110975233D01*
X218936698Y-110950816D01*
X218945544Y-110950500D01*
X220303456Y-110950500D01*
X220370495Y-110970185D01*
X220391137Y-110986819D01*
X221263181Y-111858863D01*
X221296666Y-111920186D01*
X221299500Y-111946544D01*
X221299500Y-112079057D01*
X221321756Y-112162115D01*
X221340423Y-112231783D01*
X221340426Y-112231790D01*
X221419475Y-112368709D01*
X221419479Y-112368714D01*
X221419480Y-112368716D01*
X221531284Y-112480520D01*
X221531286Y-112480521D01*
X221531290Y-112480524D01*
X221668209Y-112559573D01*
X221668216Y-112559577D01*
X221820943Y-112600500D01*
X221820945Y-112600500D01*
X221979055Y-112600500D01*
X221979057Y-112600500D01*
X222131784Y-112559577D01*
X222268716Y-112480520D01*
X222380520Y-112368716D01*
X222384311Y-112362148D01*
X222434876Y-112313932D01*
X222503483Y-112300707D01*
X222568349Y-112326673D01*
X222608879Y-112383586D01*
X222611474Y-112392050D01*
X222615421Y-112406780D01*
X222615424Y-112406788D01*
X222694474Y-112543708D01*
X222694478Y-112543713D01*
X222694479Y-112543715D01*
X222806283Y-112655519D01*
X222806285Y-112655520D01*
X222806289Y-112655523D01*
X222943208Y-112734572D01*
X222943215Y-112734576D01*
X223095942Y-112775499D01*
X223095944Y-112775499D01*
X223254054Y-112775499D01*
X223254056Y-112775499D01*
X223406783Y-112734576D01*
X223543715Y-112655519D01*
X223655519Y-112543715D01*
X223662958Y-112530830D01*
X223734574Y-112406788D01*
X223734574Y-112406785D01*
X223734576Y-112406783D01*
X223775499Y-112254056D01*
X223775499Y-112095942D01*
X223734576Y-111943215D01*
X223698381Y-111880522D01*
X223655523Y-111806289D01*
X223655517Y-111806281D01*
X223543716Y-111694480D01*
X223543708Y-111694474D01*
X223406789Y-111615425D01*
X223406785Y-111615423D01*
X223406783Y-111615422D01*
X223254056Y-111574499D01*
X223095942Y-111574499D01*
X222943215Y-111615422D01*
X222943208Y-111615425D01*
X222806289Y-111694474D01*
X222806281Y-111694480D01*
X222694480Y-111806281D01*
X222694476Y-111806286D01*
X222690682Y-111812858D01*
X222640112Y-111861071D01*
X222571504Y-111874290D01*
X222506641Y-111848318D01*
X222466116Y-111791402D01*
X222463523Y-111782944D01*
X222459577Y-111768217D01*
X222459573Y-111768209D01*
X222380524Y-111631290D01*
X222380518Y-111631282D01*
X222268717Y-111519481D01*
X222268709Y-111519475D01*
X222131790Y-111440426D01*
X222131786Y-111440424D01*
X222131784Y-111440423D01*
X221979057Y-111399500D01*
X221846544Y-111399500D01*
X221779505Y-111379815D01*
X221758863Y-111363181D01*
X220715213Y-110319531D01*
X220715208Y-110319527D01*
X220635290Y-110273387D01*
X220635289Y-110273386D01*
X220635288Y-110273386D01*
X220546144Y-110249500D01*
X220546143Y-110249500D01*
X218703650Y-110249500D01*
X218636611Y-110229815D01*
X218615969Y-110213181D01*
X214823731Y-106420943D01*
X221399500Y-106420943D01*
X221399500Y-106579057D01*
X221419381Y-106653252D01*
X221440423Y-106731783D01*
X221440426Y-106731790D01*
X221519475Y-106868709D01*
X221519479Y-106868714D01*
X221519480Y-106868716D01*
X221631284Y-106980520D01*
X221631286Y-106980521D01*
X221631290Y-106980524D01*
X221768209Y-107059573D01*
X221768216Y-107059577D01*
X221920943Y-107100500D01*
X221920945Y-107100500D01*
X222079055Y-107100500D01*
X222079057Y-107100500D01*
X222231784Y-107059577D01*
X222368716Y-106980520D01*
X222480520Y-106868716D01*
X222559577Y-106731784D01*
X222600500Y-106579057D01*
X222600500Y-106420943D01*
X222559577Y-106268216D01*
X222502132Y-106168717D01*
X222480524Y-106131290D01*
X222480518Y-106131282D01*
X222368717Y-106019481D01*
X222368709Y-106019475D01*
X222231790Y-105940426D01*
X222231786Y-105940424D01*
X222231784Y-105940423D01*
X222079057Y-105899500D01*
X221920943Y-105899500D01*
X221768216Y-105940423D01*
X221768209Y-105940426D01*
X221631290Y-106019475D01*
X221631282Y-106019481D01*
X221519481Y-106131282D01*
X221519475Y-106131290D01*
X221440426Y-106268209D01*
X221440423Y-106268216D01*
X221399500Y-106420943D01*
X214823731Y-106420943D01*
X214486819Y-106084031D01*
X214453334Y-106022708D01*
X214450500Y-105996350D01*
X214450500Y-105720943D01*
X227299500Y-105720943D01*
X227299500Y-105879057D01*
X227337127Y-106019481D01*
X227340423Y-106031783D01*
X227340426Y-106031790D01*
X227419475Y-106168709D01*
X227419479Y-106168714D01*
X227419480Y-106168716D01*
X227531284Y-106280520D01*
X227531286Y-106280521D01*
X227531290Y-106280524D01*
X227668209Y-106359573D01*
X227668216Y-106359577D01*
X227820943Y-106400500D01*
X227820945Y-106400500D01*
X227979055Y-106400500D01*
X227979057Y-106400500D01*
X228131784Y-106359577D01*
X228268716Y-106280520D01*
X228380520Y-106168716D01*
X228459577Y-106031784D01*
X228500500Y-105879057D01*
X228500500Y-105720943D01*
X228459577Y-105568216D01*
X228432939Y-105522077D01*
X228380524Y-105431290D01*
X228380518Y-105431282D01*
X228268717Y-105319481D01*
X228268709Y-105319475D01*
X228131790Y-105240426D01*
X228131786Y-105240424D01*
X228131784Y-105240423D01*
X227979057Y-105199500D01*
X227820943Y-105199500D01*
X227668216Y-105240423D01*
X227668209Y-105240426D01*
X227531290Y-105319475D01*
X227531282Y-105319481D01*
X227419481Y-105431282D01*
X227419475Y-105431290D01*
X227340426Y-105568209D01*
X227340423Y-105568216D01*
X227299500Y-105720943D01*
X214450500Y-105720943D01*
X214450500Y-104520943D01*
X214799500Y-104520943D01*
X214799500Y-104679056D01*
X214840423Y-104831783D01*
X214840426Y-104831790D01*
X214919475Y-104968709D01*
X214919479Y-104968714D01*
X214919480Y-104968716D01*
X215031284Y-105080520D01*
X215031286Y-105080521D01*
X215031290Y-105080524D01*
X215168209Y-105159573D01*
X215168216Y-105159577D01*
X215320943Y-105200500D01*
X215320945Y-105200500D01*
X215479055Y-105200500D01*
X215479057Y-105200500D01*
X215631784Y-105159577D01*
X215768716Y-105080520D01*
X215880520Y-104968716D01*
X215959577Y-104831784D01*
X216000500Y-104679057D01*
X216000500Y-104520943D01*
X215959577Y-104368216D01*
X215942204Y-104338124D01*
X215880524Y-104231290D01*
X215880518Y-104231282D01*
X215768717Y-104119481D01*
X215768709Y-104119475D01*
X215631790Y-104040426D01*
X215631786Y-104040424D01*
X215631784Y-104040423D01*
X215479057Y-103999500D01*
X215320943Y-103999500D01*
X215168216Y-104040423D01*
X215168209Y-104040426D01*
X215031290Y-104119475D01*
X215031282Y-104119481D01*
X214919481Y-104231282D01*
X214919475Y-104231290D01*
X214840426Y-104368209D01*
X214840423Y-104368216D01*
X214799500Y-104520943D01*
X214450500Y-104520943D01*
X214450500Y-102546751D01*
X214450500Y-102546749D01*
X214426614Y-102457605D01*
X214395195Y-102403186D01*
X214380472Y-102377684D01*
X214380468Y-102377679D01*
X213236860Y-101234071D01*
X216549499Y-101234071D01*
X216574497Y-101359738D01*
X216574499Y-101359744D01*
X216623533Y-101478124D01*
X216623538Y-101478133D01*
X216694723Y-101584668D01*
X216694726Y-101584672D01*
X216785327Y-101675273D01*
X216785331Y-101675276D01*
X216891866Y-101746461D01*
X216891872Y-101746464D01*
X216891873Y-101746465D01*
X217010256Y-101795501D01*
X217054253Y-101804252D01*
X217065796Y-101806549D01*
X217127707Y-101838934D01*
X217162281Y-101899649D01*
X217158542Y-101969419D01*
X217148993Y-101990165D01*
X217133608Y-102016811D01*
X217099500Y-102144108D01*
X217099500Y-102275891D01*
X217119777Y-102351568D01*
X217118114Y-102421418D01*
X217078951Y-102479280D01*
X217032097Y-102503435D01*
X216956814Y-102523607D01*
X216842686Y-102589500D01*
X216842683Y-102589502D01*
X216749502Y-102682683D01*
X216749500Y-102682686D01*
X216683608Y-102796812D01*
X216649500Y-102924108D01*
X216649500Y-103055891D01*
X216683608Y-103183187D01*
X216705820Y-103221658D01*
X216749500Y-103297314D01*
X216749502Y-103297316D01*
X216793813Y-103341627D01*
X216827298Y-103402950D01*
X216822314Y-103472642D01*
X216788793Y-103519571D01*
X216789638Y-103520416D01*
X216694726Y-103615327D01*
X216694723Y-103615331D01*
X216623538Y-103721866D01*
X216623533Y-103721875D01*
X216574499Y-103840255D01*
X216574497Y-103840261D01*
X216549500Y-103965928D01*
X216549500Y-103965931D01*
X216549500Y-104094069D01*
X216549500Y-104094071D01*
X216549499Y-104094071D01*
X216574497Y-104219738D01*
X216574499Y-104219744D01*
X216623533Y-104338124D01*
X216623538Y-104338133D01*
X216694723Y-104444668D01*
X216694726Y-104444672D01*
X216785327Y-104535273D01*
X216785331Y-104535276D01*
X216891866Y-104606461D01*
X216891872Y-104606464D01*
X216891873Y-104606465D01*
X217010256Y-104655501D01*
X217010260Y-104655501D01*
X217010261Y-104655502D01*
X217135928Y-104680500D01*
X217135931Y-104680500D01*
X218264071Y-104680500D01*
X218348615Y-104663682D01*
X218389744Y-104655501D01*
X218508127Y-104606465D01*
X218614669Y-104535276D01*
X218705276Y-104444669D01*
X218776465Y-104338127D01*
X218825501Y-104219744D01*
X218837469Y-104159577D01*
X218850500Y-104094071D01*
X218850500Y-103965928D01*
X218825502Y-103840261D01*
X218825501Y-103840260D01*
X218825501Y-103840256D01*
X218776465Y-103721873D01*
X218747713Y-103678843D01*
X218726836Y-103612167D01*
X218745320Y-103544787D01*
X218797298Y-103498097D01*
X218866268Y-103486920D01*
X218882899Y-103490176D01*
X218884108Y-103490500D01*
X218884112Y-103490500D01*
X219015890Y-103490500D01*
X219015892Y-103490500D01*
X219143186Y-103456392D01*
X219257314Y-103390500D01*
X219312319Y-103335495D01*
X219373642Y-103302010D01*
X219443334Y-103306994D01*
X219487681Y-103335495D01*
X219542686Y-103390500D01*
X219626803Y-103439065D01*
X219651865Y-103453535D01*
X219656814Y-103456392D01*
X219784108Y-103490500D01*
X219784110Y-103490500D01*
X219915890Y-103490500D01*
X219915892Y-103490500D01*
X220043186Y-103456392D01*
X220157314Y-103390500D01*
X220212319Y-103335495D01*
X220273642Y-103302010D01*
X220343334Y-103306994D01*
X220387681Y-103335495D01*
X220442686Y-103390500D01*
X220526803Y-103439065D01*
X220551865Y-103453535D01*
X220556814Y-103456392D01*
X220684108Y-103490500D01*
X220684110Y-103490500D01*
X220815890Y-103490500D01*
X220815892Y-103490500D01*
X220943186Y-103456392D01*
X221057314Y-103390500D01*
X221112319Y-103335495D01*
X221173642Y-103302010D01*
X221243334Y-103306994D01*
X221273118Y-103323027D01*
X221280879Y-103328693D01*
X221342686Y-103390500D01*
X221451902Y-103453556D01*
X221457267Y-103457473D01*
X221474655Y-103480131D01*
X221494365Y-103500802D01*
X221495654Y-103507495D01*
X221499804Y-103512902D01*
X221502182Y-103541365D01*
X221507587Y-103569409D01*
X221505107Y-103576371D01*
X221505622Y-103582529D01*
X221497390Y-103598042D01*
X221487252Y-103626512D01*
X221423537Y-103721868D01*
X221423533Y-103721875D01*
X221374499Y-103840255D01*
X221374497Y-103840261D01*
X221349500Y-103965928D01*
X221349500Y-103965931D01*
X221349500Y-104094069D01*
X221349500Y-104094071D01*
X221349499Y-104094071D01*
X221374497Y-104219738D01*
X221374499Y-104219744D01*
X221423533Y-104338124D01*
X221423538Y-104338133D01*
X221494723Y-104444668D01*
X221494726Y-104444672D01*
X221585327Y-104535273D01*
X221585331Y-104535276D01*
X221691866Y-104606461D01*
X221691872Y-104606464D01*
X221691873Y-104606465D01*
X221810256Y-104655501D01*
X221810260Y-104655501D01*
X221810261Y-104655502D01*
X221935928Y-104680500D01*
X221935931Y-104680500D01*
X223064071Y-104680500D01*
X223148615Y-104663682D01*
X223189744Y-104655501D01*
X223308127Y-104606465D01*
X223414669Y-104535276D01*
X223505276Y-104444669D01*
X223576465Y-104338127D01*
X223625501Y-104219744D01*
X223637469Y-104159577D01*
X223650500Y-104094071D01*
X223650500Y-103965928D01*
X223625502Y-103840261D01*
X223625501Y-103840260D01*
X223625501Y-103840256D01*
X223576465Y-103721873D01*
X223576462Y-103721868D01*
X223576461Y-103721866D01*
X223505276Y-103615331D01*
X223505273Y-103615327D01*
X223414672Y-103524726D01*
X223414668Y-103524723D01*
X223308133Y-103453538D01*
X223308124Y-103453533D01*
X223189744Y-103404499D01*
X223189738Y-103404497D01*
X223089353Y-103384529D01*
X223027442Y-103352144D01*
X222992868Y-103291428D01*
X222996609Y-103221658D01*
X223006159Y-103200910D01*
X223016391Y-103183188D01*
X223016392Y-103183186D01*
X223050500Y-103055892D01*
X223050500Y-102924108D01*
X223030222Y-102848429D01*
X223031885Y-102778582D01*
X223071047Y-102720719D01*
X223117901Y-102696564D01*
X223193186Y-102676392D01*
X223307314Y-102610500D01*
X223400500Y-102517314D01*
X223466392Y-102403186D01*
X223500500Y-102275892D01*
X223500500Y-102144108D01*
X223466392Y-102016814D01*
X223400500Y-101902686D01*
X223376692Y-101878878D01*
X223343207Y-101817555D01*
X223348191Y-101747863D01*
X223390063Y-101691930D01*
X223395436Y-101688126D01*
X223414669Y-101675276D01*
X223505276Y-101584669D01*
X223576465Y-101478127D01*
X223625501Y-101359744D01*
X223641551Y-101279056D01*
X223650500Y-101234071D01*
X223650500Y-101105928D01*
X223625502Y-100980261D01*
X223625501Y-100980260D01*
X223625501Y-100980256D01*
X223579300Y-100868717D01*
X223576466Y-100861875D01*
X223576461Y-100861866D01*
X223505276Y-100755331D01*
X223505273Y-100755327D01*
X223414672Y-100664726D01*
X223414668Y-100664723D01*
X223308133Y-100593538D01*
X223308124Y-100593533D01*
X223189744Y-100544499D01*
X223189738Y-100544497D01*
X223064071Y-100519500D01*
X223064069Y-100519500D01*
X221935931Y-100519500D01*
X221935929Y-100519500D01*
X221810261Y-100544497D01*
X221810255Y-100544499D01*
X221691875Y-100593533D01*
X221691866Y-100593538D01*
X221585331Y-100664723D01*
X221585327Y-100664726D01*
X221494726Y-100755327D01*
X221494723Y-100755331D01*
X221423538Y-100861866D01*
X221423533Y-100861875D01*
X221374499Y-100980255D01*
X221374497Y-100980261D01*
X221349500Y-101105928D01*
X221349500Y-101105931D01*
X221349500Y-101234069D01*
X221349500Y-101234071D01*
X221349499Y-101234071D01*
X221374497Y-101359738D01*
X221374499Y-101359744D01*
X221423533Y-101478124D01*
X221423538Y-101478133D01*
X221463189Y-101537474D01*
X221484067Y-101604151D01*
X221465583Y-101671532D01*
X221413604Y-101718222D01*
X221344634Y-101729398D01*
X221327994Y-101726140D01*
X221323195Y-101724854D01*
X221265892Y-101709500D01*
X221134108Y-101709500D01*
X221006812Y-101743608D01*
X220892686Y-101809500D01*
X220892683Y-101809502D01*
X220837681Y-101864505D01*
X220776358Y-101897990D01*
X220706666Y-101893006D01*
X220662319Y-101864505D01*
X220607316Y-101809502D01*
X220607314Y-101809500D01*
X220536662Y-101768709D01*
X220493187Y-101743608D01*
X220427994Y-101726140D01*
X220365892Y-101709500D01*
X220234108Y-101709500D01*
X220106812Y-101743608D01*
X219992686Y-101809500D01*
X219992683Y-101809502D01*
X219937681Y-101864505D01*
X219876358Y-101897990D01*
X219806666Y-101893006D01*
X219762319Y-101864505D01*
X219707316Y-101809502D01*
X219707314Y-101809500D01*
X219636662Y-101768709D01*
X219593187Y-101743608D01*
X219527994Y-101726140D01*
X219465892Y-101709500D01*
X219334108Y-101709500D01*
X219206812Y-101743608D01*
X219092686Y-101809500D01*
X219092683Y-101809502D01*
X219037681Y-101864505D01*
X219037030Y-101864860D01*
X219036667Y-101865508D01*
X219006419Y-101881575D01*
X218976358Y-101897990D01*
X218975617Y-101897937D01*
X218974962Y-101898285D01*
X218940870Y-101895452D01*
X218906666Y-101893006D01*
X218905823Y-101892539D01*
X218905332Y-101892499D01*
X218902953Y-101890951D01*
X218874552Y-101875230D01*
X218868088Y-101870274D01*
X218807314Y-101809500D01*
X218732434Y-101766268D01*
X218726008Y-101761341D01*
X218709981Y-101739409D01*
X218691240Y-101719755D01*
X218689672Y-101711619D01*
X218684783Y-101704929D01*
X218683157Y-101677814D01*
X218678018Y-101651148D01*
X218681097Y-101643456D01*
X218680601Y-101635184D01*
X218693893Y-101611492D01*
X218702454Y-101590109D01*
X218701892Y-101589734D01*
X218703669Y-101587074D01*
X218703986Y-101586283D01*
X218705245Y-101584715D01*
X218705277Y-101584668D01*
X218776465Y-101478127D01*
X218825501Y-101359744D01*
X218841551Y-101279056D01*
X218850500Y-101234071D01*
X218850500Y-101105928D01*
X218825502Y-100980261D01*
X218825501Y-100980260D01*
X218825501Y-100980256D01*
X218779300Y-100868717D01*
X218776466Y-100861875D01*
X218776461Y-100861866D01*
X218705276Y-100755331D01*
X218705273Y-100755327D01*
X218614672Y-100664726D01*
X218614668Y-100664723D01*
X218508133Y-100593538D01*
X218508124Y-100593533D01*
X218389744Y-100544499D01*
X218389738Y-100544497D01*
X218264071Y-100519500D01*
X218264069Y-100519500D01*
X217135931Y-100519500D01*
X217135929Y-100519500D01*
X217010261Y-100544497D01*
X217010255Y-100544499D01*
X216891875Y-100593533D01*
X216891866Y-100593538D01*
X216785331Y-100664723D01*
X216785327Y-100664726D01*
X216694726Y-100755327D01*
X216694723Y-100755331D01*
X216623538Y-100861866D01*
X216623533Y-100861875D01*
X216574499Y-100980255D01*
X216574497Y-100980261D01*
X216549500Y-101105928D01*
X216549500Y-101105931D01*
X216549500Y-101234069D01*
X216549500Y-101234071D01*
X216549499Y-101234071D01*
X213236860Y-101234071D01*
X212423732Y-100420943D01*
X214799500Y-100420943D01*
X214799500Y-100579057D01*
X214825546Y-100676260D01*
X214840423Y-100731783D01*
X214840426Y-100731790D01*
X214919475Y-100868709D01*
X214919479Y-100868714D01*
X214919480Y-100868716D01*
X215031284Y-100980520D01*
X215031286Y-100980521D01*
X215031290Y-100980524D01*
X215119221Y-101031290D01*
X215168216Y-101059577D01*
X215320943Y-101100500D01*
X215320945Y-101100500D01*
X215479055Y-101100500D01*
X215479057Y-101100500D01*
X215631784Y-101059577D01*
X215768716Y-100980520D01*
X215880520Y-100868716D01*
X215959577Y-100731784D01*
X216000500Y-100579057D01*
X216000500Y-100420943D01*
X215959577Y-100268216D01*
X215953613Y-100257886D01*
X215880524Y-100131290D01*
X215880518Y-100131282D01*
X215768717Y-100019481D01*
X215768709Y-100019475D01*
X215631790Y-99940426D01*
X215631786Y-99940424D01*
X215631784Y-99940423D01*
X215479057Y-99899500D01*
X215320943Y-99899500D01*
X215168216Y-99940423D01*
X215168209Y-99940426D01*
X215031290Y-100019475D01*
X215031282Y-100019481D01*
X214919481Y-100131282D01*
X214919475Y-100131290D01*
X214840426Y-100268209D01*
X214840423Y-100268216D01*
X214799500Y-100420943D01*
X212423732Y-100420943D01*
X212277647Y-100274858D01*
X212244162Y-100213535D01*
X212249146Y-100143843D01*
X212291018Y-100087910D01*
X212356482Y-100063493D01*
X212397417Y-100067401D01*
X212520943Y-100100500D01*
X212520945Y-100100500D01*
X212679055Y-100100500D01*
X212679057Y-100100500D01*
X212831784Y-100059577D01*
X212968716Y-99980520D01*
X213080520Y-99868716D01*
X213159577Y-99731784D01*
X213200500Y-99579057D01*
X213200500Y-99420943D01*
X213159577Y-99268216D01*
X213137816Y-99230524D01*
X213080524Y-99131290D01*
X213080518Y-99131282D01*
X212968717Y-99019481D01*
X212968709Y-99019475D01*
X212831790Y-98940426D01*
X212831786Y-98940424D01*
X212831784Y-98940423D01*
X212679057Y-98899500D01*
X212520943Y-98899500D01*
X212368216Y-98940423D01*
X212368209Y-98940426D01*
X212231290Y-99019475D01*
X212231282Y-99019481D01*
X212119481Y-99131282D01*
X212119475Y-99131290D01*
X212040426Y-99268209D01*
X212040423Y-99268216D01*
X211999500Y-99420943D01*
X211999500Y-99579056D01*
X212032597Y-99702578D01*
X212030934Y-99772428D01*
X211991771Y-99830290D01*
X211927543Y-99857794D01*
X211858640Y-99846207D01*
X211825141Y-99822352D01*
X210686819Y-98684030D01*
X210653334Y-98622707D01*
X210650500Y-98596349D01*
X210650500Y-97550098D01*
X210670185Y-97483059D01*
X210686819Y-97462417D01*
X210729761Y-97419475D01*
X210780520Y-97368716D01*
X210859577Y-97231784D01*
X210900500Y-97079057D01*
X210900500Y-96920943D01*
X210859577Y-96768216D01*
X210808101Y-96679056D01*
X210780524Y-96631290D01*
X210780518Y-96631282D01*
X210670179Y-96520943D01*
X221099500Y-96520943D01*
X221099500Y-96679057D01*
X221140289Y-96831282D01*
X221140423Y-96831783D01*
X221140426Y-96831790D01*
X221219475Y-96968709D01*
X221219479Y-96968714D01*
X221219480Y-96968716D01*
X221331284Y-97080520D01*
X221331286Y-97080521D01*
X221331290Y-97080524D01*
X221468209Y-97159573D01*
X221468216Y-97159577D01*
X221620943Y-97200500D01*
X221620945Y-97200500D01*
X221779055Y-97200500D01*
X221779057Y-97200500D01*
X221931784Y-97159577D01*
X222068716Y-97080520D01*
X222180520Y-96968716D01*
X222259577Y-96831784D01*
X222300500Y-96679057D01*
X222300500Y-96520943D01*
X222259577Y-96368216D01*
X222226680Y-96311236D01*
X222180524Y-96231290D01*
X222180518Y-96231282D01*
X222068717Y-96119481D01*
X222068709Y-96119475D01*
X221931790Y-96040426D01*
X221931786Y-96040424D01*
X221931784Y-96040423D01*
X221779057Y-95999500D01*
X221620943Y-95999500D01*
X221468216Y-96040423D01*
X221468209Y-96040426D01*
X221331290Y-96119475D01*
X221331282Y-96119481D01*
X221219481Y-96231282D01*
X221219475Y-96231290D01*
X221140426Y-96368209D01*
X221140423Y-96368216D01*
X221099500Y-96520943D01*
X210670179Y-96520943D01*
X210668717Y-96519481D01*
X210668709Y-96519475D01*
X210531790Y-96440426D01*
X210531786Y-96440424D01*
X210531784Y-96440423D01*
X210379057Y-96399500D01*
X210220943Y-96399500D01*
X210068216Y-96440423D01*
X210068209Y-96440426D01*
X209931290Y-96519475D01*
X209931282Y-96519481D01*
X209819481Y-96631282D01*
X209819475Y-96631290D01*
X209740426Y-96768209D01*
X209740423Y-96768216D01*
X209699500Y-96920943D01*
X209699500Y-97079057D01*
X209732041Y-97200500D01*
X209740423Y-97231783D01*
X209740426Y-97231790D01*
X209819475Y-97368709D01*
X209819481Y-97368717D01*
X209913181Y-97462417D01*
X209946666Y-97523740D01*
X209949500Y-97550098D01*
X209949500Y-98354456D01*
X209929815Y-98421495D01*
X209877011Y-98467250D01*
X209807853Y-98477194D01*
X209744297Y-98448169D01*
X209737819Y-98442137D01*
X209086819Y-97791137D01*
X209053334Y-97729814D01*
X209050500Y-97703456D01*
X209050500Y-94563908D01*
X209050500Y-94563906D01*
X209026614Y-94474762D01*
X209016847Y-94457845D01*
X209012029Y-94449500D01*
X208995542Y-94420943D01*
X210099500Y-94420943D01*
X210099500Y-94579057D01*
X210136975Y-94718913D01*
X210140423Y-94731783D01*
X210140426Y-94731790D01*
X210219475Y-94868709D01*
X210219479Y-94868714D01*
X210219480Y-94868716D01*
X210331284Y-94980520D01*
X210331286Y-94980521D01*
X210331290Y-94980524D01*
X210468209Y-95059573D01*
X210468216Y-95059577D01*
X210620943Y-95100500D01*
X210620945Y-95100500D01*
X210779055Y-95100500D01*
X210779057Y-95100500D01*
X210931784Y-95059577D01*
X211068716Y-94980520D01*
X211180520Y-94868716D01*
X211259577Y-94731784D01*
X211259989Y-94730247D01*
X225949500Y-94730247D01*
X225949500Y-96469752D01*
X225961131Y-96528229D01*
X225961132Y-96528230D01*
X226005447Y-96594552D01*
X226071769Y-96638867D01*
X226071770Y-96638868D01*
X226130247Y-96650499D01*
X226130250Y-96650500D01*
X226130252Y-96650500D01*
X227869750Y-96650500D01*
X227869751Y-96650499D01*
X227884568Y-96647552D01*
X227928229Y-96638868D01*
X227928229Y-96638867D01*
X227928231Y-96638867D01*
X227994552Y-96594552D01*
X228038867Y-96528231D01*
X228038867Y-96528229D01*
X228038868Y-96528229D01*
X228050499Y-96469752D01*
X228050500Y-96469750D01*
X228050500Y-94730249D01*
X228050499Y-94730247D01*
X228038868Y-94671770D01*
X228038867Y-94671769D01*
X227994552Y-94605447D01*
X227928230Y-94561132D01*
X227928229Y-94561131D01*
X227869752Y-94549500D01*
X227869748Y-94549500D01*
X226130252Y-94549500D01*
X226130247Y-94549500D01*
X226071770Y-94561131D01*
X226071769Y-94561132D01*
X226005447Y-94605447D01*
X225961132Y-94671769D01*
X225961131Y-94671770D01*
X225949500Y-94730247D01*
X211259989Y-94730247D01*
X211300500Y-94579057D01*
X211300500Y-94420943D01*
X211259577Y-94268216D01*
X211237645Y-94230228D01*
X211180524Y-94131290D01*
X211180518Y-94131282D01*
X211068717Y-94019481D01*
X211068709Y-94019475D01*
X210931790Y-93940426D01*
X210931786Y-93940424D01*
X210931784Y-93940423D01*
X210779057Y-93899500D01*
X210620943Y-93899500D01*
X210468216Y-93940423D01*
X210468209Y-93940426D01*
X210331290Y-94019475D01*
X210331282Y-94019481D01*
X210219481Y-94131282D01*
X210219475Y-94131290D01*
X210140426Y-94268209D01*
X210140423Y-94268216D01*
X210099500Y-94420943D01*
X208995542Y-94420943D01*
X208980474Y-94394844D01*
X208980468Y-94394836D01*
X208105163Y-93519531D01*
X208105158Y-93519527D01*
X208025240Y-93473387D01*
X208025239Y-93473386D01*
X208025238Y-93473386D01*
X207936094Y-93449500D01*
X207936093Y-93449500D01*
X207250098Y-93449500D01*
X207183059Y-93429815D01*
X207162417Y-93413181D01*
X207068717Y-93319481D01*
X207068709Y-93319475D01*
X206931790Y-93240426D01*
X206931786Y-93240424D01*
X206931784Y-93240423D01*
X206779057Y-93199500D01*
X206620943Y-93199500D01*
X206468216Y-93240423D01*
X206468209Y-93240426D01*
X206331290Y-93319475D01*
X206331282Y-93319481D01*
X206219481Y-93431282D01*
X206219475Y-93431290D01*
X206140426Y-93568209D01*
X206140423Y-93568216D01*
X206099500Y-93720943D01*
X206099500Y-93825748D01*
X206079815Y-93892787D01*
X206027011Y-93938542D01*
X205957853Y-93948486D01*
X205894297Y-93919461D01*
X205887819Y-93913429D01*
X204930920Y-92956530D01*
X225949500Y-92956530D01*
X225949500Y-93163469D01*
X225989868Y-93366412D01*
X225989870Y-93366420D01*
X226053290Y-93519530D01*
X226069059Y-93557598D01*
X226126541Y-93643626D01*
X226184024Y-93729657D01*
X226330342Y-93875975D01*
X226330345Y-93875977D01*
X226502402Y-93990941D01*
X226693580Y-94070130D01*
X226896530Y-94110499D01*
X226896534Y-94110500D01*
X226896535Y-94110500D01*
X227103466Y-94110500D01*
X227103467Y-94110499D01*
X227306420Y-94070130D01*
X227497598Y-93990941D01*
X227669655Y-93875977D01*
X227815977Y-93729655D01*
X227930941Y-93557598D01*
X228010130Y-93366420D01*
X228050500Y-93163465D01*
X228050500Y-92956535D01*
X228010130Y-92753580D01*
X227930941Y-92562402D01*
X227815977Y-92390345D01*
X227815975Y-92390342D01*
X227669657Y-92244024D01*
X227583626Y-92186541D01*
X227497598Y-92129059D01*
X227306420Y-92049870D01*
X227306412Y-92049868D01*
X227103469Y-92009500D01*
X227103465Y-92009500D01*
X226896535Y-92009500D01*
X226896530Y-92009500D01*
X226693587Y-92049868D01*
X226693579Y-92049870D01*
X226502403Y-92129058D01*
X226330342Y-92244024D01*
X226184024Y-92390342D01*
X226069058Y-92562403D01*
X225989870Y-92753579D01*
X225989868Y-92753587D01*
X225949500Y-92956530D01*
X204930920Y-92956530D01*
X203693921Y-91719531D01*
X203693916Y-91719527D01*
X203613998Y-91673387D01*
X203613997Y-91673386D01*
X203613996Y-91673386D01*
X203524852Y-91649500D01*
X203524851Y-91649500D01*
X185346544Y-91649500D01*
X185279505Y-91629815D01*
X185258863Y-91613181D01*
X183766625Y-90120943D01*
X196099500Y-90120943D01*
X196099500Y-90279057D01*
X196132041Y-90400500D01*
X196140423Y-90431783D01*
X196140426Y-90431790D01*
X196219475Y-90568709D01*
X196219479Y-90568714D01*
X196219480Y-90568716D01*
X196331284Y-90680520D01*
X196331286Y-90680521D01*
X196331290Y-90680524D01*
X196468209Y-90759573D01*
X196468216Y-90759577D01*
X196620943Y-90800500D01*
X196620945Y-90800500D01*
X196779055Y-90800500D01*
X196779057Y-90800500D01*
X196931784Y-90759577D01*
X197068716Y-90680520D01*
X197180520Y-90568716D01*
X197259577Y-90431784D01*
X197263664Y-90416530D01*
X225949500Y-90416530D01*
X225949500Y-90623469D01*
X225989868Y-90826412D01*
X225989870Y-90826420D01*
X226069058Y-91017596D01*
X226184024Y-91189657D01*
X226330342Y-91335975D01*
X226330345Y-91335977D01*
X226502402Y-91450941D01*
X226693580Y-91530130D01*
X226896530Y-91570499D01*
X226896534Y-91570500D01*
X226896535Y-91570500D01*
X227103466Y-91570500D01*
X227103467Y-91570499D01*
X227306420Y-91530130D01*
X227497598Y-91450941D01*
X227669655Y-91335977D01*
X227815977Y-91189655D01*
X227930941Y-91017598D01*
X228010130Y-90826420D01*
X228050500Y-90623465D01*
X228050500Y-90416535D01*
X228010130Y-90213580D01*
X227930941Y-90022402D01*
X227815977Y-89850345D01*
X227815975Y-89850342D01*
X227669657Y-89704024D01*
X227513224Y-89599500D01*
X227497598Y-89589059D01*
X227448488Y-89568717D01*
X227306420Y-89509870D01*
X227306412Y-89509868D01*
X227103469Y-89469500D01*
X227103465Y-89469500D01*
X226896535Y-89469500D01*
X226896530Y-89469500D01*
X226693587Y-89509868D01*
X226693579Y-89509870D01*
X226502403Y-89589058D01*
X226330342Y-89704024D01*
X226184024Y-89850342D01*
X226069058Y-90022403D01*
X225989870Y-90213579D01*
X225989868Y-90213587D01*
X225949500Y-90416530D01*
X197263664Y-90416530D01*
X197300500Y-90279057D01*
X197300500Y-90120943D01*
X197259577Y-89968216D01*
X197243943Y-89941137D01*
X197180524Y-89831290D01*
X197180518Y-89831282D01*
X197068717Y-89719481D01*
X197068709Y-89719475D01*
X196931790Y-89640426D01*
X196931786Y-89640424D01*
X196931784Y-89640423D01*
X196779057Y-89599500D01*
X196620943Y-89599500D01*
X196468216Y-89640423D01*
X196468209Y-89640426D01*
X196331290Y-89719475D01*
X196331282Y-89719481D01*
X196219481Y-89831282D01*
X196219475Y-89831290D01*
X196140426Y-89968209D01*
X196140423Y-89968216D01*
X196099500Y-90120943D01*
X183766625Y-90120943D01*
X183586819Y-89941137D01*
X183553334Y-89879814D01*
X183550500Y-89853456D01*
X183550500Y-89720945D01*
X183550500Y-89720943D01*
X183509577Y-89568216D01*
X183452584Y-89469500D01*
X183430524Y-89431290D01*
X183430518Y-89431282D01*
X183318717Y-89319481D01*
X183318709Y-89319475D01*
X183181790Y-89240426D01*
X183181786Y-89240424D01*
X183181784Y-89240423D01*
X183029057Y-89199500D01*
X182870943Y-89199500D01*
X182718216Y-89240423D01*
X182718209Y-89240426D01*
X182581290Y-89319475D01*
X182581282Y-89319481D01*
X182469481Y-89431282D01*
X182469475Y-89431290D01*
X182390426Y-89568209D01*
X182390423Y-89568216D01*
X182349500Y-89720943D01*
X181000000Y-89720943D01*
X181000000Y-89120943D01*
X197899500Y-89120943D01*
X197899500Y-89279057D01*
X197940289Y-89431282D01*
X197940423Y-89431783D01*
X197940426Y-89431790D01*
X198019475Y-89568709D01*
X198019479Y-89568714D01*
X198019480Y-89568716D01*
X198131284Y-89680520D01*
X198131286Y-89680521D01*
X198131290Y-89680524D01*
X198268209Y-89759573D01*
X198268216Y-89759577D01*
X198420943Y-89800500D01*
X198420945Y-89800500D01*
X198579055Y-89800500D01*
X198579057Y-89800500D01*
X198731784Y-89759577D01*
X198868716Y-89680520D01*
X198980520Y-89568716D01*
X199059577Y-89431784D01*
X199100500Y-89279057D01*
X199100500Y-89120943D01*
X201099500Y-89120943D01*
X201099500Y-89279057D01*
X201140289Y-89431282D01*
X201140423Y-89431783D01*
X201140426Y-89431790D01*
X201219475Y-89568709D01*
X201219479Y-89568714D01*
X201219480Y-89568716D01*
X201331284Y-89680520D01*
X201331286Y-89680521D01*
X201331290Y-89680524D01*
X201468209Y-89759573D01*
X201468216Y-89759577D01*
X201620943Y-89800500D01*
X201620945Y-89800500D01*
X201779055Y-89800500D01*
X201779057Y-89800500D01*
X201931784Y-89759577D01*
X202068716Y-89680520D01*
X202180520Y-89568716D01*
X202259577Y-89431784D01*
X202300500Y-89279057D01*
X202300500Y-89120943D01*
X202259577Y-88968216D01*
X202202132Y-88868717D01*
X202180524Y-88831290D01*
X202180518Y-88831282D01*
X202068717Y-88719481D01*
X202068709Y-88719475D01*
X201931790Y-88640426D01*
X201931786Y-88640424D01*
X201931784Y-88640423D01*
X201779057Y-88599500D01*
X201620943Y-88599500D01*
X201468216Y-88640423D01*
X201468209Y-88640426D01*
X201331290Y-88719475D01*
X201331282Y-88719481D01*
X201219481Y-88831282D01*
X201219475Y-88831290D01*
X201140426Y-88968209D01*
X201140423Y-88968216D01*
X201099500Y-89120943D01*
X199100500Y-89120943D01*
X199059577Y-88968216D01*
X199002132Y-88868717D01*
X198980524Y-88831290D01*
X198980518Y-88831282D01*
X198868717Y-88719481D01*
X198868709Y-88719475D01*
X198731790Y-88640426D01*
X198731786Y-88640424D01*
X198731784Y-88640423D01*
X198579057Y-88599500D01*
X198420943Y-88599500D01*
X198268216Y-88640423D01*
X198268209Y-88640426D01*
X198131290Y-88719475D01*
X198131282Y-88719481D01*
X198019481Y-88831282D01*
X198019475Y-88831290D01*
X197940426Y-88968209D01*
X197940423Y-88968216D01*
X197899500Y-89120943D01*
X181000000Y-89120943D01*
X181000000Y-88420943D01*
X186299500Y-88420943D01*
X186299500Y-88579057D01*
X186337127Y-88719481D01*
X186340423Y-88731783D01*
X186340426Y-88731790D01*
X186419475Y-88868709D01*
X186419479Y-88868714D01*
X186419480Y-88868716D01*
X186531284Y-88980520D01*
X186531286Y-88980521D01*
X186531290Y-88980524D01*
X186668209Y-89059573D01*
X186668216Y-89059577D01*
X186820943Y-89100500D01*
X186820945Y-89100500D01*
X186979055Y-89100500D01*
X186979057Y-89100500D01*
X187131784Y-89059577D01*
X187268716Y-88980520D01*
X187380520Y-88868716D01*
X187459577Y-88731784D01*
X187500500Y-88579057D01*
X187500500Y-88420943D01*
X187459577Y-88268216D01*
X187459573Y-88268209D01*
X187380524Y-88131290D01*
X187380518Y-88131282D01*
X187268717Y-88019481D01*
X187268712Y-88019477D01*
X187196578Y-87977831D01*
X187196577Y-87977831D01*
X187131784Y-87940423D01*
X186979057Y-87899500D01*
X186820943Y-87899500D01*
X186668216Y-87940423D01*
X186668209Y-87940426D01*
X186531290Y-88019475D01*
X186531282Y-88019481D01*
X186419481Y-88131282D01*
X186419475Y-88131290D01*
X186340426Y-88268209D01*
X186340423Y-88268216D01*
X186299500Y-88420943D01*
X181000000Y-88420943D01*
X181000000Y-87876530D01*
X225949500Y-87876530D01*
X225949500Y-88083469D01*
X225989868Y-88286412D01*
X225989870Y-88286420D01*
X226069058Y-88477596D01*
X226184024Y-88649657D01*
X226330342Y-88795975D01*
X226330345Y-88795977D01*
X226502402Y-88910941D01*
X226693580Y-88990130D01*
X226896530Y-89030499D01*
X226896534Y-89030500D01*
X226896535Y-89030500D01*
X227103466Y-89030500D01*
X227103467Y-89030499D01*
X227306420Y-88990130D01*
X227497598Y-88910941D01*
X227669655Y-88795977D01*
X227815977Y-88649655D01*
X227930941Y-88477598D01*
X228010130Y-88286420D01*
X228050500Y-88083465D01*
X228050500Y-87876535D01*
X228010130Y-87673580D01*
X227930941Y-87482402D01*
X227815977Y-87310345D01*
X227815975Y-87310342D01*
X227669657Y-87164024D01*
X227583626Y-87106541D01*
X227497598Y-87049059D01*
X227306420Y-86969870D01*
X227306412Y-86969868D01*
X227103469Y-86929500D01*
X227103465Y-86929500D01*
X226896535Y-86929500D01*
X226896530Y-86929500D01*
X226693587Y-86969868D01*
X226693579Y-86969870D01*
X226502403Y-87049058D01*
X226330342Y-87164024D01*
X226184024Y-87310342D01*
X226069058Y-87482403D01*
X225989870Y-87673579D01*
X225989868Y-87673587D01*
X225949500Y-87876530D01*
X181000000Y-87876530D01*
X181000000Y-85820943D01*
X193899500Y-85820943D01*
X193899500Y-85979057D01*
X193926295Y-86079055D01*
X193940423Y-86131783D01*
X193940426Y-86131790D01*
X194019475Y-86268709D01*
X194019479Y-86268714D01*
X194019480Y-86268716D01*
X194131284Y-86380520D01*
X194131286Y-86380521D01*
X194131290Y-86380524D01*
X194268209Y-86459573D01*
X194268216Y-86459577D01*
X194420943Y-86500500D01*
X194420945Y-86500500D01*
X194579055Y-86500500D01*
X194579057Y-86500500D01*
X194731784Y-86459577D01*
X194868716Y-86380520D01*
X194980520Y-86268716D01*
X195059577Y-86131784D01*
X195100500Y-85979057D01*
X195100500Y-85820943D01*
X198599500Y-85820943D01*
X198599500Y-85979057D01*
X198626295Y-86079055D01*
X198640423Y-86131783D01*
X198640426Y-86131790D01*
X198719475Y-86268709D01*
X198719479Y-86268714D01*
X198719480Y-86268716D01*
X198831284Y-86380520D01*
X198831286Y-86380521D01*
X198831290Y-86380524D01*
X198968209Y-86459573D01*
X198968216Y-86459577D01*
X199120943Y-86500500D01*
X199120945Y-86500500D01*
X199279055Y-86500500D01*
X199279057Y-86500500D01*
X199431784Y-86459577D01*
X199568716Y-86380520D01*
X199680520Y-86268716D01*
X199759577Y-86131784D01*
X199800500Y-85979057D01*
X199800500Y-85820943D01*
X199773705Y-85720943D01*
X202799498Y-85720943D01*
X202799498Y-85879057D01*
X202826293Y-85979055D01*
X202840421Y-86031783D01*
X202840424Y-86031790D01*
X202919473Y-86168709D01*
X202919477Y-86168714D01*
X202919478Y-86168716D01*
X203031282Y-86280520D01*
X203031284Y-86280521D01*
X203031288Y-86280524D01*
X203168207Y-86359573D01*
X203168214Y-86359577D01*
X203320941Y-86400500D01*
X203320943Y-86400500D01*
X203479053Y-86400500D01*
X203479055Y-86400500D01*
X203631782Y-86359577D01*
X203768714Y-86280520D01*
X203880518Y-86168716D01*
X203959575Y-86031784D01*
X203989275Y-85920943D01*
X206199500Y-85920943D01*
X206199500Y-86079057D01*
X206223525Y-86168717D01*
X206240423Y-86231783D01*
X206240426Y-86231790D01*
X206319475Y-86368709D01*
X206319479Y-86368714D01*
X206319480Y-86368716D01*
X206431284Y-86480520D01*
X206431286Y-86480521D01*
X206431290Y-86480524D01*
X206568209Y-86559573D01*
X206568216Y-86559577D01*
X206720943Y-86600500D01*
X206720945Y-86600500D01*
X206879055Y-86600500D01*
X206879057Y-86600500D01*
X207031784Y-86559577D01*
X207168716Y-86480520D01*
X207280520Y-86368716D01*
X207359577Y-86231784D01*
X207400500Y-86079057D01*
X207400500Y-85920943D01*
X209499500Y-85920943D01*
X209499500Y-86079057D01*
X209523525Y-86168717D01*
X209540423Y-86231783D01*
X209540426Y-86231790D01*
X209619475Y-86368709D01*
X209619479Y-86368714D01*
X209619480Y-86368716D01*
X209731284Y-86480520D01*
X209731286Y-86480521D01*
X209731290Y-86480524D01*
X209868209Y-86559573D01*
X209868216Y-86559577D01*
X210020943Y-86600500D01*
X210020945Y-86600500D01*
X210179055Y-86600500D01*
X210179057Y-86600500D01*
X210331784Y-86559577D01*
X210468716Y-86480520D01*
X210580520Y-86368716D01*
X210659577Y-86231784D01*
X210700500Y-86079057D01*
X210700500Y-85920943D01*
X210659577Y-85768216D01*
X210659573Y-85768209D01*
X210580524Y-85631290D01*
X210580518Y-85631282D01*
X210468717Y-85519481D01*
X210468709Y-85519475D01*
X210331790Y-85440426D01*
X210331786Y-85440424D01*
X210331784Y-85440423D01*
X210179057Y-85399500D01*
X210020943Y-85399500D01*
X209868216Y-85440423D01*
X209868209Y-85440426D01*
X209731290Y-85519475D01*
X209731282Y-85519481D01*
X209619481Y-85631282D01*
X209619475Y-85631290D01*
X209540426Y-85768209D01*
X209540423Y-85768216D01*
X209499500Y-85920943D01*
X207400500Y-85920943D01*
X207359577Y-85768216D01*
X207359573Y-85768209D01*
X207280524Y-85631290D01*
X207280518Y-85631282D01*
X207168717Y-85519481D01*
X207168709Y-85519475D01*
X207031790Y-85440426D01*
X207031786Y-85440424D01*
X207031784Y-85440423D01*
X206879057Y-85399500D01*
X206720943Y-85399500D01*
X206568216Y-85440423D01*
X206568209Y-85440426D01*
X206431290Y-85519475D01*
X206431282Y-85519481D01*
X206319481Y-85631282D01*
X206319475Y-85631290D01*
X206240426Y-85768209D01*
X206240423Y-85768216D01*
X206199500Y-85920943D01*
X203989275Y-85920943D01*
X204000498Y-85879057D01*
X204000498Y-85720943D01*
X203959575Y-85568216D01*
X203938256Y-85531290D01*
X203880522Y-85431290D01*
X203880516Y-85431282D01*
X203768715Y-85319481D01*
X203768707Y-85319475D01*
X203631788Y-85240426D01*
X203631784Y-85240424D01*
X203631782Y-85240423D01*
X203479055Y-85199500D01*
X203320941Y-85199500D01*
X203168214Y-85240423D01*
X203168207Y-85240426D01*
X203031288Y-85319475D01*
X203031280Y-85319481D01*
X202919479Y-85431282D01*
X202919473Y-85431290D01*
X202840424Y-85568209D01*
X202840421Y-85568216D01*
X202799498Y-85720943D01*
X199773705Y-85720943D01*
X199759577Y-85668216D01*
X199738258Y-85631290D01*
X199680524Y-85531290D01*
X199680518Y-85531282D01*
X199568717Y-85419481D01*
X199568709Y-85419475D01*
X199431790Y-85340426D01*
X199431786Y-85340424D01*
X199431784Y-85340423D01*
X199279057Y-85299500D01*
X199120943Y-85299500D01*
X198968216Y-85340423D01*
X198968209Y-85340426D01*
X198831290Y-85419475D01*
X198831282Y-85419481D01*
X198719481Y-85531282D01*
X198719475Y-85531290D01*
X198640426Y-85668209D01*
X198640423Y-85668216D01*
X198599500Y-85820943D01*
X195100500Y-85820943D01*
X195059577Y-85668216D01*
X195038258Y-85631290D01*
X194980524Y-85531290D01*
X194980518Y-85531282D01*
X194868717Y-85419481D01*
X194868709Y-85419475D01*
X194731790Y-85340426D01*
X194731786Y-85340424D01*
X194731784Y-85340423D01*
X194579057Y-85299500D01*
X194420943Y-85299500D01*
X194268216Y-85340423D01*
X194268209Y-85340426D01*
X194131290Y-85419475D01*
X194131282Y-85419481D01*
X194019481Y-85531282D01*
X194019475Y-85531290D01*
X193940426Y-85668209D01*
X193940423Y-85668216D01*
X193899500Y-85820943D01*
X181000000Y-85820943D01*
X181000000Y-79867486D01*
X199074500Y-79867486D01*
X199074500Y-80052513D01*
X199103445Y-80235265D01*
X199160619Y-80411232D01*
X199160620Y-80411235D01*
X199244622Y-80576096D01*
X199353379Y-80725787D01*
X199484213Y-80856621D01*
X199633904Y-80965378D01*
X199714763Y-81006577D01*
X199798764Y-81049379D01*
X199798767Y-81049380D01*
X199886750Y-81077967D01*
X199974736Y-81106555D01*
X200157486Y-81135500D01*
X200157487Y-81135500D01*
X200342513Y-81135500D01*
X200342514Y-81135500D01*
X200525264Y-81106555D01*
X200701235Y-81049379D01*
X200866096Y-80965378D01*
X201015787Y-80856621D01*
X201146621Y-80725787D01*
X201255378Y-80576096D01*
X201339379Y-80411235D01*
X201396555Y-80235264D01*
X201425500Y-80052514D01*
X201425500Y-79867486D01*
X201396555Y-79684736D01*
X201339379Y-79508765D01*
X201339379Y-79508764D01*
X201255377Y-79343903D01*
X201146621Y-79194213D01*
X201015787Y-79063379D01*
X200880720Y-78965247D01*
X206574500Y-78965247D01*
X206574500Y-80954752D01*
X206586131Y-81013229D01*
X206586132Y-81013230D01*
X206630447Y-81079552D01*
X206696769Y-81123867D01*
X206696770Y-81123868D01*
X206755247Y-81135499D01*
X206755250Y-81135500D01*
X206755252Y-81135500D01*
X208744750Y-81135500D01*
X208744751Y-81135499D01*
X208759568Y-81132552D01*
X208803229Y-81123868D01*
X208803229Y-81123867D01*
X208803231Y-81123867D01*
X208869552Y-81079552D01*
X208913867Y-81013231D01*
X208913867Y-81013229D01*
X208913868Y-81013229D01*
X208925499Y-80954752D01*
X208925500Y-80954750D01*
X208925500Y-78965249D01*
X208925499Y-78965247D01*
X208913868Y-78906770D01*
X208913867Y-78906769D01*
X208869552Y-78840447D01*
X208803230Y-78796132D01*
X208803229Y-78796131D01*
X208744752Y-78784500D01*
X208744748Y-78784500D01*
X206755252Y-78784500D01*
X206755247Y-78784500D01*
X206696770Y-78796131D01*
X206696769Y-78796132D01*
X206630447Y-78840447D01*
X206586132Y-78906769D01*
X206586131Y-78906770D01*
X206574500Y-78965247D01*
X200880720Y-78965247D01*
X200866096Y-78954622D01*
X200701235Y-78870620D01*
X200701232Y-78870619D01*
X200525265Y-78813445D01*
X200415955Y-78796132D01*
X200342514Y-78784500D01*
X200157486Y-78784500D01*
X200096569Y-78794148D01*
X199974734Y-78813445D01*
X199798767Y-78870619D01*
X199798764Y-78870620D01*
X199633903Y-78954622D01*
X199548499Y-79016672D01*
X199484213Y-79063379D01*
X199484211Y-79063381D01*
X199484210Y-79063381D01*
X199353381Y-79194210D01*
X199353381Y-79194211D01*
X199353379Y-79194213D01*
X199306672Y-79258499D01*
X199244622Y-79343903D01*
X199160620Y-79508764D01*
X199160619Y-79508767D01*
X199103445Y-79684734D01*
X199074500Y-79867486D01*
X181000000Y-79867486D01*
X181000000Y-72120943D01*
X181899500Y-72120943D01*
X181899500Y-72279056D01*
X181940423Y-72431783D01*
X181940426Y-72431790D01*
X182019475Y-72568709D01*
X182019479Y-72568714D01*
X182019480Y-72568716D01*
X182131284Y-72680520D01*
X182131286Y-72680521D01*
X182131290Y-72680524D01*
X182195455Y-72717569D01*
X182268216Y-72759577D01*
X182420943Y-72800500D01*
X182420945Y-72800500D01*
X182579055Y-72800500D01*
X182579057Y-72800500D01*
X182731784Y-72759577D01*
X182868716Y-72680520D01*
X182980520Y-72568716D01*
X183059577Y-72431784D01*
X183100500Y-72279057D01*
X183100500Y-72120943D01*
X183059577Y-71968216D01*
X183059573Y-71968209D01*
X182980524Y-71831290D01*
X182980518Y-71831282D01*
X182868717Y-71719481D01*
X182868709Y-71719475D01*
X182731790Y-71640426D01*
X182731786Y-71640424D01*
X182731784Y-71640423D01*
X182579057Y-71599500D01*
X182420943Y-71599500D01*
X182268216Y-71640423D01*
X182268209Y-71640426D01*
X182131290Y-71719475D01*
X182131282Y-71719481D01*
X182019481Y-71831282D01*
X182019475Y-71831290D01*
X181940426Y-71968209D01*
X181940423Y-71968216D01*
X181899500Y-72120943D01*
X181000000Y-72120943D01*
X181000000Y-64867486D01*
X199074500Y-64867486D01*
X199074500Y-65052513D01*
X199103445Y-65235265D01*
X199160619Y-65411232D01*
X199160620Y-65411235D01*
X199244622Y-65576096D01*
X199353379Y-65725787D01*
X199484213Y-65856621D01*
X199633904Y-65965378D01*
X199714763Y-66006577D01*
X199798764Y-66049379D01*
X199798767Y-66049380D01*
X199886750Y-66077967D01*
X199974736Y-66106555D01*
X200157486Y-66135500D01*
X200157487Y-66135500D01*
X200342513Y-66135500D01*
X200342514Y-66135500D01*
X200525264Y-66106555D01*
X200701235Y-66049379D01*
X200866096Y-65965378D01*
X201015787Y-65856621D01*
X201146621Y-65725787D01*
X201255378Y-65576096D01*
X201339379Y-65411235D01*
X201396555Y-65235264D01*
X201425500Y-65052514D01*
X201425500Y-64867486D01*
X206574500Y-64867486D01*
X206574500Y-65052513D01*
X206603445Y-65235265D01*
X206660619Y-65411232D01*
X206660620Y-65411235D01*
X206744622Y-65576096D01*
X206853379Y-65725787D01*
X206984213Y-65856621D01*
X207133904Y-65965378D01*
X207214763Y-66006577D01*
X207298764Y-66049379D01*
X207298767Y-66049380D01*
X207386750Y-66077967D01*
X207474736Y-66106555D01*
X207657486Y-66135500D01*
X207657487Y-66135500D01*
X207842513Y-66135500D01*
X207842514Y-66135500D01*
X208025264Y-66106555D01*
X208201235Y-66049379D01*
X208366096Y-65965378D01*
X208515787Y-65856621D01*
X208646621Y-65725787D01*
X208755378Y-65576096D01*
X208839379Y-65411235D01*
X208896555Y-65235264D01*
X208925500Y-65052514D01*
X208925500Y-64867486D01*
X208896555Y-64684736D01*
X208839379Y-64508765D01*
X208839379Y-64508764D01*
X208755377Y-64343903D01*
X208646621Y-64194213D01*
X208515787Y-64063379D01*
X208366096Y-63954622D01*
X208201235Y-63870620D01*
X208201232Y-63870619D01*
X208025265Y-63813445D01*
X207933889Y-63798972D01*
X207842514Y-63784500D01*
X207657486Y-63784500D01*
X207596569Y-63794148D01*
X207474734Y-63813445D01*
X207298767Y-63870619D01*
X207298764Y-63870620D01*
X207133903Y-63954622D01*
X207048499Y-64016672D01*
X206984213Y-64063379D01*
X206984211Y-64063381D01*
X206984210Y-64063381D01*
X206853381Y-64194210D01*
X206853381Y-64194211D01*
X206853379Y-64194213D01*
X206806672Y-64258499D01*
X206744622Y-64343903D01*
X206660620Y-64508764D01*
X206660619Y-64508767D01*
X206603445Y-64684734D01*
X206574500Y-64867486D01*
X201425500Y-64867486D01*
X201396555Y-64684736D01*
X201339379Y-64508765D01*
X201339379Y-64508764D01*
X201255377Y-64343903D01*
X201146621Y-64194213D01*
X201015787Y-64063379D01*
X200866096Y-63954622D01*
X200701235Y-63870620D01*
X200701232Y-63870619D01*
X200525265Y-63813445D01*
X200433889Y-63798972D01*
X200342514Y-63784500D01*
X200157486Y-63784500D01*
X200096569Y-63794148D01*
X199974734Y-63813445D01*
X199798767Y-63870619D01*
X199798764Y-63870620D01*
X199633903Y-63954622D01*
X199548499Y-64016672D01*
X199484213Y-64063379D01*
X199484211Y-64063381D01*
X199484210Y-64063381D01*
X199353381Y-64194210D01*
X199353381Y-64194211D01*
X199353379Y-64194213D01*
X199306672Y-64258499D01*
X199244622Y-64343903D01*
X199160620Y-64508764D01*
X199160619Y-64508767D01*
X199103445Y-64684734D01*
X199074500Y-64867486D01*
X181000000Y-64867486D01*
X181000000Y-59867486D01*
X199074500Y-59867486D01*
X199074500Y-60052513D01*
X199103445Y-60235265D01*
X199160619Y-60411232D01*
X199160620Y-60411235D01*
X199244622Y-60576096D01*
X199353379Y-60725787D01*
X199484213Y-60856621D01*
X199633904Y-60965378D01*
X199714763Y-61006577D01*
X199798764Y-61049379D01*
X199798767Y-61049380D01*
X199886750Y-61077967D01*
X199974736Y-61106555D01*
X200157486Y-61135500D01*
X200157487Y-61135500D01*
X200342513Y-61135500D01*
X200342514Y-61135500D01*
X200525264Y-61106555D01*
X200701235Y-61049379D01*
X200866096Y-60965378D01*
X201015787Y-60856621D01*
X201146621Y-60725787D01*
X201255378Y-60576096D01*
X201339379Y-60411235D01*
X201396555Y-60235264D01*
X201425500Y-60052514D01*
X201425500Y-59867486D01*
X206574500Y-59867486D01*
X206574500Y-60052513D01*
X206603445Y-60235265D01*
X206660619Y-60411232D01*
X206660620Y-60411235D01*
X206744622Y-60576096D01*
X206853379Y-60725787D01*
X206984213Y-60856621D01*
X207133904Y-60965378D01*
X207214763Y-61006577D01*
X207298764Y-61049379D01*
X207298767Y-61049380D01*
X207386750Y-61077967D01*
X207474736Y-61106555D01*
X207657486Y-61135500D01*
X207657487Y-61135500D01*
X207842513Y-61135500D01*
X207842514Y-61135500D01*
X208025264Y-61106555D01*
X208201235Y-61049379D01*
X208366096Y-60965378D01*
X208515787Y-60856621D01*
X208646621Y-60725787D01*
X208755378Y-60576096D01*
X208839379Y-60411235D01*
X208896555Y-60235264D01*
X208925500Y-60052514D01*
X208925500Y-59867486D01*
X208896555Y-59684736D01*
X208839379Y-59508765D01*
X208839379Y-59508764D01*
X208755377Y-59343903D01*
X208646621Y-59194213D01*
X208515787Y-59063379D01*
X208366096Y-58954622D01*
X208201235Y-58870620D01*
X208201232Y-58870619D01*
X208025265Y-58813445D01*
X207933889Y-58798972D01*
X207842514Y-58784500D01*
X207657486Y-58784500D01*
X207596569Y-58794148D01*
X207474734Y-58813445D01*
X207298767Y-58870619D01*
X207298764Y-58870620D01*
X207133903Y-58954622D01*
X207048499Y-59016672D01*
X206984213Y-59063379D01*
X206984211Y-59063381D01*
X206984210Y-59063381D01*
X206853381Y-59194210D01*
X206853381Y-59194211D01*
X206853379Y-59194213D01*
X206806672Y-59258499D01*
X206744622Y-59343903D01*
X206660620Y-59508764D01*
X206660619Y-59508767D01*
X206603445Y-59684734D01*
X206574500Y-59867486D01*
X201425500Y-59867486D01*
X201396555Y-59684736D01*
X201339379Y-59508765D01*
X201339379Y-59508764D01*
X201255377Y-59343903D01*
X201146621Y-59194213D01*
X201015787Y-59063379D01*
X200866096Y-58954622D01*
X200701235Y-58870620D01*
X200701232Y-58870619D01*
X200525265Y-58813445D01*
X200433889Y-58798972D01*
X200342514Y-58784500D01*
X200157486Y-58784500D01*
X200096569Y-58794148D01*
X199974734Y-58813445D01*
X199798767Y-58870619D01*
X199798764Y-58870620D01*
X199633903Y-58954622D01*
X199548499Y-59016672D01*
X199484213Y-59063379D01*
X199484211Y-59063381D01*
X199484210Y-59063381D01*
X199353381Y-59194210D01*
X199353381Y-59194211D01*
X199353379Y-59194213D01*
X199306672Y-59258499D01*
X199244622Y-59343903D01*
X199160620Y-59508764D01*
X199160619Y-59508767D01*
X199103445Y-59684734D01*
X199074500Y-59867486D01*
X181000000Y-59867486D01*
X181000000Y-44624500D01*
X181019685Y-44557461D01*
X181072489Y-44511706D01*
X181124000Y-44500500D01*
X193673023Y-44500500D01*
X193740062Y-44520185D01*
G37*
%TD.AperFunction*%
%TD*%
%TA.AperFunction,Conductor*%
%TO.N,VOUT*%
G36*
X141343106Y-56005023D02*
G01*
X141358104Y-56009427D01*
X141373094Y-56019057D01*
X141390175Y-56024067D01*
X141416855Y-56047172D01*
X141418042Y-56048541D01*
X141445518Y-56103402D01*
X141447163Y-56110960D01*
X141450000Y-56137331D01*
X141450000Y-81657670D01*
X141444975Y-81692614D01*
X141440570Y-81707612D01*
X141430939Y-81722601D01*
X141425932Y-81739675D01*
X141402827Y-81766355D01*
X141401458Y-81767542D01*
X141346597Y-81795018D01*
X141339039Y-81796663D01*
X141312668Y-81799500D01*
X140576506Y-81799500D01*
X140541570Y-81794477D01*
X140516328Y-81787065D01*
X140463583Y-81755769D01*
X138707316Y-79999502D01*
X138707314Y-79999500D01*
X138650250Y-79966554D01*
X138593187Y-79933608D01*
X138529539Y-79916554D01*
X138465892Y-79899500D01*
X138465891Y-79899500D01*
X129534108Y-79899500D01*
X129406808Y-79933609D01*
X129406806Y-79933610D01*
X129292696Y-79999493D01*
X129292682Y-79999502D01*
X129292677Y-79999506D01*
X125117138Y-84175045D01*
X125101400Y-84188360D01*
X125096851Y-84191599D01*
X125092428Y-84194186D01*
X125091057Y-84195727D01*
X125083734Y-84200944D01*
X125079868Y-84202282D01*
X125061225Y-84213668D01*
X125058683Y-84214773D01*
X125041345Y-84220827D01*
X125018679Y-84226900D01*
X124963370Y-84241721D01*
X124950357Y-84244046D01*
X124932408Y-84247617D01*
X124908214Y-84250000D01*
X94118196Y-84250000D01*
X94083261Y-84244977D01*
X94072407Y-84241790D01*
X94013629Y-84204016D01*
X93984604Y-84140460D01*
X93994547Y-84071303D01*
X93997737Y-84064320D01*
X94022846Y-84028158D01*
X94081650Y-83969354D01*
X94081652Y-83969351D01*
X94189766Y-83807547D01*
X94264236Y-83627761D01*
X94302200Y-83436901D01*
X94302200Y-83242301D01*
X94264236Y-83051441D01*
X94189766Y-82871655D01*
X94189765Y-82871654D01*
X94189762Y-82871648D01*
X94189762Y-82871647D01*
X94081650Y-82709848D01*
X94081649Y-82709847D01*
X94081644Y-82709841D01*
X93944058Y-82572255D01*
X93944052Y-82572250D01*
X93944051Y-82572249D01*
X93782246Y-82464134D01*
X93782247Y-82464134D01*
X93782237Y-82464129D01*
X93602461Y-82389665D01*
X93602426Y-82389657D01*
X93411607Y-82351701D01*
X93411604Y-82351701D01*
X93411600Y-82351701D01*
X93217000Y-82351701D01*
X93216995Y-82351701D01*
X93216992Y-82351701D01*
X93026172Y-82389657D01*
X93026137Y-82389665D01*
X92846361Y-82464129D01*
X92846351Y-82464134D01*
X92684547Y-82572249D01*
X92684546Y-82572250D01*
X92684540Y-82572255D01*
X92546954Y-82709841D01*
X92546949Y-82709847D01*
X92546948Y-82709848D01*
X92438833Y-82871652D01*
X92438828Y-82871662D01*
X92364364Y-83051438D01*
X92364356Y-83051473D01*
X92326400Y-83242291D01*
X92326400Y-83436909D01*
X92364356Y-83627727D01*
X92364364Y-83627762D01*
X92438828Y-83807538D01*
X92438833Y-83807548D01*
X92546947Y-83969351D01*
X92546950Y-83969354D01*
X92603310Y-84025714D01*
X92615801Y-84042400D01*
X92624459Y-84053966D01*
X92629879Y-84063892D01*
X92644731Y-84132165D01*
X92620314Y-84197629D01*
X92564381Y-84239501D01*
X92557193Y-84242182D01*
X92513859Y-84250000D01*
X91118197Y-84250000D01*
X91083262Y-84244977D01*
X91072408Y-84241790D01*
X91057409Y-84232151D01*
X91040303Y-84227128D01*
X91028628Y-84213655D01*
X91013630Y-84204016D01*
X91006222Y-84187796D01*
X90994548Y-84174323D01*
X90992010Y-84156676D01*
X90984605Y-84140460D01*
X90987142Y-84122813D01*
X90984605Y-84105165D01*
X90994547Y-84071307D01*
X90997738Y-84064320D01*
X91022847Y-84028158D01*
X91081651Y-83969354D01*
X91081653Y-83969351D01*
X91189767Y-83807547D01*
X91264237Y-83627761D01*
X91302201Y-83436901D01*
X91302201Y-83242301D01*
X91264237Y-83051441D01*
X91189767Y-82871655D01*
X91189766Y-82871654D01*
X91189763Y-82871648D01*
X91189763Y-82871647D01*
X91081651Y-82709848D01*
X91081650Y-82709847D01*
X91081645Y-82709841D01*
X90944059Y-82572255D01*
X90944053Y-82572250D01*
X90944052Y-82572249D01*
X90782247Y-82464134D01*
X90782248Y-82464134D01*
X90782238Y-82464129D01*
X90602462Y-82389665D01*
X90602427Y-82389657D01*
X90411608Y-82351701D01*
X90411605Y-82351701D01*
X90411601Y-82351701D01*
X90217001Y-82351701D01*
X90216996Y-82351701D01*
X90216993Y-82351701D01*
X90026173Y-82389657D01*
X90026138Y-82389665D01*
X89846362Y-82464129D01*
X89846352Y-82464134D01*
X89684548Y-82572249D01*
X89684547Y-82572250D01*
X89684541Y-82572255D01*
X89546955Y-82709841D01*
X89546950Y-82709847D01*
X89546949Y-82709848D01*
X89438834Y-82871652D01*
X89438829Y-82871662D01*
X89364365Y-83051438D01*
X89364357Y-83051473D01*
X89326401Y-83242291D01*
X89326401Y-83436909D01*
X89364357Y-83627727D01*
X89364365Y-83627762D01*
X89438829Y-83807538D01*
X89438834Y-83807548D01*
X89546948Y-83969351D01*
X89546951Y-83969354D01*
X89603311Y-84025714D01*
X89615802Y-84042400D01*
X89624460Y-84053966D01*
X89629880Y-84063892D01*
X89644732Y-84132165D01*
X89620315Y-84197629D01*
X89564382Y-84239501D01*
X89557194Y-84242182D01*
X89513860Y-84250000D01*
X86974800Y-84250000D01*
X86939865Y-84244977D01*
X86929011Y-84241790D01*
X86914034Y-84232165D01*
X86896951Y-84227157D01*
X86885254Y-84213669D01*
X86870233Y-84204016D01*
X86862836Y-84187819D01*
X86851174Y-84174372D01*
X86848625Y-84156702D01*
X86841208Y-84140460D01*
X86843739Y-84122823D01*
X86841201Y-84105218D01*
X86851127Y-84071355D01*
X86851388Y-84070785D01*
X86885228Y-84026655D01*
X86886978Y-84025210D01*
X86896676Y-84018475D01*
X86897117Y-84017967D01*
X86897623Y-84017818D01*
X86903920Y-84013445D01*
X86982273Y-83968208D01*
X87166818Y-83826602D01*
X87331301Y-83662119D01*
X87472907Y-83477574D01*
X87589214Y-83276125D01*
X87678231Y-83061218D01*
X87738436Y-82836530D01*
X87768799Y-82605907D01*
X87768799Y-82373293D01*
X87738436Y-82142670D01*
X87678231Y-81917982D01*
X87675885Y-81912319D01*
X87601108Y-81731790D01*
X87589442Y-81703626D01*
X87589234Y-81703116D01*
X87589220Y-81703090D01*
X87589214Y-81703075D01*
X87589212Y-81703072D01*
X87589210Y-81703067D01*
X87589181Y-81703017D01*
X87588282Y-81701332D01*
X87587224Y-81699628D01*
X87472911Y-81501633D01*
X87472907Y-81501626D01*
X87410997Y-81420943D01*
X87331302Y-81317082D01*
X87331296Y-81317075D01*
X87166823Y-81152602D01*
X87166816Y-81152596D01*
X87166813Y-81152593D01*
X87166808Y-81152589D01*
X86985858Y-81013742D01*
X86985846Y-81013733D01*
X86982281Y-81010998D01*
X86982279Y-81010996D01*
X86982273Y-81010992D01*
X86982268Y-81010989D01*
X86982265Y-81010987D01*
X86980519Y-81009979D01*
X86980515Y-81009976D01*
X86876962Y-80950190D01*
X86780831Y-80894688D01*
X86780820Y-80894683D01*
X86565919Y-80805668D01*
X86565917Y-80805667D01*
X86565916Y-80805667D01*
X86518433Y-80792944D01*
X86453573Y-80775565D01*
X86453572Y-80775564D01*
X86364973Y-80751825D01*
X86341229Y-80745463D01*
X86341226Y-80745462D01*
X86341224Y-80745462D01*
X86304233Y-80740591D01*
X86289979Y-80738715D01*
X86289978Y-80738714D01*
X86110614Y-80715100D01*
X86110613Y-80715100D01*
X86110606Y-80715100D01*
X85877992Y-80715100D01*
X85877984Y-80715100D01*
X85877983Y-80715100D01*
X85672993Y-80742088D01*
X85672993Y-80742089D01*
X85660181Y-80743776D01*
X85647368Y-80745463D01*
X85591196Y-80760513D01*
X85591197Y-80760514D01*
X85422678Y-80805668D01*
X85422668Y-80805671D01*
X85207770Y-80894685D01*
X85006336Y-81010984D01*
X85006319Y-81010996D01*
X85006305Y-81011006D01*
X84821788Y-81152589D01*
X84821773Y-81152603D01*
X84821765Y-81152610D01*
X84657309Y-81317066D01*
X84657302Y-81317074D01*
X84657301Y-81317075D01*
X84657295Y-81317082D01*
X84608360Y-81380854D01*
X84515705Y-81501606D01*
X84515695Y-81501620D01*
X84515683Y-81501637D01*
X84399384Y-81703071D01*
X84310370Y-81917969D01*
X84310367Y-81917979D01*
X84276779Y-82043334D01*
X84253215Y-82131278D01*
X84253214Y-82131282D01*
X84250162Y-82142668D01*
X84250161Y-82142673D01*
X84233632Y-82268218D01*
X84219799Y-82373285D01*
X84219799Y-82605914D01*
X84236372Y-82731790D01*
X84250162Y-82836530D01*
X84277380Y-82938110D01*
X84310366Y-83061218D01*
X84310368Y-83061222D01*
X84310370Y-83061229D01*
X84399384Y-83276127D01*
X84399387Y-83276132D01*
X84515686Y-83477566D01*
X84515697Y-83477582D01*
X84515705Y-83477592D01*
X84657288Y-83662109D01*
X84657292Y-83662114D01*
X84657295Y-83662117D01*
X84657301Y-83662124D01*
X84821774Y-83826597D01*
X84821781Y-83826603D01*
X84821784Y-83826605D01*
X84821788Y-83826609D01*
X84877063Y-83869022D01*
X84953186Y-83927433D01*
X85006325Y-83968208D01*
X85081372Y-84011537D01*
X85084430Y-84013552D01*
X85087099Y-84016706D01*
X85105931Y-84031515D01*
X85113739Y-84039704D01*
X85124908Y-84061371D01*
X85129572Y-84066881D01*
X85130199Y-84071636D01*
X85145752Y-84101806D01*
X85139108Y-84171359D01*
X85095989Y-84226226D01*
X85095487Y-84226584D01*
X85044081Y-84247905D01*
X85041866Y-84248278D01*
X85021275Y-84250000D01*
X83191830Y-84250000D01*
X83191825Y-84249999D01*
X83191823Y-84250000D01*
X83156889Y-84244975D01*
X83141890Y-84240570D01*
X83083144Y-84202827D01*
X83083115Y-84202793D01*
X83083114Y-84202793D01*
X83083113Y-84202791D01*
X83081957Y-84201458D01*
X83054477Y-84146583D01*
X83052832Y-84139021D01*
X83050000Y-84112668D01*
X83050000Y-80242292D01*
X89326401Y-80242292D01*
X89326401Y-80436910D01*
X89364357Y-80627728D01*
X89364365Y-80627763D01*
X89438829Y-80807539D01*
X89438834Y-80807549D01*
X89546949Y-80969353D01*
X89546950Y-80969354D01*
X89546955Y-80969360D01*
X89684541Y-81106946D01*
X89684547Y-81106951D01*
X89684548Y-81106952D01*
X89846347Y-81215064D01*
X89846352Y-81215066D01*
X89846354Y-81215067D01*
X89846355Y-81215068D01*
X90026141Y-81289538D01*
X90164611Y-81317081D01*
X90214025Y-81326910D01*
X90216260Y-81327411D01*
X90216998Y-81327502D01*
X90411602Y-81327502D01*
X90415722Y-81327502D01*
X90423571Y-81325120D01*
X90602461Y-81289538D01*
X90782247Y-81215068D01*
X90944051Y-81106954D01*
X91081653Y-80969352D01*
X91189767Y-80807548D01*
X91264237Y-80627762D01*
X91302201Y-80436902D01*
X91302201Y-80242302D01*
X91302199Y-80242292D01*
X92326400Y-80242292D01*
X92326400Y-80436910D01*
X92364356Y-80627728D01*
X92364364Y-80627763D01*
X92438828Y-80807539D01*
X92438833Y-80807549D01*
X92546948Y-80969353D01*
X92546949Y-80969354D01*
X92546954Y-80969360D01*
X92684540Y-81106946D01*
X92684546Y-81106951D01*
X92684547Y-81106952D01*
X92846346Y-81215064D01*
X92846351Y-81215066D01*
X92846353Y-81215067D01*
X92846354Y-81215068D01*
X93026140Y-81289538D01*
X93164610Y-81317081D01*
X93214024Y-81326910D01*
X93216259Y-81327411D01*
X93216997Y-81327502D01*
X93411601Y-81327502D01*
X93415721Y-81327502D01*
X93423570Y-81325120D01*
X93602460Y-81289538D01*
X93782246Y-81215068D01*
X93944050Y-81106954D01*
X94081652Y-80969352D01*
X94189766Y-80807548D01*
X94264236Y-80627762D01*
X94302200Y-80436902D01*
X94302200Y-80242302D01*
X94264236Y-80051442D01*
X94189766Y-79871656D01*
X94189765Y-79871655D01*
X94189762Y-79871649D01*
X94189762Y-79871648D01*
X94081650Y-79709849D01*
X94081649Y-79709848D01*
X94081644Y-79709842D01*
X93944058Y-79572256D01*
X93944052Y-79572251D01*
X93944051Y-79572250D01*
X93782246Y-79464135D01*
X93782247Y-79464135D01*
X93782237Y-79464130D01*
X93602461Y-79389666D01*
X93602426Y-79389658D01*
X93411607Y-79351702D01*
X93411604Y-79351702D01*
X93411600Y-79351702D01*
X93217000Y-79351702D01*
X93216995Y-79351702D01*
X93216992Y-79351702D01*
X93026172Y-79389658D01*
X93026137Y-79389666D01*
X92846361Y-79464130D01*
X92846351Y-79464135D01*
X92684547Y-79572250D01*
X92684546Y-79572251D01*
X92684540Y-79572256D01*
X92546954Y-79709842D01*
X92546949Y-79709848D01*
X92546948Y-79709849D01*
X92438833Y-79871653D01*
X92438828Y-79871663D01*
X92364364Y-80051439D01*
X92364356Y-80051474D01*
X92326400Y-80242292D01*
X91302199Y-80242292D01*
X91264237Y-80051442D01*
X91189767Y-79871656D01*
X91189766Y-79871655D01*
X91189763Y-79871649D01*
X91189763Y-79871648D01*
X91081651Y-79709849D01*
X91081650Y-79709848D01*
X91081645Y-79709842D01*
X90944059Y-79572256D01*
X90944053Y-79572251D01*
X90944052Y-79572250D01*
X90782247Y-79464135D01*
X90782248Y-79464135D01*
X90782238Y-79464130D01*
X90602462Y-79389666D01*
X90602427Y-79389658D01*
X90411608Y-79351702D01*
X90411605Y-79351702D01*
X90411601Y-79351702D01*
X90217001Y-79351702D01*
X90216996Y-79351702D01*
X90216993Y-79351702D01*
X90026173Y-79389658D01*
X90026138Y-79389666D01*
X89846362Y-79464130D01*
X89846352Y-79464135D01*
X89684548Y-79572250D01*
X89684547Y-79572251D01*
X89684541Y-79572256D01*
X89546955Y-79709842D01*
X89546950Y-79709848D01*
X89546949Y-79709849D01*
X89438834Y-79871653D01*
X89438829Y-79871663D01*
X89364365Y-80051439D01*
X89364357Y-80051474D01*
X89326401Y-80242292D01*
X83050000Y-80242292D01*
X83050000Y-70862757D01*
X124057686Y-70862757D01*
X124057686Y-71020870D01*
X124081312Y-71109044D01*
X124098608Y-71173594D01*
X124098610Y-71173601D01*
X124098611Y-71173602D01*
X124098614Y-71173607D01*
X124174809Y-71305585D01*
X124174824Y-71305609D01*
X124177661Y-71310523D01*
X124177665Y-71310528D01*
X124177666Y-71310530D01*
X124178235Y-71311099D01*
X124289473Y-71422337D01*
X124290155Y-71422828D01*
X124292661Y-71424177D01*
X124426395Y-71501387D01*
X124426402Y-71501391D01*
X124579129Y-71542314D01*
X124579131Y-71542314D01*
X124737241Y-71542314D01*
X124737243Y-71542314D01*
X124889970Y-71501391D01*
X125026902Y-71422334D01*
X125138706Y-71310530D01*
X125217763Y-71173598D01*
X125258686Y-71020871D01*
X125258686Y-70862757D01*
X125217763Y-70710030D01*
X125217759Y-70710023D01*
X125138710Y-70573104D01*
X125138704Y-70573096D01*
X125138700Y-70573092D01*
X125138699Y-70573090D01*
X125026908Y-70461299D01*
X125026906Y-70461298D01*
X125026903Y-70461295D01*
X125026895Y-70461289D01*
X125000333Y-70445954D01*
X124889993Y-70382249D01*
X124889969Y-70382236D01*
X124778165Y-70352278D01*
X124737243Y-70341314D01*
X124737242Y-70341314D01*
X124579129Y-70341314D01*
X124426404Y-70382236D01*
X124426397Y-70382238D01*
X124426396Y-70382239D01*
X124426386Y-70382244D01*
X124289484Y-70461284D01*
X124289480Y-70461286D01*
X124289476Y-70461289D01*
X124289468Y-70461295D01*
X124289464Y-70461298D01*
X124289462Y-70461299D01*
X124177671Y-70573090D01*
X124177670Y-70573092D01*
X124177667Y-70573095D01*
X124177667Y-70573096D01*
X124177661Y-70573104D01*
X124177658Y-70573108D01*
X124177656Y-70573112D01*
X124098616Y-70710014D01*
X124098611Y-70710024D01*
X124098610Y-70710025D01*
X124098609Y-70710029D01*
X124098609Y-70710030D01*
X124057686Y-70862757D01*
X83050000Y-70862757D01*
X83050000Y-65770943D01*
X124299500Y-65770943D01*
X124299500Y-65929056D01*
X124323126Y-66017230D01*
X124340422Y-66081780D01*
X124340424Y-66081787D01*
X124340425Y-66081788D01*
X124340428Y-66081793D01*
X124416623Y-66213771D01*
X124416638Y-66213795D01*
X124419475Y-66218709D01*
X124419479Y-66218714D01*
X124419480Y-66218716D01*
X124420049Y-66219285D01*
X124531287Y-66330523D01*
X124531969Y-66331014D01*
X124534475Y-66332363D01*
X124668209Y-66409573D01*
X124668216Y-66409577D01*
X124820943Y-66450500D01*
X124820945Y-66450500D01*
X124979055Y-66450500D01*
X124979057Y-66450500D01*
X125131784Y-66409577D01*
X125268716Y-66330520D01*
X125380520Y-66218716D01*
X125459577Y-66081784D01*
X125500500Y-65929057D01*
X125500500Y-65770943D01*
X125459577Y-65618216D01*
X125459573Y-65618209D01*
X125380524Y-65481290D01*
X125380518Y-65481282D01*
X125380514Y-65481278D01*
X125380513Y-65481276D01*
X125268722Y-65369485D01*
X125268720Y-65369484D01*
X125268717Y-65369481D01*
X125268709Y-65369475D01*
X125242147Y-65354140D01*
X125131807Y-65290435D01*
X125131783Y-65290422D01*
X125019979Y-65260464D01*
X124979057Y-65249500D01*
X124979056Y-65249500D01*
X124820943Y-65249500D01*
X124668218Y-65290422D01*
X124668211Y-65290424D01*
X124668210Y-65290425D01*
X124668200Y-65290430D01*
X124531298Y-65369470D01*
X124531294Y-65369472D01*
X124531290Y-65369475D01*
X124531282Y-65369481D01*
X124531278Y-65369484D01*
X124531276Y-65369485D01*
X124419485Y-65481276D01*
X124419484Y-65481278D01*
X124419481Y-65481281D01*
X124419481Y-65481282D01*
X124419475Y-65481290D01*
X124419472Y-65481294D01*
X124419470Y-65481298D01*
X124340430Y-65618200D01*
X124340425Y-65618210D01*
X124340424Y-65618211D01*
X124340423Y-65618215D01*
X124340423Y-65618216D01*
X124299500Y-65770943D01*
X83050000Y-65770943D01*
X83050000Y-62474943D01*
X136753500Y-62474943D01*
X136753500Y-62633056D01*
X136777126Y-62721230D01*
X136794422Y-62785780D01*
X136794424Y-62785787D01*
X136794425Y-62785788D01*
X136794428Y-62785793D01*
X136870623Y-62917771D01*
X136870638Y-62917795D01*
X136873475Y-62922709D01*
X136873479Y-62922714D01*
X136873480Y-62922716D01*
X136874049Y-62923285D01*
X136985287Y-63034523D01*
X136985969Y-63035014D01*
X136988475Y-63036363D01*
X137122209Y-63113573D01*
X137122216Y-63113577D01*
X137274943Y-63154500D01*
X137274945Y-63154500D01*
X137433055Y-63154500D01*
X137433057Y-63154500D01*
X137585784Y-63113577D01*
X137722716Y-63034520D01*
X137834520Y-62922716D01*
X137913577Y-62785784D01*
X137954500Y-62633057D01*
X137954500Y-62474943D01*
X137913577Y-62322216D01*
X137913573Y-62322209D01*
X137834524Y-62185290D01*
X137834518Y-62185282D01*
X137834514Y-62185278D01*
X137834513Y-62185276D01*
X137722722Y-62073485D01*
X137722720Y-62073484D01*
X137722717Y-62073481D01*
X137722709Y-62073475D01*
X137696147Y-62058140D01*
X137585807Y-61994435D01*
X137585783Y-61994422D01*
X137473979Y-61964464D01*
X137433057Y-61953500D01*
X137433056Y-61953500D01*
X137274943Y-61953500D01*
X137122218Y-61994422D01*
X137122211Y-61994424D01*
X137122210Y-61994425D01*
X137122200Y-61994430D01*
X136985298Y-62073470D01*
X136985294Y-62073472D01*
X136985290Y-62073475D01*
X136985282Y-62073481D01*
X136985278Y-62073484D01*
X136985276Y-62073485D01*
X136873485Y-62185276D01*
X136873484Y-62185278D01*
X136873481Y-62185281D01*
X136873481Y-62185282D01*
X136873475Y-62185290D01*
X136873472Y-62185294D01*
X136873470Y-62185298D01*
X136794430Y-62322200D01*
X136794425Y-62322210D01*
X136794424Y-62322211D01*
X136794423Y-62322215D01*
X136794423Y-62322216D01*
X136753500Y-62474943D01*
X83050000Y-62474943D01*
X83050000Y-59220943D01*
X113199500Y-59220943D01*
X113199500Y-59379056D01*
X113223126Y-59467230D01*
X113240422Y-59531780D01*
X113240424Y-59531787D01*
X113240425Y-59531788D01*
X113240428Y-59531793D01*
X113316623Y-59663771D01*
X113316638Y-59663795D01*
X113319475Y-59668709D01*
X113319479Y-59668714D01*
X113319480Y-59668716D01*
X113320049Y-59669285D01*
X113431287Y-59780523D01*
X113431969Y-59781014D01*
X113434475Y-59782363D01*
X113568209Y-59859573D01*
X113568216Y-59859577D01*
X113720943Y-59900500D01*
X113720945Y-59900500D01*
X113879055Y-59900500D01*
X113879057Y-59900500D01*
X114031784Y-59859577D01*
X114168716Y-59780520D01*
X114280520Y-59668716D01*
X114359577Y-59531784D01*
X114400500Y-59379057D01*
X114400500Y-59220943D01*
X114359577Y-59068216D01*
X114359573Y-59068209D01*
X114280524Y-58931290D01*
X114280518Y-58931282D01*
X114280514Y-58931278D01*
X114280513Y-58931276D01*
X114168722Y-58819485D01*
X114168720Y-58819484D01*
X114168717Y-58819481D01*
X114168709Y-58819475D01*
X114104456Y-58782379D01*
X114031807Y-58740435D01*
X114031783Y-58740422D01*
X113919979Y-58710464D01*
X113879057Y-58699500D01*
X113879056Y-58699500D01*
X113720943Y-58699500D01*
X113568218Y-58740422D01*
X113568211Y-58740424D01*
X113568210Y-58740425D01*
X113568200Y-58740430D01*
X113431298Y-58819470D01*
X113431294Y-58819472D01*
X113431290Y-58819475D01*
X113431282Y-58819481D01*
X113431278Y-58819484D01*
X113431276Y-58819485D01*
X113319485Y-58931276D01*
X113319484Y-58931278D01*
X113319481Y-58931281D01*
X113319481Y-58931282D01*
X113319475Y-58931290D01*
X113319472Y-58931294D01*
X113319470Y-58931298D01*
X113240430Y-59068200D01*
X113240425Y-59068210D01*
X113240424Y-59068211D01*
X113240423Y-59068215D01*
X113240423Y-59068216D01*
X113199500Y-59220943D01*
X83050000Y-59220943D01*
X83050000Y-58220943D01*
X100399500Y-58220943D01*
X100399500Y-58379056D01*
X100423126Y-58467230D01*
X100440422Y-58531780D01*
X100440424Y-58531787D01*
X100440425Y-58531788D01*
X100440428Y-58531793D01*
X100516623Y-58663771D01*
X100516638Y-58663795D01*
X100519475Y-58668709D01*
X100519479Y-58668714D01*
X100519480Y-58668716D01*
X100520049Y-58669285D01*
X100631287Y-58780523D01*
X100631971Y-58781016D01*
X100634489Y-58782371D01*
X100666427Y-58800810D01*
X100698764Y-58819480D01*
X100698765Y-58819480D01*
X100768216Y-58859577D01*
X100920943Y-58900500D01*
X100920945Y-58900500D01*
X101079055Y-58900500D01*
X101079057Y-58900500D01*
X101231784Y-58859577D01*
X101368716Y-58780520D01*
X101480520Y-58668716D01*
X101559577Y-58531784D01*
X101600500Y-58379057D01*
X101600500Y-58220943D01*
X101559577Y-58068216D01*
X101559573Y-58068209D01*
X101480524Y-57931290D01*
X101480518Y-57931282D01*
X101480514Y-57931278D01*
X101480513Y-57931276D01*
X101368722Y-57819485D01*
X101368720Y-57819484D01*
X101368717Y-57819481D01*
X101368709Y-57819475D01*
X101342147Y-57804140D01*
X101231807Y-57740435D01*
X101231783Y-57740422D01*
X101119979Y-57710464D01*
X101079057Y-57699500D01*
X101079056Y-57699500D01*
X100920943Y-57699500D01*
X100768218Y-57740422D01*
X100768211Y-57740424D01*
X100768210Y-57740425D01*
X100768200Y-57740430D01*
X100631298Y-57819470D01*
X100631294Y-57819472D01*
X100631290Y-57819475D01*
X100631282Y-57819481D01*
X100631278Y-57819484D01*
X100631276Y-57819485D01*
X100519485Y-57931276D01*
X100519484Y-57931278D01*
X100519481Y-57931281D01*
X100519481Y-57931282D01*
X100519475Y-57931290D01*
X100519472Y-57931294D01*
X100519470Y-57931298D01*
X100440430Y-58068200D01*
X100440425Y-58068210D01*
X100440424Y-58068211D01*
X100440423Y-58068215D01*
X100440423Y-58068216D01*
X100399500Y-58220943D01*
X83050000Y-58220943D01*
X83050000Y-56141829D01*
X83055023Y-56106893D01*
X83059427Y-56091895D01*
X83097172Y-56033144D01*
X83097200Y-56033119D01*
X83097199Y-56033119D01*
X83098541Y-56031956D01*
X83153420Y-56004477D01*
X83160979Y-56002833D01*
X83187332Y-56000000D01*
X141308170Y-56000000D01*
X141343106Y-56005023D01*
G37*
%TD.AperFunction*%
%TD*%
%TA.AperFunction,Conductor*%
%TO.N,Net-(U6-D)*%
G36*
X178002620Y-67205928D02*
G01*
X178069646Y-67225652D01*
X178115370Y-67278484D01*
X178126545Y-67329991D01*
X178114942Y-90260519D01*
X178095224Y-90327548D01*
X178078625Y-90348136D01*
X178057477Y-90369284D01*
X177978425Y-90506208D01*
X177978425Y-90506209D01*
X177978422Y-90506215D01*
X177937499Y-90658942D01*
X177937499Y-90817056D01*
X177940715Y-90829056D01*
X177978422Y-90969782D01*
X177978425Y-90969789D01*
X178057474Y-91106708D01*
X178057480Y-91106716D01*
X178078140Y-91127376D01*
X178111625Y-91188699D01*
X178114459Y-91215120D01*
X178114038Y-92047544D01*
X178097426Y-92109479D01*
X178040425Y-92208211D01*
X178040423Y-92208216D01*
X177999500Y-92360943D01*
X177999500Y-92519057D01*
X178034754Y-92650625D01*
X178040423Y-92671783D01*
X178040424Y-92671786D01*
X178097029Y-92769829D01*
X178113642Y-92831892D01*
X178113219Y-93666746D01*
X178093500Y-93733775D01*
X178076902Y-93754362D01*
X178057981Y-93773283D01*
X177978928Y-93910209D01*
X177978925Y-93910216D01*
X177938002Y-94062943D01*
X177938002Y-94221056D01*
X177978925Y-94373783D01*
X177978928Y-94373790D01*
X178057977Y-94510709D01*
X178057983Y-94510717D01*
X178076420Y-94529154D01*
X178109905Y-94590477D01*
X178112739Y-94616898D01*
X178111458Y-97150563D01*
X178091740Y-97217592D01*
X178038912Y-97263320D01*
X177987458Y-97274500D01*
X174633467Y-97274500D01*
X174502969Y-97300458D01*
X174502959Y-97300461D01*
X174380038Y-97351376D01*
X174380020Y-97351386D01*
X174269398Y-97425301D01*
X174269390Y-97425307D01*
X174175307Y-97519390D01*
X174175301Y-97519398D01*
X174101386Y-97630020D01*
X174101376Y-97630038D01*
X174050461Y-97752959D01*
X174050458Y-97752969D01*
X174024500Y-97883466D01*
X174024500Y-97883469D01*
X174024500Y-98016531D01*
X174024500Y-98016533D01*
X174024499Y-98016533D01*
X174050458Y-98147030D01*
X174050461Y-98147040D01*
X174101376Y-98269961D01*
X174101386Y-98269979D01*
X174175301Y-98380601D01*
X174175307Y-98380609D01*
X174269390Y-98474692D01*
X174269398Y-98474698D01*
X174380020Y-98548613D01*
X174380023Y-98548614D01*
X174380031Y-98548620D01*
X174502964Y-98599540D01*
X174502968Y-98599540D01*
X174502969Y-98599541D01*
X174633466Y-98625500D01*
X177986648Y-98625500D01*
X178053687Y-98645185D01*
X178099442Y-98697989D01*
X178110648Y-98749563D01*
X178103957Y-111974093D01*
X178084239Y-112041122D01*
X178031411Y-112086850D01*
X177979894Y-112098030D01*
X83173937Y-112050062D01*
X83106908Y-112030344D01*
X83061180Y-111977516D01*
X83050000Y-111926062D01*
X83050000Y-109505143D01*
X112399500Y-109505143D01*
X112399500Y-109663256D01*
X112440423Y-109815983D01*
X112440426Y-109815990D01*
X112519475Y-109952909D01*
X112519479Y-109952914D01*
X112519480Y-109952916D01*
X112631284Y-110064720D01*
X112631286Y-110064721D01*
X112631290Y-110064724D01*
X112768209Y-110143773D01*
X112768216Y-110143777D01*
X112920943Y-110184700D01*
X112920945Y-110184700D01*
X113079055Y-110184700D01*
X113079057Y-110184700D01*
X113231784Y-110143777D01*
X113368716Y-110064720D01*
X113480520Y-109952916D01*
X113559577Y-109815984D01*
X113600500Y-109663257D01*
X113600500Y-109505143D01*
X113559577Y-109352416D01*
X113559573Y-109352409D01*
X113480524Y-109215490D01*
X113480518Y-109215482D01*
X113368717Y-109103681D01*
X113368709Y-109103675D01*
X113231790Y-109024626D01*
X113231786Y-109024624D01*
X113231784Y-109024623D01*
X113079057Y-108983700D01*
X112920943Y-108983700D01*
X112768216Y-109024623D01*
X112768209Y-109024626D01*
X112631290Y-109103675D01*
X112631282Y-109103681D01*
X112519481Y-109215482D01*
X112519475Y-109215490D01*
X112440426Y-109352409D01*
X112440423Y-109352416D01*
X112399500Y-109505143D01*
X83050000Y-109505143D01*
X83050000Y-107820943D01*
X99499500Y-107820943D01*
X99499500Y-107979056D01*
X99540423Y-108131783D01*
X99540426Y-108131790D01*
X99619475Y-108268709D01*
X99619479Y-108268714D01*
X99619480Y-108268716D01*
X99731284Y-108380520D01*
X99731286Y-108380521D01*
X99731290Y-108380524D01*
X99868209Y-108459573D01*
X99868216Y-108459577D01*
X100020943Y-108500500D01*
X100020945Y-108500500D01*
X100179055Y-108500500D01*
X100179057Y-108500500D01*
X100331784Y-108459577D01*
X100468716Y-108380520D01*
X100580520Y-108268716D01*
X100659577Y-108131784D01*
X100700500Y-107979057D01*
X100700500Y-107820943D01*
X100659577Y-107668216D01*
X100659573Y-107668209D01*
X100580524Y-107531290D01*
X100580518Y-107531282D01*
X100468717Y-107419481D01*
X100468709Y-107419475D01*
X100331790Y-107340426D01*
X100331786Y-107340424D01*
X100331784Y-107340423D01*
X100179057Y-107299500D01*
X100020943Y-107299500D01*
X99868216Y-107340423D01*
X99868209Y-107340426D01*
X99731290Y-107419475D01*
X99731282Y-107419481D01*
X99619481Y-107531282D01*
X99619475Y-107531290D01*
X99540426Y-107668209D01*
X99540423Y-107668216D01*
X99499500Y-107820943D01*
X83050000Y-107820943D01*
X83050000Y-103924622D01*
X156799499Y-103924622D01*
X156799499Y-104082735D01*
X156840422Y-104235462D01*
X156840425Y-104235469D01*
X156919474Y-104372388D01*
X156919478Y-104372393D01*
X156919479Y-104372395D01*
X157031283Y-104484199D01*
X157031285Y-104484200D01*
X157031289Y-104484203D01*
X157168208Y-104563252D01*
X157168215Y-104563256D01*
X157320942Y-104604179D01*
X157320944Y-104604179D01*
X157479054Y-104604179D01*
X157479056Y-104604179D01*
X157631783Y-104563256D01*
X157768715Y-104484199D01*
X157880519Y-104372395D01*
X157959576Y-104235463D01*
X158000499Y-104082736D01*
X158000499Y-103924622D01*
X157959576Y-103771895D01*
X157959572Y-103771888D01*
X157880523Y-103634969D01*
X157880517Y-103634961D01*
X157768716Y-103523160D01*
X157768708Y-103523154D01*
X157631789Y-103444105D01*
X157631785Y-103444103D01*
X157631783Y-103444102D01*
X157479056Y-103403179D01*
X157320942Y-103403179D01*
X157168215Y-103444102D01*
X157168208Y-103444105D01*
X157031289Y-103523154D01*
X157031281Y-103523160D01*
X156919480Y-103634961D01*
X156919474Y-103634969D01*
X156840425Y-103771888D01*
X156840422Y-103771895D01*
X156799499Y-103924622D01*
X83050000Y-103924622D01*
X83050000Y-102782757D01*
X159111314Y-102782757D01*
X159111314Y-102940870D01*
X159152237Y-103093597D01*
X159152240Y-103093604D01*
X159231289Y-103230523D01*
X159231293Y-103230528D01*
X159231294Y-103230530D01*
X159343098Y-103342334D01*
X159343100Y-103342335D01*
X159343104Y-103342338D01*
X159480023Y-103421387D01*
X159480030Y-103421391D01*
X159632757Y-103462314D01*
X159632759Y-103462314D01*
X159790869Y-103462314D01*
X159790871Y-103462314D01*
X159943598Y-103421391D01*
X160080530Y-103342334D01*
X160192334Y-103230530D01*
X160271391Y-103093598D01*
X160312314Y-102940871D01*
X160312314Y-102782757D01*
X160271391Y-102630030D01*
X160271387Y-102630023D01*
X160192338Y-102493104D01*
X160192332Y-102493096D01*
X160080531Y-102381295D01*
X160080523Y-102381289D01*
X159943604Y-102302240D01*
X159943600Y-102302238D01*
X159943598Y-102302237D01*
X159790871Y-102261314D01*
X159632757Y-102261314D01*
X159480030Y-102302237D01*
X159480023Y-102302240D01*
X159343104Y-102381289D01*
X159343096Y-102381295D01*
X159231295Y-102493096D01*
X159231289Y-102493104D01*
X159152240Y-102630023D01*
X159152237Y-102630030D01*
X159111314Y-102782757D01*
X83050000Y-102782757D01*
X83050000Y-97672755D01*
X129600700Y-97672755D01*
X129600700Y-97830869D01*
X129614794Y-97883466D01*
X129641623Y-97983595D01*
X129641626Y-97983602D01*
X129720675Y-98120521D01*
X129720679Y-98120526D01*
X129720680Y-98120528D01*
X129832484Y-98232332D01*
X129832486Y-98232333D01*
X129832490Y-98232336D01*
X129897691Y-98269979D01*
X129969416Y-98311389D01*
X130122143Y-98352312D01*
X130122145Y-98352312D01*
X130280255Y-98352312D01*
X130280257Y-98352312D01*
X130432984Y-98311389D01*
X130569916Y-98232332D01*
X130681720Y-98120528D01*
X130760777Y-97983596D01*
X130801700Y-97830869D01*
X130801700Y-97672755D01*
X130760777Y-97520028D01*
X130760409Y-97519390D01*
X130681724Y-97383102D01*
X130681718Y-97383094D01*
X130569917Y-97271293D01*
X130569909Y-97271287D01*
X130432990Y-97192238D01*
X130432986Y-97192236D01*
X130432984Y-97192235D01*
X130280257Y-97151312D01*
X130122143Y-97151312D01*
X129969416Y-97192235D01*
X129969409Y-97192238D01*
X129832490Y-97271287D01*
X129832482Y-97271293D01*
X129720681Y-97383094D01*
X129720675Y-97383102D01*
X129641626Y-97520021D01*
X129641623Y-97520028D01*
X129600700Y-97672755D01*
X83050000Y-97672755D01*
X83050000Y-93579054D01*
X159899498Y-93579054D01*
X159940424Y-93731788D01*
X159946030Y-93741497D01*
X159946032Y-93741500D01*
X160019477Y-93868712D01*
X160019481Y-93868717D01*
X160131284Y-93980520D01*
X160218095Y-94030639D01*
X160218097Y-94030641D01*
X160256151Y-94052611D01*
X160268215Y-94059577D01*
X160420943Y-94100501D01*
X160420946Y-94100501D01*
X160579054Y-94100501D01*
X160579057Y-94100501D01*
X160731785Y-94059577D01*
X160781904Y-94030639D01*
X160868716Y-93980520D01*
X160980520Y-93868716D01*
X160980520Y-93868714D01*
X160990728Y-93858507D01*
X160990730Y-93858504D01*
X164190291Y-90658943D01*
X172699500Y-90658943D01*
X172699500Y-90817057D01*
X172740423Y-90969782D01*
X172740423Y-90969783D01*
X172740426Y-90969790D01*
X172819475Y-91106709D01*
X172819479Y-91106714D01*
X172819480Y-91106716D01*
X172931284Y-91218520D01*
X172931286Y-91218521D01*
X172931290Y-91218524D01*
X173001469Y-91259041D01*
X173068216Y-91297577D01*
X173220943Y-91338500D01*
X173220945Y-91338500D01*
X173379055Y-91338500D01*
X173379057Y-91338500D01*
X173531784Y-91297577D01*
X173668716Y-91218520D01*
X173780520Y-91106716D01*
X173859577Y-90969784D01*
X173900500Y-90817057D01*
X173900500Y-90658943D01*
X173859577Y-90506216D01*
X173859572Y-90506208D01*
X173780524Y-90369290D01*
X173780518Y-90369282D01*
X173668717Y-90257481D01*
X173668709Y-90257475D01*
X173531790Y-90178426D01*
X173531786Y-90178424D01*
X173531784Y-90178423D01*
X173379057Y-90137500D01*
X173220943Y-90137500D01*
X173068216Y-90178423D01*
X173068209Y-90178426D01*
X172931290Y-90257475D01*
X172931282Y-90257481D01*
X172819481Y-90369282D01*
X172819475Y-90369290D01*
X172740426Y-90506209D01*
X172740423Y-90506216D01*
X172699500Y-90658943D01*
X164190291Y-90658943D01*
X165928291Y-88920943D01*
X172599500Y-88920943D01*
X172599500Y-89079057D01*
X172636922Y-89218716D01*
X172640423Y-89231783D01*
X172640426Y-89231790D01*
X172719475Y-89368709D01*
X172719479Y-89368714D01*
X172719480Y-89368716D01*
X172831284Y-89480520D01*
X172831286Y-89480521D01*
X172831290Y-89480524D01*
X172968209Y-89559573D01*
X172968216Y-89559577D01*
X173120943Y-89600500D01*
X173120945Y-89600500D01*
X173279055Y-89600500D01*
X173279057Y-89600500D01*
X173431784Y-89559577D01*
X173568716Y-89480520D01*
X173680520Y-89368716D01*
X173759577Y-89231784D01*
X173800500Y-89079057D01*
X173800500Y-88920943D01*
X173759577Y-88768216D01*
X173701841Y-88668213D01*
X173680524Y-88631290D01*
X173680518Y-88631282D01*
X173568717Y-88519481D01*
X173568709Y-88519475D01*
X173431790Y-88440426D01*
X173431786Y-88440424D01*
X173431784Y-88440423D01*
X173279057Y-88399500D01*
X173120943Y-88399500D01*
X172968216Y-88440423D01*
X172968209Y-88440426D01*
X172831290Y-88519475D01*
X172831282Y-88519481D01*
X172719481Y-88631282D01*
X172719475Y-88631290D01*
X172640426Y-88768209D01*
X172640423Y-88768216D01*
X172599500Y-88920943D01*
X165928291Y-88920943D01*
X169643713Y-85205521D01*
X169643716Y-85205520D01*
X169755520Y-85093716D01*
X169805639Y-85006904D01*
X169834577Y-84956785D01*
X169875501Y-84804057D01*
X169875501Y-84645943D01*
X169834577Y-84493215D01*
X169790970Y-84417686D01*
X169755520Y-84356284D01*
X169643716Y-84244480D01*
X169556904Y-84194360D01*
X169556904Y-84194359D01*
X169556900Y-84194358D01*
X169506785Y-84165423D01*
X169354057Y-84124499D01*
X169195943Y-84124499D01*
X169088587Y-84153265D01*
X169043210Y-84165424D01*
X169043209Y-84165425D01*
X168993096Y-84194359D01*
X168993095Y-84194360D01*
X168966279Y-84209842D01*
X168906285Y-84244479D01*
X168906282Y-84244481D01*
X160019479Y-93131284D01*
X159994562Y-93174443D01*
X159984030Y-93192686D01*
X159940423Y-93268215D01*
X159899499Y-93420943D01*
X159899499Y-93420945D01*
X159899499Y-93579054D01*
X159899498Y-93579054D01*
X83050000Y-93579054D01*
X83050000Y-89242294D01*
X89326401Y-89242294D01*
X89326401Y-89436903D01*
X89364363Y-89627751D01*
X89364365Y-89627759D01*
X89438833Y-89807542D01*
X89438838Y-89807551D01*
X89546948Y-89969348D01*
X89546951Y-89969352D01*
X89684547Y-90106948D01*
X89684551Y-90106951D01*
X89846348Y-90215061D01*
X89846354Y-90215064D01*
X89846355Y-90215065D01*
X90026141Y-90289535D01*
X90170297Y-90318209D01*
X90216996Y-90327498D01*
X90217000Y-90327499D01*
X90217001Y-90327499D01*
X90411602Y-90327499D01*
X90411603Y-90327498D01*
X90602461Y-90289535D01*
X90782247Y-90215065D01*
X90944051Y-90106951D01*
X91081653Y-89969349D01*
X91189767Y-89807545D01*
X91264237Y-89627759D01*
X91302201Y-89436899D01*
X91302201Y-89242299D01*
X91302200Y-89242294D01*
X92326400Y-89242294D01*
X92326400Y-89436903D01*
X92364362Y-89627751D01*
X92364364Y-89627759D01*
X92438832Y-89807542D01*
X92438837Y-89807551D01*
X92546947Y-89969348D01*
X92546950Y-89969352D01*
X92684546Y-90106948D01*
X92684550Y-90106951D01*
X92846347Y-90215061D01*
X92846353Y-90215064D01*
X92846354Y-90215065D01*
X93026140Y-90289535D01*
X93170296Y-90318209D01*
X93216995Y-90327498D01*
X93216999Y-90327499D01*
X93217000Y-90327499D01*
X93411601Y-90327499D01*
X93411602Y-90327498D01*
X93602460Y-90289535D01*
X93782246Y-90215065D01*
X93944050Y-90106951D01*
X94081652Y-89969349D01*
X94189766Y-89807545D01*
X94264236Y-89627759D01*
X94302200Y-89436899D01*
X94302200Y-89242299D01*
X94264236Y-89051439D01*
X94206501Y-88912055D01*
X94189767Y-88871655D01*
X94189762Y-88871646D01*
X94081652Y-88709849D01*
X94081649Y-88709845D01*
X93944050Y-88572246D01*
X93859748Y-88515918D01*
X93782252Y-88464136D01*
X93782243Y-88464131D01*
X93677977Y-88420943D01*
X129399500Y-88420943D01*
X129399500Y-88579057D01*
X129434545Y-88709845D01*
X129440423Y-88731783D01*
X129440426Y-88731790D01*
X129519475Y-88868709D01*
X129519479Y-88868714D01*
X129519480Y-88868716D01*
X129631284Y-88980520D01*
X129631286Y-88980521D01*
X129631290Y-88980524D01*
X129768209Y-89059573D01*
X129768216Y-89059577D01*
X129920943Y-89100500D01*
X129920945Y-89100500D01*
X130079055Y-89100500D01*
X130079057Y-89100500D01*
X130231784Y-89059577D01*
X130368716Y-88980520D01*
X130480520Y-88868716D01*
X130559577Y-88731784D01*
X130600500Y-88579057D01*
X130600500Y-88420943D01*
X130559577Y-88268216D01*
X130559573Y-88268209D01*
X130480524Y-88131290D01*
X130480518Y-88131282D01*
X130368717Y-88019481D01*
X130368709Y-88019475D01*
X130231790Y-87940426D01*
X130231786Y-87940424D01*
X130231784Y-87940423D01*
X130079057Y-87899500D01*
X129920943Y-87899500D01*
X129768216Y-87940423D01*
X129768209Y-87940426D01*
X129631290Y-88019475D01*
X129631282Y-88019481D01*
X129519481Y-88131282D01*
X129519475Y-88131290D01*
X129440426Y-88268209D01*
X129440423Y-88268216D01*
X129399500Y-88420943D01*
X93677977Y-88420943D01*
X93602460Y-88389663D01*
X93602452Y-88389661D01*
X93411604Y-88351699D01*
X93411600Y-88351699D01*
X93217000Y-88351699D01*
X93216995Y-88351699D01*
X93026147Y-88389661D01*
X93026139Y-88389663D01*
X92846356Y-88464131D01*
X92846347Y-88464136D01*
X92684550Y-88572246D01*
X92684546Y-88572249D01*
X92546950Y-88709845D01*
X92546947Y-88709849D01*
X92438837Y-88871646D01*
X92438832Y-88871655D01*
X92364364Y-89051438D01*
X92364362Y-89051446D01*
X92326400Y-89242294D01*
X91302200Y-89242294D01*
X91264237Y-89051439D01*
X91206502Y-88912055D01*
X91189768Y-88871655D01*
X91189763Y-88871646D01*
X91081653Y-88709849D01*
X91081650Y-88709845D01*
X90944054Y-88572249D01*
X90944050Y-88572246D01*
X90782253Y-88464136D01*
X90782244Y-88464131D01*
X90602461Y-88389663D01*
X90602453Y-88389661D01*
X90411605Y-88351699D01*
X90411601Y-88351699D01*
X90217001Y-88351699D01*
X90216996Y-88351699D01*
X90026148Y-88389661D01*
X90026140Y-88389663D01*
X89846357Y-88464131D01*
X89846348Y-88464136D01*
X89684551Y-88572246D01*
X89684547Y-88572249D01*
X89546951Y-88709845D01*
X89546948Y-88709849D01*
X89438838Y-88871646D01*
X89438833Y-88871655D01*
X89364365Y-89051438D01*
X89364363Y-89051446D01*
X89326401Y-89242294D01*
X83050000Y-89242294D01*
X83050000Y-87073286D01*
X84219799Y-87073286D01*
X84219799Y-87305915D01*
X84234944Y-87420943D01*
X84250162Y-87536531D01*
X84261557Y-87579057D01*
X84310367Y-87761221D01*
X84399382Y-87976122D01*
X84399387Y-87976133D01*
X84515686Y-88177567D01*
X84515697Y-88177583D01*
X84657295Y-88362118D01*
X84657301Y-88362125D01*
X84821774Y-88526598D01*
X84821781Y-88526604D01*
X84902157Y-88588278D01*
X85006325Y-88668209D01*
X85006332Y-88668213D01*
X85207766Y-88784512D01*
X85207771Y-88784514D01*
X85207774Y-88784516D01*
X85315227Y-88829024D01*
X85422678Y-88873532D01*
X85422679Y-88873532D01*
X85422681Y-88873533D01*
X85647369Y-88933738D01*
X85877992Y-88964101D01*
X85877999Y-88964101D01*
X86110599Y-88964101D01*
X86110606Y-88964101D01*
X86341229Y-88933738D01*
X86565917Y-88873533D01*
X86780824Y-88784516D01*
X86982273Y-88668209D01*
X87166818Y-88526603D01*
X87331301Y-88362120D01*
X87472907Y-88177575D01*
X87589214Y-87976126D01*
X87678231Y-87761219D01*
X87738436Y-87536531D01*
X87768799Y-87305908D01*
X87768799Y-87073294D01*
X87738436Y-86842671D01*
X87678231Y-86617983D01*
X87662107Y-86579057D01*
X87603224Y-86436900D01*
X87589214Y-86403076D01*
X87589212Y-86403073D01*
X87589210Y-86403068D01*
X87472911Y-86201634D01*
X87472907Y-86201627D01*
X87331301Y-86017082D01*
X87331296Y-86017076D01*
X87166823Y-85852603D01*
X87166816Y-85852597D01*
X86982281Y-85710999D01*
X86982279Y-85710997D01*
X86982273Y-85710993D01*
X86982268Y-85710990D01*
X86982265Y-85710988D01*
X86780831Y-85594689D01*
X86780820Y-85594684D01*
X86565919Y-85505669D01*
X86453573Y-85475566D01*
X86341229Y-85445464D01*
X86289979Y-85438716D01*
X86110613Y-85415101D01*
X86110606Y-85415101D01*
X85877992Y-85415101D01*
X85877984Y-85415101D01*
X85672993Y-85442090D01*
X85647369Y-85445464D01*
X85594714Y-85459573D01*
X85422678Y-85505669D01*
X85207777Y-85594684D01*
X85207766Y-85594689D01*
X85006332Y-85710988D01*
X85006316Y-85710999D01*
X84821781Y-85852597D01*
X84821774Y-85852603D01*
X84657301Y-86017076D01*
X84657295Y-86017083D01*
X84515697Y-86201618D01*
X84515686Y-86201634D01*
X84399387Y-86403068D01*
X84399382Y-86403079D01*
X84310367Y-86617980D01*
X84279872Y-86731790D01*
X84253194Y-86831358D01*
X84250162Y-86842672D01*
X84219799Y-87073286D01*
X83050000Y-87073286D01*
X83050000Y-85274000D01*
X83069685Y-85206961D01*
X83122489Y-85161206D01*
X83174000Y-85150000D01*
X89981351Y-85150000D01*
X90048390Y-85169685D01*
X90094145Y-85222489D01*
X90104089Y-85291647D01*
X90075064Y-85355203D01*
X90028804Y-85388561D01*
X89846357Y-85464132D01*
X89846348Y-85464137D01*
X89684551Y-85572247D01*
X89684547Y-85572250D01*
X89546951Y-85709846D01*
X89546948Y-85709850D01*
X89438838Y-85871647D01*
X89438833Y-85871656D01*
X89364365Y-86051439D01*
X89364363Y-86051447D01*
X89326401Y-86242295D01*
X89326401Y-86436904D01*
X89364363Y-86627752D01*
X89364365Y-86627760D01*
X89438833Y-86807543D01*
X89438838Y-86807552D01*
X89546948Y-86969349D01*
X89546951Y-86969353D01*
X89684547Y-87106949D01*
X89684551Y-87106952D01*
X89846348Y-87215062D01*
X89846354Y-87215065D01*
X89846355Y-87215066D01*
X90026141Y-87289536D01*
X90216996Y-87327499D01*
X90217000Y-87327500D01*
X90217001Y-87327500D01*
X90411602Y-87327500D01*
X90411603Y-87327499D01*
X90602461Y-87289536D01*
X90782247Y-87215066D01*
X90944051Y-87106952D01*
X91081653Y-86969350D01*
X91189767Y-86807546D01*
X91264237Y-86627760D01*
X91302201Y-86436900D01*
X91302201Y-86242300D01*
X91264237Y-86051440D01*
X91189767Y-85871654D01*
X91189766Y-85871653D01*
X91189763Y-85871647D01*
X91081653Y-85709850D01*
X91081650Y-85709846D01*
X90944054Y-85572250D01*
X90944050Y-85572247D01*
X90782253Y-85464137D01*
X90782244Y-85464132D01*
X90599798Y-85388561D01*
X90545395Y-85344720D01*
X90523330Y-85278426D01*
X90540609Y-85210727D01*
X90591746Y-85163116D01*
X90647251Y-85150000D01*
X92981350Y-85150000D01*
X93048389Y-85169685D01*
X93094144Y-85222489D01*
X93104088Y-85291647D01*
X93075063Y-85355203D01*
X93028803Y-85388561D01*
X92846356Y-85464132D01*
X92846347Y-85464137D01*
X92684550Y-85572247D01*
X92684546Y-85572250D01*
X92546950Y-85709846D01*
X92546947Y-85709850D01*
X92438837Y-85871647D01*
X92438832Y-85871656D01*
X92364364Y-86051439D01*
X92364362Y-86051447D01*
X92326400Y-86242295D01*
X92326400Y-86436904D01*
X92364362Y-86627752D01*
X92364364Y-86627760D01*
X92438832Y-86807543D01*
X92438837Y-86807552D01*
X92546947Y-86969349D01*
X92546950Y-86969353D01*
X92684546Y-87106949D01*
X92684550Y-87106952D01*
X92846347Y-87215062D01*
X92846353Y-87215065D01*
X92846354Y-87215066D01*
X93026140Y-87289536D01*
X93216995Y-87327499D01*
X93216999Y-87327500D01*
X93217000Y-87327500D01*
X93411601Y-87327500D01*
X93411602Y-87327499D01*
X93602460Y-87289536D01*
X93782246Y-87215066D01*
X93944050Y-87106952D01*
X94081652Y-86969350D01*
X94189766Y-86807546D01*
X94264236Y-86627760D01*
X94302200Y-86436900D01*
X94302200Y-86242300D01*
X94264236Y-86051440D01*
X94189766Y-85871654D01*
X94189765Y-85871653D01*
X94189762Y-85871647D01*
X94081652Y-85709850D01*
X94081649Y-85709846D01*
X93944053Y-85572250D01*
X93944049Y-85572247D01*
X93782252Y-85464137D01*
X93782243Y-85464132D01*
X93599797Y-85388561D01*
X93545394Y-85344720D01*
X93523329Y-85278426D01*
X93540608Y-85210727D01*
X93591745Y-85163116D01*
X93647250Y-85150000D01*
X124649401Y-85150000D01*
X124716440Y-85169685D01*
X124737082Y-85186318D01*
X124831284Y-85280520D01*
X124831286Y-85280521D01*
X124831290Y-85280524D01*
X124960640Y-85355203D01*
X124968216Y-85359577D01*
X125120943Y-85400500D01*
X125120945Y-85400500D01*
X125279055Y-85400500D01*
X125279057Y-85400500D01*
X125431784Y-85359577D01*
X125568716Y-85280520D01*
X125662918Y-85186318D01*
X125724242Y-85152834D01*
X125750599Y-85150000D01*
X136275500Y-85150000D01*
X136342539Y-85169685D01*
X136388294Y-85222489D01*
X136399500Y-85274000D01*
X136399500Y-91167896D01*
X136405074Y-91188699D01*
X136418417Y-91238497D01*
X136423385Y-91257037D01*
X136423387Y-91257042D01*
X136469527Y-91336960D01*
X136469529Y-91336963D01*
X136469530Y-91336964D01*
X137588036Y-92455470D01*
X137667960Y-92501614D01*
X137757104Y-92525500D01*
X137757105Y-92525500D01*
X137849392Y-92525500D01*
X155728456Y-92525500D01*
X155757896Y-92534144D01*
X155787883Y-92540668D01*
X155792898Y-92544422D01*
X155795495Y-92545185D01*
X155816137Y-92561819D01*
X155863181Y-92608863D01*
X155896666Y-92670186D01*
X155899500Y-92696544D01*
X155899500Y-92829057D01*
X155924008Y-92920520D01*
X155940423Y-92981783D01*
X155940426Y-92981790D01*
X156019475Y-93118709D01*
X156019479Y-93118714D01*
X156019480Y-93118716D01*
X156131284Y-93230520D01*
X156131286Y-93230521D01*
X156131290Y-93230524D01*
X156196574Y-93268215D01*
X156268216Y-93309577D01*
X156420943Y-93350500D01*
X156420945Y-93350500D01*
X156579055Y-93350500D01*
X156579057Y-93350500D01*
X156731784Y-93309577D01*
X156735843Y-93307233D01*
X156738973Y-93305427D01*
X156868709Y-93230524D01*
X156868716Y-93230520D01*
X156980520Y-93118716D01*
X157059577Y-92981784D01*
X157100500Y-92829057D01*
X157100500Y-92670943D01*
X157059577Y-92518216D01*
X157023350Y-92455468D01*
X156980524Y-92381290D01*
X156980518Y-92381282D01*
X156868717Y-92269481D01*
X156868712Y-92269477D01*
X156846905Y-92256887D01*
X156798689Y-92206320D01*
X156785466Y-92137713D01*
X156811434Y-92072848D01*
X156868349Y-92032320D01*
X156908905Y-92025500D01*
X158425170Y-92025500D01*
X158492209Y-92045185D01*
X158512679Y-92064022D01*
X158513733Y-92062969D01*
X158519480Y-92068716D01*
X158631284Y-92180520D01*
X158631286Y-92180521D01*
X158631290Y-92180524D01*
X158679255Y-92208216D01*
X158768216Y-92259577D01*
X158920943Y-92300500D01*
X158920945Y-92300500D01*
X159079055Y-92300500D01*
X159079057Y-92300500D01*
X159231784Y-92259577D01*
X159368716Y-92180520D01*
X159480520Y-92068716D01*
X159559577Y-91931784D01*
X159600500Y-91779057D01*
X159600500Y-91620943D01*
X159559577Y-91468216D01*
X159505471Y-91374500D01*
X159480524Y-91331290D01*
X159480518Y-91331282D01*
X159368717Y-91219481D01*
X159368709Y-91219475D01*
X159231790Y-91140426D01*
X159231786Y-91140424D01*
X159231784Y-91140423D01*
X159079057Y-91099500D01*
X158920943Y-91099500D01*
X158768216Y-91140423D01*
X158768209Y-91140426D01*
X158631290Y-91219475D01*
X158631282Y-91219481D01*
X158513733Y-91337031D01*
X158511487Y-91334785D01*
X158467145Y-91367179D01*
X158425170Y-91374500D01*
X153524098Y-91374500D01*
X153457059Y-91354815D01*
X153411304Y-91302011D01*
X153401360Y-91232853D01*
X153430385Y-91169297D01*
X153436417Y-91162819D01*
X153448736Y-91150500D01*
X153480520Y-91118716D01*
X153559577Y-90981784D01*
X153600500Y-90829057D01*
X153600500Y-90670943D01*
X153559577Y-90518216D01*
X153552644Y-90506208D01*
X153480524Y-90381290D01*
X153480518Y-90381282D01*
X153368717Y-90269481D01*
X153368709Y-90269475D01*
X153231790Y-90190426D01*
X153231786Y-90190424D01*
X153231784Y-90190423D01*
X153079057Y-90149500D01*
X152920943Y-90149500D01*
X152768216Y-90190423D01*
X152768209Y-90190426D01*
X152631290Y-90269475D01*
X152631282Y-90269481D01*
X152513733Y-90387031D01*
X152511487Y-90384785D01*
X152467145Y-90417179D01*
X152425170Y-90424500D01*
X146686189Y-90424500D01*
X146619150Y-90404815D01*
X146598508Y-90388181D01*
X145587944Y-89377617D01*
X145554459Y-89316294D01*
X145559443Y-89246602D01*
X145601315Y-89190669D01*
X145666779Y-89166252D01*
X145707714Y-89170160D01*
X145820943Y-89200500D01*
X145820946Y-89200500D01*
X145979055Y-89200500D01*
X145979057Y-89200500D01*
X146131784Y-89159577D01*
X146268716Y-89080520D01*
X146380520Y-88968716D01*
X146421813Y-88897192D01*
X146472378Y-88848977D01*
X146540985Y-88835753D01*
X146605850Y-88861720D01*
X146646379Y-88918634D01*
X146648975Y-88927098D01*
X146690423Y-89081785D01*
X146690426Y-89081790D01*
X146769475Y-89218709D01*
X146769479Y-89218714D01*
X146769480Y-89218716D01*
X146881284Y-89330520D01*
X146881286Y-89330521D01*
X146881290Y-89330524D01*
X146962859Y-89377617D01*
X147018216Y-89409577D01*
X147170943Y-89450500D01*
X147170945Y-89450500D01*
X147329055Y-89450500D01*
X147329057Y-89450500D01*
X147481784Y-89409577D01*
X147618716Y-89330520D01*
X147730520Y-89218716D01*
X147809577Y-89081784D01*
X147850500Y-88929057D01*
X147850500Y-88770943D01*
X147809577Y-88618216D01*
X147799650Y-88601022D01*
X147730524Y-88481290D01*
X147730518Y-88481282D01*
X147618717Y-88369481D01*
X147618709Y-88369475D01*
X147481790Y-88290426D01*
X147481786Y-88290424D01*
X147481784Y-88290423D01*
X147329057Y-88249500D01*
X147170943Y-88249500D01*
X147018216Y-88290423D01*
X147018209Y-88290426D01*
X146881290Y-88369475D01*
X146881282Y-88369481D01*
X146769481Y-88481282D01*
X146769477Y-88481287D01*
X146728186Y-88552807D01*
X146677619Y-88601022D01*
X146609012Y-88614246D01*
X146544147Y-88588278D01*
X146503619Y-88531364D01*
X146501024Y-88522900D01*
X146500108Y-88519480D01*
X146459577Y-88368216D01*
X146434915Y-88325500D01*
X146380524Y-88231290D01*
X146380518Y-88231282D01*
X146268717Y-88119481D01*
X146268709Y-88119475D01*
X146131790Y-88040426D01*
X146131786Y-88040424D01*
X146131784Y-88040423D01*
X145979057Y-87999500D01*
X145820943Y-87999500D01*
X145668216Y-88040423D01*
X145668209Y-88040426D01*
X145531290Y-88119475D01*
X145531282Y-88119481D01*
X145419481Y-88231282D01*
X145419475Y-88231290D01*
X145340426Y-88368209D01*
X145340423Y-88368216D01*
X145299500Y-88520943D01*
X145299500Y-88679056D01*
X145329838Y-88792281D01*
X145328175Y-88862131D01*
X145289012Y-88919993D01*
X145224784Y-88947497D01*
X145155881Y-88935910D01*
X145122382Y-88912055D01*
X143949864Y-87739537D01*
X143949862Y-87739535D01*
X143912750Y-87718108D01*
X143875640Y-87696682D01*
X143834246Y-87685591D01*
X143792853Y-87674500D01*
X138542853Y-87674500D01*
X138457147Y-87674500D01*
X138457142Y-87674500D01*
X138456582Y-87674651D01*
X138456091Y-87674639D01*
X138449091Y-87675561D01*
X138448947Y-87674468D01*
X138386733Y-87672982D01*
X138328874Y-87633814D01*
X138301376Y-87569583D01*
X138300500Y-87554873D01*
X138300500Y-87420945D01*
X138300500Y-87420943D01*
X138259577Y-87268216D01*
X138224284Y-87207087D01*
X138207812Y-87139189D01*
X138230664Y-87073162D01*
X138269670Y-87037703D01*
X138368716Y-86980520D01*
X138480520Y-86868716D01*
X138559577Y-86731784D01*
X138600500Y-86579057D01*
X138600500Y-86420943D01*
X138559577Y-86268216D01*
X138521127Y-86201618D01*
X138480524Y-86131290D01*
X138480518Y-86131282D01*
X138368717Y-86019481D01*
X138368709Y-86019475D01*
X138231790Y-85940426D01*
X138231786Y-85940424D01*
X138231784Y-85940423D01*
X138079057Y-85899500D01*
X137920943Y-85899500D01*
X137768216Y-85940423D01*
X137768209Y-85940426D01*
X137631290Y-86019475D01*
X137631282Y-86019481D01*
X137519481Y-86131282D01*
X137519475Y-86131290D01*
X137440426Y-86268209D01*
X137440423Y-86268216D01*
X137399500Y-86420943D01*
X137399500Y-86579057D01*
X137409930Y-86617980D01*
X137440423Y-86731783D01*
X137440424Y-86731786D01*
X137475714Y-86792910D01*
X137476887Y-86797748D01*
X137480212Y-86801453D01*
X137485041Y-86831358D01*
X137492187Y-86860810D01*
X137490558Y-86865515D01*
X137491352Y-86870429D01*
X137479244Y-86898202D01*
X137469334Y-86926837D01*
X137464877Y-86931160D01*
X137463432Y-86934477D01*
X137448690Y-86946865D01*
X137437163Y-86958049D01*
X137433806Y-86960289D01*
X137331284Y-87019480D01*
X137303519Y-87047244D01*
X137293336Y-87054041D01*
X137271205Y-87060957D01*
X137250858Y-87072068D01*
X137238486Y-87071183D01*
X137226648Y-87074883D01*
X137204294Y-87068737D01*
X137181166Y-87067084D01*
X137171236Y-87059650D01*
X137159277Y-87056363D01*
X137143792Y-87039105D01*
X137125233Y-87025212D01*
X137120898Y-87013590D01*
X137112615Y-87004359D01*
X137108918Y-86981471D01*
X137100816Y-86959748D01*
X137100500Y-86950902D01*
X137100500Y-85274000D01*
X137120185Y-85206961D01*
X137172989Y-85161206D01*
X137224500Y-85150000D01*
X141379348Y-85150000D01*
X141446387Y-85169685D01*
X141486735Y-85212000D01*
X141519477Y-85268712D01*
X141519479Y-85268715D01*
X141519480Y-85268716D01*
X141631284Y-85380520D01*
X141631286Y-85380521D01*
X141631290Y-85380524D01*
X141698765Y-85419480D01*
X141768216Y-85459577D01*
X141920943Y-85500500D01*
X141920945Y-85500500D01*
X142079055Y-85500500D01*
X142079057Y-85500500D01*
X142231784Y-85459577D01*
X142368716Y-85380520D01*
X142480520Y-85268716D01*
X142513265Y-85212000D01*
X142563831Y-85163785D01*
X142620652Y-85150000D01*
X143058652Y-85150000D01*
X143059595Y-82924446D01*
X143062141Y-82915787D01*
X143060857Y-82906853D01*
X143071845Y-82882792D01*
X143079308Y-82857416D01*
X143086132Y-82851507D01*
X143089882Y-82843297D01*
X143112133Y-82828996D01*
X143132131Y-82811684D01*
X143142620Y-82809404D01*
X143148660Y-82805523D01*
X143183595Y-82800500D01*
X143235699Y-82800500D01*
X143302738Y-82820185D01*
X143323380Y-82836819D01*
X145605723Y-85119162D01*
X145637816Y-85174748D01*
X145659797Y-85256780D01*
X145659802Y-85256791D01*
X145738851Y-85393710D01*
X145738855Y-85393715D01*
X145738856Y-85393717D01*
X145850660Y-85505521D01*
X145850662Y-85505522D01*
X145850666Y-85505525D01*
X145966239Y-85572250D01*
X145987592Y-85584578D01*
X146140319Y-85625501D01*
X146140321Y-85625501D01*
X146290269Y-85625501D01*
X146357308Y-85645186D01*
X146403063Y-85697990D01*
X146413007Y-85767148D01*
X146410046Y-85781582D01*
X146399500Y-85820943D01*
X146399500Y-85979057D01*
X146440289Y-86131282D01*
X146440423Y-86131783D01*
X146440426Y-86131790D01*
X146519475Y-86268709D01*
X146519479Y-86268714D01*
X146519480Y-86268716D01*
X146631284Y-86380520D01*
X146631286Y-86380521D01*
X146631290Y-86380524D01*
X146728945Y-86436904D01*
X146768216Y-86459577D01*
X146920943Y-86500500D01*
X146920945Y-86500500D01*
X147079055Y-86500500D01*
X147079057Y-86500500D01*
X147231784Y-86459577D01*
X147368716Y-86380520D01*
X147480520Y-86268716D01*
X147559577Y-86131784D01*
X147600500Y-85979057D01*
X147600500Y-85820943D01*
X147559577Y-85668216D01*
X147511289Y-85584578D01*
X147480524Y-85531290D01*
X147480518Y-85531282D01*
X147368717Y-85419481D01*
X147368709Y-85419475D01*
X147231790Y-85340426D01*
X147231786Y-85340424D01*
X147231784Y-85340423D01*
X147079057Y-85299500D01*
X146929107Y-85299500D01*
X146862068Y-85279815D01*
X146816313Y-85227011D01*
X146806369Y-85157853D01*
X146809329Y-85143418D01*
X146819876Y-85104058D01*
X146819876Y-84945944D01*
X146778953Y-84793217D01*
X146737226Y-84720943D01*
X146699900Y-84656291D01*
X146699894Y-84656283D01*
X146588093Y-84544482D01*
X146588085Y-84544476D01*
X146451166Y-84465427D01*
X146451162Y-84465425D01*
X146451160Y-84465424D01*
X146451158Y-84465423D01*
X146451155Y-84465422D01*
X146369123Y-84443441D01*
X146313537Y-84411348D01*
X145223132Y-83320943D01*
X146099500Y-83320943D01*
X146099500Y-83479056D01*
X146140423Y-83631783D01*
X146140426Y-83631790D01*
X146219475Y-83768709D01*
X146219479Y-83768714D01*
X146219480Y-83768716D01*
X146331284Y-83880520D01*
X146331286Y-83880521D01*
X146331290Y-83880524D01*
X146468209Y-83959573D01*
X146468216Y-83959577D01*
X146620943Y-84000500D01*
X146620945Y-84000500D01*
X146779055Y-84000500D01*
X146779057Y-84000500D01*
X146931784Y-83959577D01*
X147068716Y-83880520D01*
X147180520Y-83768716D01*
X147259577Y-83631784D01*
X147300500Y-83479057D01*
X147300500Y-83320943D01*
X147259577Y-83168216D01*
X147259573Y-83168209D01*
X147180524Y-83031290D01*
X147180518Y-83031282D01*
X147068678Y-82919442D01*
X147035193Y-82858119D01*
X147040177Y-82788427D01*
X147082049Y-82732494D01*
X147094343Y-82724383D01*
X147144473Y-82695443D01*
X147256277Y-82583639D01*
X147256277Y-82583637D01*
X147266485Y-82573430D01*
X147266486Y-82573427D01*
X149593970Y-80245943D01*
X172874500Y-80245943D01*
X172874500Y-80404057D01*
X172908591Y-80531284D01*
X172915423Y-80556783D01*
X172915426Y-80556790D01*
X172994475Y-80693709D01*
X172994479Y-80693714D01*
X172994480Y-80693716D01*
X173106284Y-80805520D01*
X173106286Y-80805521D01*
X173106290Y-80805524D01*
X173233653Y-80879056D01*
X173243216Y-80884577D01*
X173395943Y-80925500D01*
X173395945Y-80925500D01*
X173554055Y-80925500D01*
X173554057Y-80925500D01*
X173706784Y-80884577D01*
X173843716Y-80805520D01*
X173955520Y-80693716D01*
X174034577Y-80556784D01*
X174075500Y-80404057D01*
X174075500Y-80245943D01*
X174034577Y-80093216D01*
X173980471Y-79999500D01*
X173955524Y-79956290D01*
X173955518Y-79956282D01*
X173843717Y-79844481D01*
X173843709Y-79844475D01*
X173706790Y-79765426D01*
X173706786Y-79765424D01*
X173706784Y-79765423D01*
X173554057Y-79724500D01*
X173395943Y-79724500D01*
X173243216Y-79765423D01*
X173243209Y-79765426D01*
X173106290Y-79844475D01*
X173106282Y-79844481D01*
X172994481Y-79956282D01*
X172994475Y-79956290D01*
X172915426Y-80093209D01*
X172915423Y-80093216D01*
X172874500Y-80245943D01*
X149593970Y-80245943D01*
X151328970Y-78510943D01*
X172809500Y-78510943D01*
X172809500Y-78669056D01*
X172850423Y-78821783D01*
X172850426Y-78821790D01*
X172929475Y-78958709D01*
X172929479Y-78958714D01*
X172929480Y-78958716D01*
X173041284Y-79070520D01*
X173041286Y-79070521D01*
X173041290Y-79070524D01*
X173178209Y-79149573D01*
X173178216Y-79149577D01*
X173330943Y-79190500D01*
X173330945Y-79190500D01*
X173489055Y-79190500D01*
X173489057Y-79190500D01*
X173641784Y-79149577D01*
X173778716Y-79070520D01*
X173890520Y-78958716D01*
X173969577Y-78821784D01*
X174010500Y-78669057D01*
X174010500Y-78510943D01*
X173969577Y-78358216D01*
X173969573Y-78358209D01*
X173890524Y-78221290D01*
X173890518Y-78221282D01*
X173778717Y-78109481D01*
X173778709Y-78109475D01*
X173641790Y-78030426D01*
X173641786Y-78030424D01*
X173641784Y-78030423D01*
X173489057Y-77989500D01*
X173330943Y-77989500D01*
X173178216Y-78030423D01*
X173178209Y-78030426D01*
X173041290Y-78109475D01*
X173041282Y-78109481D01*
X172929481Y-78221282D01*
X172929475Y-78221290D01*
X172850426Y-78358209D01*
X172850423Y-78358216D01*
X172809500Y-78510943D01*
X151328970Y-78510943D01*
X153008970Y-76830943D01*
X172939500Y-76830943D01*
X172939500Y-76989056D01*
X172980423Y-77141783D01*
X172980426Y-77141790D01*
X173059475Y-77278709D01*
X173059479Y-77278714D01*
X173059480Y-77278716D01*
X173171284Y-77390520D01*
X173171286Y-77390521D01*
X173171290Y-77390524D01*
X173308209Y-77469573D01*
X173308216Y-77469577D01*
X173460943Y-77510500D01*
X173460945Y-77510500D01*
X173619055Y-77510500D01*
X173619057Y-77510500D01*
X173771784Y-77469577D01*
X173908716Y-77390520D01*
X174020520Y-77278716D01*
X174099577Y-77141784D01*
X174140500Y-76989057D01*
X174140500Y-76830943D01*
X174099577Y-76678216D01*
X174099573Y-76678209D01*
X174020524Y-76541290D01*
X174020518Y-76541282D01*
X173908717Y-76429481D01*
X173908709Y-76429475D01*
X173771790Y-76350426D01*
X173771786Y-76350424D01*
X173771784Y-76350423D01*
X173619057Y-76309500D01*
X173460943Y-76309500D01*
X173308216Y-76350423D01*
X173308209Y-76350426D01*
X173171290Y-76429475D01*
X173171282Y-76429481D01*
X173059481Y-76541282D01*
X173059475Y-76541290D01*
X172980426Y-76678209D01*
X172980423Y-76678216D01*
X172939500Y-76830943D01*
X153008970Y-76830943D01*
X157778106Y-72061808D01*
X157839427Y-72028325D01*
X157909119Y-72033309D01*
X157965052Y-72075181D01*
X157989469Y-72140645D01*
X157974617Y-72208918D01*
X157973173Y-72211490D01*
X157940423Y-72268215D01*
X157940423Y-72268216D01*
X157899500Y-72420943D01*
X157899500Y-72579057D01*
X157904453Y-72597540D01*
X157940423Y-72731783D01*
X157940426Y-72731790D01*
X158019475Y-72868709D01*
X158019479Y-72868714D01*
X158019480Y-72868716D01*
X158131284Y-72980520D01*
X158131286Y-72980521D01*
X158131290Y-72980524D01*
X158268209Y-73059573D01*
X158268216Y-73059577D01*
X158420943Y-73100500D01*
X158420945Y-73100500D01*
X158579055Y-73100500D01*
X158579057Y-73100500D01*
X158731784Y-73059577D01*
X158868716Y-72980520D01*
X158980520Y-72868716D01*
X159059577Y-72731784D01*
X159100500Y-72579057D01*
X159100500Y-72420943D01*
X159059577Y-72268216D01*
X158985925Y-72140645D01*
X158980524Y-72131290D01*
X158980518Y-72131282D01*
X158868717Y-72019481D01*
X158868709Y-72019475D01*
X158731790Y-71940426D01*
X158731786Y-71940424D01*
X158731784Y-71940423D01*
X158579057Y-71899500D01*
X158420943Y-71899500D01*
X158268216Y-71940423D01*
X158268215Y-71940423D01*
X158211490Y-71973173D01*
X158143589Y-71989644D01*
X158077563Y-71966791D01*
X158034373Y-71911870D01*
X158027732Y-71842316D01*
X158059749Y-71780214D01*
X158061728Y-71778186D01*
X158203098Y-71636816D01*
X158264419Y-71603334D01*
X158290777Y-71600500D01*
X159829055Y-71600500D01*
X159829057Y-71600500D01*
X159981784Y-71559577D01*
X160118716Y-71480520D01*
X160230520Y-71368716D01*
X160309577Y-71231784D01*
X160350500Y-71079057D01*
X160350500Y-70920943D01*
X160309577Y-70768216D01*
X160258101Y-70679056D01*
X160230524Y-70631290D01*
X160230518Y-70631282D01*
X160120179Y-70520943D01*
X169974500Y-70520943D01*
X169974500Y-70679056D01*
X170015423Y-70831783D01*
X170015426Y-70831790D01*
X170094475Y-70968709D01*
X170094479Y-70968714D01*
X170094480Y-70968716D01*
X170206284Y-71080520D01*
X170206286Y-71080521D01*
X170206290Y-71080524D01*
X170343209Y-71159573D01*
X170343216Y-71159577D01*
X170495943Y-71200500D01*
X170495945Y-71200500D01*
X170654055Y-71200500D01*
X170654057Y-71200500D01*
X170806784Y-71159577D01*
X170943716Y-71080520D01*
X171055520Y-70968716D01*
X171134577Y-70831784D01*
X171175500Y-70679057D01*
X171175500Y-70520943D01*
X171134577Y-70368216D01*
X171119045Y-70341314D01*
X171055524Y-70231290D01*
X171055518Y-70231282D01*
X170943717Y-70119481D01*
X170943709Y-70119475D01*
X170806790Y-70040426D01*
X170806786Y-70040424D01*
X170806784Y-70040423D01*
X170654057Y-69999500D01*
X170495943Y-69999500D01*
X170343216Y-70040423D01*
X170343209Y-70040426D01*
X170206290Y-70119475D01*
X170206282Y-70119481D01*
X170094481Y-70231282D01*
X170094475Y-70231290D01*
X170015426Y-70368209D01*
X170015423Y-70368216D01*
X169974500Y-70520943D01*
X160120179Y-70520943D01*
X160118717Y-70519481D01*
X160118709Y-70519475D01*
X159981790Y-70440426D01*
X159981786Y-70440424D01*
X159981784Y-70440423D01*
X159829057Y-70399500D01*
X158069737Y-70399500D01*
X157911622Y-70399500D01*
X157758894Y-70440423D01*
X157722746Y-70461294D01*
X157722745Y-70461294D01*
X157621967Y-70519477D01*
X157621962Y-70519481D01*
X146295236Y-81846207D01*
X146270319Y-81889366D01*
X146259787Y-81907609D01*
X146252089Y-81920943D01*
X146217692Y-81980520D01*
X146216180Y-81983138D01*
X146175256Y-82135866D01*
X146175256Y-82135868D01*
X146175256Y-82293977D01*
X146175255Y-82293977D01*
X146216180Y-82446708D01*
X146226242Y-82464135D01*
X146226243Y-82464138D01*
X146295232Y-82583632D01*
X146295238Y-82583640D01*
X146407077Y-82695479D01*
X146440562Y-82756802D01*
X146435578Y-82826494D01*
X146393706Y-82882427D01*
X146381397Y-82890547D01*
X146331284Y-82919479D01*
X146219481Y-83031282D01*
X146219475Y-83031290D01*
X146140426Y-83168209D01*
X146140423Y-83168216D01*
X146099500Y-83320943D01*
X145223132Y-83320943D01*
X143801691Y-81899502D01*
X143801689Y-81899500D01*
X143744625Y-81866554D01*
X143687562Y-81833608D01*
X143623914Y-81816554D01*
X143560267Y-81799500D01*
X143560266Y-81799500D01*
X143184125Y-81799500D01*
X143117086Y-81779815D01*
X143071331Y-81727011D01*
X143060125Y-81675447D01*
X143060530Y-80720943D01*
X144699500Y-80720943D01*
X144699500Y-80879057D01*
X144723695Y-80969352D01*
X144740423Y-81031783D01*
X144740426Y-81031790D01*
X144819475Y-81168709D01*
X144819479Y-81168714D01*
X144819480Y-81168716D01*
X144931284Y-81280520D01*
X144931286Y-81280521D01*
X144931290Y-81280524D01*
X144994610Y-81317081D01*
X145068216Y-81359577D01*
X145220943Y-81400500D01*
X145220945Y-81400500D01*
X145379055Y-81400500D01*
X145379057Y-81400500D01*
X145531784Y-81359577D01*
X145668716Y-81280520D01*
X145780520Y-81168716D01*
X145859577Y-81031784D01*
X145900500Y-80879057D01*
X145900500Y-80720943D01*
X145859577Y-80568216D01*
X145852976Y-80556783D01*
X145780524Y-80431290D01*
X145780518Y-80431282D01*
X145668717Y-80319481D01*
X145668709Y-80319475D01*
X145531790Y-80240426D01*
X145531786Y-80240424D01*
X145531784Y-80240423D01*
X145379057Y-80199500D01*
X145220943Y-80199500D01*
X145068216Y-80240423D01*
X145068209Y-80240426D01*
X144931290Y-80319475D01*
X144931282Y-80319481D01*
X144819481Y-80431282D01*
X144819475Y-80431290D01*
X144740426Y-80568209D01*
X144740423Y-80568216D01*
X144699500Y-80720943D01*
X143060530Y-80720943D01*
X143060533Y-80712763D01*
X143064746Y-70768209D01*
X143066211Y-67309194D01*
X143085924Y-67242165D01*
X143138747Y-67196433D01*
X143190281Y-67185249D01*
X178002620Y-67205928D01*
G37*
%TD.AperFunction*%
%TD*%
M02*
